<svg width="150" height="150" viewBox="0 0 150 150" fill="none" xmlns="http://www.w3.org/2000/svg">
<g clip-path="url(#clip0)">
<path d="M75 150C116.421 150 150 116.421 150 75C150 33.5786 116.421 0 75 0C33.5786 0 0 33.5786 0 75C0 116.421 33.5786 150 75 150Z" fill="#396FED"/>
<path d="M118.658 52.4546L125.036 84.497C125.036 106.149 25.3394 106.149 25.3394 84.497L30.7939 52.5364C33.0424 39.4727 35.5727 33.1424 41.8787 26.1455C45.5586 22.0396 50.0619 18.7548 55.0956 16.505C60.1293 14.2553 65.5803 13.0909 71.0939 13.0879H79.2969C100.939 13.0879 114.591 28.9243 118.658 52.4546Z" fill="#262424"/>
<path d="M103.77 208.618V174.827C103.77 159.782 91.4576 147.47 76.4121 147.47H73.9636C58.9151 147.47 46.603 159.782 46.603 174.827V208.618H103.77Z" fill="#396FED"/>
<path d="M95.3178 151.818V132.585C95.3018 127.249 93.1752 122.136 89.4025 118.363C85.6297 114.589 80.5173 112.462 75.1814 112.445C69.845 112.461 64.7318 114.588 60.9583 118.362C57.1849 122.135 55.058 127.248 55.042 132.585V151.818H95.3178Z" fill="#BD0000"/>
<path d="M75.1878 125.455C72.923 125.455 70.751 124.555 69.1496 122.953C67.5481 121.352 66.6484 119.18 66.6484 116.915V108.33C66.6492 106.066 67.5493 103.895 69.1506 102.294C70.752 100.693 72.9236 99.7939 75.1878 99.7939C76.3088 99.7939 77.4189 100.015 78.4546 100.444C79.4902 100.873 80.4313 101.502 81.2239 102.294C82.0166 103.087 82.6454 104.028 83.0744 105.064C83.5034 106.099 83.7242 107.209 83.7242 108.33V116.903C83.7262 118.025 83.5068 119.137 83.0787 120.174C82.6506 121.212 82.0222 122.155 81.2293 122.949C80.4364 123.743 79.4947 124.373 78.458 124.803C77.4214 125.233 76.3101 125.455 75.1878 125.455Z" fill="#F9B0A1"/>
<path d="M75.1875 19.3062H75.1845C52.9893 19.3062 34.9966 37.2989 34.9966 59.494V67.9455C34.9966 90.1407 52.9893 108.133 75.1845 108.133H75.1875C97.3826 108.133 115.375 90.1407 115.375 67.9455V59.494C115.375 37.2989 97.3826 19.3062 75.1875 19.3062Z" fill="#F9B0A1"/>
<path d="M39.3966 79.4677C42.2238 76.6405 42.2238 72.0568 39.3966 69.2296C36.5695 66.4025 31.9857 66.4025 29.1586 69.2296C26.3314 72.0568 26.3314 76.6405 29.1586 79.4677C31.9857 82.2948 36.5695 82.2948 39.3966 79.4677Z" fill="#F9B0A1"/>
<path d="M123.206 75.7136C123.962 71.7875 121.392 67.9919 117.466 67.2358C113.54 66.4798 109.744 69.0496 108.988 72.9757C108.232 76.9018 110.802 80.6974 114.728 81.4534C118.654 82.2095 122.45 79.6396 123.206 75.7136Z" fill="#F9B0A1"/>
<path d="M49.9152 82.3002C49.9152 82.8032 49.1758 83.2093 48.2606 83.2093C47.3455 83.2093 46.603 82.8032 46.603 82.3002C46.603 81.7972 47.3455 81.3911 48.2606 81.3911C49.1758 81.3911 49.9152 81.7972 49.9152 82.3002Z" fill="#F9B0A1"/>
<path d="M55.1026 82.3002C55.1026 82.8032 54.3602 83.2093 53.4451 83.2093C52.5299 83.2093 51.7905 82.8032 51.7905 82.3002C51.7905 81.7972 52.5299 81.3911 53.4451 81.3911C54.3602 81.3911 55.1026 81.7972 55.1026 82.3002Z" fill="#F9B0A1"/>
<path d="M52.7027 84.6908C52.7027 85.1939 51.9603 85.5999 51.0452 85.5999C50.13 85.5999 49.3906 85.1939 49.3906 84.6908C49.3906 84.1878 50.133 83.7817 51.0452 83.7817C51.9573 83.7817 52.7027 84.1878 52.7027 84.6908Z" fill="#F9B0A1"/>
<path d="M57.9421 84.6908C57.9421 85.1939 57.1997 85.5999 56.2845 85.5999C55.3694 85.5999 54.627 85.1939 54.627 84.6908C54.627 84.1878 55.3694 83.7817 56.2845 83.7817C57.1997 83.7817 57.9421 84.1878 57.9421 84.6908Z" fill="#F9B0A1"/>
<path d="M60.3028 82.3002C60.3028 82.8032 59.5634 83.2093 58.6483 83.2093C57.7331 83.2093 56.9907 82.8032 56.9907 82.3002C56.9907 81.7972 57.7331 81.3911 58.6483 81.3911C59.5634 81.3911 60.3028 81.7972 60.3028 82.3002Z" fill="#F9B0A1"/>
<path d="M92.591 82.3002C92.591 82.8032 91.8486 83.2093 90.9335 83.2093C90.0183 83.2093 89.2759 82.8032 89.2759 82.3002C89.2759 81.7972 90.0183 81.3911 90.9335 81.3911C91.8486 81.3911 92.591 81.7972 92.591 82.3002Z" fill="#F9B0A1"/>
<path d="M97.7755 82.3002C97.7755 82.8032 97.0331 83.2093 96.121 83.2093C95.2088 83.2093 94.4634 82.8032 94.4634 82.3002C94.4634 81.7972 95.2058 81.3911 96.121 81.3911C97.0361 81.3911 97.7755 81.7972 97.7755 82.3002Z" fill="#F9B0A1"/>
<path d="M95.3756 84.6908C95.3756 85.1939 94.6362 85.5999 93.7211 85.5999C92.8059 85.5999 92.0635 85.1939 92.0635 84.6908C92.0635 84.1878 92.8059 83.7817 93.7211 83.7817C94.6362 83.7817 95.3756 84.1878 95.3756 84.6908Z" fill="#F9B0A1"/>
<path d="M100.606 84.6908C100.606 85.1939 99.8636 85.5999 98.9485 85.5999C98.0333 85.5999 97.2939 85.1939 97.2939 84.6908C97.2939 84.1878 98.0333 83.7817 98.9485 83.7817C99.8636 83.7817 100.606 84.1878 100.606 84.6908Z" fill="#F9B0A1"/>
<path d="M102.964 82.3002C102.964 82.8032 102.221 83.2093 101.306 83.2093C100.391 83.2093 99.6484 82.8032 99.6484 82.3002C99.6484 81.7972 100.391 81.3911 101.306 81.3911C102.221 81.3911 102.964 81.7972 102.964 82.3002Z" fill="#F9B0A1"/>
<path d="M65.7478 75.3695C70.1323 70.985 70.1323 63.8763 65.7478 59.4918C61.3633 55.1073 54.2546 55.1073 49.87 59.4918C45.4855 63.8763 45.4855 70.985 49.87 75.3695C54.2546 79.7541 61.3633 79.7541 65.7478 75.3695Z" fill="#FFFEF9"/>
<path d="M57.8089 79.7638C55.3696 79.7638 52.9851 79.0405 50.9569 77.6853C48.9287 76.3301 47.3479 74.4039 46.4144 72.1503C45.4809 69.8967 45.2367 67.4168 45.7126 65.0244C46.1885 62.632 47.3631 60.4344 49.0879 58.7095C50.8128 56.9847 53.0104 55.81 55.4028 55.3342C57.7952 54.8583 60.2751 55.1025 62.5287 56.036C64.7823 56.9695 66.7085 58.5503 68.0637 60.5785C69.4189 62.6067 70.1423 64.9912 70.1423 67.4305C70.1391 70.7005 68.8386 73.8357 66.5264 76.148C64.2141 78.4602 61.0789 79.7606 57.8089 79.7638ZM57.8089 57.3123C55.8079 57.3129 53.8519 57.9069 52.1884 59.019C50.5249 60.1312 49.2285 61.7116 48.4631 63.5605C47.6977 65.4095 47.4978 67.4438 47.8886 69.4063C48.2793 71.3689 49.2432 73.1715 50.6584 74.5862C52.0736 76.001 53.8765 76.9643 55.8391 77.3545C57.8018 77.7447 59.836 77.5441 61.6847 76.7782C63.5334 76.0123 65.1135 74.7154 66.2251 73.0516C67.3368 71.3877 67.9301 69.4316 67.9301 67.4305C67.9269 64.7475 66.8595 62.1753 64.962 60.2783C63.0645 58.3814 60.492 57.3147 57.8089 57.3123Z" fill="#262424"/>
<path d="M100.756 75.371C105.14 70.9865 105.14 63.8778 100.756 59.4932C96.3711 55.1087 89.2624 55.1087 84.8778 59.4932C80.4933 63.8778 80.4933 70.9865 84.8778 75.371C89.2624 79.7555 96.3711 79.7555 100.756 75.371Z" fill="#FFFEF9"/>
<path d="M92.8153 79.7638C90.376 79.7638 87.9914 79.0405 85.9632 77.6853C83.935 76.3301 82.3542 74.4039 81.4208 72.1503C80.4873 69.8967 80.243 67.4168 80.7189 65.0244C81.1948 62.632 82.3694 60.4344 84.0943 58.7095C85.8191 56.9847 88.0167 55.81 90.4091 55.3342C92.8016 54.8583 95.2814 55.1025 97.535 56.036C99.7886 56.9695 101.715 58.5503 103.07 60.5785C104.425 62.6067 105.149 64.9912 105.149 67.4305C105.145 70.7003 103.844 73.835 101.532 76.1471C99.2197 78.4592 96.085 79.7598 92.8153 79.7638ZM92.8153 57.3123C90.8141 57.3123 88.8578 57.9057 87.1939 59.0175C85.53 60.1293 84.2331 61.7096 83.4673 63.5584C82.7015 65.4073 82.5011 67.4417 82.8915 69.4045C83.2819 71.3672 84.2456 73.1701 85.6606 74.5851C87.0757 76.0002 88.8786 76.9639 90.8413 77.3543C92.804 77.7447 94.8385 77.5443 96.6873 76.7785C98.5362 76.0127 100.116 74.7158 101.228 73.0519C102.34 71.3879 102.933 69.4317 102.933 67.4305C102.93 64.748 101.863 62.1763 99.9664 60.2794C98.0695 58.3826 95.4978 57.3155 92.8153 57.3123Z" fill="#262424"/>
<path d="M81.5907 68.5396C81.4681 68.5384 81.3464 68.5179 81.2301 68.479C77.1634 67.085 73.2968 67.082 69.4119 68.479C69.275 68.5279 69.1298 68.5494 68.9846 68.5423C68.8394 68.5351 68.697 68.4994 68.5656 68.4372C68.4342 68.375 68.3164 68.2876 68.2187 68.1798C68.1211 68.0721 68.0457 67.9462 67.9968 67.8093C67.9478 67.6724 67.9263 67.5272 67.9335 67.382C67.9406 67.2368 67.9763 67.0944 68.0385 66.963C68.1007 66.8316 68.1882 66.7137 68.2959 66.6161C68.4037 66.5185 68.5296 66.4431 68.6665 66.3941C72.9846 64.8517 77.4543 64.8517 81.9513 66.3941C82.199 66.4795 82.4085 66.6499 82.5426 66.875C82.6767 67.1001 82.7267 67.3655 82.6839 67.6239C82.641 67.8824 82.5081 68.1174 82.3085 68.2872C82.109 68.4571 81.8557 68.5507 81.5937 68.5517L81.5907 68.5396Z" fill="#262424"/>
<path d="M58.3542 69.9635C57.9086 69.9619 57.4818 69.7842 57.1667 69.4692C56.8517 69.1541 56.674 68.7273 56.6724 68.2817V65.6999C56.6732 65.2541 56.8506 64.8268 57.1658 64.5115C57.4811 64.1963 57.9084 64.0189 58.3542 64.0181C58.8003 64.0189 59.2279 64.1962 59.5436 64.5114C59.8593 64.8265 60.0374 65.2538 60.039 65.6999V68.2817C60.0374 68.7278 59.8593 69.1551 59.5436 69.4702C59.2279 69.7854 58.8003 69.9627 58.3542 69.9635Z" fill="#262424"/>
<path d="M92.8177 64.0181H92.8146C91.8858 64.0181 91.1328 64.771 91.1328 65.6999V68.2847C91.1328 69.2136 91.8858 69.9666 92.8146 69.9666H92.8177C93.7465 69.9666 94.4995 69.2136 94.4995 68.2847V65.6999C94.4995 64.771 93.7465 64.0181 92.8177 64.0181Z" fill="#262424"/>
<path d="M118.658 52.4546V63.6364C84.603 61.1535 59.007 48.6566 41.8696 26.1455C45.5494 22.0396 50.0528 18.7548 55.0865 16.505C60.1201 14.2553 65.5712 13.0909 71.0848 13.0879H79.2878C100.939 13.0879 118.658 30.803 118.658 52.4546Z" fill="#3C3A3A"/>
<path d="M30.7847 52.5364C33.0332 39.4727 35.5635 33.1424 41.8695 26.1455C45.5493 22.0396 50.0527 18.7548 55.0864 16.505C60.12 14.2553 65.5711 13.0909 71.0847 13.0879H79.2877C100.939 13.0879 30.7847 52.5364 30.7847 52.5364Z" fill="#3C3A3A"/>
<path d="M76.4545 16.9698C76.4545 16.9698 69.2485 9.39402 79.1091 5.71826L76.4545 16.9698Z" fill="#3C3A3A"/>
<path d="M77.1484 15.7942C77.1484 15.7942 66.9393 18.0881 68.8514 7.74268L77.1484 15.7942Z" fill="#3C3A3A"/>
<path d="M61.0967 82.6367C61.1079 86.3704 62.596 89.948 65.2362 92.5881C67.8763 95.2283 71.4539 96.7164 75.1876 96.7276C78.921 96.7164 82.4983 95.2282 85.1379 92.5879C87.7776 89.9477 89.2651 86.3701 89.2755 82.6367H61.0967Z" fill="#FFFEF9"/>
<path d="M63.2455 136.964H55.103V173.085H63.2455V136.964Z" fill="#F9B0A1"/>
<path d="M95.3241 136.964H87.1816V173.085H95.3241V136.964Z" fill="#F9B0A1"/>
</g>
<defs>
<clipPath id="clip0">
<rect width="150" height="150" fill="white"/>
</clipPath>
</defs>
</svg>
