<svg width="48" height="48" viewBox="0 0 48 48" fill="none" xmlns="http://www.w3.org/2000/svg">
<g clip-path="url(#clip0)">
<path d="M48 24C48 10.7452 37.2548 0 24 0C10.7452 0 0 10.7452 0 24C0 37.2548 10.7452 48 24 48C37.2548 48 48 37.2548 48 24Z" fill="#6F6FFB"/>
<path d="M13.5 31.5C15.5711 31.5 17.25 29.8211 17.25 27.75C17.25 25.6789 15.5711 24 13.5 24C11.4289 24 9.75 25.6789 9.75 27.75C9.75 29.8211 11.4289 31.5 13.5 31.5Z" fill="#F0BD70"/>
<path d="M13.5 30.75H26.25V49.4025C26.25 49.4025 23.5177 51 19.875 51C16.2323 51 13.5 48.3923 13.5 48.3923V30.75Z" fill="#F0BD70"/>
<path d="M26.2497 40.401C26.2497 44.6415 25.5882 44.2395 21.287 44.2395C16.9857 44.2395 15.0012 40.8022 15.0012 36.5617C15.0012 32.3212 14.8377 28.5 18.3087 28.5C28.1247 28.875 26.2497 36.1605 26.2497 40.401Z" fill="#E9B05B"/>
<path d="M34.4148 27.075C34.4148 33.7665 37.1793 41.9948 25.1253 41.9948C13.0713 41.9948 13.0713 33.7665 13.0713 27.075C11.2503 19.125 11.6253 9.75 24.0003 9.75C36.3753 9.75 34.4148 20.3827 34.4148 27.075Z" fill="#FFCB7E"/>
<path d="M28.5 30.75H27.75C27.3358 30.75 27 31.0858 27 31.5C27 31.9142 27.3358 32.25 27.75 32.25H28.5C28.9142 32.25 29.25 31.9142 29.25 31.5C29.25 31.0858 28.9142 30.75 28.5 30.75Z" fill="#F0BD70"/>
<path d="M28.5 45H12C8.27208 45 5.25 48.0221 5.25 51.75V55.5C5.25 59.2279 8.27208 62.25 12 62.25H28.5C32.2279 62.25 35.25 59.2279 35.25 55.5V51.75C35.25 48.0221 32.2279 45 28.5 45Z" fill="#E05A33"/>
<path fill-rule="evenodd" clip-rule="evenodd" d="M34.4757 24.3624C35.0982 24.0111 35.5748 23.449 35.8195 22.7774C36.0643 22.1058 36.0611 21.3689 35.8107 20.6994C36.4953 20.3694 37.0292 19.7917 37.3043 19.0833C37.5795 18.3748 37.5755 17.5882 37.2932 16.8826C37.0108 16.1769 36.4711 15.6047 35.7832 15.2816C35.0952 14.9585 34.3103 14.9086 33.5869 15.1419C34.6497 17.8974 34.5717 21.3054 34.4757 24.3624Z" fill="#47280B"/>
<path fill-rule="evenodd" clip-rule="evenodd" d="M27.2228 17.07C26.5393 17.6709 25.66 18.0016 24.75 18C23.92 18.0014 23.1133 17.7261 22.4573 17.2178C21.9704 17.7044 21.3924 18.0903 20.7563 18.3532C20.1201 18.6161 19.4383 18.751 18.75 18.75C18.2303 18.7504 17.7134 18.6735 17.2163 18.522C17.0208 18.736 16.7954 18.9206 16.5473 19.0703C16.8425 19.4216 17.0532 19.836 17.1632 20.2815C17.2732 20.727 17.2795 21.1919 17.1816 21.6402C17.0837 22.0886 16.8843 22.5085 16.5987 22.8677C16.313 23.2269 15.9488 23.5157 15.534 23.712C15.6578 23.8816 15.7317 24.0824 15.7472 24.2918C15.7628 24.5012 15.7195 24.7107 15.6222 24.8968C15.5249 25.0828 15.3775 25.2379 15.1966 25.3445C15.0157 25.4511 14.8086 25.505 14.5988 25.5C14.2311 26.1398 13.6406 26.6215 12.9401 26.8533C12.2396 27.0851 11.4782 27.0506 10.8016 26.7564C10.1249 26.4622 9.58038 25.9289 9.27211 25.2586C8.96384 24.5882 8.91342 23.8277 9.1305 23.1225C8.85102 22.8443 8.62935 22.5135 8.47823 22.1492C8.32712 21.785 8.24955 21.3944 8.25 21C8.25 20.1705 8.58675 19.4198 9.1305 18.8775C8.98564 18.4038 8.96038 17.9015 9.05696 17.4155C9.15355 16.9296 9.36897 16.4752 9.684 16.0928C9.29384 15.4053 9.06389 14.6386 9.01131 13.8498C8.95872 13.0611 9.08486 12.2706 9.3803 11.5374C9.67575 10.8042 10.1329 10.1472 10.7176 9.61522C11.3024 9.08329 11.9997 8.69021 12.7575 8.46529C12.7185 7.92629 12.8259 7.38677 13.0682 6.90373C13.3105 6.4207 13.6788 6.01208 14.1341 5.72107C14.5895 5.43005 15.115 5.26743 15.6551 5.25039C16.1953 5.23336 16.73 5.36254 17.2028 5.62429C17.6635 4.82608 18.3264 4.1633 19.1246 3.70262C19.9229 3.24195 20.8284 2.99962 21.75 3.00004C22.7798 3.00004 23.7405 3.29629 24.5513 3.80929C25.1082 3.20937 25.8071 2.75929 26.5837 2.50054C27.3603 2.24179 28.1895 2.18268 28.9949 2.32868C29.8004 2.47467 30.5561 2.82107 31.1925 3.33593C31.8288 3.8508 32.3253 4.51757 32.6363 5.27479C33.033 5.32622 33.4155 5.45649 33.7612 5.65794C34.1068 5.85939 34.4087 6.12794 34.649 6.4478C34.8894 6.76766 35.0633 7.13236 35.1606 7.52044C35.2579 7.90852 35.2765 8.31213 35.2155 8.70754C36.6068 9.73804 37.5 11.334 37.5 13.125C37.5 16.2315 34.8135 18.75 31.5 18.75C29.8253 18.75 28.311 18.1065 27.2228 17.07Z" fill="#47280B"/>
<path d="M21.6963 34.5C21.6963 34.3011 21.7753 34.1103 21.916 33.9697C22.0566 33.829 22.2474 33.75 22.4463 33.75H29.3035C29.5024 33.75 29.6932 33.829 29.8339 33.9697C29.9745 34.1103 30.0535 34.3011 30.0535 34.5C30.0535 35.4946 29.6584 36.4484 28.9552 37.1517C28.2519 37.8549 27.2981 38.25 26.3035 38.25H25.4463C24.4517 38.25 23.4979 37.8549 22.7946 37.1517C22.0914 36.4484 21.6963 35.4946 21.6963 34.5Z" fill="#66253C"/>
<path fill-rule="evenodd" clip-rule="evenodd" d="M27.5667 38.0327C27.1616 38.1771 26.7346 38.2507 26.3044 38.2502H25.4472C24.4786 38.2502 23.5476 37.8754 22.8491 37.2043C22.1507 36.5333 21.7389 35.618 21.7002 34.6502C22.2732 34.4357 23.1237 34.4604 23.9629 34.4852C24.2299 34.4927 24.4954 34.5002 24.7504 34.5002C26.4079 34.5002 27.7504 35.6754 27.7504 37.1252C27.7504 37.4439 27.6852 37.7499 27.5667 38.0327Z" fill="#B03E67"/>
<path d="M22.5 33.75H30V34.5C30 34.6989 29.921 34.8897 29.7803 35.0303C29.6397 35.171 29.4489 35.25 29.25 35.25H23.25C23.0511 35.25 22.8603 35.171 22.7197 35.0303C22.579 34.8897 22.5 34.6989 22.5 34.5V33.75Z" fill="white"/>
<path d="M24.75 28.125C24.75 27.5037 24.2463 27 23.625 27C23.0037 27 22.5 27.5037 22.5 28.125V28.875C22.5 29.4963 23.0037 30 23.625 30C24.2463 30 24.75 29.4963 24.75 28.875V28.125Z" fill="#1B0B47"/>
<path d="M32.25 28.125C32.25 27.5037 31.7463 27 31.125 27C30.5037 27 30 27.5037 30 28.125V28.875C30 29.4963 30.5037 30 31.125 30C31.7463 30 32.25 29.4963 32.25 28.875V28.125Z" fill="#1B0B47"/>
<path d="M20.625 29.25H19.125C18.5037 29.25 18 29.7537 18 30.375C18 30.9963 18.5037 31.5 19.125 31.5H20.625C21.2463 31.5 21.75 30.9963 21.75 30.375C21.75 29.7537 21.2463 29.25 20.625 29.25Z" fill="#FF859B"/>
<path d="M34.125 29.25H33.375C32.7537 29.25 32.25 29.7537 32.25 30.375C32.25 30.9963 32.7537 31.5 33.375 31.5H34.125C34.7463 31.5 35.25 30.9963 35.25 30.375C35.25 29.7537 34.7463 29.25 34.125 29.25Z" fill="#FF859B"/>
</g>
<defs>
<clipPath id="clip0">
<rect width="48" height="48" rx="24" fill="white"/>
</clipPath>
</defs>
</svg>
