<svg width="150" height="150" viewBox="0 0 150 150" fill="none" xmlns="http://www.w3.org/2000/svg">
<g clip-path="url(#clip0_1034:2969)">
<path d="M75 150C116.421 150 150 116.421 150 75C150 33.5786 116.421 0 75 0C33.5786 0 0 33.5786 0 75C0 116.421 33.5786 150 75 150Z" fill="#7CE6E6"/>
<path d="M82.1489 117.636H66.7822V145.879H82.1489V117.636Z" fill="#944732"/>
<path d="M68.2515 133.397H80.5302C82.7299 133.397 84.8395 134.271 86.3949 135.826C87.9504 137.382 88.8242 139.491 88.8242 141.691V160.509H59.9575V141.691C59.9575 139.491 60.8313 137.382 62.3868 135.826C63.9422 134.271 66.0518 133.397 68.2515 133.397Z" fill="#FF7E25"/>
<path d="M101.711 83.3873C116.872 68.2266 116.872 43.6464 101.711 28.4858C86.5505 13.3252 61.9702 13.3252 46.8096 28.4858C31.649 43.6464 31.649 68.2266 46.8096 83.3873C61.9702 98.5479 86.5505 98.5479 101.711 83.3873Z" fill="#262424"/>
<path d="M44.3244 72.5981C46.1557 69.3481 45.0056 65.2289 41.7556 63.3976C38.5056 61.5663 34.3864 62.7164 32.5551 65.9664C30.7238 69.2164 31.8739 73.3356 35.1239 75.1669C38.3739 76.9982 42.4931 75.8481 44.3244 72.5981Z" fill="#262424"/>
<path d="M36.6306 62.522C40.3471 62.1994 43.0984 58.9252 42.7759 55.2087C42.4534 51.4922 39.1791 48.7409 35.4627 49.0635C31.7462 49.386 28.9949 52.6602 29.3174 56.3767C29.6399 60.0932 32.9142 62.8445 36.6306 62.522Z" fill="#262424"/>
<path d="M43.1641 47.755C45.9957 45.3263 46.3223 41.0621 43.8937 38.2305C41.465 35.3989 37.2008 35.0723 34.3692 37.501C31.5376 39.9296 31.211 44.1939 33.6397 47.0254C36.0683 49.857 40.3326 50.1836 43.1641 47.755Z" fill="#262424"/>
<path d="M45.5002 37.9119C49.2306 37.9119 52.2547 34.8878 52.2547 31.1574C52.2547 27.4269 49.2306 24.4028 45.5002 24.4028C41.7697 24.4028 38.7456 27.4269 38.7456 31.1574C38.7456 34.8878 41.7697 37.9119 45.5002 37.9119Z" fill="#262424"/>
<path d="M60.7096 26.66C63.1214 23.8141 62.7695 19.5519 59.9236 17.1401C57.0776 14.7283 52.8154 15.0802 50.4036 17.9261C47.9918 20.772 48.3437 25.0343 51.1896 27.4461C54.0355 29.8579 58.2978 29.506 60.7096 26.66Z" fill="#262424"/>
<path d="M75.0033 17.0422C75.0784 18.3757 74.7565 19.7016 74.0782 20.8522C73.3999 22.0028 72.3957 22.9265 71.1926 23.5065C69.9895 24.0865 68.6414 24.2968 67.3188 24.1108C65.9961 23.9247 64.7584 23.3508 63.7619 22.4614C62.7654 21.5721 62.0549 20.4073 61.7203 19.1142C61.3857 17.8212 61.4419 16.458 61.8819 15.1969C62.3219 13.9358 63.1259 12.8335 64.1923 12.0292C65.2587 11.225 66.5395 10.755 67.873 10.6785C68.7591 10.6278 69.6465 10.7521 70.4846 11.0445C71.3226 11.3369 72.0948 11.7916 72.757 12.3826C73.4192 12.9736 73.9584 13.6893 74.3439 14.4888C74.7293 15.2884 74.9534 16.156 75.0033 17.0422Z" fill="#262424"/>
<path d="M88.5571 17.87C88.6431 14.1405 85.6894 11.0475 81.96 10.9616C78.2305 10.8757 75.1375 13.8293 75.0516 17.5588C74.9657 21.2882 77.9193 24.3812 81.6488 24.4671C85.3782 24.5531 88.4712 21.5994 88.5571 17.87Z" fill="#262424"/>
<path d="M100.171 26.3537C102.198 23.2219 101.302 19.0401 98.1705 17.0132C95.0388 14.9864 90.8569 15.8822 88.83 19.014C86.8032 22.1457 87.699 26.3276 90.8308 28.3545C93.9626 30.3813 98.1444 29.4855 100.171 26.3537Z" fill="#262424"/>
<path d="M111.343 33.4608C112.57 29.9379 110.709 26.0875 107.186 24.8607C103.663 23.6338 99.8124 25.4952 98.5856 29.0181C97.3588 32.5411 99.2202 36.3915 102.743 37.6183C106.266 38.8451 110.116 36.9838 111.343 33.4608Z" fill="#262424"/>
<path d="M117.34 46.6792C119.484 43.6264 118.747 39.4136 115.694 37.2697C112.642 35.1257 108.429 35.8625 106.285 38.9153C104.141 41.9681 104.878 46.1809 107.93 48.3248C110.983 50.4688 115.196 49.732 117.34 46.6792Z" fill="#262424"/>
<path d="M114.645 62.9212C118.374 62.8053 121.302 59.6887 121.187 55.9601C121.071 52.2315 117.954 49.3027 114.225 49.4186C110.497 49.5345 107.568 52.6511 107.684 56.3797C107.8 60.1083 110.916 63.037 114.645 62.9212Z" fill="#262424"/>
<path d="M117.173 68.8029C117.248 70.1363 116.926 71.462 116.248 72.6125C115.57 73.763 114.566 74.6867 113.363 75.2667C112.16 75.8468 110.812 76.0572 109.489 75.8715C108.167 75.6857 106.929 75.112 105.932 74.223C104.936 73.3339 104.225 72.1694 103.89 70.8766C103.555 69.5837 103.611 68.2206 104.051 66.9595C104.49 65.6984 105.294 64.5959 106.36 63.7914C107.426 62.9868 108.706 62.5163 110.039 62.4393C110.926 62.3885 111.813 62.5128 112.652 62.8052C113.49 63.0976 114.262 63.5522 114.925 64.1432C115.587 64.7341 116.127 65.4498 116.512 66.2494C116.898 67.0489 117.122 67.9166 117.173 68.8029Z" fill="#262424"/>
<path d="M40.0548 86.0687C45.1296 85.2449 48.5758 80.4632 47.752 75.3883C46.9283 70.3135 42.1465 66.8673 37.0716 67.6911C31.9968 68.5148 28.5506 73.2966 29.3744 78.3714C30.1981 83.4463 34.9799 86.8925 40.0548 86.0687Z" fill="#944732"/>
<path d="M116.484 83.4634C120.119 79.828 120.119 73.9338 116.484 70.2983C112.848 66.6629 106.954 66.6629 103.319 70.2983C99.6834 73.9338 99.6834 79.828 103.319 83.4634C106.954 87.0988 112.848 87.0988 116.484 83.4634Z" fill="#944732"/>
<path d="M75.4006 34.606H72.8066C53.9804 34.606 38.7188 49.8676 38.7188 68.6938V90.1756C38.7188 109.002 53.9804 124.263 72.8066 124.263H75.4006C94.2268 124.263 109.488 109.002 109.488 90.1756V68.6938C109.488 49.8676 94.2268 34.606 75.4006 34.606Z" fill="#944732"/>
<path d="M82.1482 133.395L74.4644 125.711L66.7805 133.395L74.4644 141.079L82.1482 133.395Z" fill="#944732"/>
<path d="M74.1033 46.4907C84.585 46.4907 93.0821 43.0772 93.0821 38.8664C93.0821 34.6557 84.585 31.2422 74.1033 31.2422C63.6216 31.2422 55.1245 34.6557 55.1245 38.8664C55.1245 43.0772 63.6216 46.4907 74.1033 46.4907Z" fill="#262424"/>
<path d="M60.8424 73.3693C60.843 74.1421 60.6144 74.8978 60.1854 75.5406C59.7564 76.1834 59.1464 76.6845 58.4325 76.9805C57.7187 77.2765 56.933 77.3541 56.175 77.2035C55.4171 77.0529 54.7208 76.6808 54.1743 76.1344C53.6279 75.5879 53.2558 74.8916 53.1052 74.1337C52.9546 73.3757 53.0322 72.59 53.3282 71.8762C53.6242 71.1623 54.1253 70.5523 54.7681 70.1233C55.4109 69.6944 56.1666 69.4657 56.9394 69.4663C57.9745 69.4663 58.9673 69.8775 59.6992 70.6095C60.4312 71.3414 60.8424 72.3342 60.8424 73.3693Z" fill="#262424"/>
<path d="M94.2853 73.3693C94.2859 74.142 94.0573 74.8975 93.6284 75.5403C93.1996 76.183 92.5898 76.6841 91.8761 76.9802C91.1624 77.2763 90.3769 77.3541 89.619 77.2037C88.8611 77.0534 88.1649 76.6816 87.6183 76.1354C87.0717 75.5893 86.6994 74.8933 86.5484 74.1355C86.3975 73.3777 86.4746 72.5922 86.7702 71.8783C87.0657 71.1644 87.5664 70.5541 88.2088 70.1248C88.8512 69.6955 89.6065 69.4663 90.3792 69.4663C90.892 69.4659 91.3999 69.5666 91.8738 69.7625C92.3476 69.9585 92.7783 70.2459 93.141 70.6084C93.5038 70.9709 93.7915 71.4013 93.9879 71.875C94.1842 72.3487 94.2853 72.8565 94.2853 73.3693Z" fill="#262424"/>
<path d="M60.1304 86.1909C69.6031 103.161 78.9183 103.752 88.0728 86.1909H60.1304Z" fill="#FFFEF9"/>
<path d="M55.9214 178.042H48.5396V153.603C48.5396 141.809 55.9153 133.573 66.479 133.573V140.955C59.185 140.955 55.9214 147.318 55.9214 153.603V178.042Z" fill="#FF7E25"/>
<path d="M100.552 178.042H93.1699V153.603C93.1699 147.309 89.9062 140.955 82.6123 140.955V133.573C93.1759 133.573 100.552 141.809 100.552 153.603V178.042Z" fill="#FF7E25"/>
</g>
<defs>
<clipPath id="clip0_1034:2969">
<rect width="150" height="150" fill="white"/>
</clipPath>
</defs>
</svg>
