<svg width="244" height="244" viewBox="0 0 244 244" fill="none" xmlns="http://www.w3.org/2000/svg">
<mask id="mask0" style="mask-type:alpha" maskUnits="userSpaceOnUse" x="0" y="0" width="244" height="244">
<path d="M244 122C244 189.379 189.379 244 122 244C54.6213 244 0 189.379 0 122C0 54.6213 54.6213 0 122 0C189.379 0 244 54.6213 244 122Z" fill="#C4C4C4"/>
</mask>
<g mask="url(#mask0)">
<rect x="-19" width="281" height="281" fill="#7BABF7"/>
<path d="M99 199L36 224.07L96.5133 281H145.264L207 224.07L145 199H99Z" fill="#00E576"/>
<path d="M93 176H151V207C151 223.016 138.016 236 122 236C105.984 236 93 223.016 93 207V176Z" fill="#795547"/>
<path d="M59.1177 125.799C58.2553 146.339 70.9108 154.016 76.8463 155.287L72.1255 110C64.663 113.34 59.4293 118.377 59.1177 125.799Z" fill="#795545"/>
<path d="M186.003 128.438C185.823 148.995 171.794 156.072 165.801 157.041L173.812 112C181.096 115.714 186.068 121.01 186.003 128.438Z" fill="#795545"/>
<path d="M118.5 188C82.5 189.6 71 153 70 127L82 67L167.5 72L174 125C171.6 167.4 147.833 184.667 136 188H118.5Z" fill="#8C6E62"/>
<path d="M144.5 185.5C132.971 204.908 102 195.5 99 185C100.667 185.834 105.7 186.7 112.5 183.5C119.3 180.3 128.333 182.167 132 183.5C135 184.834 141.7 187.1 144.5 185.5Z" fill="black"/>
<path d="M88.5 77.5004L70 127V38.0004C109.27 25.4947 131.86 23.8279 174 38.0004V125L155.5 77.5004H88.5Z" fill="black"/>
<path d="M146 163C135.049 138.476 101.738 148.094 99 163C104.78 162.679 117.526 161.077 122.272 157.23C127.017 160.692 140.068 162.519 146 163Z" fill="black"/>
<circle cx="101.5" cy="123.5" r="4.5" fill="black"/>
<circle cx="143.5" cy="123.5" r="4.5" fill="black"/>
<path d="M133.345 111.464C140.803 108.571 149.336 111.76 153.092 113.949C153.338 114.092 153.627 114.145 153.906 114.087C154.77 113.91 155.084 112.85 154.413 112.276C146.481 105.499 137.302 107.379 132.463 109.768C131.8 110.095 131.797 110.999 132.425 111.388C132.701 111.558 133.043 111.581 133.345 111.464Z" fill="black"/>
<path d="M90.8211 113.238C97.153 109.151 105.592 110.627 109.468 112.027C109.732 112.122 110.021 112.119 110.278 112.009C111.046 111.681 111.149 110.644 110.429 110.222C101.82 105.167 93.6712 108.649 89.6514 111.811C89.1014 112.244 89.2638 113.082 89.9153 113.337C90.2141 113.455 90.5514 113.412 90.8211 113.238Z" fill="black"/>
<path d="M116.488 142.881L115.406 141.981C114.597 141.308 115.078 140 116.135 140H128.866C129.955 140 130.416 141.375 129.543 142.021L128.13 143.066C127.397 143.608 126.59 144.045 125.733 144.362L125.551 144.429C123.492 145.19 121.225 145.19 119.166 144.429C118.191 144.068 117.285 143.545 116.488 142.881Z" fill="#795547"/>
<path d="M131.389 163.619C124.688 165.811 115.749 164.812 110.858 163.771C110.106 163.61 109.355 164.077 109.192 164.828C109.076 165.365 109.295 165.923 109.756 166.221C118.784 172.049 127.715 170.347 133.102 166.418C133.656 166.014 133.845 165.287 133.612 164.642C133.292 163.753 132.287 163.325 131.389 163.619Z" fill="#795547"/>
</g>
</svg>
