<svg width="244" height="244" viewBox="0 0 244 244" fill="none" xmlns="http://www.w3.org/2000/svg">
<mask id="mask0" style="mask-type:alpha" maskUnits="userSpaceOnUse" x="0" y="0" width="244" height="244">
<path d="M244 122C244 189.379 189.379 244 122 244C54.6213 244 0 189.379 0 122C0 54.6213 54.6213 0 122 0C189.379 0 244 54.6213 244 122Z" fill="#C4C4C4"/>
</mask>
<g mask="url(#mask0)">
<rect x="-19" width="281" height="281" fill="#4DD0E2"/>
<rect x="98" y="179" width="46" height="73" fill="#FED69B"/>
<path d="M197 188H45C46.505 173.36 59.5479 85.5189 80.6172 59.7725C94.6634 41.5985 126.267 33.0164 153.356 50.6855C180.912 68.6592 190.98 150.642 197 188Z" fill="#F26529"/>
<path d="M67.2853 133.602C66.5974 149.986 75.8947 156.11 80.6294 157.124L77.6613 121C71.7086 123.664 67.5338 127.682 67.2853 133.602Z" fill="#FFB64D"/>
<path d="M175.72 135.073C175.659 151.471 166.092 157.165 161.316 157.962L166.274 122C172.099 124.933 175.742 129.148 175.72 135.073Z" fill="#FFB64D"/>
<circle cx="167.5" cy="169.5" r="14" stroke="#EC0900" stroke-width="3"/>
<circle cx="76.5" cy="169.5" r="14" stroke="#EC0900" stroke-width="3"/>
<path d="M163.473 69.2585L166.955 119.424C166.955 119.424 168.709 158.485 150.417 181.245C143.839 189.431 135.368 197.297 122.13 197.967C110.914 198.535 102.165 191.682 95.5834 184.792C79.4814 166.55 79.3673 150.841 77.7407 136.146C76.1141 121.451 76 111.824 76 111.824L81.2222 72.2989L122.348 53L163.473 69.2585Z" fill="#FFE0B2"/>
<path d="M91.5 88.5C85.1885 122.321 73.2873 124.165 70 123.997L71.9724 89.7734L76.5015 73.668L86.2719 62.5955L124.24 48L161.714 62.5955L177 97.3229L170.5 112.5C126 112.5 99.7181 97.2238 91.5 88.5Z" fill="#F3661D"/>
<circle cx="100" cy="130" r="4" fill="black"/>
<circle cx="143.5" cy="130" r="4" fill="black"/>
<path d="M116.045 153.218L114.964 152.318C114.155 151.645 114.635 150.337 115.692 150.337H128.423C129.513 150.337 129.973 151.713 129.101 152.358L127.688 153.403C126.955 153.946 126.148 154.382 125.29 154.699L125.109 154.766C123.05 155.528 120.783 155.528 118.724 154.766C117.748 154.405 116.843 153.882 116.045 153.218Z" fill="#FFB64D"/>
<path d="M131.946 166.956C125.246 169.148 116.306 168.15 111.416 167.108C110.664 166.948 109.913 167.414 109.75 168.166C109.633 168.703 109.852 169.261 110.314 169.559C119.341 175.387 128.272 173.684 133.66 169.755C134.214 169.351 134.403 168.624 134.17 167.979C133.849 167.091 132.845 166.662 131.946 166.956Z" fill="#FFB64D"/>
<path d="M108.646 118.3C102.975 117.206 95.3934 118.574 91.5255 119.6C91.084 119.718 90.6222 119.484 90.4652 119.055C90.3274 118.678 90.4658 118.254 90.8061 118.042C97.6891 113.747 104.897 114.2 109.425 116.307C109.905 116.531 110.113 117.089 109.935 117.587C109.748 118.112 109.193 118.406 108.646 118.3Z" fill="black"/>
<path d="M133.744 118.3C139.415 117.206 146.996 118.574 150.864 119.6C151.306 119.718 151.767 119.484 151.924 119.055C152.062 118.678 151.924 118.254 151.584 118.042C144.701 113.747 137.493 114.2 132.965 116.307C132.485 116.531 132.277 117.089 132.455 117.587C132.642 118.112 133.197 118.406 133.744 118.3Z" fill="black"/>
<path d="M98 204L38 227.174L94.2827 280H144.459L208 227.174L144 204L120 245L98 204Z" fill="#FD9704"/>
</g>
</svg>
