<svg width="244" height="244" viewBox="0 0 244 244" fill="none" xmlns="http://www.w3.org/2000/svg">
<mask id="mask0" style="mask-type:alpha" maskUnits="userSpaceOnUse" x="0" y="0" width="244" height="244">
<path d="M244 122C244 189.379 189.379 244 122 244C54.6213 244 0 189.379 0 122C0 54.6213 54.6213 0 122 0C189.379 0 244 54.6213 244 122Z" fill="#C4C4C4"/>
</mask>
<g mask="url(#mask0)">
<rect x="-18" width="281" height="281" fill="#A4ECC7"/>
<rect x="99" y="177" width="49" height="55" fill="#F8BB46"/>
<path d="M148 205C127.747 232.958 106.894 216.649 99 205L108.953 240.006L122.295 281L137.039 240.467L148 205Z" fill="#EEEEEE"/>
<path d="M62.4436 141.176C57.3878 123.984 66.8188 115.229 72.1663 113L78 152C70.2573 150.628 64.2705 147.388 62.4436 141.176Z" fill="#F8BB46"/>
<path d="M186.556 143.176C191.612 125.984 182.181 117.229 176.834 115L171 154C178.743 152.628 184.729 149.388 186.556 143.176Z" fill="#F8BB46"/>
<path d="M60.2188 131.63C60.2188 120.569 68.5915 111.303 79.5963 110.186L82.8259 156.427L81.2922 156.294C69.3692 155.256 60.2188 145.275 60.2188 133.306V131.63Z" fill="#F8BB46"/>
<path d="M188.668 131.63C188.668 120.569 180.295 111.303 169.29 110.186L166.061 156.427L167.594 156.294C179.517 155.256 188.668 145.275 188.668 133.306V131.63Z" fill="#F8BB46"/>
<path d="M174.206 64.6558L178.348 115.446C178.348 115.446 180.436 154.993 158.675 178.036C150.849 186.324 140.772 194.288 125.023 194.967C111.68 195.541 101.272 188.603 93.4425 181.628C74.287 163.158 74.1512 147.254 72.2161 132.376C70.2811 117.498 70.1454 107.751 70.1454 107.751L76.3579 67.734L151.427 39.0041L174.206 64.6558Z" fill="#FFCC80"/>
<path d="M98.8655 204L46 227.541L102.481 281H141.539L200 227.541L147.737 204L122.01 276.096L98.8655 204Z" fill="#2F4FFF"/>
<circle cx="100" cy="125" r="4" fill="black"/>
<circle cx="145" cy="125" r="4" fill="black"/>
<path d="M134.861 112.256C141.803 108.417 150.359 111.101 154.276 113.177C154.575 113.335 154.923 113.369 155.243 113.261C156.078 112.977 156.308 111.908 155.626 111.348C147.051 104.304 138.113 107.388 133.624 110.566C133.015 110.997 133.102 111.89 133.749 112.26C134.093 112.457 134.515 112.447 134.861 112.256Z" fill="black"/>
<path d="M111.06 112.7C104.654 108.865 96.4528 110.931 92.6844 112.645C92.4084 112.77 92.0956 112.785 91.8123 112.677C91.0366 112.382 90.8708 111.363 91.5457 110.88C99.8684 104.921 108.131 108.103 112.239 111.185C112.799 111.605 112.68 112.443 112.052 112.751C111.736 112.907 111.362 112.881 111.06 112.7Z" fill="black"/>
<path d="M119.431 116.694L113.842 131.741C113.114 133.7 111.244 135 109.155 135H90.3773C88.0705 135 86.0631 133.422 85.5186 131.18L82 116.694H119.431ZM119.431 116.694L120.619 114.031C121.169 112.796 122.395 112 123.747 112V112C125.099 112 126.325 112.796 126.875 114.031L128.063 116.694M128.063 116.694L133.652 131.741C134.38 133.7 136.25 135 138.34 135H156.623C158.929 135 160.937 133.422 161.481 131.18L165 116.694H128.063Z" stroke="black" stroke-width="2.5"/>
<path d="M118.304 148.885L116.401 146.648C115.849 145.998 116.311 145 117.163 145H129.659C130.54 145 130.99 146.055 130.382 146.691L128.133 149.042C127.623 149.575 127.03 150.02 126.377 150.362L126.245 150.431C124.364 151.414 122.121 151.414 120.24 150.431C119.501 150.045 118.844 149.52 118.304 148.885Z" fill="#FE9902"/>
<path d="M79.982 77.3222C79.183 85.5046 75.5831 103.494 70.1454 114.966C66.831 99.55 66.8311 88.9709 70.1454 77.3222C67.0315 75.7427 65.9277 74.6694 66.0036 72.1515C72.734 38.0251 159.193 14.7568 163.852 48.3666L164.026 49.6225C164.362 50.4167 164.787 50.4312 164.882 50.4344L164.888 50.4346C184.768 55.3984 182.145 94.2131 178.348 113C168.709 96.6226 162.767 86.9869 159.5 64C149.5 75.5 111 87.5 79.982 77.3222Z" fill="black"/>
<path d="M135.347 165.538C127.711 167.866 117.347 166.797 111.857 165.727C111.127 165.585 110.408 166.033 110.233 166.756C110.094 167.328 110.339 167.929 110.849 168.223C120.934 174.035 130.91 172.355 136.949 168.448C137.583 168.037 137.803 167.227 137.519 166.526C137.177 165.68 136.219 165.272 135.347 165.538Z" fill="#FE9902"/>
</g>
</svg>
