<svg width="150" height="150" viewBox="0 0 150 150" fill="none" xmlns="http://www.w3.org/2000/svg">
<g clip-path="url(#clip0_1034:3149)">
<path d="M75.3614 150.723C116.982 150.723 150.723 116.982 150.723 75.3614C150.723 33.7405 116.982 0 75.3614 0C33.7405 0 0 33.7405 0 75.3614C0 116.982 33.7405 150.723 75.3614 150.723Z" fill="#7CE6E6"/>
<path d="M115.404 138.244C124.779 128.869 124.779 113.67 115.404 104.295C106.03 94.9197 90.8298 94.9197 81.4548 104.295C72.0799 113.67 72.0799 128.869 81.4548 138.244C90.8298 147.619 106.03 147.619 115.404 138.244Z" fill="#262424"/>
<path d="M75.3618 125.426C51.2766 125.426 31.6826 105.832 31.6826 81.7466V61.5771C31.6826 37.4919 51.2766 17.8979 75.3618 17.8979C99.447 17.8979 119.056 37.4919 119.056 61.5771V81.7466C119.056 105.832 99.447 125.426 75.3618 125.426Z" fill="#262424"/>
<path d="M75.3646 21.1924H75.3615C53.0594 21.1924 34.98 39.2718 34.98 61.5739V81.7464C34.98 104.049 53.0594 122.128 75.3615 122.128H75.3646C97.6667 122.128 115.746 104.049 115.746 81.7464V61.5739C115.746 39.2718 97.6667 21.1924 75.3646 21.1924Z" fill="#F9C4A1"/>
<path d="M119.056 70.5323V62.3933C119.056 37.221 98.1408 16.6161 73.002 17.965C50.0099 19.183 31.6826 38.2867 31.6826 61.5803V71.0925C31.6826 71.1656 65.612 92.3704 84.3595 52.2537C92.0327 64.951 103.734 70.7058 118.864 70.5566C118.931 70.6419 119.056 70.6419 119.056 70.5323Z" fill="#262424"/>
<path d="M34.9802 68.5833C34.3712 63.5561 35.2269 58.3037 37.203 53.4775C39.2553 48.6098 42.341 44.2462 46.2464 40.6889C54.0414 33.4907 64.7259 29.5902 75.3618 29.5811C85.9977 29.5719 96.6761 33.4816 104.483 40.6828C108.389 44.2401 111.474 48.6037 113.527 53.4714C115.5 58.3006 116.361 63.5561 115.743 68.5833C115.189 63.6688 113.612 58.9247 111.115 54.6559C108.685 50.5247 105.489 46.8944 101.7 43.9591C94.2067 38.0977 84.7827 35.0832 75.3679 35.0497C65.95 35.0741 56.526 38.0946 49.0325 43.953C45.2341 46.8867 42.0304 50.5183 39.5933 54.6528C37.1028 58.9247 35.5317 63.6694 34.9802 68.5833Z" fill="#FF7E25"/>
<path d="M42.2501 89.3254C42.879 83.6205 38.764 78.4859 33.059 77.8571C27.3541 77.2283 22.2196 81.3433 21.5907 87.0482C20.9619 92.7532 25.0769 97.8877 30.7819 98.5165C36.4868 99.1453 41.6213 95.0303 42.2501 89.3254Z" fill="#F9C4A1"/>
<path d="M128.913 90.5848C130.241 85.0011 126.791 79.3979 121.207 78.0697C115.624 76.7416 110.021 80.1914 108.692 85.7751C107.364 91.3588 110.814 96.9619 116.398 98.2901C121.981 99.6183 127.585 96.1685 128.913 90.5848Z" fill="#F9C4A1"/>
<path d="M61.0264 96.0239C61.0264 99.8259 62.5367 103.472 65.2251 106.161C67.9135 108.849 71.5598 110.359 75.3618 110.359C79.1638 110.359 82.8101 108.849 85.4985 106.161C88.1869 103.472 89.6972 99.8259 89.6972 96.0239H61.0264Z" fill="#FFFEF9"/>
<path d="M92.2971 180.977C91.2037 180.977 90.155 180.543 89.3819 179.769C88.6087 178.996 88.1743 177.948 88.1743 176.854V133.894C88.2035 132.82 88.6505 131.8 89.4202 131.051C90.1899 130.302 91.2216 129.883 92.2956 129.883C93.3696 129.883 94.4013 130.302 95.171 131.051C95.9407 131.8 96.3877 132.82 96.4169 133.894V176.854C96.4169 177.947 95.9829 178.995 95.2104 179.768C94.4379 180.541 93.39 180.976 92.2971 180.977Z" fill="#F9C4A1"/>
<path d="M57.7589 180.977C56.666 180.976 55.6181 180.541 54.8456 179.768C54.0731 178.995 53.6392 177.947 53.6392 176.854V133.894C53.6683 132.82 54.1154 131.8 54.8851 131.051C55.6548 130.302 56.6864 129.883 57.7604 129.883C58.8345 129.883 59.8661 130.302 60.6358 131.051C61.4055 131.8 61.8525 132.82 61.8817 133.894V176.854C61.8817 177.948 61.4474 178.996 60.6742 179.769C59.901 180.543 58.8524 180.977 57.7589 180.977Z" fill="#F9C4A1"/>
<path d="M63.9433 129.013H86.7801C88.0245 129.013 89.218 129.507 90.098 130.387C90.9779 131.267 91.4723 132.46 91.4723 133.705V159.282H59.248V133.705C59.248 133.088 59.3695 132.478 59.6055 131.909C59.8415 131.339 60.1874 130.822 60.6234 130.386C61.0595 129.95 61.5771 129.605 62.1467 129.369C62.7164 129.133 63.3268 129.012 63.9433 129.013Z" fill="#FF7E25"/>
<path d="M68.5103 118.377H82.2123V131.406C82.2123 133.224 81.4909 134.968 80.2064 136.255C78.922 137.542 77.1794 138.266 75.3613 138.269C73.5432 138.266 71.8006 137.542 70.5161 136.255C69.2317 134.968 68.5103 133.224 68.5103 131.406V118.377Z" fill="#F9C4A1"/>
<path d="M54.306 90.7383C53.5379 90.7359 52.802 90.4297 52.2589 89.8866C51.7158 89.3435 51.4096 88.6076 51.4072 87.8396V84.1613C51.4104 83.3938 51.717 82.6587 52.26 82.1162C52.803 81.5738 53.5384 81.268 54.306 81.2656C55.0732 81.268 55.8084 81.5739 56.3509 82.1164C56.8934 82.6589 57.1993 83.3941 57.2017 84.1613V87.8396C57.2001 88.6074 56.8946 89.3433 56.352 89.8865C55.8093 90.4296 55.0738 90.7359 54.306 90.7383Z" fill="#262424"/>
<path d="M96.4235 90.7383C95.6558 90.7359 94.9202 90.4296 94.3775 89.8865C93.8349 89.3433 93.5294 88.6074 93.5278 87.8396V84.1613C93.5302 83.3941 93.8361 82.6589 94.3786 82.1164C94.9212 81.5739 95.6563 81.268 96.4235 81.2656C97.1911 81.268 97.9265 81.5738 98.4695 82.1162C99.0125 82.6587 99.3191 83.3938 99.3223 84.1613V87.8396C99.3199 88.6076 99.0137 89.3435 98.4706 89.8866C97.9275 90.4297 97.1916 90.7359 96.4235 90.7383Z" fill="#262424"/>
</g>
<defs>
<clipPath id="clip0_1034:3149">
<rect width="150" height="150" fill="white"/>
</clipPath>
</defs>
</svg>
