<svg width="150" height="150" viewBox="0 0 150 150" fill="none" xmlns="http://www.w3.org/2000/svg">
<g clip-path="url(#clip0_1034:2942)">
<path d="M75 150C116.421 150 150 116.421 150 75C150 33.5786 116.421 0 75 0C33.5786 0 0 33.5786 0 75C0 116.421 33.5786 150 75 150Z" fill="#FF9F00"/>
<path d="M42.2404 86.0963C42.6361 82.1178 39.7316 78.5717 35.7531 78.176C31.7745 77.7803 28.2284 80.6848 27.8327 84.6633C27.437 88.6419 30.3415 92.188 34.3201 92.5837C38.2986 92.9794 41.8447 90.0749 42.2404 86.0963Z" fill="#F9B0A1"/>
<path d="M121.975 90.5018C124.802 87.6747 124.802 83.0909 121.975 80.2638C119.148 77.4366 114.564 77.4366 111.737 80.2638C108.91 83.0909 108.91 87.6747 111.737 90.5018C114.564 93.329 119.148 93.329 121.975 90.5018Z" fill="#F9B0A1"/>
<path d="M75.9487 146.93C51.979 146.93 32.479 127.43 32.479 103.463V58.9179C32.479 34.9513 51.979 15.4482 75.9487 15.4482C99.9184 15.4482 119.418 34.9513 119.418 58.9179V103.463C119.418 127.43 99.9184 146.93 75.9487 146.93Z" fill="#7E341F"/>
<path d="M44.4452 171.785L38.0513 167.449L61.9998 132.121C62.5751 131.274 63.4633 130.69 64.469 130.498C65.4747 130.305 66.5157 130.52 67.3634 131.094C67.7834 131.378 68.1432 131.743 68.4223 132.166C68.7014 132.59 68.8943 133.064 68.99 133.562C69.0856 134.061 69.0822 134.573 68.9799 135.069C68.8776 135.566 68.6784 136.038 68.3937 136.458L44.4452 171.785Z" fill="#F9B0A1"/>
<path d="M61.897 146.191L68.3939 136.47C68.9706 135.622 69.1868 134.58 68.995 133.572C68.8032 132.565 68.2191 131.675 67.3712 131.099C66.5233 130.522 65.4811 130.306 64.4738 130.497C63.4665 130.689 62.5767 131.273 62 132.121L61.897 146.191Z" fill="#F16625"/>
<path d="M108.788 171.785L115.182 167.448L90.6061 132.297C90.3217 131.877 89.9573 131.517 89.5338 131.238C89.1103 130.959 88.6359 130.766 88.1378 130.67C87.6397 130.575 87.1276 130.578 86.6308 130.68C86.134 130.783 85.6623 130.982 85.2425 131.267C84.8224 131.551 84.4625 131.916 84.1834 132.34C83.9043 132.764 83.7114 133.238 83.6157 133.737C83.52 134.235 83.5234 134.747 83.6258 135.244C83.7281 135.741 83.9274 136.213 84.2122 136.633L108.788 171.785Z" fill="#F9B0A1"/>
<path d="M75.9516 18.7148H75.9486C53.7535 18.7148 35.7607 36.7076 35.7607 58.9027V78.9785C35.7607 101.174 53.7535 119.166 75.9486 119.166H75.9516C98.1468 119.166 116.14 101.174 116.14 78.9785V58.9027C116.14 36.7076 98.1468 18.7148 75.9516 18.7148Z" fill="#F9B0A1"/>
<path d="M119.418 67.8151V59.7181C119.418 34.6636 98.6154 14.1605 73.6002 15.4969C50.7184 16.709 32.479 35.7242 32.479 58.903V68.3727C32.479 68.4151 92.3093 68.0696 92.3093 68.0696L97.1851 57.206L104.243 67.909L119.215 67.8363C119.215 67.8363 119.418 67.9333 119.418 67.8151Z" fill="#7E341F"/>
<path d="M52.1211 87.5C52.1211 98.9697 62.7847 108.267 75.9362 108.267C89.0878 108.267 99.7484 98.9697 99.7484 87.5H52.1211Z" fill="white"/>
<path d="M61.8848 82.8877C61.0823 82.8837 60.3139 82.5632 59.7464 81.9958C59.179 81.4283 58.8585 80.6599 58.8545 79.8574V77.4029C58.8585 76.6004 59.179 75.8319 59.7464 75.2645C60.3139 74.6971 61.0823 74.3765 61.8848 74.3726C62.6873 74.3765 63.4557 74.6971 64.0231 75.2645C64.5906 75.8319 64.9111 76.6004 64.9151 77.4029V79.8574C64.9111 80.6599 64.5906 81.4283 64.0231 81.9958C63.4557 82.5632 62.6873 82.8837 61.8848 82.8877Z" fill="#7E341F"/>
<path d="M89.2696 82.8877C88.4671 82.8837 87.6986 82.5632 87.1312 81.9958C86.5638 81.4283 86.2432 80.6599 86.2393 79.8574V77.4029C86.2432 76.6004 86.5638 75.8319 87.1312 75.2645C87.6986 74.6971 88.4671 74.3765 89.2696 74.3726C90.072 74.3765 90.8405 74.6971 91.4079 75.2645C91.9753 75.8319 92.2959 76.6004 92.2999 77.4029V79.8574C92.2959 80.6599 91.9753 81.4283 91.4079 81.9958C90.8405 82.5632 90.072 82.8837 89.2696 82.8877Z" fill="#7E341F"/>
<path d="M69.4485 128.342H83.0849C85.5289 128.342 87.8728 129.313 89.601 131.041C91.3292 132.77 92.3 135.113 92.3 137.557V158.467H60.2334V137.557C60.2334 136.347 60.4718 135.149 60.9349 134.031C61.398 132.913 62.0767 131.897 62.9325 131.041C63.7882 130.186 64.804 129.507 65.9221 129.044C67.0401 128.581 68.2384 128.342 69.4485 128.342Z" fill="#EBEBEB"/>
<path d="M67.812 110.83H84.8878V127.379C84.8878 129.64 83.9901 131.81 82.3918 133.41C80.7936 135.011 78.6254 135.912 76.3635 135.915C75.2425 135.915 74.1325 135.694 73.0968 135.265C72.0611 134.836 71.1201 134.207 70.3274 133.415C69.5347 132.622 68.9059 131.681 68.477 130.645C68.048 129.61 67.8272 128.5 67.8272 127.379V110.83H67.812Z" fill="#F9B0A1"/>
</g>
<defs>
<clipPath id="clip0_1034:2942">
<rect width="150" height="150" fill="white"/>
</clipPath>
</defs>
</svg>
