<svg width="150" height="150" viewBox="0 0 150 150" fill="none" xmlns="http://www.w3.org/2000/svg">
<g clip-path="url(#clip0_1034:2869)">
<path d="M75.3614 150.723C116.982 150.723 150.723 116.982 150.723 75.3614C150.723 33.7405 116.982 0 75.3614 0C33.7405 0 0 33.7405 0 75.3614C0 116.982 33.7405 150.723 75.3614 150.723Z" fill="#00BBC4"/>
<path d="M48.6244 168.079H40.3818V161.258C40.3818 142.989 51.6845 129.713 67.2562 129.713V137.955C56.2945 137.955 48.6244 147.538 48.6244 161.258V168.079Z" fill="#FFFEF9"/>
<path d="M109.367 168.079H101.124V161.258C101.124 147.538 93.4635 137.955 82.4927 137.955V129.713C98.0643 129.713 109.367 142.98 109.367 161.258V168.079Z" fill="#FFFEF9"/>
<path d="M90.7388 136.311V165.384H59.1753V136.311C59.1753 132.658 64.4795 129.707 68.1273 129.707H81.7959C85.4437 129.713 90.7388 132.664 90.7388 136.311Z" fill="#FFFEF9"/>
<path d="M74.9599 139.737C74.9599 139.737 66.3794 135.897 66.3794 131.159V114.528H83.5374V131.159C83.5405 135.897 74.9599 139.737 74.9599 139.737Z" fill="#F9C4A1"/>
<path d="M74.9598 105.497C62.6523 105.497 51.4257 102.303 43.3506 96.5021C34.3773 90.056 29.6333 80.9152 29.6333 70.0692V51.9734C29.6333 29.7455 49.5439 12.353 74.9598 12.353C100.376 12.353 120.274 29.7577 120.274 51.9734V70.0692C120.274 80.9152 115.533 90.056 106.572 96.5021C98.4939 102.309 87.2673 105.497 74.9598 105.497Z" fill="#FF9F00"/>
<path d="M43.0596 82.1135C43.8131 77.4298 40.6271 73.022 35.9434 72.2684C31.2597 71.5149 26.8519 74.7009 26.0983 79.3846C25.3448 84.0683 28.5308 88.4761 33.2145 89.2297C37.8982 89.9832 42.306 86.7972 43.0596 82.1135Z" fill="#F9C4A1"/>
<path d="M123.645 84.0305C125.461 79.6477 123.379 74.623 118.996 72.8076C114.614 70.9921 109.589 73.0734 107.773 77.4563C105.958 81.8391 108.039 86.8638 112.422 88.6792C116.805 90.4946 121.83 88.4134 123.645 84.0305Z" fill="#F9C4A1"/>
<path d="M74.9597 122.908C52.7501 122.908 34.5781 110.576 34.5781 88.3663V68.206C34.5781 45.9964 52.7501 28.9937 74.9597 28.9937C97.1692 28.9815 115.344 45.9781 115.344 68.206V88.3785C115.344 110.576 97.1692 122.908 74.9597 122.908Z" fill="#F9C4A1"/>
<path d="M74.9601 103.125C67.6067 103.125 60.5303 100.725 55.0312 96.3649C53.7468 95.3446 52.9203 93.8558 52.7336 92.2261C52.5469 90.5963 53.0152 88.9592 54.0355 87.6748C55.0559 86.3904 56.5447 85.5639 58.1744 85.3771C59.8041 85.1904 61.4413 85.6587 62.7257 86.6791C66.0477 89.3129 70.3989 90.7623 74.9754 90.7623C79.4818 90.7623 83.7843 89.3495 87.088 86.7857C88.3833 85.7807 90.0248 85.3314 91.6514 85.5367C93.278 85.7419 94.7564 86.585 95.7614 87.8803C96.7664 89.1756 97.2157 90.8171 97.0104 92.4437C96.8051 94.0703 95.9621 95.5487 94.6668 96.5537C89.189 100.786 82.2131 103.125 74.9601 103.125Z" fill="#FFFEF9"/>
<path d="M57.7621 71.3176C57.7621 69.6326 56.3962 68.2666 54.7111 68.2666C53.0261 68.2666 51.6602 69.6326 51.6602 71.3176V73.784C51.6602 75.469 53.0261 76.835 54.7111 76.835C56.3962 76.835 57.7621 75.469 57.7621 73.784V71.3176Z" fill="#AC5B0F"/>
<path d="M95.2207 76.835C94.4144 76.831 93.6422 76.5089 93.072 75.9387C92.5019 75.3686 92.1798 74.5964 92.1758 73.7901V71.3237C92.1798 70.5174 92.5019 69.7452 93.072 69.1751C93.6422 68.6049 94.4144 68.2828 95.2207 68.2788C96.027 68.2828 96.7992 68.6049 97.3693 69.1751C97.9395 69.7452 98.2616 70.5174 98.2656 71.3237V73.7901C98.2616 74.5964 97.9395 75.3686 97.3693 75.9387C96.7992 76.5089 96.027 76.831 95.2207 76.835Z" fill="#AC5B0F"/>
<path d="M121.312 64.8353C120.425 64.9465 119.531 65.0024 118.636 65.0027H73.349C70.5008 65.0027 67.6805 64.4417 65.0491 63.3518C62.4176 62.2618 60.0267 60.6642 58.0127 58.6502C55.9987 56.6362 54.4011 54.2453 53.3111 51.6138C52.2212 48.9824 51.6602 46.1621 51.6602 43.3139C51.6602 40.4656 52.2212 37.6453 53.3111 35.0139C54.4011 32.3825 55.9987 29.9915 58.0127 27.9775C60.0267 25.9635 62.4176 24.3659 65.0491 23.276C67.6805 22.186 70.5008 21.625 73.349 21.625H102.212C113.527 31.4052 120.956 46.8612 121.312 64.8353Z" fill="#FF9F00"/>
<path d="M86.7008 39.0051H112.561C114.864 38.9986 117.071 38.081 118.699 36.4527C120.327 34.8244 121.245 32.6177 121.251 30.3149C121.247 28.0111 120.33 25.8028 118.701 24.1732C117.073 22.5436 114.865 21.6251 112.561 21.6187H86.7008C84.399 21.6259 82.1936 22.5434 80.5661 24.171C78.9385 25.7986 78.0209 28.004 78.0137 30.3058C78.0177 32.6096 78.9338 34.8182 80.5618 36.4484C82.1897 38.0786 84.3969 38.9978 86.7008 39.0051Z" fill="#FF9F00"/>
<path d="M121.328 39.0049H82.6939C75.5166 39.0049 69.6982 44.8232 69.6982 52.0005V52.0036C69.6982 59.1809 75.5166 64.9993 82.6939 64.9993H121.328C128.505 64.9993 134.323 59.1809 134.323 52.0036V52.0005C134.323 44.8232 128.505 39.0049 121.328 39.0049Z" fill="#FF9F00"/>
</g>
<defs>
<clipPath id="clip0_1034:2869">
<rect width="150" height="150" fill="white"/>
</clipPath>
</defs>
</svg>
