<svg width="48" height="48" viewBox="0 0 48 48" fill="none" xmlns="http://www.w3.org/2000/svg">
<g clip-path="url(#clip0)">
<path d="M48 24C48 10.7452 37.2548 0 24 0C10.7452 0 0 10.7452 0 24C0 37.2548 10.7452 48 24 48C37.2548 48 48 37.2548 48 24Z" fill="#F16063"/>
<path d="M13.5 31.5C15.5711 31.5 17.25 29.8211 17.25 27.75C17.25 25.6789 15.5711 24 13.5 24C11.4289 24 9.75 25.6789 9.75 27.75C9.75 29.8211 11.4289 31.5 13.5 31.5Z" fill="#EAC0B3"/>
<path d="M13.5 30.75H26.25V49.4025C26.25 49.4025 23.5177 51 19.875 51C16.2323 51 13.5 48.3923 13.5 48.3923V30.75Z" fill="#EAC0B3"/>
<path d="M26.1079 39.834C26.1079 43.8727 25.4554 43.4902 21.2082 43.4902C16.9609 43.4902 15.0012 40.2165 15.0012 36.1777C15.0012 32.1397 14.8399 28.5 18.2674 28.5C27.9597 28.857 26.1079 35.7952 26.1079 39.834Z" fill="#C99688"/>
<path d="M34.4148 27.075C34.4148 33.7665 33.3753 41.9948 25.1253 41.9948C16.8753 41.9948 13.0713 33.7665 13.0713 27.075C11.2503 19.125 11.6253 9.75 24.0003 9.75C36.3753 9.75 34.4148 20.3827 34.4148 27.075Z" fill="#F5D0C5"/>
<path d="M28.5 30.75H27.75C27.3358 30.75 27 31.0858 27 31.5C27 31.9142 27.3358 32.25 27.75 32.25H28.5C28.9142 32.25 29.25 31.9142 29.25 31.5C29.25 31.0858 28.9142 30.75 28.5 30.75Z" fill="#EAC0B3"/>
<path d="M28.5 45H12C8.27208 45 5.25 48.0221 5.25 51.75V55.5C5.25 59.2279 8.27208 62.25 12 62.25H28.5C32.2279 62.25 35.25 59.2279 35.25 55.5V51.75C35.25 48.0221 32.2279 45 28.5 45Z" fill="#3633E0"/>
<path d="M12.75 43.5H27V45.75C27 45.75 23.25 46.5 19.875 46.5C16.5 46.5 12.75 45.75 12.75 45.75V43.5Z" fill="#3633E0"/>
<path d="M12.75 43.5H27V45C27 45 24.75 46.125 19.875 46.125C15 46.125 12.75 45 12.75 45V43.5Z" fill="#362ABC"/>
<path d="M12.375 44.25C12.375 43.8522 12.533 43.4706 12.8143 43.1893C13.0956 42.908 13.4772 42.75 13.875 42.75H25.875C26.2728 42.75 26.6544 42.908 26.9357 43.1893C27.217 43.4706 27.375 43.8522 27.375 44.25C27.375 44.25 23.625 45 19.875 45C16.125 45 12.375 44.25 12.375 44.25Z" fill="#3633E0"/>
<path fill-rule="evenodd" clip-rule="evenodd" d="M36 18.75C35.9996 15.2023 34.6027 11.7974 32.1115 9.27154C29.6202 6.74571 26.2349 5.30205 22.6875 5.25277C19.1402 5.20349 15.716 6.55256 13.1555 9.00821C10.5951 11.4639 9.10418 14.8287 9.00525 18.375H9V48.75H17.25V25.9478C19.1137 25.5893 22.335 24.8003 26.406 23.1308C30.504 21.45 33.0607 19.8615 34.407 18.903C34.5885 20.796 34.5255 22.773 34.467 24.6105C34.44 25.47 34.4137 26.298 34.4137 27.0743C34.4137 27.3803 34.4078 27.6878 34.395 27.996C34.5683 27.9413 34.7303 27.8813 34.8743 27.816C35.9993 27.303 35.9993 26.6183 35.9993 26.6183V18.75H36ZM11.25 24.75C10.7115 25.1529 10.2917 25.6936 10.035 26.3153C9.71652 27.0845 9.66305 27.9378 9.88304 28.7407C10.103 29.5436 10.5839 30.2505 11.25 30.75V24.75Z" fill="#1B0B47"/>
<path d="M21.6963 34.5C21.6963 34.3011 21.7753 34.1103 21.916 33.9697C22.0566 33.829 22.2474 33.75 22.4463 33.75H29.3035C29.5024 33.75 29.6932 33.829 29.8339 33.9697C29.9745 34.1103 30.0535 34.3011 30.0535 34.5C30.0535 35.4946 29.6584 36.4484 28.9552 37.1517C28.2519 37.8549 27.2981 38.25 26.3035 38.25H25.4463C24.4517 38.25 23.4979 37.8549 22.7946 37.1517C22.0914 36.4484 21.6963 35.4946 21.6963 34.5Z" fill="#66253C"/>
<path fill-rule="evenodd" clip-rule="evenodd" d="M27.5667 38.0327C27.1616 38.1771 26.7346 38.2507 26.3044 38.2502H25.4472C24.4786 38.2502 23.5476 37.8754 22.8491 37.2043C22.1507 36.5333 21.7389 35.618 21.7002 34.6502C22.2732 34.4357 23.1237 34.4604 23.9629 34.4852C24.2299 34.4927 24.4954 34.5002 24.7504 34.5002C26.4079 34.5002 27.7504 35.6754 27.7504 37.1252C27.7504 37.4439 27.6852 37.7499 27.5667 38.0327Z" fill="#B03E67"/>
<path d="M22.5 33.75H30V34.5C30 34.6989 29.921 34.8897 29.7803 35.0303C29.6397 35.171 29.4489 35.25 29.25 35.25H23.25C23.0511 35.25 22.8603 35.171 22.7197 35.0303C22.579 34.8897 22.5 34.6989 22.5 34.5V33.75Z" fill="white"/>
<path d="M24.75 28.125C24.75 27.5037 24.2463 27 23.625 27C23.0037 27 22.5 27.5037 22.5 28.125V28.875C22.5 29.4963 23.0037 30 23.625 30C24.2463 30 24.75 29.4963 24.75 28.875V28.125Z" fill="#1B0B47"/>
<path d="M32.25 28.125C32.25 27.5037 31.7463 27 31.125 27C30.5037 27 30 27.5037 30 28.125V28.875C30 29.4963 30.5037 30 31.125 30C31.7463 30 32.25 29.4963 32.25 28.875V28.125Z" fill="#1B0B47"/>
</g>
<defs>
<clipPath id="clip0">
<rect width="48" height="48" rx="24" fill="white"/>
</clipPath>
</defs>
</svg>
