<svg width="150" height="150" viewBox="0 0 150 150" fill="none" xmlns="http://www.w3.org/2000/svg">
<g clip-path="url(#clip0_1034:3012)">
<path d="M75 150C116.421 150 150 116.421 150 75C150 33.5786 116.421 0 75 0C33.5786 0 0 33.5786 0 75C0 116.421 33.5786 150 75 150Z" fill="#FF7E25"/>
<path d="M104.33 88.8196C118.23 74.9193 115.609 49.7615 98.4759 32.6281C81.3425 15.4948 56.1847 12.8739 42.2844 26.7742C28.3841 40.6745 31.0051 65.8322 48.1384 82.9656C65.2718 100.099 90.4296 102.72 104.33 88.8196Z" fill="#0070CF"/>
<path d="M123.667 17.3845L117.691 11.4088C112.668 6.41579 105.874 3.61328 98.7913 3.61328C91.7089 3.61328 84.9143 6.41579 79.8913 11.4088L55.1064 36.1906L102.864 75.9875L123.667 55.1875C134.064 44.7906 134.064 27.7785 123.667 17.3845Z" fill="#00BBC4"/>
<path d="M113.497 70.2818V67.4212C113.497 47.5272 97.2216 31.2515 77.3277 31.2515H73.2156C53.3247 31.2515 37.0459 47.5272 37.0459 67.4212V70.2818H113.497Z" fill="#154A87"/>
<path d="M44.9702 72.3574C44.9702 73.646 44.5881 74.9056 43.8722 75.9771C43.1563 77.0485 42.1388 77.8835 40.9483 78.3766C39.7578 78.8698 38.4479 78.9988 37.184 78.7474C35.9202 78.496 34.7593 77.8755 33.8482 76.9643C32.937 76.0532 32.3165 74.8923 32.0651 73.6285C31.8137 72.3647 31.9428 71.0547 32.4359 69.8642C32.929 68.6737 33.7641 67.6562 34.8355 66.9403C35.9069 66.2244 37.1665 65.8423 38.4551 65.8423C40.183 65.8423 41.8402 66.5287 43.062 67.7505C44.2838 68.9724 44.9702 70.6295 44.9702 72.3574Z" fill="#F9B0A1"/>
<path d="M118.606 72.3574C118.607 73.6469 118.225 74.9075 117.509 75.9799C116.793 77.0522 115.775 77.8882 114.584 78.3819C113.393 78.8756 112.082 79.0049 110.817 78.7535C109.552 78.5021 108.391 77.8813 107.479 76.9695C106.567 76.0577 105.946 74.896 105.695 73.6313C105.444 72.3667 105.573 71.0558 106.067 69.8647C106.56 68.6735 107.396 67.6555 108.469 66.9395C109.541 66.2235 110.802 65.8417 112.091 65.8423C113.819 65.8431 115.475 66.5298 116.697 67.7514C117.919 68.9731 118.605 70.6298 118.606 72.3574Z" fill="#F9B0A1"/>
<path d="M111.442 69.9876C111.442 50.0116 95.2487 33.8179 75.2727 33.8179C55.2968 33.8179 39.103 50.0116 39.103 69.9876V88.0542C39.103 108.03 55.2968 124.224 75.2727 124.224C95.2487 124.224 111.442 108.03 111.442 88.0542V69.9876Z" fill="#F9B0A1"/>
<path d="M75.637 139.3C74.6277 139.3 73.6282 139.102 72.6957 138.716C71.7631 138.33 70.9158 137.764 70.2021 137.05C69.4884 136.336 68.9224 135.489 68.5363 134.556C68.1503 133.624 67.9518 132.624 67.9521 131.615V116.721H83.334V131.615C83.3344 132.625 83.1355 133.626 82.7486 134.559C82.3618 135.493 81.7947 136.34 81.0797 137.054C80.3648 137.768 79.516 138.334 78.582 138.719C77.6481 139.105 76.6473 139.302 75.637 139.3Z" fill="#F9B0A1"/>
<path d="M47.4639 178.16C46.485 178.16 45.5462 177.772 44.854 177.079C44.1618 176.387 43.7729 175.448 43.7729 174.47V157.973C43.7802 151.591 46.3184 145.473 50.8308 140.961C55.3432 136.448 61.4612 133.91 67.8426 133.903C68.8215 133.903 69.7603 134.292 70.4525 134.984C71.1447 135.676 71.5336 136.615 71.5336 137.594C71.5336 138.573 71.1447 139.511 70.4525 140.204C69.7603 140.896 68.8215 141.285 67.8426 141.285C63.4182 141.289 59.1764 143.049 56.0478 146.178C52.9193 149.306 51.1596 153.548 51.1548 157.973V174.47C51.1548 175.448 50.7659 176.387 50.0737 177.079C49.3815 177.772 48.4428 178.16 47.4639 178.16Z" fill="#F9B0A1"/>
<path d="M51.1548 157.973H43.7729C43.7802 151.591 46.3184 145.473 50.8308 140.961C55.3432 136.448 61.4612 133.91 67.8426 133.903V141.285C63.4182 141.289 59.1764 143.049 56.0478 146.178C52.9193 149.306 51.1596 153.548 51.1548 157.973Z" fill="#EBEBEB"/>
<path d="M104.116 178.16C103.137 178.16 102.198 177.772 101.506 177.079C100.814 176.387 100.425 175.448 100.425 174.47V157.973C100.419 153.548 98.6591 149.307 95.5307 146.179C92.4024 143.05 88.161 141.29 83.7368 141.285C82.7579 141.285 81.8191 140.896 81.1269 140.204C80.4348 139.511 80.0459 138.573 80.0459 137.594C80.0459 136.615 80.4348 135.676 81.1269 134.984C81.8191 134.292 82.7579 133.903 83.7368 133.903C90.1183 133.91 96.2363 136.448 100.749 140.961C105.261 145.473 107.799 151.591 107.807 157.973V174.47C107.807 175.448 107.418 176.387 106.725 177.079C106.033 177.772 105.094 178.16 104.116 178.16Z" fill="#F9B0A1"/>
<path d="M107.806 157.973H100.424C100.419 153.548 98.6586 149.307 95.5302 146.179C92.4019 143.05 88.1605 141.29 83.7363 141.285V133.903C90.1178 133.91 96.2358 136.448 100.748 140.961C105.261 145.473 107.799 151.591 107.806 157.973Z" fill="#EBEBEB"/>
<path d="M85.8852 132.96V160.588H65.3125V132.96C65.3141 131.818 65.7692 130.723 66.5778 129.916C67.3864 129.109 68.4823 128.656 69.6246 128.657H81.5731C82.7154 128.656 83.8113 129.109 84.6199 129.916C85.4285 130.723 85.8836 131.818 85.8852 132.96Z" fill="#EBEBEB"/>
<path d="M55.2124 77.0483C55.2124 87.3726 64.8094 95.7392 76.6457 95.7392C88.4821 95.7392 98.0791 87.3726 98.0791 77.0483H55.2124Z" fill="white"/>
<path d="M69.2488 70.1119C68.5254 70.1119 67.8317 69.8245 67.3203 69.3131C66.8088 68.8016 66.5215 68.1079 66.5215 67.3846V65.1755C66.5215 64.4522 66.8088 63.7585 67.3203 63.247C67.8317 62.7356 68.5254 62.4482 69.2488 62.4482C69.9721 62.4482 70.6658 62.7356 71.1772 63.247C71.6887 63.7585 71.976 64.4522 71.976 65.1755V67.3846C71.976 68.1079 71.6887 68.8016 71.1772 69.3131C70.6658 69.8245 69.9721 70.1119 69.2488 70.1119Z" fill="#AC5B0F"/>
<path d="M84.049 70.1119C83.3257 70.1119 82.632 69.8245 82.1206 69.3131C81.6091 68.8016 81.3218 68.1079 81.3218 67.3846V65.1755C81.3218 64.4522 81.6091 63.7585 82.1206 63.247C82.632 62.7356 83.3257 62.4482 84.049 62.4482C84.7724 62.4482 85.4661 62.7356 85.9775 63.247C86.489 63.7585 86.7763 64.4522 86.7763 65.1755V67.3846C86.7763 68.1079 86.489 68.8016 85.9775 69.3131C85.4661 69.8245 84.7724 70.1119 84.049 70.1119Z" fill="#AC5B0F"/>
</g>
<defs>
<clipPath id="clip0_1034:3012">
<rect width="150" height="150" fill="white"/>
</clipPath>
</defs>
</svg>
