<svg width="150" height="150" viewBox="0 0 150 150" fill="none" xmlns="http://www.w3.org/2000/svg">
<g clip-path="url(#clip0_1034:3075)">
<path d="M75 150C116.421 150 150 116.421 150 75C150 33.5786 116.421 0 75 0C33.5786 0 0 33.5786 0 75C0 116.421 33.5786 150 75 150Z" fill="#00BBC4"/>
<path d="M50.9936 27.3755H50.9905C43.7573 27.3755 37.8936 33.2392 37.8936 40.4725V91.23C37.8936 98.4633 43.7573 104.327 50.9905 104.327H50.9936C58.2268 104.327 64.0905 98.4633 64.0905 91.23V40.4725C64.0905 33.2392 58.2268 27.3755 50.9936 27.3755Z" fill="#870000"/>
<path d="M112.039 32.9118C112.039 17.4847 99.5329 4.97852 84.1057 4.97852C68.6785 4.97852 56.1724 17.4847 56.1724 32.9118V84.3785C56.1724 99.8057 68.6785 112.312 84.1057 112.312C99.5329 112.312 112.039 99.8057 112.039 84.3785V32.9118Z" fill="#870000"/>
<path d="M35.9756 102.424C41.1169 102.424 45.2847 98.256 45.2847 93.1148C45.2847 87.9735 41.1169 83.8057 35.9756 83.8057C30.8343 83.8057 26.6665 87.9735 26.6665 93.1148C26.6665 98.256 30.8343 102.424 35.9756 102.424Z" fill="#F9A08A"/>
<path d="M113.794 102.424C118.935 102.424 123.103 98.256 123.103 93.1148C123.103 87.9735 118.935 83.8057 113.794 83.8057C108.653 83.8057 104.485 87.9735 104.485 93.1148C104.485 98.256 108.653 102.424 113.794 102.424Z" fill="#F9A08A"/>
<path d="M82.9302 116.018H67.5635V144.261H82.9302V116.018Z" fill="#F9A08A"/>
<path d="M69.0332 131.778H81.312C83.5117 131.778 85.6213 132.652 87.1767 134.208C88.7321 135.763 89.6059 137.873 89.6059 140.072V158.89H60.7393V140.072C60.7393 137.873 61.6131 135.763 63.1685 134.208C64.7239 132.652 66.8335 131.778 69.0332 131.778Z" fill="#F0F0F0"/>
<path d="M74.8846 122.642C95.4146 122.642 112.057 103.947 112.057 80.8845C112.057 57.8225 95.4146 39.127 74.8846 39.127C54.3547 39.127 37.7119 57.8225 37.7119 80.8845C37.7119 103.947 54.3547 122.642 74.8846 122.642Z" fill="#F9A08A"/>
<path d="M74.5271 98.7877C71.0709 98.7884 67.6758 97.8769 64.6847 96.1452C64.1074 95.8174 63.6011 95.3781 63.195 94.8529C62.7889 94.3278 62.4912 93.7271 62.3192 93.086C62.1471 92.4448 62.1042 91.7758 62.1928 91.1179C62.2814 90.46 62.4999 89.8263 62.8354 89.2535C63.171 88.6807 63.617 88.1803 64.1476 87.7812C64.6781 87.3822 65.2827 87.0926 65.9261 86.9292C66.5695 86.7657 67.239 86.7317 67.8957 86.8292C68.5523 86.9266 69.1831 87.1535 69.7513 87.4967C72.9604 89.3755 76.6241 88.9119 78.0362 87.8543C78.5629 87.4595 79.1621 87.1724 79.7998 87.0092C80.4375 86.8461 81.101 86.8101 81.7526 86.9034C82.4041 86.9967 83.0309 87.2174 83.5972 87.5529C84.1635 87.8884 84.6581 88.3322 85.0528 88.8588C85.4476 89.3855 85.7348 89.9848 85.8979 90.6225C86.0611 91.2601 86.097 91.9237 86.0038 92.5752C85.9105 93.2268 85.6898 93.8536 85.3543 94.4199C85.0187 94.9861 84.575 95.4808 84.0483 95.8755C81.4634 97.8089 78.0604 98.7877 74.5271 98.7877Z" fill="#FFFEF9"/>
<path d="M68.0543 142.767H60.7422V183.597H68.0543V142.767Z" fill="#F9A08A"/>
<path d="M82.2968 183.594H89.6089V142.763H82.2968V183.594Z" fill="#F9A08A"/>
<path d="M63.23 60.9088L58.0331 62.8209C57.427 63.0423 56.7579 63.0149 56.1719 62.7447C55.586 62.4744 55.1308 61.9832 54.9058 61.3785C54.6842 60.7701 54.7132 60.0986 54.9866 59.5116C55.2599 58.9246 55.7551 58.4702 56.3634 58.2482L61.5573 56.333C62.1638 56.1117 62.8332 56.1396 63.4192 56.4104C64.0052 56.6813 64.4602 57.1731 64.6846 57.7785C64.9063 58.3865 64.8777 59.0577 64.605 59.6446C64.3323 60.2315 63.8377 60.6862 63.23 60.9088Z" fill="#7E341F"/>
<path d="M87.2087 60.9087L92.4027 62.8208C93.0092 63.0423 93.6787 63.015 94.2651 62.7448C94.8516 62.4745 95.3073 61.9834 95.533 61.3784C95.7534 60.7718 95.7252 60.1028 95.4544 59.517C95.1837 58.9312 94.6923 58.4762 94.0875 58.2511L88.8936 56.3359C88.2863 56.1125 87.6153 56.1389 87.0274 56.4092C86.4396 56.6796 85.9828 57.1719 85.7572 57.7784C85.5361 58.386 85.5648 59.0565 85.8368 59.6432C86.1088 60.2298 86.6021 60.6848 87.2087 60.9087Z" fill="#7E341F"/>
<path d="M69.1663 78.942C69.021 78.9424 68.877 78.9141 68.7426 78.8586C68.6082 78.8032 68.4861 78.7217 68.3833 78.6189C68.2805 78.5162 68.1991 78.3941 68.1436 78.2597C68.0882 78.1253 68.0599 77.9813 68.0603 77.8359C68.0603 75.6427 67.189 73.5393 65.6381 71.9884C64.0873 70.4375 61.9838 69.5663 59.7906 69.5663C57.5973 69.5663 55.4939 70.4375 53.943 71.9884C52.3921 73.5393 51.5209 75.6427 51.5209 77.8359C51.506 78.1197 51.3829 78.3869 51.1768 78.5825C50.9707 78.7781 50.6974 78.8871 50.4133 78.8871C50.1292 78.8871 49.8559 78.7781 49.6498 78.5825C49.4437 78.3869 49.3206 78.1197 49.3057 77.8359C49.2821 76.4443 49.5357 75.0618 50.0519 73.7692C50.5682 72.4765 51.3366 71.2996 52.3124 70.3071C53.2882 69.3145 54.4519 68.5262 55.7355 67.9881C57.0192 67.45 58.3972 67.1729 59.789 67.1729C61.1809 67.1729 62.5589 67.45 63.8426 67.9881C65.1262 68.5262 66.2899 69.3145 67.2657 70.3071C68.2415 71.2996 69.0099 72.4765 69.5262 73.7692C70.0424 75.0618 70.296 76.4443 70.2724 77.8359C70.2728 77.9813 70.2445 78.1253 70.189 78.2597C70.1336 78.3941 70.0521 78.5162 69.9493 78.6189C69.8465 78.7217 69.7244 78.8032 69.5901 78.8586C69.4557 78.9141 69.3117 78.9424 69.1663 78.942Z" fill="#7E341F"/>
<path d="M98.1815 78.942C98.0361 78.9424 97.8921 78.9141 97.7577 78.8586C97.6233 78.8032 97.5012 78.7217 97.3985 78.6189C97.2957 78.5162 97.2142 78.3941 97.1588 78.2597C97.1033 78.1253 97.075 77.9813 97.0754 77.8359C97.0754 76.75 96.8615 75.6746 96.4459 74.6713C96.0303 73.6679 95.4212 72.7563 94.6533 71.9884C93.8853 71.2205 92.9737 70.6113 91.9704 70.1957C90.967 69.7801 89.8917 69.5662 88.8057 69.5662C87.7197 69.5662 86.6444 69.7801 85.641 70.1957C84.6377 70.6113 83.7261 71.2205 82.9581 71.9884C82.1902 72.7563 81.5811 73.6679 81.1655 74.6713C80.7499 75.6746 80.536 76.75 80.536 77.8359C80.5212 78.1197 80.398 78.3869 80.1919 78.5825C79.9858 78.7781 79.7125 78.8871 79.4284 78.8871C79.1443 78.8871 78.871 78.7781 78.665 78.5825C78.4589 78.3869 78.3357 78.1197 78.3209 77.8359C78.2972 76.4443 78.5509 75.0618 79.0671 73.7692C79.5833 72.4765 80.3517 71.2996 81.3275 70.3071C82.3033 69.3145 83.467 68.5262 84.7507 67.9881C86.0343 67.45 87.4123 67.1729 88.8042 67.1729C90.1961 67.1729 91.574 67.45 92.8577 67.9881C94.1414 68.5262 95.305 69.3145 96.2808 70.3071C97.2567 71.2996 98.0251 72.4765 98.5413 73.7692C99.0575 75.0618 99.3112 76.4443 99.2875 77.8359C99.2879 77.9813 99.2596 78.1253 99.2041 78.2597C99.1487 78.3941 99.0672 78.5162 98.9645 78.6189C98.8617 78.7217 98.7396 78.8032 98.6052 78.8586C98.4708 78.9141 98.3268 78.9424 98.1815 78.942Z" fill="#7E341F"/>
</g>
<defs>
<clipPath id="clip0_1034:3075">
<rect width="150" height="150" fill="white"/>
</clipPath>
</defs>
</svg>
