<svg width="29" height="23" viewBox="0 0 29 23" fill="none" xmlns="http://www.w3.org/2000/svg">
<path d="M1.3189 22.0314H4.12539V9.51336C4.12539 9.30388 4.33482 9.13403 4.59313 9.13403H11.1416V0.409363C11.1416 0.199876 11.351 0.0300293 11.6093 0.0300293H23.7708C24.0291 0.0300293 24.2385 0.199876 24.2385 0.409363V22.0314H28.4483C28.7066 22.0314 28.916 22.2012 28.916 22.4107C28.916 22.6202 28.7066 22.79 28.4483 22.79H1.3189C1.06059 22.79 0.851151 22.6202 0.851151 22.4107C0.851151 22.2012 1.06059 22.0314 1.3189 22.0314ZM19.0933 22.0314H20.9643V18.6174C20.9643 18.4079 20.7549 18.238 20.4966 18.238H19.5611C19.3027 18.238 19.0933 18.4079 19.0933 18.6174V22.0314ZM17.2223 9.51336V22.0314H18.1578V18.6174C18.1578 17.9889 18.7861 17.4794 19.5611 17.4794H20.4966C21.2716 17.4794 21.8998 17.9889 21.8998 18.6174V22.0314H23.303V0.788696H12.0771V9.13403H16.7546C17.0129 9.13403 17.2223 9.30388 17.2223 9.51336ZM5.06088 22.0314H16.2868V9.8927H5.06088V22.0314Z" fill="#84829A"/>
<path d="M13.9479 5.34082H16.7544C17.0127 5.34082 17.2222 5.51067 17.2222 5.72015V7.99615C17.2222 8.20564 17.0127 8.37549 16.7544 8.37549H13.9479C13.6896 8.37549 13.4802 8.20564 13.4802 7.99615V5.72015C13.4802 5.51067 13.6896 5.34082 13.9479 5.34082ZM14.4157 7.61682H16.2867V6.09949H14.4157V7.61682Z" fill="#84829A"/>
<path d="M13.9479 1.54736H16.7544C17.0127 1.54736 17.2222 1.71721 17.2222 1.9267V4.2027C17.2222 4.41218 17.0127 4.58203 16.7544 4.58203H13.9479C13.6896 4.58203 13.4802 4.41218 13.4802 4.2027V1.9267C13.4802 1.71721 13.6896 1.54736 13.9479 1.54736ZM14.4157 3.82336H16.2867V2.30603H14.4157V3.82336Z" fill="#84829A"/>
<path d="M18.6257 5.34082H21.4322C21.6905 5.34082 21.8999 5.51067 21.8999 5.72015V7.99615C21.8999 8.20564 21.6905 8.37549 21.4322 8.37549H18.6257C18.3674 8.37549 18.1579 8.20564 18.1579 7.99615V5.72015C18.1579 5.51067 18.3674 5.34082 18.6257 5.34082ZM19.0934 7.61682H20.9644V6.09949H19.0934V7.61682Z" fill="#84829A"/>
<path d="M18.6257 1.54736H21.4322C21.6905 1.54736 21.8999 1.71721 21.8999 1.9267V4.2027C21.8999 4.41218 21.6905 4.58203 21.4322 4.58203H18.6257C18.3674 4.58203 18.1579 4.41218 18.1579 4.2027V1.9267C18.1579 1.71721 18.3674 1.54736 18.6257 1.54736ZM19.0934 3.82336H20.9644V2.30603H19.0934V3.82336Z" fill="#84829A"/>
<path d="M18.6257 9.13379H21.4322C21.6905 9.13379 21.8999 9.30364 21.8999 9.51312V11.7891C21.8999 11.9986 21.6905 12.1685 21.4322 12.1685H18.6257C18.3674 12.1685 18.1579 11.9986 18.1579 11.7891V9.51312C18.1579 9.30364 18.3674 9.13379 18.6257 9.13379ZM19.0934 11.4098H20.9644V9.89246H19.0934V11.4098Z" fill="#84829A"/>
<path d="M18.6257 12.9272H21.4322C21.6905 12.9272 21.8999 13.0971 21.8999 13.3066V15.5826C21.8999 15.7921 21.6905 15.9619 21.4322 15.9619H18.6257C18.3674 15.9619 18.1579 15.7921 18.1579 15.5826V13.3066C18.1579 13.0971 18.3674 12.9272 18.6257 12.9272ZM19.0934 15.2032H20.9644V13.6859H19.0934V15.2032Z" fill="#84829A"/>
<path d="M9.73831 17.4792H6.93182C6.67351 17.4792 6.46407 17.3094 6.46407 17.0999V14.8239C6.46407 14.6144 6.67351 14.4446 6.93182 14.4446H9.73831C9.99662 14.4446 10.2061 14.6144 10.2061 14.8239V17.0999C10.2061 17.3094 9.99662 17.4792 9.73831 17.4792ZM9.27056 15.2032H7.39957V16.7206H9.27056V15.2032Z" fill="#84829A"/>
<path d="M9.73831 13.6858H6.93182C6.67351 13.6858 6.46407 13.5159 6.46407 13.3065V11.0305C6.46407 10.821 6.67351 10.6511 6.93182 10.6511H9.73831C9.99662 10.6511 10.2061 10.821 10.2061 11.0305V13.3065C10.2061 13.5159 9.99662 13.6858 9.73831 13.6858ZM9.27056 11.4098H7.39957V12.9271H9.27056V11.4098Z" fill="#84829A"/>
<path d="M9.73831 21.2727H6.93182C6.67351 21.2727 6.46407 21.1029 6.46407 20.8934V18.6174C6.46407 18.4079 6.67351 18.238 6.93182 18.238H9.73831C9.99662 18.238 10.2061 18.4079 10.2061 18.6174V20.8934C10.2061 21.1029 9.99662 21.2727 9.73831 21.2727ZM9.27056 18.9967H7.39957V20.514H9.27056V18.9967Z" fill="#84829A"/>
<path d="M14.4156 17.4792H11.6091C11.3508 17.4792 11.1413 17.3094 11.1413 17.0999V14.8239C11.1413 14.6144 11.3508 14.4446 11.6091 14.4446H14.4156C14.6739 14.4446 14.8833 14.6144 14.8833 14.8239V17.0999C14.8833 17.3094 14.6739 17.4792 14.4156 17.4792ZM13.9478 15.2032H12.0768V16.7206H13.9478V15.2032Z" fill="#84829A"/>
<path d="M14.4156 13.6858H11.6091C11.3508 13.6858 11.1413 13.5159 11.1413 13.3065V11.0305C11.1413 10.821 11.3508 10.6511 11.6091 10.6511H14.4156C14.6739 10.6511 14.8833 10.821 14.8833 11.0305V13.3065C14.8833 13.5159 14.6739 13.6858 14.4156 13.6858ZM13.9478 11.4098H12.0768V12.9271H13.9478V11.4098Z" fill="#84829A"/>
<path d="M14.4156 21.2727H11.6091C11.3508 21.2727 11.1413 21.1029 11.1413 20.8934V18.6174C11.1413 18.4079 11.3508 18.238 11.6091 18.238H14.4156C14.6739 18.238 14.8833 18.4079 14.8833 18.6174V20.8934C14.8833 21.1029 14.6739 21.2727 14.4156 21.2727ZM13.9478 18.9967H12.0768V20.514H13.9478V18.9967Z" fill="#84829A"/>
</svg>
