<svg width="100" height="24" viewBox="0 0 100 24" fill="none" xmlns="http://www.w3.org/2000/svg">
<path d="M40.6627 21.7499L39.6627 21.7499C39.6627 22.3022 40.1104 22.7499 40.6627 22.7499L40.6627 21.7499ZM44.9052 21.75L44.9052 22.75C45.1704 22.75 45.4248 22.6446 45.6123 22.4571L44.9052 21.75ZM60.4616 6.19365L61.1687 6.90076C61.3562 6.71322 61.4616 6.45887 61.4616 6.19365C61.4616 5.92843 61.3562 5.67408 61.1687 5.48654L60.4616 6.19365ZM56.2189 1.95102L56.926 1.24391C56.5355 0.853388 55.9024 0.853389 55.5118 1.24391L56.2189 1.95102ZM40.6626 17.5073L39.9555 16.8002C39.7679 16.9878 39.6626 17.2422 39.6626 17.5074L40.6626 17.5073ZM52.6834 5.48654C52.2929 5.09602 51.6597 5.09602 51.2692 5.48654C50.8787 5.87707 50.8787 6.51023 51.2692 6.90076L52.6834 5.48654ZM55.5118 11.1434C55.9024 11.5339 56.5355 11.5339 56.9261 11.1434C57.3166 10.7529 57.3166 10.1197 56.9261 9.72919L55.5118 11.1434ZM40.6627 22.7499L44.9052 22.75L44.9053 20.75L40.6628 20.7499L40.6627 22.7499ZM45.6123 22.4571L61.1687 6.90076L59.7545 5.48654L44.1981 21.0429L45.6123 22.4571ZM61.1687 5.48654L56.926 1.24391L55.5118 2.65813L59.7545 6.90076L61.1687 5.48654ZM55.5118 1.24391L39.9555 16.8002L41.3697 18.2145L56.926 2.65813L55.5118 1.24391ZM39.6626 17.5074L39.6627 21.7499L41.6627 21.7499L41.6626 17.5073L39.6626 17.5074ZM51.2692 6.90076L55.5118 11.1434L56.9261 9.72919L52.6834 5.48654L51.2692 6.90076Z" fill="#656F77"/>
</svg>
