<svg width="204" height="90" viewBox="0 0 204 90" fill="none" xmlns="http://www.w3.org/2000/svg">
<path d="M10.2748 44.6341C10.2748 33.7802 19.0736 24.9814 29.9275 24.9814V24.9814V53.426H10.2748V44.6341Z" fill="#278EFF" stroke="#278EFF" stroke-width="0.805851"/>
<rect x="10.2748" y="53.426" width="19.6526" height="1.93794" fill="#278EFF" stroke="#278EFF" stroke-width="0.805851"/>
<path fill-rule="evenodd" clip-rule="evenodd" d="M10.6315 67.9026C10.3974 66.6897 10.2748 65.4371 10.2748 64.1558V55.3639H29.9274V83.8085C25.1684 83.8085 20.8045 82.1169 17.4041 79.3022C14.0117 81.5622 8.57203 83.7105 2 82.5155C3.81011 81.7398 10.792 77.0852 10.5334 67.7761C10.5648 67.8192 10.5975 67.8614 10.6315 67.9026Z" fill="#278EFF"/>
<path d="M10.6315 67.9026L10.3209 68.1592L11.0272 67.8262L10.6315 67.9026ZM10.2748 55.3639V54.961H9.87187V55.3639H10.2748ZM29.9274 55.3639H30.3304V54.961H29.9274V55.3639ZM29.9274 83.8085V84.2114H30.3304V83.8085H29.9274ZM17.4041 79.3022L17.661 78.9918L17.4301 78.8007L17.1807 78.9669L17.4041 79.3022ZM2 82.5155L1.84128 82.1452L0.610885 82.6725L1.92792 82.912L2 82.5155ZM10.5334 67.7761L10.8592 67.5391L10.0945 66.4876L10.1306 67.7873L10.5334 67.7761ZM9.87187 64.1558C9.87187 65.4629 9.99695 66.741 10.2359 67.979L11.0272 67.8262C10.7979 66.6384 10.6777 65.4113 10.6777 64.1558H9.87187ZM9.87187 55.3639V64.1558H10.6777V55.3639H9.87187ZM29.9274 54.961H10.2748V55.7668H29.9274V54.961ZM30.3304 83.8085V55.3639H29.5245V83.8085H30.3304ZM17.1471 79.6126C20.6171 82.4849 25.0712 84.2114 29.9274 84.2114V83.4056C25.2656 83.4056 20.9918 81.7489 17.661 78.9918L17.1471 79.6126ZM1.92792 82.912C8.62829 84.1302 14.1727 81.9391 17.6275 79.6375L17.1807 78.9669C13.8507 81.1853 8.51577 83.2907 2.07208 82.1191L1.92792 82.912ZM10.1306 67.7873C10.2568 72.3306 8.61843 75.7309 6.72782 78.0941C4.8293 80.4673 2.68461 81.7838 1.84128 82.1452L2.15872 82.8859C3.1255 82.4716 5.3768 81.0729 7.35708 78.5975C9.34528 76.1123 11.0685 72.5307 10.9361 67.7649L10.1306 67.7873ZM10.9421 67.6459C10.9133 67.611 10.8857 67.5754 10.8592 67.5391L10.2075 68.0131C10.2439 68.063 10.2817 68.1118 10.3209 68.1592L10.9421 67.6459Z" fill="#278EFF"/>
<rect x="29.9275" y="24.9814" width="153.42" height="58.8271" fill="#278EFF"/>
<rect x="29.9275" y="24.9814" width="153.42" height="58.8271" stroke="#278EFF" stroke-width="0.805851"/>
<path d="M203 44.634C203 33.7802 194.201 24.9814 183.347 24.9814V24.9814V53.426H203V44.634Z" fill="#278EFF" stroke="#278EFF" stroke-width="0.805851"/>
<rect width="19.6526" height="1.93794" transform="matrix(-1 0 0 1 203 53.426)" fill="#278EFF" stroke="#278EFF" stroke-width="0.805851"/>
<path d="M203 64.1559C203 75.0097 194.201 83.8085 183.347 83.8085V83.8085V55.3639H203V64.1559Z" fill="#278EFF" stroke="#278EFF" stroke-width="0.805851"/>
</svg>
