<svg width="90" height="80" viewBox="0 0 90 80" fill="none" xmlns="http://www.w3.org/2000/svg">
<path fill-rule="evenodd" clip-rule="evenodd" d="M76.5945 73.3718V33.56C76.5945 32.3312 77.6019 31.3351 78.8445 31.3351C80.0871 31.3351 81.0945 32.3312 81.0945 33.56V73.3718C81.0945 78.9159 74.657 82.0428 70.0259 78.4905L61.3602 70.1523L53.6863 62.9422C53.261 62.5442 52.7024 62.3231 52.129 62.3231L10.4715 62.3407L6.72563 62.2963C2.99963 62.2564 0 59.2574 0 55.5728V6.67461C0 2.9884 3.02007 0 6.75 0H83.25C86.9766 0 90 2.98959 90 6.67461V60.0715C90 61.3003 88.9926 62.2964 87.75 62.2964C86.5074 62.2964 85.5 61.3003 85.5 60.0715V6.67461C85.5 5.44712 84.4914 4.44974 83.25 4.44974H6.75C5.50604 4.44974 4.5 5.44524 4.5 6.67461V55.5728C4.5 56.8189 5.51466 57.8333 6.77701 57.8468L10.4975 57.8911L52.128 57.8733C53.8559 57.8733 55.5207 58.5322 56.7828 59.7135L64.4791 66.9448L72.9696 75.1346C74.4482 76.2629 76.5945 75.2204 76.5945 73.3718ZM59.9735 30.377C48.5963 41.6272 30.1482 41.6272 18.771 30.377C17.8923 29.5082 17.8923 28.0995 18.771 27.2306C19.6497 26.3617 21.0743 26.3617 21.953 27.2306C31.5728 36.743 47.1717 36.743 56.7915 27.2306C57.6702 26.3617 59.0948 26.3617 59.9735 27.2306C60.8522 28.0995 60.8522 29.5082 59.9735 30.377Z" fill="#4E6AF0"/>
</svg>
