<svg width="69" height="75" viewBox="0 0 69 75" fill="none" xmlns="http://www.w3.org/2000/svg">
<path d="M20.6005 72.0371H4.30494C2.78713 72.0371 1.4928 73.0978 1.01208 74.5747H23.8933C23.4126 73.0978 22.1183 72.0371 20.6005 72.0371Z" fill="#FBFCF7"/>
<path d="M12.4542 23.8222C15.6684 23.8222 18.274 20.9818 18.274 17.4781C18.274 13.9744 15.6684 11.134 12.4542 11.134C9.24002 11.134 6.6344 13.9744 6.6344 17.4781C6.6344 20.9818 9.24002 23.8222 12.4542 23.8222Z" fill="#FBFCF7"/>
<path d="M3.14263 49.1982H4.30659V35.2413H6.63452V69.4992H11.2904V46.6606H13.6183V69.4992H18.2742V38.1139C18.2742 35.089 19.6651 32.3014 21.9954 30.6571L33.8457 22.2981C32.6189 21.8414 31.6644 20.773 31.278 19.4192L22.8951 25.0426C21.6089 25.9054 20.133 26.3596 18.6257 26.3596H12.4543H11.2904C5.51362 26.3596 0.814697 31.4818 0.814697 37.7789V46.6606C0.814697 48.0601 1.85877 49.1982 3.14263 49.1982Z" fill="#FBFCF7"/>
<path d="M56.6851 13.6715C59.8993 13.6715 62.5049 10.8312 62.5049 7.32746C62.5049 3.82373 59.8993 0.983398 56.6851 0.983398C53.4709 0.983398 50.8652 3.82373 50.8652 7.32746C50.8652 10.8312 53.4709 13.6715 56.6851 13.6715Z" fill="#FBFCF7"/>
<path d="M64.8326 66.9614H48.5371C46.6119 66.9614 45.0452 68.6692 45.0452 70.7679V74.5743H68.3245V70.7679C68.3245 68.6692 66.7578 66.9614 64.8326 66.9614Z" fill="#FBFCF7"/>
<path d="M60.177 16.2092H35.1517C34.1891 16.2092 33.4058 17.0631 33.4058 18.1124C33.4058 19.1618 34.1891 20.0157 35.1517 20.0157H47.3733C49.2985 20.0157 50.8652 21.7235 50.8652 23.8221L50.8676 64.4241H55.5211V35.2414H57.849V64.4241H62.5049V22.5533H64.8328V41.5855C66.758 41.5855 68.3247 39.8777 68.3247 37.7791V25.0909C68.3247 20.1946 64.6687 16.2092 60.177 16.2092Z" fill="#FBFCF7"/>
<path d="M33.4055 4.78984C33.4055 2.69122 31.8387 0 29.9135 0H25C23.0748 0 21.7659 2.69122 21.7659 4.78984L19.5001 10L29.9136 8.59628C31.8388 8.59628 33.4055 6.88845 33.4055 4.78984ZM26.4217 6.05865H24.0938V3.52102H26.4217V6.05865ZM28.7497 3.52102H31.0776V6.05865H28.7497V3.52102Z" fill="#FBFCF7"/>
<path d="M32.2418 33.9725C32.2418 36.0711 33.8085 37.7789 35.7337 37.7789H40.3896C42.3148 37.7789 43.8815 36.0711 43.8815 33.9725V30.166H35.7337C33.8085 30.166 32.2418 31.8738 32.2418 33.9725ZM39.2256 32.7036H41.5535V35.2413H39.2256V32.7036ZM36.8977 35.2413H34.5698V32.7036H36.8977V35.2413Z" fill="#FBFCF7"/>
</svg>
