<svg width="263" height="260" viewBox="0 0 263 260" fill="none" xmlns="http://www.w3.org/2000/svg">
<rect width="262.527" height="260" fill="#9E66FF"/>
<path d="M88.5297 200.59H47.7367C43.9372 200.59 40.697 202.851 39.4937 206H96.7728C95.5694 202.851 92.3292 200.59 88.5297 200.59Z" fill="#FBFCF7"/>
<path d="M68.1378 97.791C76.1839 97.791 82.7067 91.7352 82.7067 84.2649C82.7067 76.7946 76.1839 70.7388 68.1378 70.7388C60.0916 70.7388 53.5688 76.7946 53.5688 84.2649C53.5688 91.7352 60.0916 97.791 68.1378 97.791Z" fill="#FBFCF7"/>
<path d="M44.8276 151.895H47.7413V122.138H53.5689V195.179H65.224V146.485H71.0516V195.179H82.7067V128.262C82.7067 121.813 86.1887 115.87 92.0221 112.364L121.687 94.5417C118.616 93.5678 116.227 91.29 115.259 88.4036L94.2744 100.393C91.0547 102.233 87.36 103.201 83.5867 103.201H68.1378H65.224C50.7629 103.201 39 114.122 39 127.548V146.485C39 149.469 41.6137 151.895 44.8276 151.895Z" fill="#FBFCF7"/>
<path d="M178.861 76.1489C186.907 76.1489 193.43 70.0931 193.43 62.6228C193.43 55.1525 186.907 49.0967 178.861 49.0967C170.815 49.0967 164.292 55.1525 164.292 62.6228C164.292 70.0931 170.815 76.1489 178.861 76.1489Z" fill="#FBFCF7"/>
<path d="M199.259 189.768H158.466C153.647 189.768 149.725 193.409 149.725 197.883V205.999H208V197.883C208 193.409 204.078 189.768 199.259 189.768Z" fill="#FBFCF7"/>
<path d="M187.603 81.5596H124.957C122.547 81.5596 120.586 83.3802 120.586 85.6174C120.586 87.8546 122.547 89.6752 124.957 89.6752H155.552C160.371 89.6752 164.293 93.3165 164.293 97.7909L164.299 184.358H175.948V122.138H181.776V184.358H193.431V95.0857H199.259V135.664C204.078 135.664 208 132.023 208 127.548V100.496C208 90.0567 198.848 81.5596 187.603 81.5596Z" fill="#FBFCF7"/>
<path d="M120.586 57.2124C120.586 52.7379 116.663 47 111.844 47H99.5439C94.7245 47 91.4478 52.7379 91.4478 57.2124L85.7759 68.3209L111.844 65.328C116.664 65.328 120.586 61.6868 120.586 57.2124ZM103.103 59.9176H97.2753V54.5071H103.103V59.9176ZM108.93 54.5071H114.758V59.9176H108.93V54.5071Z" fill="#FBFCF7"/>
<path d="M117.672 119.432C117.672 123.907 121.594 127.548 126.414 127.548H138.069C142.888 127.548 146.81 123.907 146.81 119.432V111.317H126.414C121.594 111.317 117.672 114.958 117.672 119.432ZM135.155 116.727H140.983V122.138H135.155V116.727ZM129.327 122.138H123.5V116.727H129.327V122.138Z" fill="#FBFCF7"/>
</svg>
