<svg width="96" height="87" viewBox="0 0 96 87" fill="none" xmlns="http://www.w3.org/2000/svg">
<ellipse cx="48" cy="25.5" rx="27.5" ry="25.5" fill="#C4C4C4"/>
<path d="M38.6627 35.7499L37.6627 35.7499C37.6627 36.3022 38.1104 36.7499 38.6627 36.7499L38.6627 35.7499ZM42.9052 35.75L42.9052 36.75C43.1704 36.75 43.4248 36.6446 43.6123 36.4571L42.9052 35.75ZM58.4616 20.1936L59.1687 20.9008C59.3562 20.7132 59.4616 20.4589 59.4616 20.1936C59.4616 19.9284 59.3562 19.6741 59.1687 19.4865L58.4616 20.1936ZM54.2189 15.951L54.926 15.2439C54.5355 14.8534 53.9024 14.8534 53.5118 15.2439L54.2189 15.951ZM38.6626 31.5073L37.9555 30.8002C37.7679 30.9878 37.6626 31.2422 37.6626 31.5074L38.6626 31.5073ZM50.6834 19.4865C50.2929 19.096 49.6597 19.096 49.2692 19.4865C48.8787 19.8771 48.8787 20.5102 49.2692 20.9008L50.6834 19.4865ZM53.5118 25.1434C53.9024 25.5339 54.5355 25.5339 54.9261 25.1434C55.3166 24.7529 55.3166 24.1197 54.9261 23.7292L53.5118 25.1434ZM38.6627 36.7499L42.9052 36.75L42.9053 34.75L38.6628 34.7499L38.6627 36.7499ZM43.6123 36.4571L59.1687 20.9008L57.7545 19.4865L42.1981 35.0429L43.6123 36.4571ZM59.1687 19.4865L54.926 15.2439L53.5118 16.6581L57.7545 20.9008L59.1687 19.4865ZM53.5118 15.2439L37.9555 30.8002L39.3697 32.2145L54.926 16.6581L53.5118 15.2439ZM37.6626 31.5074L37.6627 35.7499L39.6627 35.7499L39.6626 31.5073L37.6626 31.5074ZM49.2692 20.9008L53.5118 25.1434L54.9261 23.7292L50.6834 19.4865L49.2692 20.9008Z" fill="white"/>
</svg>
