<svg width="115" height="69" viewBox="0 0 115 69" fill="none" xmlns="http://www.w3.org/2000/svg">
<path fill-rule="evenodd" clip-rule="evenodd" d="M57.4686 47.7166C43.0755 47.7166 30.9475 37.882 28.9929 24.833C28.7753 23.3802 29.8739 22.0395 31.4468 21.8385C33.0196 21.6375 34.4711 22.6523 34.6887 24.1051C36.251 34.5355 45.956 42.4053 57.4686 42.4053C70.1695 42.4053 80.4686 32.892 80.4686 21.1602C80.4686 18.9773 80.1126 16.8442 79.361 14.6193C72.3341 12.1601 64.7707 10.5759 57.5 10.5759C33.2569 10.5759 5.75 28.1958 5.75 37.1323C5.75 38.3712 7.0898 40.7756 9.60409 43.5479C10.6238 44.6722 10.4637 46.3471 9.24652 47.289C8.02937 48.2308 6.21607 48.083 5.19641 46.9587C1.89209 43.3153 0 39.9197 0 37.1323C0 24.7602 30.4351 5.26463 57.5 5.26463C63.5555 5.26463 69.7793 6.24022 75.7929 7.89342C74.9069 6.76218 73.8681 5.64238 72.6634 4.55518C71.5277 3.53022 71.5065 1.84888 72.6161 0.799792C73.7257 -0.249295 75.546 -0.268855 76.6817 0.756103C80.6638 4.34975 82.9599 7.94512 84.0055 10.6084C101.246 17.2765 115 28.8137 115 37.1323C115 49.687 84.69 69 57.5 69C55.9122 69 54.625 67.8111 54.625 66.3444C54.625 64.8777 55.9122 63.6887 57.5 63.6887C81.8713 63.6887 109.25 46.2435 109.25 37.1323C109.25 31.7306 99.2047 23.1584 85.9036 17.2208C86.1126 18.5161 86.2186 19.8315 86.2186 21.1602C86.2186 35.8254 73.3451 47.7166 57.4686 47.7166Z" fill="#4E6AF0"/>
</svg>
