<svg width="37" height="36" viewBox="0 0 37 36" fill="none" xmlns="http://www.w3.org/2000/svg">
<path d="M12.9718 0.621338L10.7916 2.74266L12.5979 4.50015H6.16667C5.31412 4.50015 4.625 5.17065 4.625 6.00015V9.88515C4.625 10.6697 4.95338 11.4407 5.52379 11.9957L13.875 20.1211L13.875 31.5001C13.875 32.0206 14.1525 32.5021 14.6073 32.7766C14.854 32.9251 15.1345 33.0001 15.4167 33.0001C15.6525 33.0001 15.8884 32.9476 16.1058 32.8427L22.2725 29.8427C22.7951 29.5877 23.125 29.0686 23.125 28.5001L23.125 20.1212L25.8889 17.4319L30.4138 21.8345L32.5941 19.7132L12.9718 0.621338ZM23.709 15.3109L20.4934 18.4397C20.2035 18.7202 20.0417 19.1012 20.0417 19.5001L20.0417 27.5731L16.9583 29.0731V19.5002C16.9583 19.1012 16.7965 18.7202 16.5066 18.4397L7.70833 9.88515V7.50015L15.6812 7.50015L23.709 15.3109Z" fill="#2E3A59"/>
<path d="M30.8333 4.50015H21.3188L24.4022 7.50015H29.2932L29.2963 9.87465L28.0695 11.0683L30.2494 13.1893L31.4762 11.9957C32.0466 11.4407 32.375 10.6696 32.375 9.88515V6.00015C32.375 5.17065 31.6859 4.50015 30.8333 4.50015Z" fill="#2E3A59"/>
</svg>
