<svg width="263" height="260" viewBox="0 0 263 260" fill="none" xmlns="http://www.w3.org/2000/svg">
<rect x="0.282715" width="262.527" height="260" fill="#49D673"/>
<path d="M68.1842 82C66.3295 82.0002 64.5169 82.5434 62.9767 83.5604C61.4366 84.5775 60.2386 86.0225 59.5351 87.7116C58.8316 89.4007 58.6544 91.2577 59.026 93.0462C59.3977 94.8347 60.3014 96.474 61.6221 97.7556C62.9429 99.0372 64.6211 99.9031 66.4433 100.243C68.2654 100.583 70.1492 100.382 71.8549 99.6658C73.5607 98.9491 75.0113 97.7493 76.0224 96.2189C77.0335 94.6885 77.5592 92.8966 77.5328 91.0712C77.4979 88.6534 76.4975 86.3463 74.7481 84.6488C72.9986 82.9513 70.6407 81.9998 68.1842 82V82Z" fill="#FBFCF7"/>
<path d="M190.15 102.599C192.058 102.599 193.923 102.042 195.51 100.998C197.096 99.9546 198.333 98.4713 199.063 96.736C199.793 95.0007 199.985 93.0911 199.612 91.2489C199.24 89.4067 198.321 87.7145 196.972 86.3863C195.622 85.0582 193.903 84.1537 192.032 83.7872C190.16 83.4208 188.22 83.6089 186.457 84.3277C184.694 85.0465 183.188 86.2637 182.127 87.8255C181.067 89.3872 180.501 91.2234 180.501 93.1017C180.501 95.6204 181.518 98.036 183.327 99.817C185.137 101.598 187.591 102.599 190.15 102.599V102.599Z" fill="#FBFCF7"/>
<path d="M52.3487 118.776C53.231 118.776 54.0772 119.121 54.7012 119.735C55.3251 120.349 55.6756 121.182 55.6756 122.051V174.906H64.8579V140.75C64.8579 139.881 65.2084 139.048 65.8324 138.434C66.4563 137.82 67.3025 137.475 68.1849 137.475C69.0672 137.475 69.9134 137.82 70.5374 138.434C71.1613 139.048 71.5118 139.881 71.5118 140.75V174.906H80.6941V122.051C80.6941 121.182 81.0446 120.349 81.6685 119.735C82.2925 119.121 83.1387 118.776 84.021 118.776C84.9034 118.776 85.7496 119.121 86.3735 119.735C86.9975 120.349 87.348 121.182 87.348 122.051V146.743H93.3697V118.94C93.3697 116.499 92.3848 114.158 90.6316 112.433C88.8783 110.707 86.5005 109.737 84.021 109.737H52.3487C49.8693 109.737 47.4914 110.707 45.7382 112.433C43.9849 114.158 43 116.499 43 118.94V146.743H49.0217V122.051C49.0217 121.182 49.3723 120.349 49.9962 119.735C50.6201 119.121 51.4663 118.776 52.3487 118.776V118.776Z" fill="#FBFCF7"/>
<path d="M206.352 112.161H173.948C171.389 112.161 168.935 113.162 167.126 114.943C165.316 116.724 164.3 119.139 164.3 121.658V150.28H170.621V124.835C170.621 123.966 170.971 123.133 171.595 122.519C172.219 121.905 173.066 121.56 173.948 121.56C174.83 121.56 175.676 121.905 176.3 122.519C176.924 123.133 177.275 123.966 177.275 124.835V179H186.823V143.992C186.823 143.124 187.174 142.291 187.798 141.676C188.421 141.062 189.268 140.717 190.15 140.717C191.032 140.717 191.879 141.062 192.503 141.676C193.126 142.291 193.477 143.124 193.477 143.992V179H203.025V124.835C203.025 123.966 203.376 123.133 204 122.519C204.624 121.905 205.47 121.56 206.352 121.56C207.235 121.56 208.081 121.905 208.705 122.519C209.329 123.133 209.679 123.966 209.679 124.835V150.28H216V121.658C216 120.411 215.751 119.176 215.266 118.024C214.781 116.871 214.07 115.824 213.174 114.943C212.279 114.061 211.215 113.361 210.044 112.884C208.874 112.407 207.619 112.161 206.352 112.161V112.161Z" fill="#FBFCF7"/>
<path d="M151.959 135.557H104.898C104.487 135.557 104.092 135.306 103.801 134.859C103.51 134.413 103.346 133.807 103.346 133.176C103.346 132.545 103.51 131.939 103.801 131.493C104.092 131.046 104.487 130.795 104.898 130.795H151.959C152.371 130.795 152.766 131.046 153.057 131.493C153.348 131.939 153.511 132.545 153.511 133.176C153.511 133.807 153.348 134.413 153.057 134.859C152.766 135.306 152.371 135.557 151.959 135.557Z" fill="#FBFCF7"/>
<path d="M106.714 142.675L95.9888 133.176L106.714 123.678V142.675Z" fill="#FBFCF7"/>
<path d="M150.143 142.675L160.868 133.176L150.143 123.678V142.675Z" fill="#FBFCF7"/>
</svg>
