<svg width="81" height="52" viewBox="0 0 81 52" fill="none" xmlns="http://www.w3.org/2000/svg">
<path d="M12.1434 0.0610352C11.2858 0.0611325 10.4477 0.347057 9.73551 0.882436C9.02336 1.41781 8.46941 2.17846 8.14411 3.06761C7.81882 3.95676 7.73688 4.93424 7.90873 5.87572C8.08057 6.8172 8.49843 7.68014 9.10915 8.35476C9.71987 9.02938 10.4959 9.4852 11.3384 9.66425C12.181 9.8433 13.052 9.73748 13.8407 9.36025C14.6295 8.98302 15.3003 8.35143 15.7678 7.54582C16.2353 6.7402 16.4784 5.79697 16.4662 4.8361C16.45 3.56337 15.9874 2.34892 15.1785 1.45535C14.3696 0.561781 13.2793 0.0609062 12.1434 0.0610352Z" fill="#FBFCF7"/>
<path d="M68.5396 10.9041C69.422 10.9041 70.2845 10.6109 71.0181 10.0616C71.7518 9.51227 72.3236 8.7315 72.6613 7.81803C72.9989 6.90455 73.0873 5.89938 72.9151 4.92964C72.743 3.9599 72.3181 3.06913 71.6942 2.36999C71.0703 1.67084 70.2753 1.19471 69.4099 1.00182C68.5446 0.808927 67.6475 0.907929 66.8324 1.2863C66.0172 1.66468 65.3204 2.30543 64.8302 3.12754C64.34 3.94965 64.0784 4.91619 64.0784 5.90493C64.0784 7.23079 64.5484 8.50235 65.385 9.43987C66.2217 10.3774 67.3564 10.9041 68.5396 10.9041Z" fill="#FBFCF7"/>
<path d="M4.82083 19.4197C5.22883 19.4197 5.62012 19.6013 5.90862 19.9246C6.19711 20.2479 6.35919 20.6863 6.35919 21.1435V48.9665H10.6051V30.9867C10.6051 30.5295 10.7671 30.0911 11.0556 29.7678C11.3441 29.4445 11.7354 29.2629 12.1434 29.2629C12.5514 29.2629 12.9427 29.4445 13.2312 29.7678C13.5197 30.0911 13.6818 30.5295 13.6818 30.9867V48.9665H17.9276V21.1435C17.9276 20.6863 18.0897 20.2479 18.3782 19.9246C18.6667 19.6013 19.058 19.4197 19.466 19.4197C19.874 19.4197 20.2653 19.6013 20.5538 19.9246C20.8423 20.2479 21.0044 20.6863 21.0044 21.1435V34.1414H23.7888V19.5059C23.7888 18.2212 23.3334 16.9891 22.5227 16.0806C21.712 15.1722 20.6125 14.6619 19.466 14.6619H4.82083C3.67436 14.6619 2.57484 15.1722 1.76416 16.0806C0.953482 16.9891 0.498047 18.2212 0.498047 19.5059V34.1414H3.28247V21.1435C3.28247 20.6863 3.44455 20.2479 3.73305 19.9246C4.02155 19.6013 4.41284 19.4197 4.82083 19.4197Z" fill="#FBFCF7"/>
<path d="M76.0315 15.938H61.0479C59.8647 15.938 58.73 16.4647 57.8933 17.4022C57.0567 18.3397 56.5867 19.6113 56.5867 20.9372V36.0036H59.5096V22.6093C59.5096 22.1521 59.6716 21.7136 59.9601 21.3903C60.2486 21.0671 60.6399 20.8854 61.0479 20.8854C61.4559 20.8854 61.8472 21.0671 62.1357 21.3903C62.4242 21.7136 62.5863 22.1521 62.5863 22.6093V51.1218H67.0014V32.6938C67.0014 32.2366 67.1634 31.7981 67.4519 31.4749C67.7404 31.1516 68.1317 30.97 68.5397 30.97C68.9477 30.97 69.339 31.1516 69.6275 31.4749C69.916 31.7981 70.0781 32.2366 70.0781 32.6938V51.1218H74.4932V22.6093C74.4932 22.1521 74.6552 21.7136 74.9437 21.3903C75.2322 21.0671 75.6235 20.8854 76.0315 20.8854C76.4395 20.8854 76.8308 21.0671 77.1193 21.3903C77.4078 21.7136 77.5699 22.1521 77.5699 22.6093V36.0036H80.4928V20.9372C80.4928 20.2807 80.3774 19.6306 80.1532 19.0241C79.929 18.4175 79.6004 17.8664 79.1861 17.4022C78.7718 16.938 78.28 16.5698 77.7388 16.3185C77.1975 16.0673 76.6174 15.938 76.0315 15.938Z" fill="#FBFCF7"/>
<path d="M51.155 30.6279H30.8449C30.6672 30.6279 30.4969 30.5091 30.3712 30.2976C30.2456 30.0861 30.175 29.7992 30.175 29.5001C30.175 29.201 30.2456 28.9141 30.3712 28.7026C30.4969 28.4911 30.6672 28.3723 30.8449 28.3723H51.155C51.3326 28.3723 51.503 28.4911 51.6286 28.7026C51.7542 28.9141 51.8248 29.201 51.8248 29.5001C51.8248 29.7992 51.7542 30.0861 51.6286 30.2976C51.503 30.5091 51.3326 30.6279 51.155 30.6279Z" fill="#FBFCF7"/>
<path d="M31.6287 33.9999L27 29.5L31.6287 25V33.9999Z" fill="#FBFCF7"/>
<path d="M50.3713 33.9999L55 29.5L50.3713 25V33.9999Z" fill="#FBFCF7"/>
</svg>
