<svg width="57" height="62" viewBox="0 0 57 62" fill="none" xmlns="http://www.w3.org/2000/svg">
<path fill-rule="evenodd" clip-rule="evenodd" d="M43.9182 11.3287H53.8121C55.3089 11.3287 56.4759 12.7361 56.3237 14.3643L52.4168 56.946C52.1631 59.209 50.4127 61.0027 48.2817 61.0027H43.9689L43.9182 38.9254C43.9182 27.252 36.0537 20.0493 26.7179 17.7035L26.4135 14.3643C26.2866 12.7361 27.4536 11.3287 28.9504 11.3287H38.8443V3.04971C38.8443 1.53189 39.986 0.290039 41.3813 0.290039C42.7766 0.290039 43.9182 1.53189 43.9182 3.04971V11.3287ZM36.3074 55.4834C37.7027 55.4834 38.8443 56.7253 38.8443 58.2431C38.8443 59.7609 37.7027 61.0027 36.3074 61.0027H3.32756C1.93226 61.0027 0.790649 59.7609 0.790649 58.2431C0.790649 56.7253 1.93226 55.4834 3.32756 55.4834H36.3074ZM36.0537 38.9254C37.6266 38.9254 38.8697 37.38 38.5653 35.7242C36.9163 26.8105 28.3669 22.3398 19.8175 22.3398C11.2681 22.3398 2.74407 26.8105 1.06971 35.7242C0.76528 37.38 2.03374 38.9254 3.58125 38.9254H36.0537ZM0.790649 47.2044C0.790649 45.6866 1.93226 44.4447 3.32756 44.4447H36.3074C37.7027 44.4447 38.8443 45.6866 38.8443 47.2044C38.8443 48.7222 37.7027 49.9641 36.3074 49.9641H3.32756C1.93226 49.9641 0.790649 48.7222 0.790649 47.2044Z" fill="#FBFCF7"/>
</svg>
