<svg width="263" height="260" viewBox="0 0 263 260" fill="none" xmlns="http://www.w3.org/2000/svg">
<rect width="262.527" height="260" fill="#FF725C"/>
<path fill-rule="evenodd" clip-rule="evenodd" d="M162.854 86H189.179C193.161 86 196.266 89.06 195.861 92.6L185.466 185.18C184.791 190.1 180.134 194 174.464 194H162.989L162.854 146C162.854 120.62 141.929 104.96 117.089 99.86L116.279 92.6C115.941 89.06 119.046 86 123.029 86H149.354V68C149.354 64.7 152.391 62 156.104 62C159.816 62 162.854 64.7 162.854 68V86ZM142.604 182C146.316 182 149.354 184.7 149.354 188C149.354 191.3 146.316 194 142.604 194H54.8535C51.141 194 48.1035 191.3 48.1035 188C48.1035 184.7 51.141 182 54.8535 182H142.604ZM55.5285 146H141.929C146.114 146 149.421 142.64 148.611 139.04C144.224 119.66 121.476 109.94 98.7285 109.94C75.981 109.94 53.301 119.66 48.846 139.04C48.036 142.64 51.411 146 55.5285 146ZM54.8535 158H142.604C146.316 158 149.354 160.7 149.354 164C149.354 167.3 146.316 170 142.604 170H54.8535C51.141 170 48.1035 167.3 48.1035 164C48.1035 160.7 51.141 158 54.8535 158Z" fill="#FBFCF7"/>
</svg>
