<svg width="964" height="634" viewBox="0 0 964 634" fill="none" xmlns="http://www.w3.org/2000/svg">
<path d="M890.146 23.1233H23.6709V561.859H890.146V23.1233Z" fill="#FF0000"/>
<path d="M250.319 182.944H192.372V211.247H221.346V239.549H250.319V182.944Z" fill="black"/>
<path d="M593.396 97.9854H564.422V126.34H535.395V97.9854H506.422V126.34H477.395V267.903H506.422V126.34H535.395V182.944H564.422V126.34H593.396V267.903H622.369V126.34H593.396V97.9854Z" fill="black"/>
<path d="M221.345 97.9854H134.371V126.34H105.397V239.549H134.371V126.34H221.345V154.642H250.319V126.34H221.345V97.9854Z" fill="black"/>
<path d="M407.344 97.9854H320.37V126.34H291.396V267.903H320.37V211.246H378.371V182.944H320.37V126.34H407.344V267.903H436.371V126.34H407.344V97.9854Z" fill="black"/>
<path d="M808.421 126.34V97.9854H692.42V126.34H663.446V239.549H692.42V182.944H750.42V154.59H692.42V126.34H808.421Z" fill="black"/>
<path d="M221.346 239.548H134.372V267.851H221.346V239.548Z" fill="black"/>
<path d="M808.423 239.548H692.422V267.851H808.423V239.548Z" fill="black"/>
<path d="M436.372 317.026H407.398V430.339H436.372V317.026Z" fill="black"/>
<path d="M779.396 317.026H692.422V345.328H779.396V317.026Z" fill="black"/>
<path d="M622.424 317.026H506.423V345.328H622.424V317.026Z" fill="black"/>
<path d="M221.346 317.026H134.372V345.328H221.346V317.026Z" fill="black"/>
<path d="M779.394 345.38V373.683H750.421V401.985H808.422V345.38H779.394Z" fill="black"/>
<path d="M477.395 458.641H506.422V401.985H564.422V373.683H506.422V345.38H477.395V458.641Z" fill="black"/>
<path d="M250.32 345.328H221.347V458.642H250.32V345.328Z" fill="black"/>
<path d="M407.344 430.339H378.37V458.641H407.344V430.339Z" fill="black"/>
<path d="M349.342 430.339H320.368V458.641H349.342V430.339Z" fill="black"/>
<path d="M692.42 401.985V345.38H663.446V486.944H692.42V430.339H721.447V458.641H779.394V430.339H750.42V401.985H692.42Z" fill="black"/>
<path d="M134.371 345.328H105.397V458.642H134.371V345.328Z" fill="black"/>
<path d="M320.37 317.026H291.396V430.339H320.37V317.026Z" fill="black"/>
<path d="M378.369 458.641H349.396V486.944H378.369V458.641Z" fill="black"/>
<path d="M808.366 458.641H779.393V486.944H808.366V458.641Z" fill="black"/>
<path d="M622.424 458.641H506.423V486.944H622.424V458.641Z" fill="black"/>
<path d="M221.346 458.641H134.372V486.944H221.346V458.641Z" fill="black"/>
<path d="M913.765 66.3348V0L0 0L0 584.929H67.9085V634H964V66.3348H913.765ZM890.147 561.858H23.6716V23.123H890.147V561.858Z" fill="black"/>
</svg>
