<svg width="139" height="332" viewBox="0 0 139 332" fill="none" xmlns="http://www.w3.org/2000/svg">
<rect x="58.759" y="84.1684" width="56.1015" height="52.1965" fill="#503216"/>
<path d="M87.1906 218.913C90.2368 233.645 89.7291 288.253 87.1906 306.032" stroke="#F6DDD6" stroke-width="15.0567" stroke-linecap="round" stroke-linejoin="bevel"/>
<path d="M55.7808 217.389C52.7346 232.121 53.2422 286.73 55.7808 304.509" stroke="#F6DDD6" stroke-width="15.0567" stroke-linecap="round" stroke-linejoin="bevel"/>
<path d="M22.2043 164.304C22.2043 181.322 13.5735 193.514 9.51169 204.689" stroke="#FBE8E3" stroke-width="18.5699" stroke-linecap="round" stroke-linejoin="bevel"/>
<path d="M16.7585 217.305L25.6433 189.874H81.7448L124.646 203.082V220.861L84.0294 226.449H39.859L16.7585 217.305Z" fill="#CEAF9A"/>
<path d="M93.283 232.629L48.6052 227.549L38.9588 203.165L99.3755 205.705L93.283 232.629Z" fill="#6A8AB9"/>
<path d="M68.6594 209.007H110.037L98.0894 292.572H76.2706V252.636L68.6594 209.007Z" fill="#6A8AB9"/>
<path d="M31.8507 209.769H68.9133L64.8517 258.137V291.302L45.0513 288.077L31.8507 209.769Z" fill="#6A8AB9"/>
<path d="M10.616 165.037C11.3268 163.232 13.3667 162.344 15.1721 163.055L30.1302 168.945C31.9356 169.656 32.8229 171.696 32.112 173.501L29.7547 179.488C29.0438 181.293 27.004 182.18 25.1986 181.47L10.2405 175.58C8.43506 174.869 7.54777 172.829 8.25864 171.024L10.616 165.037Z" fill="#E1C6B3"/>
<path d="M30.8354 187.164H111.561L110.291 210.29H31.3431L30.8354 187.164Z" fill="#5C7CAC"/>
<path d="M45.3333 191.395L47.1103 209.937C47.2028 210.903 48.0607 211.61 49.0265 211.518C49.9922 211.425 50.7001 210.567 50.6075 209.602L48.8306 191.06C48.738 190.094 47.8801 189.387 46.9144 189.479C45.9486 189.572 45.2408 190.43 45.3333 191.395Z" fill="#51709D"/>
<path d="M93.0291 191.228L91.2521 209.769" stroke="#51709D" stroke-width="3.51323" stroke-linecap="round"/>
<path d="M23.6877 122.744C27.2697 111.134 40.5771 105.711 51.2524 111.51C60.9882 116.799 64.2625 129.197 58.4077 138.603L41.3824 165.955C37.4556 172.263 29.9776 175.407 22.724 173.798C9.80026 170.931 4.59813 155.313 13.2219 145.269L15.9911 142.044C17.7844 139.955 19.129 137.519 19.9408 134.888L23.6877 122.744Z" fill="#E1C6B3"/>
<rect x="38.9588" y="110.203" width="58.64" height="82.5483" rx="28.1058" fill="#EFD6C5"/>
<path d="M55.2053 192.443C44.0357 192.443 31.7358 213.495 16.7585 217.559C13.7123 201.079 22.6422 187.299 25.2506 174.718C27.4258 164.226 30.3277 154.81 30.3277 144.184V122.341C36.7585 119.123 49.9252 109.594 49.1129 117.315C48.0973 126.967 47.5896 144.184 69.9287 144.184C92.2677 144.184 79.5665 122.341 94.8063 122.341C116.13 122.341 127.438 209.939 125.407 219.083C123.783 226.398 117.653 211.856 114.099 207.737L104.453 201.079L89.9831 192.443C80.5058 192.782 66.3747 192.443 55.2053 192.443Z" fill="#EFD4C5"/>
<path fill-rule="evenodd" clip-rule="evenodd" d="M49.587 185.196C45.5679 177.006 43.1373 167.448 43.1373 158.095H46.6506C46.6506 166.884 48.9483 175.919 52.741 183.648C54.5347 187.303 56.57 190.394 58.378 192.475H53.9042C52.4095 190.417 50.9361 187.945 49.587 185.196ZM92.0459 192.475C92.8563 191.374 93.5749 190.147 94.1907 188.816C96.1299 184.628 96.8378 179.793 96.0253 176.111L92.5946 176.869C93.2305 179.75 92.6356 183.813 91.0025 187.341C90.0295 189.442 88.7759 191.193 87.3266 192.475H92.0459ZM73.4667 192.475C74.0516 191.135 74.3005 189.794 74.3493 188.225C74.3602 187.876 74.3623 187.605 74.3623 186.999C74.3623 184.009 74.6332 182.586 76.0313 180.161L72.9877 178.407C72.0098 180.103 71.4185 181.675 71.118 183.254C70.8936 184.432 70.849 185.279 70.849 186.999C70.849 187.569 70.8471 187.816 70.8378 188.115C70.785 189.812 70.4562 190.999 69.4573 192.475H73.4667Z" fill="#DDC1AD"/>
<path d="M111.192 225.687C123.81 225.687 134.038 215.453 134.038 202.828C134.038 190.203 123.81 179.968 111.192 179.968C98.5737 179.968 88.3449 190.203 88.3449 202.828C88.3449 215.453 98.5737 225.687 111.192 225.687Z" fill="#6C4D4B"/>
<path fill-rule="evenodd" clip-rule="evenodd" d="M116.163 225.098C127.666 225.098 136.991 215.772 136.991 204.269C136.991 192.766 127.666 183.441 116.163 183.441C104.66 183.441 95.3343 192.766 95.3343 204.269C95.3343 215.772 104.66 225.098 116.163 225.098Z" fill="#8F5B47"/>
<path fill-rule="evenodd" clip-rule="evenodd" d="M116.015 227.465C128.633 227.465 138.862 217.231 138.862 204.606C138.862 191.981 128.633 181.746 116.015 181.746C103.397 181.746 93.1681 191.981 93.1681 204.606C93.1681 217.231 103.397 227.465 116.015 227.465ZM116.015 184.255C127.246 184.255 136.352 193.366 136.352 204.606C136.352 215.845 127.246 224.956 116.015 224.956C104.783 224.956 95.6776 215.845 95.6776 204.606C95.6776 193.366 104.783 184.255 116.015 184.255Z" fill="#E3A490"/>
<path d="M69.2653 147.648C59.8937 144.962 54.474 135.188 57.1599 125.816C59.8459 116.445 69.6204 111.025 78.9919 113.711L101.427 120.141C110.799 122.827 116.219 132.602 113.533 141.973C110.847 151.345 101.072 156.764 91.7008 154.079L69.2653 147.648Z" fill="#EFD6C5"/>
<path d="M93.7734 197.911L91.2349 131.364C91.1847 130.049 90.0774 129.023 88.7617 129.073C87.446 129.123 86.4201 130.23 86.4703 131.546L89.0089 198.093C89.0591 199.408 90.1664 200.434 91.4821 200.384C92.7977 200.334 93.8236 199.227 93.7734 197.911Z" fill="#E3A490"/>
<path d="M88.3281 200.498L93.405 201.514L93.9466 198.807L88.8697 197.791L88.3281 200.498Z" fill="#E3A490"/>
<path d="M105.976 138.397C117.145 158.208 125.269 196.816 121.207 207.991" stroke="#FBE8E3" stroke-width="18.5699" stroke-linecap="round" stroke-linejoin="bevel"/>
<path d="M87.5143 139.702C84.4269 131.743 87.7333 122.727 95.2346 118.651C104.544 113.594 116.155 118.215 119.445 128.287L126.186 148.923C128.062 154.665 126.372 160.973 121.878 165.008C119.284 167.337 115.971 168.706 112.49 168.888L111.712 168.929C104.19 169.321 97.2666 164.841 94.5418 157.817L87.5143 139.702Z" fill="#E1C6B3"/>
<path d="M42.7664 284.697H66.1208L65.3592 295.621H44.6704L42.7664 284.697Z" fill="#5C7CAC"/>
<path d="M75.5135 284.697H100.137L97.8525 295.621H76.0212L75.5135 284.697Z" fill="#5C7CAC"/>
<mask id="mask0_0:127" style="mask-type:alpha" maskUnits="userSpaceOnUse" x="63" y="191" width="15" height="21">
<rect x="63.0746" y="191.99" width="14.7235" height="19.0496" rx="1.50567" fill="white"/>
</mask>
<g mask="url(#mask0_0:127)">
<path fill-rule="evenodd" clip-rule="evenodd" d="M76.2924 188.476H64.5803C61.8084 188.476 59.5613 190.723 59.5613 193.495V209.534C59.5613 212.305 61.8084 214.552 64.5803 214.552H76.2924C79.0643 214.552 81.3113 212.305 81.3113 209.534V193.495C81.3113 190.723 79.0643 188.476 76.2924 188.476ZM66.5879 207.526V195.503H74.2848V207.526H66.5879Z" fill="#51709D"/>
</g>
<path d="M104.396 167.992C103.765 166.157 104.74 164.158 106.575 163.526L121.775 158.295C123.61 157.663 125.609 158.639 126.24 160.473L128.335 166.558C128.966 168.392 127.991 170.391 126.156 171.023L110.955 176.254C109.121 176.886 107.122 175.911 106.49 174.076L104.396 167.992Z" fill="#E1C6B3"/>
<path d="M79.8368 301.693L95.3195 301.962L93.4261 315.902L77.8165 315.628L79.8368 301.693Z" fill="white"/>
<path d="M79.8915 302.117C79.9324 301.872 80.1468 301.693 80.3952 301.698L95.0194 301.952C95.316 301.959 95.5436 302.218 95.5092 302.514L95.33 304.047C95.3002 304.303 95.0809 304.494 94.8229 304.489L80.1212 304.233C79.8145 304.228 79.5844 303.952 79.6351 303.648L79.8915 302.117Z" fill="#FFA970"/>
<path d="M79.562 306.424C79.6032 306.18 79.8175 306.002 80.0659 306.007L94.6901 306.261C94.9867 306.266 95.2143 306.527 95.1799 306.823L95.0008 308.356C94.9709 308.612 94.7516 308.803 94.4936 308.798L79.7919 308.542C79.4852 308.537 79.2551 308.261 79.3058 307.957L79.562 306.424Z" fill="#FFA970"/>
<path fill-rule="evenodd" clip-rule="evenodd" d="M86.9451 311.46C92.0772 311.551 94.6886 308.996 94.742 305.944C94.742 305.944 94.742 305.944 94.742 305.942L97.391 306.057L107.404 315.139L114.838 318.278C116.449 320.07 117.437 322.334 117.655 324.735L117.748 325.762L75.1338 323.957L75.8189 313.807L78.1168 305.217L80.1793 304.772C80.0812 305.069 80.0263 305.375 80.0207 305.688C79.9675 308.74 83.2903 311.397 86.9451 311.46Z" fill="#4CB4D4"/>
<path d="M87.6305 313.377C80.0117 314.04 80.1342 308.885 77.446 307.739C76.1416 309.749 75.2806 315.448 75.2385 317.862C82.1541 321.666 93.1433 317.538 112.979 322.966C114.174 322.394 113.985 320.64 112.697 320.334L104.427 318.371C102.408 317.658 95.249 312.715 87.6305 313.377Z" fill="#FFC9C6"/>
<path d="M74.1104 325.267C74.7375 323.285 76.5933 321.95 78.6726 321.985L91.7896 322.216C94.3842 322.261 96.451 324.401 96.4058 326.996C96.3606 329.591 94.2203 331.656 91.6255 331.611L78.5088 331.383C75.3667 331.327 73.1629 328.263 74.1104 325.267Z" fill="#D7E3EE"/>
<path d="M89.8089 326.753C89.8358 325.211 91.1083 323.982 92.6511 324.009L108.384 324.283C109.927 324.31 111.156 325.583 111.129 327.125C111.102 328.668 109.83 329.897 108.287 329.87L92.5537 329.596C91.0108 329.569 89.782 328.296 89.8089 326.753Z" fill="#D7E3EE"/>
<path d="M99.9462 327.812C99.9816 325.782 101.655 324.166 103.685 324.201L115.587 324.409C117.64 324.444 119.147 326.349 118.71 328.354C118.399 329.787 117.167 330.836 115.703 330.913L103.816 331.546C101.688 331.659 99.909 329.942 99.9462 327.812Z" fill="#D7E3EE"/>
<path d="M79.9102 326.581C79.9273 325.599 80.7371 324.817 81.7189 324.834L90.8542 324.993C91.836 325.011 92.618 325.82 92.6009 326.802C92.5838 327.784 91.774 328.566 90.7922 328.549L81.6569 328.389C80.6751 328.372 79.8931 327.563 79.9102 326.581Z" fill="#B6C2D3"/>
<path d="M103.081 328.517C103.059 327.886 103.553 327.357 104.184 327.335L107.227 327.229C107.858 327.207 108.387 327.7 108.409 328.331C108.431 328.962 107.937 329.491 107.307 329.513L104.263 329.62C103.633 329.642 103.103 329.148 103.081 328.517Z" fill="#B6C2D3"/>
<path d="M109.646 328.266C109.624 327.636 110.117 327.106 110.748 327.084L111.825 327.047C112.456 327.025 112.986 327.518 113.008 328.149C113.03 328.78 112.536 329.309 111.905 329.331L110.828 329.369C110.197 329.391 109.668 328.897 109.646 328.266Z" fill="#B6C2D3"/>
<path d="M73.565 326.47C73.5821 325.488 74.3919 324.706 75.3737 324.724L76.387 324.741C77.3688 324.758 78.1508 325.568 78.1336 326.55C78.1165 327.532 77.3067 328.314 76.3249 328.297L75.3117 328.279C74.3299 328.262 73.5479 327.452 73.565 326.47Z" fill="#B6C2D3"/>
<path d="M63.0545 301.42L47.5789 301.959L49.7152 315.864L65.3175 315.32L63.0545 301.42Z" fill="white"/>
<path d="M63.2613 301.841C63.2159 301.596 62.9985 301.422 62.7504 301.43L48.1327 301.942C47.8361 301.952 47.6132 302.215 47.6529 302.509L47.8587 304.04C47.893 304.296 48.1156 304.484 48.3736 304.474L63.0683 303.962C63.375 303.949 63.6003 303.668 63.5444 303.367L63.2613 301.841Z" fill="#FFA970"/>
<path d="M63.4113 306.138C63.3659 305.894 63.1486 305.719 62.9004 305.729L48.2827 306.238C47.9864 306.248 47.7633 306.514 47.8029 306.808L48.0087 308.336C48.0431 308.592 48.2657 308.78 48.5236 308.773L63.2183 308.258C63.525 308.248 63.7503 307.967 63.6944 307.666L63.4113 306.138Z" fill="#FFA970"/>
<path fill-rule="evenodd" clip-rule="evenodd" d="M56.1173 311.302C50.9875 311.48 48.3319 308.973 48.2255 305.924C48.2255 305.922 48.2255 305.922 48.2253 305.919L45.5786 306.082L35.7254 315.337L28.3475 318.607C26.7683 320.426 25.8197 322.708 25.6436 325.109L25.5683 326.138L68.1447 323.588L67.283 313.453L64.8355 304.903L62.7654 304.496C62.8688 304.793 62.929 305.096 62.9401 305.41C63.0465 308.459 59.7706 311.174 56.1173 311.302Z" fill="#4CB4D4"/>
<path d="M55.4656 313.232C63.0946 313.761 62.8823 308.609 65.5499 307.415C66.8892 309.4 67.8498 315.086 67.9339 317.498C61.0856 321.423 50.0261 317.488 30.2878 323.26C29.0838 322.71 29.2411 320.951 30.5242 320.622L38.7586 318.517C40.7646 317.769 47.8366 312.702 55.4656 313.232Z" fill="#FFC9C6"/>
<path d="M69.1909 324.883C68.5294 322.911 66.6505 321.608 64.5719 321.681L51.4612 322.138C48.8674 322.231 46.8385 324.406 46.9289 326.999C47.0195 329.593 49.1954 331.621 51.789 331.531L64.8999 331.074C68.0403 330.964 70.1904 327.862 69.1909 324.883Z" fill="#D7E3EE"/>
<path d="M53.5206 326.642C53.4668 325.1 52.173 323.893 50.6309 323.947L34.9047 324.496C33.3626 324.55 32.1561 325.844 32.2099 327.386C32.2638 328.928 33.5575 330.134 35.0996 330.081L50.8258 329.532C52.3679 329.478 53.5744 328.184 53.5206 326.642Z" fill="#D7E3EE"/>
<path d="M43.4036 327.877C43.3328 325.849 41.6309 324.261 39.6022 324.334L27.7056 324.748C25.6538 324.82 24.18 326.75 24.6516 328.748C24.9881 330.176 26.2375 331.202 27.7028 331.252L39.599 331.679C41.7295 331.754 43.4778 330.008 43.4036 327.877Z" fill="#D7E3EE"/>
<path d="M63.4149 326.296C63.3806 325.315 62.5573 324.547 61.576 324.582L52.4448 324.9C51.4635 324.935 50.6957 325.758 50.7299 326.739C50.7642 327.721 51.5875 328.488 52.5688 328.454L61.7 328.135C62.6813 328.101 63.4491 327.278 63.4149 326.296Z" fill="#B6C2D3"/>
<path d="M40.281 328.638C40.292 328.007 39.7893 327.487 39.1581 327.476L36.1136 327.422C35.4825 327.411 34.9619 327.914 34.9509 328.545C34.9399 329.176 35.4426 329.697 36.0737 329.708L39.1182 329.761C39.7494 329.772 40.27 329.269 40.281 328.638Z" fill="#B6C2D3"/>
<path d="M33.7132 328.5C33.7242 327.869 33.2214 327.349 32.5903 327.338L31.5126 327.319C30.8814 327.308 30.3608 327.81 30.3498 328.442C30.3388 329.073 30.8415 329.593 31.4727 329.604L32.5504 329.623C33.1816 329.634 33.7021 329.131 33.7132 328.5Z" fill="#B6C2D3"/>
<path d="M69.7573 326.075C69.7231 325.094 68.8998 324.326 67.9184 324.361L66.9056 324.396C65.9243 324.43 65.1565 325.254 65.1908 326.235C65.225 327.216 66.0483 327.984 67.0297 327.95L68.0425 327.914C69.0238 327.88 69.7916 327.057 69.7573 326.075Z" fill="#B6C2D3"/>
<path d="M68.5324 139.667C78.136 139.667 85.9213 131.536 85.9213 121.506C85.9213 111.476 78.136 103.345 68.5324 103.345C58.9288 103.345 51.1435 111.476 51.1435 121.506C51.1435 131.536 58.9288 139.667 68.5324 139.667Z" fill="#DFC5B2"/>
<rect x="58.2516" y="104.361" width="19.6245" height="29.4531" rx="9.81216" fill="#EED1C9"/>
<path d="M15.2443 101.719C13.8364 91.6963 20.8203 82.4298 30.8432 81.022L70.1234 75.5046C80.1462 74.0967 89.4127 81.0806 90.8206 91.1035C92.2285 101.126 85.2446 110.393 75.2217 111.801L35.9416 117.318C25.9187 118.726 16.6522 111.742 15.2443 101.719Z" fill="#503216"/>
<path d="M28.3955 85.3851C36.5844 85.3851 43.2228 79.0848 43.2228 71.313C43.2228 63.5412 36.5844 57.2409 28.3955 57.2409C20.2065 57.2409 13.5681 63.5412 13.5681 71.313C13.5681 79.0848 20.2065 85.3851 28.3955 85.3851Z" fill="#EBBAAA"/>
<path d="M103.09 53.3308C98.4636 34.0296 78.5136 24.1122 70.7802 21.7418C67.2496 15.1388 67.754 1.45657 73.3019 0.408971C81.3716 -1.11482 103.052 8.53579 112.635 27.3291C124.683 50.9566 123.027 109.902 120.119 130.729C116.365 122.726 112.635 115.382 100.593 116.587C106.676 89.667 103.09 70.0922 103.09 70.0922C103.09 70.0922 105.646 63.9972 103.09 53.3308Z" fill="#62360D"/>
<path d="M102.461 85.5316C110.65 85.5316 117.288 79.2313 117.288 71.4595C117.288 63.6878 110.65 57.3875 102.461 57.3875C94.2718 57.3875 87.6333 63.6878 87.6333 71.4595C87.6333 79.2313 94.2718 85.5316 102.461 85.5316Z" fill="#EBBAAA"/>
<path d="M27.4173 44.6002C27.4173 24.1765 44.9201 7.61987 66.5108 7.61987C88.1013 7.61987 105.604 24.1765 105.604 44.6002V81.3814C102.451 105.239 83.5353 118.362 66.5108 118.362C49.4863 118.362 29.7293 102.456 27.4173 81.3814V44.6002Z" fill="#F6DDD6"/>
<path fill-rule="evenodd" clip-rule="evenodd" d="M56.1028 89.7853V93.812C56.1028 99.997 61.1167 105.011 67.302 105.011C73.4871 105.011 78.5013 99.997 78.5013 93.812V89.7853H56.1028Z" fill="#393939"/>
<mask id="mask1_0:127" style="mask-type:alpha" maskUnits="userSpaceOnUse" x="56" y="89" width="23" height="17">
<path fill-rule="evenodd" clip-rule="evenodd" d="M56.1028 89.7853V93.812C56.1028 99.997 61.1167 105.011 67.302 105.011C73.4871 105.011 78.5013 99.997 78.5013 93.812V89.7853H56.1028Z" fill="white"/>
</mask>
<g mask="url(#mask1_0:127)">
<path d="M67.2282 108.408C71.5247 108.408 75.0076 106.498 75.0076 104.142C75.0076 101.786 71.5247 99.876 67.2282 99.876C62.9318 99.876 59.4489 101.786 59.4489 104.142C59.4489 106.498 62.9318 108.408 67.2282 108.408Z" fill="#FF6C6C"/>
<rect x="55.6847" y="89.3364" width="24.3419" height="5.0189" fill="white"/>
</g>
<path d="M68.3753 0.90829C77.496 -3.28816 101.074 7.26746 111.744 28.207C111.744 28.207 117.527 40.84 118.944 49.5711C120.343 58.1853 115.758 62.5422 115.758 62.5422L105.604 57.0573C105.604 57.0573 97.9883 45.1914 88.3419 37.1125C78.6955 29.0336 70.4717 26.7053 67.9515 24.9249C65.4315 23.1446 65.1349 7.77535 68.3753 0.90829Z" fill="#62360D"/>
<path d="M41.8989 56.4441L56.2764 55.816C57.1072 55.7797 57.7512 55.0768 57.7149 54.246C57.6786 53.4153 56.9758 52.7712 56.145 52.8075L41.7675 53.4356C40.9367 53.4719 40.2927 54.1748 40.3289 55.0056C40.3652 55.8363 41.0681 56.4804 41.8989 56.4441Z" fill="#62360D"/>
<path d="M41.3674 91.1599C45.7837 91.1599 49.3638 87.5778 49.3638 83.1591C49.3638 78.7404 45.7837 75.1583 41.3674 75.1583C36.9512 75.1583 33.3711 78.7404 33.3711 83.1591C33.3711 87.5778 36.9512 91.1599 41.3674 91.1599Z" fill="#F2CACA"/>
<path d="M40.2402 53.6696C43.3607 39.9416 58.9063 26.8069 66.2674 24.4342C69.3031 23.4557 71.3337 0 66.2674 0C53.442 0 33.0982 12.9015 25.8383 24.4342C13.9163 43.3731 9.70042 64.6057 16.0464 112.394C17.5992 124.089 13.8112 129.173 11.1707 131.969C18.4514 139.444 45.7351 142.138 45.7351 142.138C45.7351 142.138 50.3285 136.427 47.2012 125.106C41.5531 104.658 37.1199 67.3975 40.2402 53.6696Z" fill="#7D430D"/>
<path d="M29.7167 25.6447C26.8938 29.3166 23.5732 35.9794 21.022 43.333C18.0093 52.0172 16.2564 60.9683 16.2564 69.0798C16.2564 69.7728 16.8182 70.3346 17.5111 70.3346C18.2041 70.3346 18.7659 69.7728 18.7659 69.0798C18.7659 61.2737 20.4659 52.5924 23.3929 44.1555C25.8624 37.0371 29.067 30.6071 31.7062 27.1742C32.1286 26.6248 32.0256 25.837 31.4762 25.4147C30.9268 24.9923 30.1391 25.0953 29.7167 25.6447Z" fill="#AD6817"/>
<path d="M30.2982 37.6528C26.8738 46.7897 26.0876 49.1192 24.6744 54.5403C24.4996 55.2108 24.9014 55.8961 25.572 56.0709C26.2426 56.2457 26.9279 55.8439 27.1027 55.1733C28.4891 49.8553 29.2516 47.5956 32.648 38.5335C32.8912 37.8846 32.5623 37.1615 31.9134 36.9183C31.2646 36.6751 30.5414 37.0039 30.2982 37.6528Z" fill="#AD6817"/>
<path d="M46.4717 67.8398L53.2312 66.7711C53.9156 66.6628 54.3828 66.0202 54.2745 65.3358C54.1663 64.6513 53.5237 64.1842 52.8392 64.2924L46.0797 65.3612C45.3953 65.4694 44.9281 66.112 45.0364 66.7965C45.1446 67.4809 45.7872 67.9481 46.4717 67.8398Z" fill="black"/>
<path d="M78.5691 66.1163L85.3286 67.1851C86.0131 67.2933 86.6557 66.8262 86.7639 66.1417C86.8721 65.4573 86.405 64.8147 85.7205 64.7065L78.961 63.6377C78.2765 63.5295 77.6339 63.9966 77.5257 64.6811C77.4175 65.3655 77.8846 66.0081 78.5691 66.1163Z" fill="black"/>
<path d="M51.7549 65.5317V72.7534" stroke="black" stroke-width="6.02268" stroke-linecap="round"/>
<path d="M80.3194 64.877V72.099" stroke="black" stroke-width="6.02268" stroke-linecap="round"/>
<path d="M75.5945 55.3476L89.9589 56.2266C90.7889 56.2774 91.503 55.6458 91.5538 54.8158C91.6045 53.9858 90.9729 53.2717 90.1429 53.2209L75.7784 52.3419C74.9484 52.2911 74.2343 52.9228 74.1836 53.7528C74.1328 54.5828 74.7644 55.2968 75.5945 55.3476Z" fill="#62360D"/>
<path d="M65.2957 72.8387C64.7871 76.5477 61.5887 83.3112 67.0401 83.3112" stroke="#EBBAAA" stroke-width="4.26606"/>
<path d="M108.597 88.5483C110.283 88.5483 111.65 87.1808 111.65 85.4939C111.65 83.807 110.283 82.4395 108.597 82.4395C106.911 82.4395 105.544 83.807 105.544 85.4939C105.544 87.1808 106.911 88.5483 108.597 88.5483Z" fill="#F6E7D6"/>
<path d="M107.702 93.8693C108.894 93.8693 109.86 92.9027 109.86 91.7103C109.86 90.5179 108.894 89.5513 107.702 89.5513C106.51 89.5513 105.544 90.5179 105.544 91.7103C105.544 92.9027 106.51 93.8693 107.702 93.8693Z" fill="#F6E7D6"/>
<path d="M91.6301 91.1599C96.0464 91.1599 99.6265 87.5778 99.6265 83.1591C99.6265 78.7404 96.0464 75.1583 91.6301 75.1583C87.2138 75.1583 83.6338 78.7404 83.6338 83.1591C83.6338 87.5778 87.2138 91.1599 91.6301 91.1599Z" fill="#F2CACA"/>
</svg>
