<svg width="420" height="420" viewBox="0 0 420 420" fill="none" xmlns="http://www.w3.org/2000/svg">
<g filter="url(#filter0_d_1275:3651)">
<path d="M326.21 187.649C327.594 184.903 328.544 181.447 328.447 177.17C328.203 166.387 322.047 161.796 314.92 156.48C309.389 152.355 303.052 147.001 299.751 139.426C295.845 130.466 298.314 121.844 299.579 118.756C301.45 114.191 307.038 108.639 316.205 114.129C317.888 115.137 323.441 119.168 323.441 119.168L339.749 124.494L326.246 125.304L339.623 129.366L321.422 129.749C318.225 131.261 316.519 131.444 315.957 131.594C314.581 131.963 310.636 132.721 311.924 137.239C313.058 141.218 317.156 144.073 321.681 147.448C329.562 153.327 339.371 160.642 339.739 176.915C339.87 182.677 338.834 187.617 337.249 191.761C332.933 203.04 318.246 204.068 318.246 204.068L326.21 187.649Z" fill="white"/>
<path d="M318.246 205.076C318.075 205.076 317.906 205.032 317.757 204.95C317.607 204.867 317.481 204.748 317.39 204.603C317.299 204.459 317.247 204.293 317.237 204.123C317.228 203.952 317.262 203.782 317.337 203.629L325.301 187.21L325.308 187.196C326.804 184.227 327.521 180.862 327.438 177.193C327.331 172.485 326.069 168.735 323.467 165.393C321.09 162.34 317.8 159.885 314.315 157.287C308.541 152.98 302.185 147.538 298.825 139.828C294.423 129.73 297.902 120.186 298.644 118.375C300.029 114.997 302.688 112.372 305.759 111.352C309.077 110.251 312.767 110.894 316.725 113.265C318.302 114.209 323.04 117.632 323.906 118.259L340.064 123.536C340.287 123.609 340.478 123.758 340.604 123.956C340.729 124.154 340.781 124.39 340.751 124.623C340.721 124.855 340.611 125.07 340.439 125.23C340.267 125.39 340.045 125.486 339.811 125.5L331.92 125.973L339.918 128.402C340.148 128.472 340.345 128.621 340.474 128.823C340.604 129.025 340.657 129.267 340.624 129.504C340.591 129.742 340.475 129.96 340.295 130.119C340.116 130.278 339.885 130.369 339.645 130.374L321.657 130.753C318.998 131.989 317.344 132.331 316.539 132.498C316.405 132.526 316.298 132.547 316.218 132.568C316.146 132.587 316.067 132.608 315.983 132.63C315.093 132.859 313.604 133.242 312.986 134.319C312.611 134.971 312.582 135.861 312.896 136.964C313.872 140.387 317.412 143.018 321.512 146.066L322.285 146.641C326.259 149.605 330.763 152.964 334.333 157.676C338.481 163.152 340.58 169.438 340.749 176.893C340.87 182.246 340.01 187.369 338.191 192.121C336.323 197.004 332.28 200.794 326.5 203.081C323.879 204.124 321.124 204.795 318.316 205.073C318.293 205.075 318.269 205.076 318.246 205.076ZM327.116 188.095L319.973 202.82C321.969 202.475 323.925 201.928 325.809 201.187C331.095 199.081 334.627 195.789 336.305 191.402C338.029 186.895 338.845 182.029 338.73 176.938C338.571 169.921 336.606 164.018 332.722 158.891C329.325 154.407 324.943 151.139 321.078 148.255L320.307 147.682C315.913 144.416 312.117 141.595 310.954 137.515C310.485 135.869 310.58 134.457 311.235 133.316C312.277 131.502 314.36 130.966 315.479 130.678C315.558 130.658 315.631 130.639 315.697 130.621C315.819 130.589 315.956 130.56 316.131 130.524C316.879 130.369 318.436 130.047 320.991 128.839C321.12 128.778 321.26 128.745 321.402 128.742L333.278 128.492L325.954 126.268C325.728 126.199 325.533 126.053 325.403 125.855C325.273 125.657 325.218 125.42 325.245 125.185C325.273 124.95 325.383 124.733 325.555 124.57C325.727 124.408 325.951 124.312 326.188 124.297L334.396 123.805L323.128 120.126C323.028 120.093 322.934 120.045 322.848 119.983C322.793 119.943 317.312 115.967 315.687 114.993C312.257 112.939 309.132 112.357 306.398 113.265C302.665 114.504 300.951 118.073 300.515 119.138C299.827 120.817 296.6 129.669 300.678 139.025C303.85 146.302 309.963 151.524 315.525 155.673C319.122 158.355 322.519 160.889 325.064 164.156C327.945 167.857 329.341 171.986 329.458 177.148C329.547 181.147 328.76 184.83 327.116 188.095L327.116 188.095Z" fill="black"/>
<path d="M243.51 274.87C240.818 277.389 237.995 279.04 234.76 280.413C233.455 280.966 226.992 291.901 226.992 291.901C226.992 291.901 272.949 277.262 277.498 276.284C283.094 275.082 286.478 276.616 289.281 281.252C295.171 290.994 301.989 299.9 300.388 300.4C298.33 301.042 292.647 298.888 285.916 289.482C283.728 291.666 283.784 294.943 284.738 296.705C285.692 298.466 280.346 297.861 279.858 292.505C279.69 290.658 279.933 289.456 279.016 288.306C277.589 286.518 275.028 286.891 269.009 288.609C261.588 290.727 230.422 300.741 230.422 300.741C230.422 300.741 226.274 304.978 221.83 304.749C217.342 304.518 213.697 299.255 217.486 290.866L230.405 256.975H254.469C249.252 270.246 243.51 274.87 243.51 274.87Z" fill="white"/>
<path d="M222.179 305.768C222.046 305.768 221.912 305.764 221.778 305.757C219.47 305.639 217.433 304.402 216.187 302.366C215.115 300.611 213.738 296.736 216.553 290.481L220.522 280.055C220.568 279.93 220.639 279.816 220.73 279.718C220.821 279.621 220.93 279.542 221.051 279.487C221.173 279.431 221.304 279.401 221.437 279.397C221.571 279.392 221.704 279.414 221.828 279.462C221.953 279.509 222.067 279.581 222.164 279.672C222.261 279.764 222.339 279.874 222.393 279.995C222.447 280.117 222.476 280.248 222.479 280.382C222.482 280.515 222.458 280.647 222.41 280.771L218.43 291.225C218.423 291.244 218.415 291.263 218.407 291.281C216.617 295.245 216.436 298.903 217.911 301.316C218.321 302.016 218.898 302.605 219.591 303.029C220.284 303.452 221.071 303.698 221.882 303.744C225.823 303.948 229.662 300.077 229.7 300.038C229.815 299.921 229.957 299.834 230.113 299.783C230.425 299.683 261.381 289.74 268.732 287.642C274.847 285.896 277.933 285.331 279.807 287.68C280.701 288.801 280.746 289.964 280.794 291.195C280.809 291.581 280.824 291.98 280.864 292.415C281.06 294.569 282.133 295.625 282.755 296.063C282.993 296.233 283.253 296.37 283.528 296.47C282.687 294.195 283.04 290.929 285.203 288.771C285.306 288.667 285.431 288.587 285.569 288.537C285.707 288.487 285.854 288.467 286 288.479C286.146 288.491 286.288 288.535 286.415 288.607C286.543 288.679 286.653 288.778 286.738 288.898C290.396 294.009 293.497 296.595 295.455 297.865C297.314 299.071 298.677 299.45 299.477 299.492C298.882 297.991 296.489 294.341 294.345 291.072C292.501 288.258 290.41 285.07 288.417 281.774C285.798 277.44 282.797 276.178 277.712 277.271C273.261 278.227 227.759 292.716 227.3 292.863C227.105 292.925 226.896 292.926 226.7 292.867C226.505 292.808 226.331 292.691 226.204 292.531C226.076 292.371 226 292.177 225.986 291.973C225.972 291.769 226.02 291.566 226.124 291.39C226.14 291.363 227.768 288.611 229.535 285.826C233.261 279.954 233.952 279.662 234.365 279.486C237.827 278.018 240.435 276.368 242.82 274.135C242.917 274.043 243.03 273.971 243.155 273.923C243.279 273.876 243.412 273.853 243.545 273.857C243.679 273.86 243.81 273.89 243.932 273.945C244.053 273.999 244.163 274.078 244.254 274.175C244.345 274.272 244.416 274.386 244.463 274.511C244.51 274.635 244.531 274.768 244.527 274.901C244.522 275.034 244.49 275.165 244.434 275.286C244.379 275.407 244.299 275.515 244.201 275.606C241.646 277.997 238.868 279.761 235.201 281.321C234.46 281.872 231.81 285.894 229.231 290.133C239.032 287.018 273.312 276.154 277.287 275.3C283.227 274.024 287.073 275.648 290.146 280.732C292.12 283.997 294.2 287.169 296.035 289.968C300.831 297.285 302 299.279 301.546 300.542C301.477 300.736 301.364 300.911 301.215 301.054C301.066 301.196 300.886 301.302 300.689 301.363C300.334 301.469 299.965 301.521 299.594 301.517C296.514 301.517 291.369 298.443 285.885 291.147C284.808 292.935 285.026 295.117 285.627 296.226C285.967 296.855 285.934 297.517 285.539 297.998C285.047 298.598 284.112 298.76 283.039 298.431C281.305 297.899 279.168 296.053 278.853 292.598C278.809 292.111 278.791 291.665 278.776 291.273C278.731 290.102 278.688 289.513 278.227 288.935C277.254 287.715 275.333 287.854 269.288 289.579C262.301 291.574 233.807 300.715 230.959 301.629C230.088 302.461 226.362 305.767 222.179 305.768Z" fill="black"/>
<path d="M141.871 214.067C116.63 208.188 101.691 230.294 100.98 241.277C100.687 245.79 106.712 238.345 114.779 238.165C109.574 247.551 109.981 257.718 114.779 255.05C116.401 254.148 117.155 250.93 123.024 247.996C123.024 247.996 124.892 247.152 127.85 246.671C125.753 249.852 124.571 253.911 125.415 259.04C126.267 264.217 133.794 251.523 152.641 250.683C152.641 250.683 158.551 250.426 175.211 252.777V228.707C151.147 215.994 141.871 214.067 141.871 214.067Z" fill="white"/>
<path d="M101.727 243.738C101.394 243.743 101.067 243.649 100.787 243.469C99.8644 242.875 99.9458 241.623 99.9721 241.212C100.189 237.867 101.579 233.856 103.888 229.916C106.464 225.519 109.896 221.681 113.983 218.629C119.648 214.432 129.125 210.063 142.1 213.085C142.23 213.115 142.352 213.17 142.46 213.247C142.568 213.324 142.66 213.422 142.73 213.534C142.8 213.647 142.848 213.772 142.869 213.903C142.891 214.034 142.887 214.167 142.856 214.296C142.826 214.426 142.771 214.547 142.693 214.655C142.616 214.763 142.518 214.854 142.405 214.924C142.292 214.994 142.167 215.041 142.036 215.062C141.905 215.083 141.771 215.079 141.641 215.048C129.419 212.202 120.509 216.305 115.186 220.248C107.027 226.293 102.37 235.436 101.987 241.342C101.979 241.455 101.977 241.567 101.981 241.68C102.508 241.53 103.528 240.986 104.375 240.535C106.835 239.225 110.552 237.244 114.778 237.156C115.046 237.151 115.305 237.252 115.498 237.437C115.692 237.622 115.803 237.876 115.809 238.143C115.814 238.411 115.713 238.669 115.528 238.862C115.343 239.055 115.088 239.166 114.82 239.172C111.077 239.25 107.753 241.021 105.326 242.313C103.8 243.127 102.652 243.738 101.727 243.738Z" fill="black"/>
<path d="M113.35 256.494C112.659 256.496 111.995 256.233 111.493 255.759C109.102 253.542 109.678 246.543 112.804 239.822C114.475 236.229 117.592 231.175 122.949 227.504C128.23 223.886 134.41 222.476 141.319 223.313C141.585 223.345 141.827 223.482 141.992 223.692C142.158 223.903 142.232 224.17 142.2 224.435C142.168 224.701 142.031 224.942 141.82 225.107C141.609 225.272 141.342 225.346 141.076 225.314C134.67 224.538 128.956 225.834 124.092 229.166C119.112 232.578 116.201 237.306 114.635 240.672C111.565 247.273 111.536 253.048 112.866 254.282C112.991 254.398 113.323 254.706 114.286 254.17C114.655 253.965 115.052 253.465 115.554 252.83C116.716 251.362 118.473 249.143 122.571 247.095C122.689 247.035 122.818 247 122.951 246.991C123.083 246.981 123.216 246.998 123.342 247.04C123.467 247.081 123.584 247.147 123.684 247.234C123.784 247.321 123.866 247.426 123.926 247.545C123.985 247.663 124.021 247.792 124.03 247.924C124.04 248.056 124.023 248.188 123.981 248.314C123.939 248.44 123.873 248.556 123.786 248.656C123.699 248.756 123.594 248.838 123.475 248.897C119.779 250.745 118.252 252.672 117.138 254.08C116.522 254.858 115.99 255.53 115.269 255.931C114.688 256.28 114.027 256.474 113.35 256.494Z" fill="black"/>
<path d="M126.428 261.287C126.158 261.288 125.891 261.232 125.645 261.122C124.662 260.681 124.479 259.569 124.419 259.203C123.168 251.603 126.054 245.069 132.765 240.305C135.942 238.091 139.48 236.441 143.221 235.43C143.48 235.369 143.754 235.412 143.982 235.552C144.209 235.692 144.372 235.915 144.434 236.175C144.497 236.434 144.454 236.707 144.315 236.935C144.176 237.162 143.953 237.326 143.694 237.389C143.643 237.401 138.546 238.66 133.889 241.981C127.798 246.325 125.281 252.009 126.411 258.876C126.43 259.01 126.464 259.141 126.512 259.267C127.056 259.204 128.564 258.252 129.79 257.479C134.119 254.748 141.365 250.177 152.596 249.677C152.729 249.67 152.861 249.69 152.986 249.735C153.111 249.78 153.226 249.849 153.324 249.938C153.423 250.028 153.502 250.136 153.558 250.256C153.615 250.376 153.647 250.506 153.653 250.638C153.659 250.771 153.638 250.903 153.593 251.028C153.548 251.152 153.478 251.267 153.388 251.365C153.298 251.462 153.19 251.541 153.069 251.597C152.949 251.653 152.819 251.685 152.686 251.69C141.991 252.167 135.028 256.559 130.868 259.183C128.887 260.433 127.533 261.287 126.428 261.287Z" fill="black"/>
<path d="M332.42 196.109C330.372 195.857 331.567 190.455 331.567 190.455C331.567 190.455 327.562 195.313 326.036 194.251C324.509 193.188 326.21 187.65 326.21 187.65C322.407 195.67 312.815 199.255 308.577 199.255C303.565 199.255 298.206 196.494 292.33 199.255C286.453 202.015 276.997 188.188 258.879 185.215C223.962 179.484 205.164 194.507 182.93 204.493C162.737 213.563 143.475 206.952 145.404 210.876C150.81 221.872 167.181 222.471 166.102 224.984C163.578 230.863 146.118 225.48 147.592 228.512C153.145 239.933 173.052 240.622 172.328 242.789C170.982 246.82 157.015 243.628 157.184 246.316C157.352 249.003 166.775 260.257 214.902 268.487C214.902 268.487 259.555 273.203 277.884 266.848C306.012 257.095 302.839 236.643 302.516 230.834C302.246 225.97 304.503 224.886 308.579 222.207C309.687 221.479 310.963 220.702 312.419 219.859C328.047 210.808 333.892 199.363 337.248 191.761C337.248 191.761 334.47 196.361 332.42 196.109Z" fill="black"/>
<path d="M247.732 271.182C245.112 271.182 242.365 271.141 239.491 271.059C226.152 270.677 214.908 269.501 214.796 269.49C214.775 269.487 214.753 269.484 214.732 269.481C194.015 265.938 178.16 261.478 167.608 256.225C156.983 250.936 156.221 247.095 156.176 246.379C156.16 246.15 156.191 245.921 156.269 245.705C156.347 245.489 156.469 245.291 156.628 245.125C157.545 244.144 159.579 244.083 163.095 244.058C165.902 244.039 170.012 244.01 171.128 242.857C170.396 242.521 168.782 242.073 167.328 241.669C161.075 239.933 150.611 237.029 146.684 228.952C146.318 228.201 146.56 227.65 146.736 227.388C147.447 226.335 149.193 226.406 153.073 226.666C157.278 226.948 163.566 227.37 165.048 224.838C164.486 224.445 162.828 223.864 161.465 223.388C156.48 221.643 148.138 218.723 144.498 211.32C144.093 210.497 144.279 209.902 144.507 209.548C145.27 208.36 147.25 208.413 151.584 208.528C158.612 208.715 170.375 209.028 182.516 203.575C186.715 201.688 190.875 199.579 194.898 197.539C212.366 188.682 230.429 179.524 259.044 184.22C268.98 185.85 276.452 190.732 281.908 194.298C286.425 197.249 289.688 199.382 291.9 198.343C296.158 196.343 300.192 197.049 303.752 197.672C305.442 197.968 307.038 198.247 308.578 198.247C312.459 198.247 321.647 194.917 325.298 187.219C325.407 186.988 325.599 186.808 325.836 186.714C326.073 186.619 326.337 186.618 326.575 186.71C326.813 186.802 327.007 186.981 327.118 187.21C327.23 187.439 327.25 187.701 327.176 187.945C326.917 188.823 326.712 189.716 326.562 190.619C326.24 192.633 326.512 193.259 326.596 193.396C327.261 193.37 329.257 191.671 330.787 189.814C330.931 189.64 331.13 189.518 331.352 189.47C331.573 189.422 331.805 189.45 332.009 189.549C332.212 189.648 332.377 189.812 332.476 190.016C332.574 190.22 332.602 190.451 332.553 190.672C332.096 192.749 332.163 194.848 332.539 195.109L332.421 196.108L332.545 195.108C333.367 195.21 335.227 193.151 336.384 191.241C336.516 191.021 336.728 190.861 336.975 190.791C337.222 190.722 337.486 190.749 337.714 190.867C337.942 190.985 338.116 191.185 338.201 191.427C338.286 191.669 338.276 191.934 338.172 192.168C336.407 196.165 334.084 200.921 330.234 205.884C325.727 211.696 319.904 216.69 312.927 220.732C311.426 221.601 310.186 222.359 309.135 223.05C308.846 223.24 308.566 223.423 308.295 223.598C304.766 225.891 303.305 226.84 303.525 230.779C303.541 231.095 303.568 231.456 303.598 231.856C303.855 235.402 304.334 242.002 301.317 248.94C297.63 257.419 289.858 263.764 278.215 267.802C271.732 270.049 261.498 271.182 247.732 271.182ZM215.04 267.489C215.708 267.558 226.647 268.676 239.563 269.044C251.748 269.392 268.232 269.128 277.553 265.897C288.639 262.053 296.012 256.077 299.465 248.137C302.284 241.653 301.828 235.374 301.583 232.001C301.553 231.588 301.527 231.217 301.508 230.89C301.225 225.788 303.599 224.244 307.193 221.908C307.461 221.734 307.738 221.553 308.024 221.366C309.107 220.654 310.379 219.876 311.913 218.988C323.453 212.304 329.601 204.397 333.626 196.918C333.206 197.093 332.749 197.158 332.297 197.108C332.007 197.073 331.729 196.977 331.48 196.826C331.231 196.674 331.018 196.472 330.854 196.231C330.348 195.516 330.202 194.42 330.21 193.351C330.158 193.4 330.106 193.448 330.052 193.497C329.315 194.165 327.072 196.201 325.458 195.076C324.736 194.573 324.385 193.659 324.389 192.255C322.588 194.304 320.443 196.024 318.05 197.339C315.517 198.751 311.699 200.261 308.579 200.261C306.862 200.261 305.104 199.954 303.404 199.656C299.98 199.057 296.439 198.438 292.761 200.166C289.528 201.684 285.868 199.292 280.802 195.983C275.202 192.324 268.232 187.77 258.717 186.208C246.179 184.15 234.61 184.646 223.35 187.724C213.294 190.473 204.407 194.979 195.813 199.336C191.769 201.387 187.587 203.507 183.344 205.413C170.782 211.055 158.731 210.735 151.531 210.543C149.52 210.49 147.275 210.43 146.408 210.627C149.734 217.147 157.186 219.755 162.133 221.487C164.98 222.483 166.548 223.032 167.028 224.121C167.116 224.32 167.162 224.534 167.162 224.752C167.162 224.969 167.118 225.184 167.03 225.383C165.261 229.504 158.139 229.027 152.938 228.677C151.512 228.582 149.66 228.457 148.745 228.549C152.474 235.455 162.078 238.12 167.869 239.727C171.291 240.677 172.698 241.099 173.193 242.026C173.282 242.19 173.336 242.371 173.352 242.557C173.368 242.744 173.346 242.931 173.286 243.108C172.317 246.01 167.425 246.044 163.109 246.074C161.428 246.086 158.947 246.103 158.224 246.432C158.515 247.471 160.759 250.564 168.509 254.422C181.422 260.849 200.934 265.075 215.04 267.489Z" fill="black"/>
<path d="M314.155 122.628C315.126 122.628 315.912 121.843 315.912 120.875C315.912 119.906 315.126 119.121 314.155 119.121C313.185 119.121 312.398 119.906 312.398 120.875C312.398 121.843 313.185 122.628 314.155 122.628Z" fill="black"/>
<path d="M198.075 271.846C204.349 263.733 207.054 255.253 208.67 252.91C218.846 238.154 251.537 240.833 251.537 240.833C251.537 240.833 256.377 255.498 239.092 266.022C221.807 276.546 209.518 279.236 209.518 279.236L184.603 297.834C184.603 297.834 184.828 301.513 181.775 304.934C178.251 308.881 173.369 309.872 173.369 309.872C173.369 309.872 144.9 344.742 136.784 359.536C133.731 365.1 124.202 369.601 118.884 383.615C118.027 385.873 115.457 380.332 116.227 375.27C117.34 367.952 124.523 359.36 124.523 359.36C124.523 359.36 119.989 359.711 118.114 361.277C116.782 362.388 115.324 354.3 125.906 350.562C130.1 349.08 132.696 350.236 135.98 345.75C139.265 341.264 164.726 304.696 164.726 304.696C164.726 304.696 164.815 299.012 168.336 295.497C171.857 291.983 176.536 291.068 176.536 291.068C176.536 291.068 190.671 281.42 198.075 271.846Z" fill="white"/>
<path d="M118.362 385.139C118.243 385.14 118.124 385.124 118.009 385.094C116.728 384.759 115.971 382.636 115.634 381.401C115.076 379.356 114.938 377.219 115.23 375.119C116.054 369.705 119.962 363.758 122.192 360.726C120.911 360.995 119.516 361.422 118.764 362.05C118.561 362.228 118.31 362.341 118.042 362.376C117.774 362.41 117.502 362.364 117.261 362.244C116.501 361.859 116.103 360.774 116.196 359.342C116.259 358.364 116.622 356.411 118.338 354.32C119.987 352.309 122.421 350.726 125.571 349.612C126.723 349.223 127.905 348.929 129.105 348.731C131.423 348.297 133.098 347.984 135.167 345.156C138.268 340.922 161.516 307.543 163.731 304.362C163.806 303.052 164.308 298.095 167.623 294.786C170.925 291.491 175.122 290.36 176.127 290.127C177.701 289.033 190.477 280.025 197.277 271.231C201.501 265.769 204.101 260.093 205.822 256.336C206.669 254.487 207.28 253.151 207.841 252.339C210.276 248.808 214.125 245.956 219.284 243.864C223.343 242.218 228.226 241.031 233.798 240.337C239.712 239.627 245.678 239.457 251.623 239.828C251.821 239.844 252.009 239.918 252.165 240.04C252.321 240.163 252.437 240.328 252.499 240.516C252.552 240.676 253.779 244.49 252.791 249.668C251.886 254.414 248.866 261.253 239.621 266.881C223.43 276.74 211.73 279.75 209.955 280.17L185.609 298.342C185.553 299.593 185.133 302.687 182.53 305.604C179.352 309.165 175.19 310.452 173.937 310.773C171.291 314.029 145.279 346.152 137.671 360.02C136.526 362.107 134.585 363.997 132.339 366.186C128.266 370.153 123.2 375.09 119.829 383.972C119.498 384.842 118.891 385.139 118.362 385.139ZM124.525 358.352C124.717 358.352 124.905 358.407 125.067 358.51C125.229 358.613 125.358 358.76 125.439 358.933C125.521 359.107 125.551 359.3 125.526 359.49C125.501 359.68 125.423 359.859 125.3 360.006C125.23 360.09 118.283 368.471 117.226 375.421C116.777 378.37 117.566 381.298 118.206 382.572C121.729 373.705 126.818 368.747 130.928 364.743C133.059 362.667 134.899 360.874 135.899 359.051C143.967 344.346 171.422 310.661 172.587 309.235C172.734 309.055 172.94 308.931 173.168 308.884C173.212 308.875 177.777 307.898 181.021 304.263C183.735 301.223 183.597 297.924 183.596 297.891C183.588 297.725 183.62 297.559 183.69 297.409C183.761 297.258 183.867 297.127 184 297.027L208.914 278.43C209.029 278.344 209.162 278.283 209.302 278.252C213.506 277.329 225.032 273.403 238.567 265.162C245.443 260.975 249.554 255.67 250.786 249.393C251.287 246.882 251.273 244.296 250.745 241.791C245.161 241.495 239.562 241.679 234.011 242.343C218.793 244.242 212.284 249.448 209.502 253.482C209.043 254.148 208.431 255.483 207.657 257.174C205.899 261.014 203.241 266.817 198.875 272.462L198.076 271.846L198.875 272.462C191.458 282.053 177.689 291.503 177.106 291.9C176.993 291.978 176.865 292.031 176.73 292.057C176.688 292.066 172.299 292.968 169.05 296.21C165.87 299.385 165.737 304.66 165.735 304.713C165.732 304.913 165.669 305.107 165.555 305.271C165.3 305.637 140.05 341.901 136.797 346.345C134.255 349.817 131.933 350.251 129.477 350.712C128.379 350.891 127.298 351.158 126.244 351.512C120.796 353.437 119.06 356.424 118.51 358.033C118.281 358.66 118.178 359.326 118.209 359.993C120.437 358.703 124.003 358.391 124.447 358.356C124.473 358.353 124.499 358.352 124.525 358.352Z" fill="black"/>
<path d="M318.819 122.332C318.68 122.332 318.542 122.303 318.414 122.247C318.286 122.192 318.171 122.11 318.077 122.007C315.736 119.471 314.866 119.706 314.831 119.716C314.664 119.768 314.441 120.136 314.345 120.82C314.307 121.084 314.165 121.322 313.952 121.482C313.738 121.642 313.469 121.711 313.205 121.674C312.94 121.637 312.701 121.497 312.54 121.284C312.379 121.071 312.309 120.804 312.345 120.54C312.622 118.573 313.645 117.974 314.23 117.792C315.642 117.353 317.387 118.284 319.562 120.641C319.695 120.785 319.783 120.965 319.815 121.158C319.848 121.351 319.823 121.549 319.744 121.729C319.666 121.908 319.536 122.061 319.372 122.168C319.208 122.275 319.016 122.332 318.82 122.332H318.819Z" fill="black"/>
<path d="M326.248 126.311C326.226 126.311 326.204 126.311 326.182 126.309L322.198 126.052C321.931 126.035 321.682 125.912 321.505 125.711C321.328 125.51 321.239 125.248 321.256 124.981C321.273 124.714 321.396 124.465 321.597 124.289C321.798 124.113 322.062 124.023 322.329 124.04L326.312 124.298C326.574 124.314 326.819 124.432 326.996 124.625C327.172 124.819 327.266 125.074 327.258 125.335C327.249 125.597 327.139 125.845 326.951 126.027C326.763 126.209 326.511 126.311 326.248 126.311Z" fill="black"/>
<path d="M325.461 122.023C325.409 122.023 325.357 122.019 325.305 122.011L323.5 121.731C323.368 121.712 323.24 121.667 323.126 121.599C323.011 121.53 322.911 121.44 322.831 121.333C322.752 121.226 322.694 121.104 322.662 120.974C322.63 120.845 322.624 120.71 322.645 120.578C322.665 120.446 322.712 120.32 322.782 120.206C322.851 120.093 322.943 119.994 323.052 119.916C323.16 119.838 323.283 119.782 323.413 119.751C323.543 119.721 323.678 119.717 323.81 119.739L325.615 120.019C325.867 120.058 326.094 120.19 326.252 120.388C326.41 120.587 326.487 120.839 326.468 121.092C326.449 121.345 326.334 121.582 326.148 121.754C325.961 121.927 325.716 122.023 325.461 122.023Z" fill="black"/>
<path d="M263.932 254.526C260.653 254.526 259.751 253.525 259.368 252.707C258.083 249.961 262.057 245.813 268.756 239.309C269.74 238.353 270.669 237.45 271.56 236.562C275.584 232.544 275.341 231.078 275.17 230.724C274.98 230.33 273.846 229.101 267.208 229.842C264.455 230.149 262.785 229.586 262.243 228.169C260.909 224.68 268.144 218.644 270.155 217.218C270.263 217.142 270.385 217.087 270.514 217.057C270.643 217.028 270.777 217.024 270.908 217.046C271.039 217.068 271.164 217.116 271.276 217.186C271.388 217.256 271.486 217.348 271.562 217.456C271.639 217.564 271.694 217.686 271.724 217.815C271.753 217.944 271.757 218.078 271.735 218.208C271.713 218.339 271.665 218.463 271.595 218.575C271.524 218.688 271.432 218.785 271.324 218.861C267.078 221.872 263.672 226.252 264.13 227.451C264.226 227.703 264.936 228.067 266.984 227.839C272.834 227.186 276.014 227.825 276.99 229.85C277.91 231.758 276.638 234.343 272.988 237.987C272.088 238.885 271.11 239.834 270.164 240.753C267.698 243.148 265.149 245.624 263.377 247.753C260.944 250.678 261.094 251.631 261.198 251.854C261.41 252.306 262.78 252.72 265.945 252.396C278.436 251.117 286.196 240.178 286.272 240.067C286.426 239.85 286.659 239.702 286.922 239.655C287.184 239.609 287.455 239.668 287.674 239.82C287.893 239.972 288.043 240.204 288.091 240.465C288.139 240.727 288.082 240.997 287.931 241.217C287.847 241.338 285.829 244.217 282.144 247.29C278.73 250.136 273.185 253.68 266.15 254.4C265.413 254.48 264.673 254.521 263.932 254.526Z" fill="white"/>
</g>
<path d="M276.605 187.673C273.735 205.906 252.032 196.469 245.877 197.709C235.916 199.717 233.03 200.857 220.552 202.058C196.24 204.4 181.382 188.676 180.031 175.796C178.891 164.923 187.549 175.315 214.776 181.641C230.714 185.344 249.914 182.327 259.332 180.969C273.454 178.934 277.608 181.3 276.605 187.673Z" fill="white"/>
<path d="M215.691 203.3C204.064 203.3 195.986 199.163 191.065 195.432C184.267 190.279 179.766 182.976 179.024 175.899C178.812 173.882 178.786 171.678 180.2 170.624C182.034 169.257 184.987 170.442 190.87 172.802C196.502 175.061 204.216 178.155 215.007 180.663C230.166 184.185 248.335 181.549 258.097 180.133L259.185 179.975C268.441 178.641 273.668 179.146 276.132 181.613C277.557 183.039 278.039 185.072 277.605 187.826C276.6 194.211 273.21 198.137 267.528 199.497C262.8 200.63 257.263 199.83 252.816 199.187C249.942 198.772 247.46 198.414 246.078 198.692C243.593 199.193 241.517 199.647 239.684 200.047C234.1 201.268 230.065 202.149 220.649 203.056C218.93 203.223 217.277 203.3 215.691 203.3ZM182.131 172.055C181.881 172.037 181.631 172.098 181.418 172.229C181.161 172.42 180.77 173.125 181.039 175.691C181.724 182.229 185.933 189.013 192.296 193.838C197.6 197.858 206.79 202.374 220.454 201.059C229.748 200.163 233.733 199.292 239.249 198.087C241.089 197.685 243.174 197.229 245.675 196.725C247.403 196.377 250.047 196.758 253.109 197.201C257.384 197.819 262.705 198.587 267.053 197.546C271.928 196.379 274.725 193.099 275.604 187.517C275.936 185.407 275.647 183.98 274.693 183.025C272.779 181.11 267.802 180.762 259.477 181.962L258.391 182.119C248.497 183.555 230.079 186.227 214.545 182.618C203.601 180.075 195.483 176.818 190.111 174.663C186.666 173.281 183.609 172.055 182.131 172.055Z" fill="black"/>
<path d="M267.262 182.483H263.338V192.546H267.262V182.483Z" fill="white"/>
<path d="M267.262 193.52H263.338C263.079 193.52 262.83 193.417 262.647 193.234C262.463 193.052 262.36 192.804 262.36 192.545V182.483C262.36 182.224 262.463 181.976 262.647 181.794C262.83 181.611 263.079 181.508 263.338 181.508H267.262C267.522 181.508 267.771 181.611 267.954 181.794C268.137 181.976 268.24 182.224 268.24 182.483V192.545C268.24 192.804 268.137 193.052 267.954 193.234C267.771 193.417 267.522 193.52 267.262 193.52ZM264.316 191.571H266.285V183.457H264.316V191.571Z" fill="black"/>
<path d="M277.65 111.642C278.328 110.121 280.192 106.402 277.65 103.529C277.65 103.529 270.195 100.148 265.473 107.857C265.473 107.857 265.528 105.078 264.167 104.097C262.744 103.072 260.706 103.529 259.955 105.342C258.82 108.083 260.503 110.342 260.503 110.342C260.503 110.342 258.732 115.132 255.185 114.935C255.185 114.935 253.788 115.653 253.27 118.598C252.937 121.815 253.638 124.8 255.299 127.231C258.21 131.49 260.908 131.915 261.867 131.915L262.057 130.89C263.515 124.162 266.488 122.415 266.488 122.415C266.488 122.415 267.823 123.304 270.534 122.966C275.119 122.394 276.49 118.241 276.49 118.241C277.481 118.402 278.836 118.064 278.836 117.05C278.837 115.867 277.481 114.684 277.65 111.642Z" fill="white"/>
<path d="M282.049 91.8552C282.049 91.8552 280.975 95.7964 276.07 96.8325C275.517 95.7967 272.45 90.7518 265.153 90.6244C259.392 90.5238 252.234 92.8801 250.706 101.089C248.951 110.513 254.606 114.678 254.606 114.678L255.185 114.934C258.732 115.131 260.503 110.341 260.503 110.341C260.503 110.341 258.819 108.082 259.955 105.341C260.706 103.528 262.744 103.07 264.167 104.096C265.528 105.077 265.473 107.856 265.473 107.856C270.195 100.147 277.65 103.528 277.65 103.528H278.158C278.158 103.528 281.291 103.37 283.072 99.9782C284.936 96.4295 282.049 91.8552 282.049 91.8552Z" fill="#8E85F1"/>
<path d="M255.404 115.955C255.313 115.955 255.222 115.952 255.128 115.947C255.005 115.941 254.885 115.912 254.772 115.863L254.194 115.607C254.126 115.577 254.061 115.54 254.001 115.496C253.749 115.31 247.856 110.839 249.705 100.905C250.457 96.8719 252.514 93.833 255.822 91.8693C258.379 90.3522 261.698 89.5492 265.171 89.6107C271.944 89.729 275.36 93.8227 276.556 95.6643C280.167 94.5902 281.032 91.7125 281.069 91.5832C281.123 91.3948 281.23 91.226 281.378 91.097C281.526 90.9679 281.708 90.8842 281.902 90.8558C282.096 90.8275 282.294 90.8557 282.473 90.937C282.652 91.0184 282.803 91.1495 282.908 91.3146C283.039 91.5216 286.083 96.4291 283.972 100.449C281.945 104.31 278.36 104.533 278.209 104.541C278.192 104.541 278.175 104.542 278.158 104.542H277.65C277.504 104.542 277.361 104.511 277.229 104.451C276.96 104.332 270.519 101.561 266.34 108.385C266.224 108.575 266.048 108.722 265.839 108.802C265.631 108.882 265.402 108.892 265.188 108.83C264.973 108.767 264.785 108.636 264.653 108.457C264.521 108.277 264.452 108.059 264.456 107.836C264.468 107.102 264.266 105.419 263.571 104.918C263.357 104.76 263.11 104.653 262.848 104.604C262.586 104.555 262.317 104.566 262.06 104.637C261.794 104.717 261.551 104.858 261.349 105.047C261.147 105.236 260.991 105.469 260.894 105.728C260.002 107.881 261.268 109.667 261.322 109.742C261.421 109.878 261.484 110.035 261.508 110.201C261.531 110.367 261.513 110.535 261.456 110.693C261.376 110.913 259.462 115.954 255.404 115.955ZM255.133 113.803L255.412 113.926C257.516 113.911 258.884 111.446 259.361 110.424C258.847 109.484 258.008 107.385 259.015 104.954C259.23 104.412 259.566 103.927 259.998 103.534C260.429 103.141 260.945 102.851 261.506 102.687C262.058 102.531 262.638 102.504 263.202 102.606C263.767 102.708 264.3 102.937 264.763 103.275C265.445 103.767 265.859 104.528 266.11 105.292C268.503 102.619 271.244 101.888 273.283 101.789C274.84 101.72 276.394 101.967 277.852 102.514H278.124C278.363 102.494 280.747 102.223 282.172 99.5086C283.094 97.753 282.598 95.6121 282.028 94.1403C281.088 95.5073 279.351 97.1763 276.281 97.8249C276.065 97.8704 275.841 97.8449 275.641 97.752C275.441 97.6591 275.277 97.5039 275.173 97.3099C274.678 96.3833 271.868 91.7561 265.136 91.6386C262.412 91.5911 253.405 92.1457 251.706 101.274C250.19 109.415 254.464 113.258 255.133 113.803H255.133Z" fill="#8E85F1"/>
<path d="M274.772 111.577C275.301 110.537 275.116 109.382 274.358 108.997C273.599 108.613 272.555 109.145 272.025 110.185C271.495 111.225 271.68 112.38 272.439 112.764C273.197 113.149 274.242 112.617 274.772 111.577Z" fill="black"/>
<path d="M255.404 115.955C255.313 115.955 255.222 115.953 255.128 115.948C254.861 115.93 254.611 115.808 254.433 115.608C254.255 115.408 254.163 115.146 254.178 114.879C254.193 114.612 254.313 114.362 254.512 114.183C254.711 114.003 254.973 113.91 255.241 113.923C257.421 114.045 258.867 111.468 259.36 110.422C258.846 109.481 258.009 107.384 259.015 104.955C259.23 104.413 259.566 103.927 259.998 103.534C260.43 103.141 260.945 102.851 261.506 102.687C262.058 102.532 262.638 102.504 263.203 102.606C263.767 102.708 264.301 102.937 264.763 103.276C265.446 103.768 265.859 104.528 266.11 105.292C268.503 102.619 271.244 101.888 273.284 101.789C274.92 101.711 276.554 101.989 278.071 102.605C278.316 102.716 278.508 102.92 278.603 103.172C278.698 103.424 278.689 103.703 278.578 103.948C278.467 104.193 278.262 104.384 278.01 104.479C277.758 104.573 277.478 104.564 277.232 104.453C276.96 104.332 270.52 101.562 266.34 108.386C266.224 108.576 266.048 108.722 265.84 108.803C265.631 108.883 265.402 108.893 265.188 108.83C264.973 108.768 264.786 108.637 264.653 108.457C264.521 108.278 264.452 108.06 264.456 107.837C264.468 107.103 264.267 105.42 263.571 104.919C263.357 104.761 263.11 104.654 262.848 104.605C262.586 104.556 262.317 104.567 262.06 104.638C261.795 104.718 261.551 104.858 261.349 105.048C261.147 105.237 260.991 105.47 260.894 105.729C260.002 107.882 261.268 109.667 261.322 109.743C261.421 109.878 261.484 110.036 261.508 110.202C261.531 110.367 261.513 110.536 261.456 110.694C261.376 110.913 259.462 115.955 255.404 115.955Z" fill="black"/>
<path d="M262.058 131.905C261.906 131.905 261.756 131.871 261.619 131.806C261.482 131.74 261.361 131.645 261.266 131.528C261.17 131.41 261.103 131.272 261.068 131.125C261.032 130.977 261.031 130.824 261.063 130.676C262.596 123.594 265.834 121.621 265.971 121.541C266.133 121.439 266.321 121.387 266.512 121.391C266.703 121.396 266.889 121.457 267.045 121.567C267.158 121.633 268.244 122.229 270.407 121.959C274.309 121.473 275.512 117.959 275.524 117.923C275.6 117.694 275.755 117.499 275.962 117.374C276.17 117.248 276.415 117.201 276.654 117.24C277.203 117.329 277.713 117.168 277.819 117.048C277.815 116.808 277.664 116.451 277.49 116.039C277.078 115.068 276.515 113.738 276.635 111.585C276.642 111.463 276.671 111.342 276.721 111.23L276.824 111.002C277.542 109.411 278.878 106.45 276.888 104.2C276.709 103.998 276.618 103.734 276.635 103.466C276.652 103.197 276.775 102.947 276.977 102.769C277.18 102.591 277.444 102.5 277.714 102.517C277.983 102.534 278.234 102.656 278.413 102.858C281.271 106.09 279.454 110.116 278.678 111.835L278.657 111.881C278.602 113.455 279.006 114.407 279.363 115.25C279.615 115.846 279.853 116.408 279.853 117.051C279.854 117.347 279.789 117.64 279.663 117.909C279.537 118.177 279.353 118.415 279.124 118.604C278.57 119.074 277.82 119.261 277.147 119.288C276.479 120.652 274.635 123.477 270.66 123.973C268.715 124.215 267.372 123.89 266.622 123.601C266.22 123.98 265.861 124.401 265.549 124.857C264.793 125.937 263.746 127.899 263.052 131.105C263.003 131.331 262.877 131.534 262.696 131.68C262.515 131.825 262.29 131.905 262.058 131.905Z" fill="black"/>
<path d="M282.902 101.332C282.718 101.331 282.539 101.282 282.381 101.188C282.224 101.094 282.095 100.96 282.008 100.799C281.921 100.638 281.879 100.456 281.887 100.274C281.895 100.091 281.952 99.9139 282.053 99.761C282.129 99.6427 283.518 97.3976 282.086 94.049C281.586 94.7955 280.97 95.4589 280.263 96.0149C278.341 97.526 274.749 98.993 268.551 97.3974C268.421 97.3641 268.3 97.3058 268.193 97.2257C268.087 97.1456 267.997 97.0453 267.929 96.9306C267.861 96.8158 267.817 96.6889 267.798 96.557C267.779 96.4252 267.787 96.2909 267.82 96.162C267.854 96.033 267.912 95.9119 267.993 95.8055C268.073 95.6991 268.173 95.6096 268.288 95.5419C268.403 95.4743 268.531 95.4299 268.663 95.4113C268.795 95.3927 268.93 95.4003 269.059 95.4336C279.104 98.0196 280.995 91.8475 281.07 91.5835C281.123 91.3964 281.229 91.2284 281.375 91.0995C281.521 90.9706 281.701 90.8862 281.894 90.8563C282.087 90.8264 282.284 90.8523 282.462 90.9309C282.641 91.0095 282.793 91.1375 282.9 91.2997C286.454 96.7105 283.862 100.712 283.75 100.88C283.657 101.019 283.531 101.133 283.383 101.212C283.235 101.291 283.07 101.332 282.902 101.332Z" fill="black"/>
<path d="M269.069 174.673C268.162 174.35 261.471 172.993 261.471 172.993L253.586 160.287C253.427 160.03 253.32 159.743 253.273 159.444C253.227 159.145 253.24 158.839 253.314 158.545L257.909 140.21L241.632 143.998C241.632 143.998 238.793 158.597 241.196 162.657C244.812 168.769 255.116 176.896 257.789 178.947C258.205 179.266 258.668 179.52 259.161 179.699L268.767 183.19L270.464 183.258C270.907 183.275 271.344 183.147 271.707 182.893C272.07 182.64 272.339 182.274 272.474 181.853C272.582 181.531 272.64 181.194 272.646 180.854C272.646 179.627 269.976 174.996 269.069 174.673Z" fill="white"/>
<path d="M271.739 184.324C271.551 184.324 271.366 184.271 271.206 184.173C271.046 184.075 270.917 183.934 270.832 183.767C270.747 183.599 270.711 183.412 270.726 183.225C270.742 183.038 270.809 182.859 270.921 182.708C271.117 182.439 271.629 181.577 271.629 180.855C271.594 179.99 269.444 176.188 268.671 175.609C267.892 175.363 263.761 174.493 261.269 173.987C261.133 173.959 261.004 173.904 260.89 173.825C260.776 173.746 260.68 173.644 260.607 173.527L252.722 160.821C252.492 160.447 252.339 160.032 252.271 159.599C252.203 159.166 252.223 158.724 252.328 158.299L253.282 154.495C253.347 154.234 253.514 154.009 253.745 153.871C253.976 153.733 254.253 153.692 254.515 153.757C254.776 153.822 255.001 153.988 255.14 154.219C255.279 154.45 255.32 154.726 255.254 154.987L254.301 158.791C254.261 158.953 254.253 159.122 254.279 159.287C254.305 159.452 254.363 159.611 254.451 159.753L262.104 172.087C263.828 172.438 268.57 173.418 269.411 173.717C269.665 173.808 270.442 174.085 272.079 176.918C272.555 177.742 273.663 179.776 273.663 180.854C273.663 182.371 272.671 183.757 272.558 183.91C272.464 184.039 272.34 184.143 272.198 184.215C272.056 184.287 271.898 184.324 271.739 184.324Z" fill="black"/>
<path d="M238.17 178.404C232.988 171.515 226.357 164.769 225.895 164.301C224.396 163.908 221.557 162.891 217.348 160.261C214.675 158.59 212.26 155.646 210.676 153.546C209.912 152.532 208.632 150.745 207.84 149.333C206.991 147.819 206.467 146.474 205.978 145.4C205.196 143.683 205.026 141.752 205.496 139.925L205.494 139.924C205.494 139.924 191.614 145.867 191.445 159.558C191.321 169.554 199.239 175.784 211.947 184.573C221.804 191.389 222.114 191.671 222.114 191.671C222.114 191.671 205.172 199.89 192.295 207.664L196.847 219.217C196.847 219.217 215.778 214.411 229.908 208.404C240.244 204.01 244.724 198.367 244.142 191.164C243.726 186.029 241.179 182.404 238.17 178.404Z" fill="#FF002A"/>
<path d="M196.847 220.231C196.643 220.231 196.443 220.169 196.275 220.054C196.106 219.94 195.976 219.777 195.901 219.587L191.349 208.035C191.261 207.812 191.255 207.566 191.332 207.339C191.409 207.113 191.563 206.92 191.768 206.796C202.299 200.439 215.68 193.717 220.144 191.508C218.852 190.598 216.319 188.83 211.368 185.405C205.495 181.344 199.911 177.354 196.131 173.199C192.179 168.854 190.367 164.515 190.428 159.545C190.501 153.66 193.066 148.237 197.846 143.86C199.996 141.875 202.441 140.233 205.093 138.992C205.268 138.917 205.46 138.893 205.648 138.922C205.836 138.95 206.012 139.031 206.157 139.154C206.301 139.277 206.408 139.438 206.465 139.619C206.522 139.8 206.528 139.993 206.481 140.177C206.071 141.779 206.22 143.473 206.904 144.98C207.028 145.252 207.154 145.541 207.287 145.846C207.715 146.867 208.196 147.866 208.727 148.837C209.566 150.256 210.489 151.625 211.489 152.935C213.857 156.074 215.95 158.189 217.889 159.401C222.093 162.029 224.871 162.984 226.153 163.319C226.33 163.365 226.491 163.459 226.62 163.588C227.342 164.32 233.821 170.933 238.984 177.795C242.22 182.096 244.729 185.806 245.155 191.082C245.783 198.85 240.927 204.821 230.307 209.336C216.267 215.305 197.289 220.15 197.099 220.199C197.016 220.22 196.932 220.231 196.847 220.231ZM193.555 208.091L197.464 218.008C201.329 216.99 217.319 212.653 229.51 207.471C234.466 205.363 238.107 202.916 240.332 200.196C242.487 197.559 243.402 194.632 243.127 191.245C242.744 186.501 240.494 183.183 237.356 179.013C232.604 172.695 226.531 166.405 225.36 165.206C223.625 164.719 220.799 163.615 216.807 161.12C214.654 159.774 212.382 157.496 209.863 154.155C209.419 153.568 207.9 151.519 206.951 149.828C206.386 148.798 205.875 147.739 205.42 146.655C205.292 146.361 205.17 146.082 205.051 145.819C204.467 144.533 204.184 143.131 204.223 141.719C202.408 142.754 200.713 143.988 199.172 145.398C194.785 149.435 192.526 154.204 192.46 159.57C192.341 169.088 199.962 175.05 212.525 183.74C215.506 185.801 222.472 190.627 222.798 190.923C222.92 191.035 223.014 191.175 223.07 191.33C223.126 191.486 223.143 191.653 223.119 191.817C223.095 191.981 223.032 192.137 222.934 192.271C222.836 192.404 222.707 192.512 222.557 192.584C222.393 192.663 206.151 200.559 193.555 208.091Z" fill="#FF002A"/>
<path d="M194.46 213.975C194.223 213.975 193.994 213.893 193.811 213.742C193.629 213.592 193.505 213.383 193.46 213.151C193.416 212.919 193.454 212.678 193.569 212.471C193.683 212.265 193.866 212.104 194.086 212.017C194.263 211.948 211.844 205.018 218.679 202.226C219.998 201.687 221.233 201.199 222.322 200.769C228.647 198.271 231.534 197.131 232.677 193.538C234.174 188.832 229.528 185.396 223.767 181.706L223.266 181.385C215.266 176.263 207.709 171.425 203.475 166.718C200.205 163.085 201.671 158.278 202.903 156.245C202.972 156.131 203.063 156.031 203.17 155.952C203.278 155.873 203.4 155.816 203.529 155.784C203.659 155.752 203.794 155.746 203.926 155.765C204.058 155.785 204.184 155.831 204.299 155.9C204.413 155.968 204.513 156.059 204.592 156.166C204.671 156.273 204.729 156.395 204.761 156.524C204.793 156.653 204.799 156.788 204.779 156.919C204.759 157.051 204.714 157.178 204.645 157.292C204.532 157.48 201.915 161.948 204.988 165.364C209.037 169.866 216.482 174.633 224.364 179.68L224.866 180.001C227.624 181.767 230.481 183.677 232.439 185.883C234.786 188.528 235.519 191.311 234.615 194.152C233.18 198.663 229.589 200.081 223.071 202.655C221.986 203.084 220.756 203.569 219.449 204.104C212.602 206.9 195.01 213.834 194.833 213.904C194.714 213.951 194.588 213.975 194.46 213.975Z" fill="black"/>
<path d="M220.249 192.347C220.024 192.347 219.806 192.273 219.628 192.136C219.45 191.999 219.323 191.807 219.266 191.59C219.209 191.373 219.225 191.144 219.313 190.938C219.401 190.731 219.554 190.56 219.75 190.45L224.504 187.779C224.738 187.647 225.016 187.614 225.276 187.686C225.536 187.759 225.756 187.931 225.888 188.165C226.021 188.4 226.054 188.677 225.982 188.936C225.909 189.195 225.736 189.415 225.501 189.547L224.914 189.876C225.743 189.833 226.589 189.812 227.371 189.832C227.505 189.835 227.636 189.865 227.758 189.919C227.88 189.973 227.99 190.05 228.082 190.147C228.174 190.244 228.246 190.357 228.294 190.482C228.342 190.606 228.365 190.738 228.362 190.872C228.359 191.005 228.329 191.136 228.275 191.258C228.22 191.379 228.143 191.489 228.046 191.581C227.949 191.673 227.835 191.745 227.71 191.793C227.586 191.84 227.453 191.863 227.319 191.86C224.433 191.788 220.429 192.333 220.389 192.338C220.342 192.345 220.296 192.348 220.249 192.347Z" fill="black"/>
<path d="M225.109 172.267C224.889 172.268 224.675 172.196 224.498 172.065C224.322 171.933 224.193 171.748 224.132 171.537C224.07 171.326 224.079 171.101 224.157 170.895C224.235 170.689 224.377 170.515 224.563 170.397C225.181 170.006 225.964 169.575 226.72 169.18C224.154 169.048 222.451 169.942 222.358 169.993C222.122 170.119 221.845 170.147 221.588 170.071C221.332 169.996 221.115 169.822 220.986 169.588C220.857 169.354 220.826 169.078 220.899 168.821C220.973 168.564 221.145 168.347 221.378 168.215C221.533 168.13 225.228 166.143 230.189 167.798C230.382 167.862 230.551 167.983 230.675 168.144C230.798 168.305 230.87 168.5 230.882 168.702C230.893 168.905 230.844 169.106 230.739 169.281C230.634 169.455 230.48 169.593 230.295 169.679C230.265 169.693 227.27 171.085 225.653 172.109C225.491 172.212 225.302 172.267 225.109 172.267Z" fill="black"/>
<path d="M205.752 164.562C204.203 164.562 203.272 164.156 203.181 164.114C202.935 164.003 202.743 163.799 202.648 163.548C202.553 163.296 202.562 163.017 202.673 162.772C202.785 162.527 202.989 162.336 203.241 162.241C203.493 162.146 203.773 162.155 204.019 162.266C204.218 162.351 208.424 164.033 214.459 158.014C214.65 157.826 214.908 157.722 215.176 157.723C215.444 157.724 215.701 157.831 215.891 158.02C216.08 158.209 216.187 158.465 216.189 158.733C216.19 159 216.085 159.257 215.897 159.448C211.654 163.68 208.034 164.562 205.752 164.562Z" fill="black"/>
<path d="M192.067 207.086C192.067 207.086 183.877 209.063 180.189 210.388C176.501 211.713 175.177 212.164 175.177 212.164L180.597 243.902C180.597 243.902 183.309 243.936 185.49 243.152C187.671 242.369 189.229 241.168 189.519 235.216C190.14 222.499 197.029 219.681 197.029 219.681L192.067 207.086Z" fill="white"/>
<path d="M180.655 244.917C180.617 244.917 180.593 244.917 180.584 244.917C180.347 244.914 180.117 244.828 179.937 244.673C179.756 244.519 179.635 244.307 179.595 244.073L174.175 212.334C174.134 212.096 174.18 211.852 174.303 211.645C174.427 211.438 174.62 211.282 174.848 211.204C174.862 211.199 176.21 210.74 179.843 209.434C183.542 208.105 191.491 206.181 191.828 206.1C192.066 206.042 192.318 206.073 192.536 206.186C192.754 206.299 192.924 206.487 193.014 206.715L197.976 219.31C198.074 219.558 198.07 219.834 197.965 220.079C197.86 220.324 197.663 220.518 197.416 220.619C197.407 220.623 195.836 221.308 194.217 223.423C192.704 225.397 190.838 229.053 190.535 235.265C190.238 241.354 188.587 243.118 185.835 244.107C183.683 244.88 181.122 244.917 180.655 244.917ZM176.323 212.839L181.451 242.862C182.367 242.81 183.873 242.655 185.145 242.198C186.942 241.552 188.234 240.67 188.503 235.167C189.02 224.574 193.746 220.489 195.755 219.222L191.445 208.283C189.253 208.826 183.43 210.302 180.532 211.342C178.43 212.098 177.087 212.572 176.323 212.839Z" fill="black"/>
<path d="M185.11 244.293C184.869 244.293 184.636 244.207 184.452 244.051C184.269 243.895 184.147 243.679 184.108 243.442L178.767 210.655C178.724 210.389 178.788 210.117 178.946 209.899C179.103 209.681 179.341 209.534 179.608 209.491C179.874 209.448 180.146 209.512 180.365 209.669C180.584 209.826 180.731 210.064 180.774 210.329L186.115 243.116C186.138 243.261 186.13 243.41 186.09 243.551C186.05 243.693 185.98 243.824 185.885 243.936C185.789 244.048 185.671 244.138 185.537 244.199C185.403 244.261 185.257 244.293 185.11 244.293V244.293Z" fill="black"/>
<path d="M181.117 219.763C180.884 219.763 180.659 219.684 180.478 219.538C180.297 219.392 180.171 219.189 180.122 218.962C180.073 218.736 180.104 218.499 180.209 218.292C180.314 218.085 180.486 217.92 180.699 217.824C182.904 216.832 184.371 215.012 185.059 212.416C185.383 211.178 185.51 209.897 185.435 208.619C185.41 208.352 185.492 208.086 185.663 207.88C185.834 207.673 186.08 207.542 186.348 207.516C186.616 207.49 186.883 207.571 187.091 207.74C187.299 207.91 187.431 208.155 187.458 208.422C187.559 209.916 187.418 211.415 187.043 212.864C186.213 216.071 184.308 218.425 181.534 219.673C181.403 219.732 181.261 219.763 181.117 219.763Z" fill="black"/>
<path d="M183.963 237.246C183.71 237.246 183.466 237.151 183.279 236.98C183.092 236.809 182.976 236.575 182.953 236.324C182.931 236.072 183.003 235.821 183.156 235.619C183.309 235.418 183.532 235.281 183.781 235.235L189.336 234.219C189.469 234.191 189.606 234.191 189.739 234.217C189.871 234.243 189.998 234.295 190.11 234.371C190.222 234.446 190.319 234.543 190.393 234.656C190.467 234.769 190.518 234.896 190.542 235.029C190.567 235.162 190.564 235.298 190.535 235.43C190.506 235.562 190.451 235.687 190.372 235.797C190.294 235.907 190.195 236.001 190.08 236.073C189.965 236.144 189.837 236.192 189.703 236.213L184.148 237.229C184.087 237.241 184.025 237.246 183.963 237.246Z" fill="black"/>
<path d="M194.047 223.049C193.886 223.049 193.727 223.011 193.584 222.938C193.44 222.865 193.316 222.759 193.222 222.629L190.995 219.557C190.915 219.449 190.857 219.326 190.825 219.196C190.793 219.066 190.787 218.931 190.808 218.798C190.829 218.666 190.875 218.539 190.946 218.425C191.016 218.31 191.108 218.211 191.217 218.133C191.326 218.054 191.449 217.998 191.58 217.967C191.711 217.936 191.846 217.932 191.979 217.954C192.111 217.976 192.238 218.024 192.352 218.095C192.466 218.166 192.565 218.259 192.642 218.368L194.87 221.44C194.979 221.592 195.045 221.77 195.06 221.957C195.074 222.143 195.037 222.329 194.952 222.496C194.866 222.662 194.737 222.802 194.577 222.9C194.418 222.997 194.234 223.049 194.047 223.049Z" fill="black"/>
<path d="M192.038 225.964C191.847 225.964 191.66 225.91 191.498 225.808L188.225 223.753C188.112 223.682 188.014 223.589 187.937 223.481C187.86 223.372 187.805 223.249 187.775 223.119C187.746 222.99 187.742 222.855 187.764 222.724C187.787 222.593 187.835 222.467 187.906 222.354C187.977 222.242 188.07 222.144 188.179 222.067C188.288 221.99 188.411 221.935 188.541 221.906C188.671 221.876 188.806 221.872 188.938 221.895C189.069 221.917 189.195 221.965 189.308 222.036L192.581 224.091C192.767 224.208 192.911 224.383 192.989 224.589C193.068 224.794 193.077 225.02 193.016 225.231C192.955 225.443 192.826 225.628 192.65 225.761C192.474 225.893 192.259 225.964 192.038 225.964Z" fill="black"/>
<path d="M190.691 229.225C190.584 229.225 190.478 229.208 190.376 229.175L187.204 228.146C186.95 228.061 186.739 227.879 186.618 227.64C186.498 227.401 186.477 227.125 186.56 226.87C186.643 226.616 186.823 226.405 187.061 226.282C187.3 226.16 187.577 226.136 187.833 226.217L191.005 227.247C191.236 227.321 191.432 227.475 191.558 227.681C191.685 227.887 191.734 228.131 191.696 228.37C191.658 228.608 191.536 228.826 191.352 228.983C191.167 229.139 190.933 229.225 190.691 229.225Z" fill="black"/>
<path d="M251.556 152.882C260.536 145.614 262.057 130.89 262.057 130.89C262.057 130.89 259.308 131.296 256.139 126.659C254.272 123.927 254.047 120.965 254.282 118.702C254.282 118.702 254.403 117.71 254.591 116.909C255.003 115.155 255.184 114.935 255.184 114.935C255.184 114.935 241.274 112.91 229.528 120.261C220.886 125.67 219.531 131.079 211.736 133.783C210.735 134.129 209.78 134.596 208.892 135.173C205.517 137.37 204.31 141.738 205.977 145.399C206.466 146.473 206.99 147.818 207.839 149.332C208.631 150.744 209.911 152.531 210.675 153.545C212.259 155.645 214.674 158.589 217.347 160.26C223.917 164.366 227.155 164.544 227.155 164.544C227.155 164.544 231.79 161.465 238.835 158.961C249.301 155.243 251.556 152.882 251.556 152.882Z" fill="white"/>
<path d="M227.158 165.558C227.134 165.558 227.109 165.558 227.084 165.556C226.939 165.545 223.46 165.255 216.811 161.121C214.406 159.626 212.194 157.406 209.85 154.135C209.693 153.916 209.63 153.644 209.674 153.379C209.718 153.114 209.866 152.877 210.086 152.72C210.305 152.564 210.578 152.501 210.844 152.545C211.11 152.589 211.347 152.737 211.504 152.955C213.688 156.003 215.716 158.05 217.887 159.4C224.013 163.209 227.199 163.531 227.23 163.533C227.492 163.551 227.738 163.671 227.914 163.866C228.09 164.062 228.183 164.317 228.174 164.58C228.165 164.843 228.053 165.091 227.864 165.274C227.675 165.456 227.421 165.558 227.158 165.558Z" fill="black"/>
<path d="M251.557 153.896C251.347 153.896 251.142 153.831 250.97 153.71C250.799 153.589 250.669 153.418 250.599 153.221C250.528 153.023 250.521 152.809 250.578 152.607C250.635 152.406 250.753 152.226 250.916 152.094C258.139 146.249 260.376 135.184 260.907 131.796C259.611 131.494 257.518 130.475 255.3 127.23C253.639 124.799 252.937 121.814 253.271 118.597C253.285 118.465 253.324 118.336 253.388 118.219C253.452 118.102 253.538 117.999 253.641 117.915C253.745 117.831 253.864 117.768 253.992 117.73C254.12 117.692 254.254 117.679 254.387 117.693C254.52 117.707 254.649 117.746 254.766 117.81C254.883 117.873 254.987 117.959 255.071 118.062C255.156 118.166 255.219 118.284 255.257 118.412C255.295 118.54 255.307 118.674 255.294 118.806C255.006 121.579 255.573 124.029 256.98 126.088C258.41 128.18 259.7 129.103 260.53 129.508C261.32 129.893 261.83 129.889 261.922 129.884C262.073 129.855 262.228 129.863 262.375 129.906C262.522 129.95 262.657 130.027 262.768 130.133C262.883 130.242 262.97 130.378 263.022 130.527C263.074 130.677 263.091 130.837 263.069 130.994C262.703 133.877 262.058 136.717 261.141 139.475C259.728 143.792 257.028 149.759 252.197 153.669C252.016 153.816 251.79 153.896 251.557 153.896Z" fill="black"/>
<path d="M207.841 150.347C207.65 150.347 207.463 150.293 207.301 150.193C207.14 150.092 207.009 149.948 206.926 149.776C206.224 148.339 205.593 147.007 205.052 145.818C203.179 141.704 204.591 136.763 208.337 134.323C209.295 133.702 210.325 133.198 211.404 132.825C215.522 131.397 217.789 129.13 220.415 126.504C222.592 124.328 225.059 121.861 228.989 119.402C232.434 117.246 238.299 114.529 246.678 113.83C251.682 113.412 255.186 113.909 255.332 113.931C255.465 113.95 255.593 113.994 255.708 114.062C255.824 114.13 255.924 114.22 256.005 114.327C256.085 114.434 256.144 114.556 256.177 114.685C256.21 114.815 256.217 114.95 256.197 115.082C256.178 115.214 256.133 115.341 256.064 115.456C255.995 115.571 255.904 115.671 255.797 115.75C255.689 115.83 255.567 115.888 255.436 115.92C255.306 115.952 255.171 115.958 255.039 115.938C254.868 115.914 241.331 114.072 230.07 121.12C226.335 123.458 223.955 125.838 221.854 127.937C219.051 130.739 216.63 133.16 212.072 134.741C211.149 135.06 210.268 135.49 209.449 136.022C206.537 137.919 205.442 141.77 206.904 144.98C207.438 146.152 208.06 147.467 208.755 148.889C208.83 149.043 208.865 149.214 208.856 149.386C208.847 149.558 208.794 149.724 208.703 149.87C208.612 150.016 208.485 150.136 208.334 150.22C208.183 150.303 208.014 150.347 207.841 150.347L207.841 150.347Z" fill="black"/>
<path d="M256.082 182.952C256.082 182.952 261.435 186.226 263.183 186.226C263.183 186.226 263.8 183.265 267.263 184.536V187.916C267.263 187.916 271.537 188.474 271.537 184.148C271.537 182.792 269.554 178.216 267.149 177.57C266.005 177.264 263.905 177.646 260.216 176.752" fill="white"/>
<path d="M267.712 188.953C267.517 188.955 267.323 188.944 267.13 188.922C266.886 188.891 266.661 188.771 266.498 188.586C266.335 188.401 266.246 188.163 266.246 187.917V185.294C265.713 185.185 265.276 185.221 264.941 185.401C264.352 185.718 264.178 186.437 264.176 186.444C264.129 186.671 264.004 186.875 263.823 187.02C263.641 187.165 263.416 187.243 263.183 187.241C261.246 187.241 256.485 184.389 255.551 183.817C255.321 183.676 255.156 183.45 255.093 183.189C255.031 182.927 255.074 182.652 255.215 182.422C255.356 182.193 255.583 182.029 255.845 181.966C256.107 181.903 256.384 181.947 256.614 182.088C258.656 183.337 261.219 184.668 262.544 185.082C262.859 184.475 263.345 183.972 263.941 183.635C264.949 183.077 266.185 183.06 267.614 183.584C267.809 183.656 267.978 183.786 268.097 183.956C268.216 184.126 268.28 184.329 268.28 184.536V186.891C268.822 186.839 269.336 186.628 269.758 186.286C270.263 185.838 270.52 185.12 270.52 184.149C270.52 183.143 268.716 179.041 266.885 178.55C266.399 178.463 265.906 178.422 265.412 178.427C263.58 178.399 261.757 178.168 259.976 177.738C259.845 177.707 259.722 177.651 259.613 177.573C259.505 177.494 259.413 177.395 259.343 177.281C259.272 177.167 259.226 177.041 259.205 176.908C259.184 176.776 259.189 176.641 259.221 176.511C259.253 176.381 259.31 176.259 259.389 176.151C259.468 176.043 259.568 175.952 259.683 175.883C259.798 175.814 259.925 175.768 260.058 175.748C260.19 175.728 260.325 175.734 260.456 175.767C262.102 176.162 263.788 176.375 265.482 176.4C266.261 176.426 266.876 176.447 267.414 176.591C270.329 177.373 272.554 182.357 272.554 184.149C272.554 185.734 272.062 186.968 271.092 187.816C269.968 188.8 268.509 188.953 267.712 188.953Z" fill="black"/>
<path d="M250.032 132.43C250.032 132.43 251.871 141.192 248.507 150.684C246.624 155.998 247.49 160.318 247.49 160.318L260.215 176.752L256.081 182.952C234.693 171.754 233.183 165.529 232.98 161.305C232.689 155.243 229.868 149.164 230.038 136.995" fill="white"/>
<path d="M256.081 183.967C255.917 183.967 255.755 183.927 255.609 183.85C245.95 178.793 239.478 174.323 235.823 170.183C232.631 166.568 232.082 163.803 231.965 161.353C231.859 159.164 231.408 156.949 230.885 154.384C230.006 150.074 228.913 144.709 229.021 136.98C229.023 136.846 229.051 136.715 229.104 136.593C229.157 136.47 229.233 136.359 229.329 136.267C229.425 136.174 229.538 136.101 229.662 136.051C229.786 136.002 229.918 135.978 230.052 135.98C230.185 135.981 230.317 136.009 230.44 136.062C230.563 136.115 230.674 136.191 230.767 136.287C230.86 136.382 230.933 136.495 230.982 136.619C231.032 136.742 231.056 136.875 231.054 137.008C230.95 144.519 232.019 149.765 232.878 153.98C233.417 156.626 233.883 158.912 233.996 161.255C234.096 163.337 234.573 165.697 237.35 168.843C240.737 172.679 246.759 176.865 255.745 181.628L258.966 176.797L246.686 160.938C246.59 160.814 246.525 160.67 246.494 160.517C246.456 160.33 245.595 155.86 247.549 150.346C250.78 141.227 249.054 132.724 249.036 132.638C248.981 132.375 249.033 132.1 249.181 131.875C249.328 131.65 249.559 131.493 249.823 131.438C250.087 131.382 250.362 131.434 250.588 131.581C250.814 131.729 250.971 131.959 251.027 132.222C251.104 132.592 252.885 141.373 249.465 151.022C247.938 155.33 248.32 158.987 248.452 159.902L261.02 176.133C261.15 176.3 261.224 176.505 261.231 176.717C261.239 176.929 261.18 177.138 261.062 177.314L256.928 183.514C256.835 183.653 256.709 183.767 256.561 183.846C256.414 183.925 256.249 183.967 256.081 183.967Z" fill="black"/>
<path d="M241.063 163.503C240.799 163.503 240.546 163.402 240.357 163.219C240.167 163.037 240.056 162.789 240.047 162.526C240.037 162.264 240.13 162.008 240.305 161.813C240.481 161.617 240.726 161.497 240.988 161.478C245.632 161.134 246.611 159.807 246.621 159.794C246.608 159.811 246.597 159.829 246.589 159.849L248.391 160.788C248.193 161.166 246.913 163.073 241.139 163.501C241.113 163.502 241.088 163.503 241.063 163.503Z" fill="black"/>
<path d="M155.21 130.754C151.06 124.139 156.864 100.48 168.823 97.309C177.777 94.9346 184.137 107.957 194.369 114.909L185.953 145.018L155.21 130.754Z" fill="white"/>
<path d="M185.954 146.01C185.808 146.01 185.665 145.979 185.533 145.918L154.79 131.654C154.615 131.573 154.468 131.443 154.366 131.28C153.518 129.928 152.586 127.262 152.965 122.24C153.25 118.463 154.239 114.284 155.749 110.474C157.127 106.997 158.907 103.921 160.898 101.576C163.218 98.8428 165.798 97.0845 168.567 96.3505C174.886 94.6757 179.943 99.8914 185.298 105.414C188.277 108.485 191.357 111.661 194.931 114.09C195.103 114.207 195.234 114.374 195.306 114.569C195.377 114.764 195.385 114.976 195.33 115.176L186.914 145.284C186.856 145.493 186.73 145.677 186.557 145.808C186.384 145.939 186.172 146.01 185.954 146.01H185.954ZM155.913 129.985L185.31 143.625L193.221 115.321C189.733 112.843 186.753 109.77 183.866 106.792C178.714 101.48 174.265 96.8926 169.079 98.268C164.569 99.4639 160.385 104.178 157.602 111.202C154.744 118.412 154.029 126.548 155.913 129.985Z" fill="black"/>
<path d="M185.953 145.018C169.983 135.715 163.344 119.51 156.372 123.809C153.588 125.526 154.346 129.269 155.158 130.747C162.268 143.684 185.953 145.018 185.953 145.018Z" fill="white"/>
<path d="M185.954 146.01C185.935 146.01 185.916 146.01 185.897 146.009C181.513 145.673 177.174 144.895 172.947 143.687C163.645 141.023 157.366 136.829 154.285 131.223C153.077 129.026 152.739 124.883 155.848 122.966C160.411 120.151 164.674 124.61 170.071 130.255C174.265 134.641 179.485 140.101 186.456 144.162C186.645 144.272 186.792 144.441 186.875 144.642C186.958 144.844 186.972 145.067 186.914 145.277C186.857 145.488 186.732 145.673 186.559 145.806C186.385 145.938 186.172 146.01 185.954 146.01ZM158.763 124.092C158.1 124.099 157.453 124.293 156.897 124.653C154.645 126.042 155.475 129.256 156.032 130.271C161.022 139.349 174.828 142.512 181.827 143.552C176.401 139.753 172.159 135.316 168.629 131.624C164.146 126.935 161.284 124.092 158.763 124.092Z" fill="black"/>
<path d="M219.633 121.609C219.62 121.609 219.607 121.609 219.593 121.609C201.545 120.9 194.112 115.939 193.804 115.728C193.696 115.654 193.604 115.56 193.533 115.451C193.462 115.342 193.413 115.22 193.389 115.091C193.365 114.963 193.367 114.832 193.394 114.704C193.421 114.577 193.473 114.456 193.547 114.349C193.621 114.241 193.716 114.149 193.825 114.078C193.935 114.007 194.057 113.958 194.186 113.935C194.315 113.911 194.447 113.913 194.575 113.94C194.703 113.967 194.824 114.018 194.932 114.092C195.036 114.162 202.323 118.944 219.672 119.626C219.936 119.631 220.187 119.741 220.37 119.93C220.554 120.12 220.654 120.374 220.648 120.637C220.643 120.901 220.534 121.151 220.343 121.333C220.153 121.516 219.897 121.616 219.633 121.61V121.609Z" fill="black"/>
<path d="M219.018 154.126C201.573 154.126 194.86 150.691 185.499 145.901C185.264 145.78 185.087 145.572 185.006 145.321C184.925 145.071 184.947 144.799 185.068 144.565C185.189 144.331 185.398 144.154 185.649 144.073C185.901 143.993 186.174 144.015 186.409 144.136C197.74 149.934 204.579 153.434 230.779 151.715C231.042 151.699 231.3 151.787 231.498 151.961C231.696 152.134 231.817 152.379 231.834 152.64C231.851 152.902 231.764 153.16 231.59 153.358C231.417 153.556 231.172 153.677 230.91 153.695C226.443 153.988 222.514 154.126 219.018 154.126Z" fill="black"/>
<path d="M254.016 93.3898C251.915 88.929 245.35 77.5289 233.803 79.3461C223.311 80.9972 222.89 90.1247 215.019 93.3784C214.303 93.2311 213.625 92.769 213.343 92.582C210.98 91.0119 209.074 89.2642 202.487 90.3043C196.89 91.1876 190.565 95.9031 190.565 95.9031C190.565 95.9031 198.844 96.6042 206.398 100.931C226.448 112.416 236.062 103.209 240.356 98.9496C241.979 97.3393 247.545 95.1576 250.604 97.579C251.427 95.9568 252.59 94.5284 254.016 93.3898Z" fill="#8E85F1"/>
<path d="M224.1 107.48C218.599 107.48 212.501 105.579 205.895 101.795C198.619 97.6276 190.56 96.904 190.48 96.8972C190.277 96.8799 190.084 96.8019 189.927 96.6736C189.77 96.5452 189.656 96.3725 189.6 96.1783C189.543 95.9842 189.548 95.7777 189.613 95.5862C189.677 95.3946 189.799 95.2271 189.962 95.1058C190.228 94.9063 196.553 90.231 202.33 89.3191C208.814 88.2956 211.136 89.8742 213.381 91.401C213.554 91.5185 213.728 91.6364 213.903 91.7533L213.933 91.7729C214.249 91.9938 214.589 92.1779 214.947 92.3215C217.913 90.9958 219.735 88.7349 221.66 86.3461C224.428 82.9117 227.29 79.3605 233.646 78.3605C238.946 77.5267 243.825 79.1862 248.147 83.293C251.648 86.6194 253.898 90.7818 254.927 92.9671C255.022 93.1693 255.047 93.3974 254.996 93.6148C254.945 93.8323 254.822 94.0265 254.647 94.1665C253.333 95.2122 252.262 96.5267 251.506 98.0205C251.44 98.154 251.344 98.2711 251.226 98.3631C251.108 98.4551 250.97 98.5197 250.824 98.5521C250.677 98.5845 250.525 98.5839 250.379 98.5504C250.232 98.5168 250.095 98.4512 249.978 98.3583C247.434 96.3446 242.417 98.3149 241.067 99.6551C239.073 101.634 235.363 105.315 229.539 106.811C227.762 107.262 225.934 107.487 224.1 107.48ZM193.288 95.2797C196.396 95.8304 201.779 97.1336 206.9 100.068C215.295 104.876 222.742 106.495 229.034 104.88C234.329 103.52 237.656 100.218 239.644 98.2446C241.503 96.401 246.717 94.4637 250.234 96.1753C250.928 95.0437 251.784 94.0178 252.775 93.1299C246.276 79.9489 237.482 79.7776 233.96 80.3324C228.373 81.2114 225.875 84.3114 223.23 87.5935C221.167 90.1539 219.034 92.8002 215.405 94.3001C215.218 94.3773 215.012 94.3969 214.814 94.3562C213.929 94.1741 213.146 93.6531 212.812 93.4304L212.784 93.4118C212.602 93.291 212.423 93.1691 212.244 93.0476C210.148 91.6212 208.338 90.3909 202.645 91.2896C199.273 91.8217 195.553 93.8624 193.288 95.2797Z" fill="#8E85F1"/>
<path d="M232.48 100.779C232.31 100.779 232.143 100.736 231.994 100.654C231.845 100.573 231.72 100.455 231.63 100.312C231.539 100.169 231.487 100.006 231.477 99.8377C231.468 99.6694 231.501 99.5013 231.575 99.3494C234.01 94.3261 236.882 91.522 240.11 91.0153C243.829 90.4312 246.501 93.1577 246.613 93.274C246.792 93.466 246.888 93.7201 246.88 93.9815C246.872 94.2429 246.761 94.4907 246.57 94.6716C246.38 94.8525 246.126 94.952 245.862 94.9487C245.598 94.9454 245.347 94.8396 245.161 94.654C245.139 94.6315 243.077 92.5591 240.406 92.9884C237.911 93.3902 235.484 95.8887 233.387 100.214C233.305 100.383 233.176 100.526 233.015 100.626C232.855 100.726 232.669 100.779 232.48 100.779Z" fill="black"/>
<path d="M216.615 99.0095C211.182 99.0095 206.156 95.4404 205.918 95.2687C205.809 95.1923 205.718 95.0953 205.647 94.9835C205.577 94.8716 205.53 94.7471 205.508 94.617C205.487 94.4869 205.492 94.3539 205.522 94.2256C205.553 94.0974 205.609 93.9764 205.687 93.8698C205.765 93.7631 205.864 93.6729 205.977 93.6042C206.09 93.5356 206.216 93.4899 206.348 93.4699C206.479 93.4499 206.613 93.4559 206.742 93.4875C206.871 93.5192 206.992 93.5759 207.099 93.6543C207.158 93.6964 213.108 97.9105 218.44 96.8397C220.753 96.3755 222.65 94.9538 224.08 92.6141C227.807 86.5178 232.127 83.2741 236.921 82.9732C244.574 82.4925 250.447 89.7094 250.693 90.017C250.777 90.1194 250.839 90.2372 250.876 90.3636C250.914 90.49 250.926 90.6225 250.911 90.7535C250.897 90.8845 250.856 91.0113 250.792 91.1266C250.728 91.242 250.641 91.3436 250.537 91.4256C250.433 91.5075 250.314 91.5683 250.186 91.6042C250.059 91.6402 249.925 91.6507 249.793 91.6352C249.661 91.6196 249.534 91.5783 249.418 91.5136C249.302 91.4489 249.201 91.3621 249.119 91.2582C248.05 90.0049 246.838 88.8782 245.508 87.9005C243.526 86.4411 240.447 84.7471 237.039 84.9644C232.944 85.2255 229.162 88.1469 225.799 93.6485C224.064 96.487 221.72 98.2191 218.83 98.7967C218.101 98.9404 217.359 99.0116 216.615 99.0095Z" fill="black"/>
<path d="M250.26 99.3325C250.095 99.3324 249.933 99.2922 249.787 99.2153C249.642 99.1384 249.518 99.0271 249.426 98.8914C249.334 98.7557 249.277 98.5996 249.26 98.437C249.243 98.2743 249.267 98.11 249.329 97.9585C250.368 95.4769 252.135 93.3627 254.401 91.8902C254.63 91.7547 254.904 91.7151 255.162 91.78C255.421 91.8449 255.643 92.0091 255.779 92.2363C255.916 92.4636 255.956 92.7353 255.89 92.9918C255.825 93.2483 255.66 93.4685 255.431 93.6039C253.546 94.8604 252.073 96.6354 251.191 98.711C251.116 98.8947 250.987 99.052 250.821 99.1627C250.655 99.2734 250.46 99.3325 250.26 99.3325Z" fill="black"/>
<path d="M164.147 112.42L142.703 120.771L147.773 133.835L169.217 125.484L164.147 112.42Z" fill="#FF002A"/>
<path d="M147.773 134.86C147.566 134.86 147.365 134.798 147.195 134.681C147.024 134.564 146.893 134.399 146.819 134.206L141.749 121.143C141.651 120.889 141.657 120.608 141.766 120.359C141.876 120.11 142.079 119.915 142.332 119.817L163.776 111.465C164.029 111.367 164.311 111.373 164.559 111.483C164.807 111.592 165.002 111.796 165.1 112.049L170.17 125.112C170.219 125.238 170.242 125.371 170.239 125.506C170.236 125.641 170.207 125.773 170.153 125.896C170.099 126.02 170.021 126.131 169.924 126.224C169.827 126.317 169.712 126.39 169.587 126.439L148.143 134.79C148.025 134.836 147.899 134.86 147.773 134.86ZM144.027 121.355L148.355 132.508L167.892 124.9L163.564 113.747L144.027 121.355Z" fill="#FF002A"/>
<path d="M154.579 123.856C154.325 123.856 154.072 123.834 153.822 123.789L142.524 121.782C142.257 121.734 142.019 121.582 141.864 121.359C141.709 121.136 141.648 120.861 141.695 120.593C141.743 120.326 141.895 120.088 142.117 119.932C142.34 119.777 142.615 119.716 142.882 119.764L154.179 121.771C154.585 121.844 155.003 121.803 155.387 121.654C155.771 121.504 156.107 121.251 156.357 120.923L163.334 111.798C163.416 111.691 163.518 111.601 163.634 111.534C163.751 111.467 163.879 111.423 164.012 111.405C164.146 111.387 164.281 111.396 164.411 111.431C164.541 111.466 164.662 111.526 164.769 111.608C164.876 111.69 164.965 111.792 165.033 111.908C165.1 112.025 165.144 112.153 165.161 112.287C165.179 112.42 165.17 112.556 165.135 112.686C165.101 112.816 165.041 112.938 164.959 113.045L157.981 122.169C157.582 122.694 157.067 123.119 156.477 123.411C155.887 123.704 155.238 123.856 154.579 123.856Z" fill="black"/>
<path d="M123.85 92.8145L97.1816 81.9795L87.8297 105.114L114.498 115.949L123.85 92.8145Z" fill="#FF002A"/>
<path d="M114.498 116.983C114.366 116.983 114.235 116.957 114.112 116.907L87.4431 106.072C87.3177 106.021 87.2035 105.946 87.1071 105.851C87.0107 105.756 86.9339 105.642 86.8812 105.517C86.8285 105.393 86.8008 105.258 86.7998 105.123C86.7988 104.987 86.8245 104.853 86.8753 104.727L96.2273 81.5931C96.3299 81.3393 96.5288 81.1368 96.7803 81.0301C97.0318 80.9234 97.3153 80.9212 97.5684 81.0241L124.237 91.8591C124.49 91.9619 124.692 92.1614 124.799 92.4135C124.905 92.6656 124.907 92.9498 124.805 93.2036L115.453 116.338C115.376 116.528 115.244 116.691 115.074 116.806C114.904 116.921 114.703 116.983 114.498 116.983ZM89.1708 104.546L113.931 114.606L122.509 93.3849L97.7498 83.3253L89.1708 104.546Z" fill="#FF002A"/>
<path d="M105.841 99.9973C105.651 99.9973 105.465 99.9448 105.303 99.8455C105.141 99.7462 105.01 99.604 104.924 99.4347L96.2652 82.45C96.1409 82.2061 96.1183 81.9228 96.2024 81.6623C96.2865 81.4018 96.4703 81.1854 96.7135 81.0608C96.9567 80.9362 97.2393 80.9136 97.4992 80.9979C97.7591 81.0822 97.9749 81.2665 98.0992 81.5103L106.352 97.6996L123.519 91.838C123.647 91.7934 123.783 91.7747 123.918 91.783C124.054 91.7912 124.186 91.8262 124.308 91.8859C124.43 91.9456 124.539 92.0289 124.629 92.1309C124.718 92.233 124.787 92.3518 124.831 92.4806C124.874 92.6093 124.892 92.7455 124.883 92.8812C124.875 93.0169 124.839 93.1496 124.779 93.2715C124.719 93.3934 124.635 93.5022 124.533 93.5915C124.43 93.6809 124.311 93.7492 124.183 93.7924L106.172 99.9421C106.066 99.9786 105.953 99.9972 105.841 99.9973Z" fill="black"/>
<path d="M92.1979 45.1315L76.6533 36.4482L71.3223 45.8123L86.8669 54.4955L92.1979 45.1315Z" fill="#FF002A"/>
<path d="M86.867 55.5292C86.6877 55.5292 86.5113 55.4833 86.3551 55.396L70.8106 46.7128C70.6914 46.6462 70.5865 46.557 70.5021 46.4503C70.4177 46.3436 70.3553 46.2214 70.3186 46.0908C70.2818 45.9602 70.2714 45.8237 70.2879 45.6891C70.3044 45.5545 70.3475 45.4244 70.4147 45.3063L75.7457 35.9425C75.8815 35.704 76.1074 35.5287 76.3736 35.4552C76.6398 35.3816 76.9247 35.4159 77.1654 35.5503L92.7099 44.2335C92.9507 44.368 93.1276 44.5917 93.2019 44.8555C93.2761 45.1192 93.2416 45.4013 93.1058 45.6398L87.7748 55.0039C87.6841 55.1633 87.5522 55.2959 87.3927 55.3882C87.2332 55.4805 87.0518 55.5292 86.867 55.5292ZM72.7424 45.4215L86.4712 53.0903L90.7775 45.5249L77.0494 37.856L72.7424 45.4215Z" fill="#FF002A"/>
<path d="M83.2172 46.456C82.5812 46.457 81.9564 46.2895 81.4077 45.9708C80.859 45.6522 80.4063 45.194 80.0964 44.6438L75.7444 36.9538C75.6775 36.8355 75.6347 36.7053 75.6186 36.5707C75.6025 36.4361 75.6132 36.2996 75.6503 36.1691C75.6874 36.0386 75.7501 35.9166 75.8348 35.8101C75.9195 35.7036 76.0246 35.6146 76.144 35.5483C76.2633 35.4821 76.3948 35.4397 76.5307 35.4237C76.6666 35.4077 76.8044 35.4184 76.9361 35.4552C77.0679 35.4919 77.191 35.554 77.2985 35.6379C77.4061 35.7218 77.4958 35.8258 77.5628 35.9441L81.9148 43.6341C82.0483 43.8715 82.2453 44.0678 82.4842 44.2013C82.7231 44.3349 82.9945 44.4006 83.2686 44.3912L92.1637 44.1011C92.3005 44.0967 92.4369 44.1189 92.565 44.1667C92.6931 44.2144 92.8105 44.2867 92.9104 44.3793C93.0103 44.472 93.0908 44.5832 93.1473 44.7067C93.2038 44.8302 93.2352 44.9635 93.2397 45.099C93.2442 45.2345 93.2218 45.3696 93.1736 45.4965C93.1254 45.6234 93.0524 45.7396 92.9589 45.8386C92.8653 45.9376 92.753 46.0173 92.6284 46.0733C92.5037 46.1293 92.3691 46.1604 92.2323 46.1648L83.3373 46.4541C83.2972 46.4553 83.2572 46.456 83.2172 46.456Z" fill="black"/>
<path d="M161.396 77.6178L153.099 61.2681L138.765 68.3544L147.062 84.7041L161.396 77.6178Z" fill="white"/>
<path d="M147.062 85.6965C146.875 85.6965 146.692 85.6453 146.534 85.5486C146.375 85.4519 146.247 85.3135 146.163 85.149L137.866 68.7991C137.807 68.6826 137.772 68.5559 137.762 68.426C137.753 68.2961 137.769 68.1656 137.811 68.042C137.853 67.9185 137.919 67.8042 138.005 67.7058C138.091 67.6073 138.197 67.5267 138.315 67.4684L152.648 60.3821C152.766 60.3238 152.895 60.289 153.026 60.2796C153.158 60.2703 153.29 60.2867 153.415 60.3278C153.54 60.3689 153.656 60.4339 153.756 60.5192C153.856 60.6044 153.937 60.7082 153.996 60.8247L162.294 77.1746C162.413 77.4097 162.433 77.682 162.349 77.9315C162.264 78.181 162.083 78.3874 161.845 78.5051L147.512 85.5914C147.372 85.6606 147.218 85.6966 147.062 85.6965ZM140.113 68.7974L147.51 83.3738L160.047 77.1764L152.65 62.6L140.113 68.7974Z" fill="black"/>
<path d="M161.395 78.6101C161.263 78.6102 161.132 78.5844 161.01 78.5342L149.695 73.9025C149.472 73.8112 149.29 73.6437 149.182 73.4306C149.073 73.2175 149.047 72.9731 149.106 72.7422L152.124 61.0248C152.156 60.8979 152.213 60.7785 152.292 60.6735C152.371 60.5684 152.47 60.4797 152.583 60.4126C152.697 60.3454 152.823 60.3011 152.954 60.2822C153.085 60.2633 153.219 60.2701 153.347 60.3023C153.475 60.3345 153.596 60.3914 153.702 60.4698C153.808 60.5482 153.897 60.6465 153.964 60.759C154.032 60.8716 154.076 60.9962 154.094 61.1256C154.113 61.2551 154.105 61.3868 154.072 61.5133L151.268 72.3992L161.78 76.7022C161.995 76.79 162.172 76.9486 162.282 77.151C162.392 77.3535 162.427 77.5871 162.381 77.8122C162.336 78.0373 162.213 78.2399 162.033 78.3854C161.853 78.5309 161.627 78.6103 161.395 78.6101H161.395Z" fill="black"/>
<path d="M104.74 71.6231L84.165 81.0405L89.8599 93.6238L110.435 84.2064L104.74 71.6231Z" fill="white"/>
<path d="M89.8608 94.6353C89.6678 94.6354 89.4788 94.5796 89.3164 94.4745C89.1541 94.3695 89.0253 94.2196 88.9453 94.0429L83.2504 81.4596C83.14 81.2155 83.1305 80.9374 83.224 80.6863C83.3175 80.4352 83.5064 80.2318 83.749 80.1207L104.324 70.7032C104.444 70.6482 104.573 70.6175 104.705 70.6129C104.837 70.6083 104.969 70.6299 105.093 70.6765C105.216 70.723 105.329 70.7936 105.426 70.8842C105.522 70.9748 105.6 71.0836 105.655 71.2044L111.35 83.7885C111.404 83.9093 111.435 84.0398 111.44 84.1725C111.444 84.3052 111.423 84.4375 111.376 84.5618C111.33 84.6861 111.26 84.8001 111.17 84.8971C111.08 84.9942 110.971 85.0725 110.851 85.1275L90.2771 94.5449C90.1464 94.6047 90.0044 94.6356 89.8608 94.6353ZM85.4967 81.5421L90.3587 92.2852L109.104 83.7052L104.241 72.9623L85.4967 81.5421Z" fill="black"/>
<path d="M95.7478 83.4242C95.5779 83.4242 95.4082 83.4139 95.2395 83.3935L84.0458 82.0446C83.7811 82.0127 83.5398 81.8763 83.3751 81.6655C83.2103 81.4547 83.1356 81.1867 83.1673 80.9205C83.199 80.6542 83.3346 80.4116 83.5442 80.2459C83.7539 80.0802 84.0203 80.0051 84.2851 80.037L95.4787 81.3859C95.8809 81.4353 96.2888 81.3721 96.6576 81.2034C97.0263 81.0346 97.3417 80.7668 97.5688 80.4294L103.909 71.0546C104.059 70.8329 104.29 70.6802 104.552 70.6301C104.814 70.58 105.085 70.6366 105.306 70.7874C105.526 70.9382 105.678 71.1709 105.728 71.4343C105.778 71.6977 105.721 71.9703 105.571 72.192L99.2308 81.5665C98.8455 82.139 98.3265 82.6076 97.7193 82.9315C97.1121 83.2554 96.4351 83.4245 95.7478 83.4242Z" fill="black"/>
<defs>
<filter id="filter0_d_1275:3651" x="95.958" y="110.83" width="248.802" height="282.309" filterUnits="userSpaceOnUse" color-interpolation-filters="sRGB">
<feFlood flood-opacity="0" result="BackgroundImageFix"/>
<feColorMatrix in="SourceAlpha" type="matrix" values="0 0 0 0 0 0 0 0 0 0 0 0 0 0 0 0 0 0 127 0" result="hardAlpha"/>
<feOffset dy="4"/>
<feGaussianBlur stdDeviation="2"/>
<feComposite in2="hardAlpha" operator="out"/>
<feColorMatrix type="matrix" values="0 0 0 0 0 0 0 0 0 0 0 0 0 0 0 0 0 0 0.25 0"/>
<feBlend mode="normal" in2="BackgroundImageFix" result="effect1_dropShadow_1275:3651"/>
<feBlend mode="normal" in="SourceGraphic" in2="effect1_dropShadow_1275:3651" result="shape"/>
</filter>
</defs>
</svg>
