<svg id="Layer_1" data-name="Layer 1" xmlns="http://www.w3.org/2000/svg" viewBox="0 0 512 512"><defs><style>.cls-1{fill:#141f38;}</style></defs><title>woman-2-outline</title><path class="cls-1" d="M409.57,357.22a74.34,74.34,0,0,0,8.69-39.13L409.6,153.6a153.6,153.6,0,0,0-307.2,0L93.74,318.09a74.34,74.34,0,0,0,8.69,39.13A172.23,172.23,0,0,0,51.2,480a32,32,0,0,0,32,32H428.8a32,32,0,0,0,32-32A172.23,172.23,0,0,0,409.57,357.22ZM256,268.8q-1.86,0-3.75-.09c-40.28-1.9-73.05-37.61-73.05-79.6V160a6.41,6.41,0,0,1,6.4-6.4H326.4a6.41,6.41,0,0,1,6.4,6.4v32A76.89,76.89,0,0,1,256,268.8Zm-5,25.48q2.49.12,5,.12a102.1,102.1,0,0,0,38.4-7.45v31.36l-38.4,23-38.4-23V286.76A98.6,98.6,0,0,0,251,294.28Zm-46.25,46.2L256,371.2l51.2-30.72v24.59A18.93,18.93,0,0,1,288.27,384H223.73a18.93,18.93,0,0,1-18.93-18.93Zm-85.49-21L128,154.95l0-.67v-.67a128,128,0,1,1,256,0v.67l0,.67,8.66,164.49a48.93,48.93,0,0,1-3.33,20.62q-4.58-3.33-9.39-6.35l-.51-.32q-1.89-1.18-3.82-2.32l-.34-.2q-4.27-2.5-8.68-4.76l-.32-.16q-2.09-1.07-4.22-2.08l-.25-.12A171.54,171.54,0,0,0,320,310.18V271.93A102.2,102.2,0,0,0,358.4,192V160a32,32,0,0,0-32-32H185.6a32,32,0,0,0-32,32v29.11A106.94,106.94,0,0,0,192,271.24v38.94a171.54,171.54,0,0,0-41.82,13.56l-.25.12q-2.13,1-4.22,2.08l-.32.16q-4.42,2.26-8.68,4.76l-.34.2q-1.93,1.14-3.82,2.32l-.51.32q-4.8,3-9.39,6.35A48.94,48.94,0,0,1,119.31,319.44ZM83.2,486.4a6.41,6.41,0,0,1-6.4-6.4A146.9,146.9,0,0,1,128,368.51V486.4Zm70.4,0V350.77a146.64,146.64,0,0,1,14.59-7l.7-.29,1.74-.68,1.79-.69.72-.26q3-1.1,6-2.08v25.28a44.58,44.58,0,0,0,44.53,44.53h64.53a44.58,44.58,0,0,0,44.53-44.53V339.79q3,1,6,2.08l.72.26,1.79.69,1.74.68.7.29a146.64,146.64,0,0,1,14.59,7V486.4Zm275.2,0H384V368.51A146.9,146.9,0,0,1,435.2,480,6.41,6.41,0,0,1,428.8,486.4Z"/></svg>