<svg width="14" height="17" viewBox="0 0 14 17" fill="none" xmlns="http://www.w3.org/2000/svg">
<path d="M7 10.2001C8.93023 10.2001 10.5 8.67517 10.5 6.80005C10.5 4.92494 8.93023 3.40003 7 3.40003C5.06977 3.40003 3.50004 4.92494 3.50004 6.80005C3.50004 8.67517 5.06977 10.2001 7 10.2001ZM7 5.10004C7.96511 5.10004 8.74998 5.8625 8.74998 6.80005C8.74998 7.73761 7.96511 8.50007 7 8.50007C6.03489 8.50007 5.25002 7.73761 5.25002 6.80005C5.25002 5.8625 6.03489 5.10004 7 5.10004Z" fill="#737373"/>
<path d="M6.49251 16.842C6.6406 16.9448 6.81802 17 7 17C7.18198 17 7.3594 16.9448 7.50749 16.842C7.77349 16.6593 14.0253 12.2741 13.9999 6.80005C13.9999 3.05067 10.8596 0 7 0C3.14042 0 7.70322e-05 3.05067 7.70322e-05 6.7958C-0.0252977 12.2741 6.22651 16.6593 6.49251 16.842ZM7 1.70001C9.89534 1.70001 12.2499 3.98738 12.2499 6.8043C12.2683 10.5766 8.41048 13.9639 7 15.0749C5.59039 13.9631 1.73168 10.5749 1.75006 6.80005C1.75006 3.98738 4.10466 1.70001 7 1.70001Z" fill="#737373"/>
</svg>
