<svg width="128" height="346" viewBox="0 0 128 346" fill="none" xmlns="http://www.w3.org/2000/svg">
<path fill-rule="evenodd" clip-rule="evenodd" d="M55.1961 334.298C52.9716 337.793 48.3357 338.822 44.8416 336.597C41.9162 334.735 40.7186 331.182 41.7117 328.024L41.724 327.886L41.7488 327.557L41.7669 327.265C41.8205 326.324 41.8523 325.043 41.861 323.463L41.8631 322.926L41.8631 322.175C41.8558 318.394 41.7381 313.351 41.526 307.408L41.4816 306.187L41.417 304.488C41.0126 294.092 40.3672 281.87 39.7888 273.211L39.6715 271.491L39.5736 270.113C39.2739 265.982 42.38 262.39 46.5113 262.09C50.6426 261.791 54.2346 264.897 54.5343 269.028C55.1418 277.403 55.8673 290.63 56.3343 302.11L56.4058 303.907L56.4718 305.646C56.6775 311.196 56.8073 316.048 56.8489 319.968L56.8586 321.094L56.8631 322.146C56.8671 324.214 56.8406 325.954 56.7799 327.367L56.7583 327.826L56.7426 328.118C56.6907 329.028 56.6205 329.804 56.5204 330.487C56.3069 331.941 56.0334 332.983 55.1961 334.298ZM41.8143 327.72C41.9984 327.213 42.2405 326.717 42.5427 326.242C42.0544 327.009 41.862 327.459 41.7608 327.873L41.8143 327.72Z" fill="#EBBAAA"/>
<path d="M75.4759 258.863C76.5098 273.115 77.353 308.634 77.353 329.611C77.353 333.753 80.7108 337.111 84.853 337.111C88.9951 337.111 92.353 333.753 92.353 329.611L92.3519 328.315L92.3468 326.351C92.2684 304.813 91.4497 271.743 90.4365 257.778C90.1368 253.647 86.5448 250.541 82.4135 250.84C78.2822 251.14 75.1761 254.732 75.4759 258.863Z" fill="#EBBAAA"/>
<path d="M64.8984 238.113C81.7225 238.113 95.3612 231.089 95.3612 222.424C95.3612 213.76 81.7225 206.735 64.8984 206.735C48.0743 206.735 34.4357 213.76 34.4357 222.424C34.4357 231.089 48.0743 238.113 64.8984 238.113Z" fill="#020202"/>
<path d="M14.5626 344.683C14.5125 338.945 15.2942 335.455 20.2814 333.11C25.2689 330.765 29.9667 326.258 38.5952 322.393C38.5952 322.393 39.7309 322.18 41.5797 323.18C43.1574 324.033 45.1837 326.125 48.2372 326.1C51.5529 326.07 54.5074 325.368 56.3432 324.405C57.1364 322.233 58.8957 322.218 58.8957 322.218C58.8957 322.218 61.3732 326.933 61.4144 331.67C61.4557 336.405 61.4517 344.273 61.4517 344.273L14.5626 344.683Z" fill="#161616"/>
<path d="M33.2833 324.364C32.7613 324.134 32.2061 324.613 32.3578 325.163L33.1071 327.879L30.1051 326.911C29.6681 326.771 29.2207 327.096 29.2207 327.555V330.344L26.9716 329.125C26.5207 328.881 25.9725 329.208 25.9725 329.72V333.105C25.9725 333.479 26.2754 333.782 26.6492 333.782C27.0229 333.782 27.3259 333.479 27.3259 333.105V330.857L29.5751 332.075C30.0259 332.32 30.5741 331.993 30.5741 331.48V328.485L33.8853 329.552C34.3977 329.717 34.8884 329.247 34.7453 328.728L34.0417 326.178L37.3385 327.632C37.7859 327.829 38.2884 327.502 38.2884 327.013L38.2878 326.756C38.2827 325.805 38.2462 325.219 38.1169 324.516C38.0214 323.997 37.882 323.52 37.6888 323.086C37.537 322.744 37.137 322.59 36.7955 322.742C36.454 322.894 36.3003 323.294 36.4521 323.635C36.5987 323.965 36.7086 324.341 36.7858 324.76C36.8505 325.112 36.8886 325.437 36.9101 325.821L36.9174 325.967L33.2833 324.364Z" fill="white"/>
<path d="M16.4494 333.551C17.9797 332.996 19.6002 332.576 22.7069 331.871L21.3867 335.673L21.4244 340.003L12.5813 340.081C12.2204 340.083 11.5756 339.603 11.8834 337.651C12.2682 335.211 14.2752 334.338 16.4494 333.551Z" fill="#161616"/>
<path d="M61.5997 343.533L61.3429 338.978L21.6917 339.596L11.805 338.871L11.5029 342.363C11.3987 343.571 12.3033 344.626 13.511 344.711L21.7412 345.281L60.5354 344.678C61.1507 344.668 61.6344 344.148 61.5997 343.533Z" fill="#808080"/>
<path d="M118.976 345.123C119.026 339.385 118.245 335.895 113.257 333.55C108.27 331.205 103.572 326.698 94.9437 322.833C94.9437 322.833 93.8079 322.62 91.9592 323.618C90.3817 324.473 88.3552 326.565 85.3017 326.538C81.9862 326.51 79.0314 325.808 77.1957 324.843C76.4027 322.67 74.6432 322.655 74.6432 322.655C74.6432 322.655 72.1659 327.37 72.1244 332.108C72.0832 336.845 72.0874 344.713 72.0874 344.713L118.976 345.123Z" fill="#161616"/>
<path d="M98.7935 329.168C98.6504 329.687 99.1411 330.157 99.6535 329.992L102.965 328.925V331.92C102.965 332.433 103.513 332.76 103.964 332.515L106.213 331.297V333.543C106.213 333.917 106.516 334.22 106.89 334.22C107.264 334.22 107.567 333.917 107.567 333.543V330.16C107.567 329.648 107.018 329.321 106.568 329.565L104.318 330.784V327.995C104.318 327.536 103.871 327.211 103.434 327.351L100.432 328.319L101.181 325.603C101.333 325.053 100.778 324.574 100.255 324.804L96.6214 326.407C96.6412 325.955 96.6807 325.591 96.7544 325.192C96.8316 324.775 96.9411 324.401 97.087 324.072C97.2385 323.731 97.0844 323.331 96.7428 323.179C96.4012 323.028 96.0014 323.182 95.8498 323.524C95.6579 323.956 95.5189 324.431 95.4236 324.946C95.2817 325.713 95.2504 326.342 95.2504 327.453C95.2504 327.942 95.753 328.269 96.2003 328.072L99.4971 326.618L98.7935 329.168Z" fill="white"/>
<path d="M117.089 333.991C115.559 333.436 113.939 333.016 110.832 332.311L112.152 336.113L112.114 340.443L120.958 340.521C121.318 340.523 121.963 340.041 121.655 338.091C121.271 335.651 119.264 334.778 117.089 333.991Z" fill="#161616"/>
<path d="M71.9392 343.973L72.1959 339.418L111.847 340.033L121.734 339.308L122.036 342.803C122.14 344.008 121.236 345.066 120.028 345.148L111.798 345.718L73.0034 345.116C72.3882 345.108 71.9047 344.588 71.9392 343.973Z" fill="#808080"/>
<path d="M27.7369 214.135L60.4064 217.507V320.708H37.4882L27.7369 214.135Z" fill="#020202"/>
<path d="M65.317 217.747H100.596L97.4832 321.393H73.9967L65.317 217.747Z" fill="#020202"/>
<path d="M33.0563 221.152C33.0563 223.727 35.0118 225.881 37.5745 226.129L60.7498 228.371C62.9493 228.584 65.1638 228.594 67.3653 228.4L93.401 226.105C96.0383 225.873 98.0373 223.625 97.9598 220.978L95.198 126.545C95.119 123.842 92.9048 121.691 90.2003 121.691H38.0563C35.2948 121.691 33.0563 123.93 33.0563 126.691V221.152Z" fill="#020202"/>
<path d="M63.3378 142.429C73.0062 142.429 80.844 134.495 80.844 124.709C80.844 114.923 73.0062 106.989 63.3378 106.989C53.6693 106.989 45.8315 114.923 45.8315 124.709C45.8315 134.495 53.6693 142.429 63.3378 142.429Z" fill="#2D2F32"/>
<rect x="53.7308" y="102.993" width="19.2142" height="28.8213" rx="9.60707" fill="#EBBAAA"/>
<path d="M36.0588 154.343L36.8276 153.805C39.1843 152.151 40.6648 151.027 42.3043 149.545C44.5545 147.512 46.501 145.269 48.2003 142.643C51.4632 137.6 50.0204 130.867 44.9779 127.604C39.9858 124.374 33.337 125.756 30.0386 130.677L29.8313 130.992L29.7222 131.154C28.6258 132.753 27.3619 133.869 24.4792 135.899L23.4002 136.655L22.5918 137.226C20.436 138.759 19.1389 139.778 17.5865 141.219C15.0307 143.591 12.8938 146.262 11.1206 149.453L9.8866 153.029C5.91799 178.019 4.44414 202.222 6.77153 221.77C7.4816 227.734 12.892 231.993 18.856 231.283C24.8199 230.573 29.0791 225.163 28.369 219.199C26.4067 202.718 27.5794 181.457 30.9249 159.297L31.0269 158.626C31.9967 157.345 33.3232 156.263 36.0588 154.343Z" fill="#EBBAAA"/>
<path d="M96.1448 158.185L96.4847 160.361L96.7734 162.235C98.3162 172.315 99.2819 179.817 99.9743 187.66L100.047 188.499L100.117 189.342C101.045 200.692 101.078 210.547 100.078 218.949C99.368 224.913 103.627 230.323 109.591 231.033C115.555 231.743 120.966 227.484 121.676 221.52C122.912 211.136 122.828 199.455 121.681 186.215L121.587 185.15C120.71 175.419 119.45 166.251 117.31 152.779L116.076 149.203L115.838 148.777L115.678 148.495C113.22 144.181 110.499 140.419 105.499 134.06L103.459 131.469C99.623 126.587 98.3166 124.825 96.7003 122.327C93.4375 117.284 86.7047 115.842 81.6622 119.104C76.6196 122.367 75.1769 129.1 78.4397 134.143L78.7853 134.674C80.719 137.63 82.2899 139.732 86.3737 144.928L88.6114 147.771L89.3145 148.669C92.5983 152.877 94.5872 155.619 96.1448 158.185Z" fill="#EBBAAA"/>
<path d="M53.3608 148.627L31.6575 193.668C31.6575 193.668 12.5693 183.209 5.24768 176.41C5.24768 176.41 8.26061 159.152 12.5693 143.398C15.0678 134.262 21.0873 127.127 25.704 122.744C29.403 119.232 34.2398 117.351 39.252 116.406L48.654 114.634L53.3608 148.627Z" fill="#525252"/>
<path d="M5.27519 176.145C5.79394 171.941 9.98911 169.23 14.0351 170.484L24.5593 173.745C27.991 174.809 30.2615 178.068 30.0705 181.656L30.0165 182.668C29.9955 183.061 29.945 183.451 29.8655 183.837L24.248 211.037C23.7618 213.392 21.7328 215.111 19.3305 215.205L0.364136 215.946L5.27519 176.145Z" fill="#525252"/>
<path d="M26.5608 135.493C27.3698 123.989 37.0061 115.069 48.5391 115.069C50.8413 115.069 52.9538 116.383 53.9603 118.454L61.4671 133.896C61.4671 133.896 55.9758 164.228 55.9758 179.133C55.9758 191.673 53.3843 221.984 52.5621 231.284C52.4296 232.784 51.0586 233.853 49.5698 233.625L23.7688 229.69C22.4536 229.489 21.4988 228.333 21.5501 227.004L23.2903 182.009L26.5608 135.493Z" fill="#2D2F32"/>
<path d="M58.2112 134.041C53.4293 173.434 49.831 217.784 49.8314 231.518L53.2307 231.518C53.2303 217.95 56.819 173.719 61.5858 134.45L58.2112 134.041Z" fill="#525252"/>
<path d="M51.9158 235.026L22.3681 231.903C21.7031 231.832 21.1981 231.271 21.1981 230.603V226.026L53.3608 229.381V233.726C53.3608 234.502 52.6881 235.107 51.9158 235.026Z" fill="#525252"/>
<path d="M61.4668 135.56L52.5763 112.735L41.5938 116.004V130.355L61.4668 135.56Z" fill="#525252"/>
<path d="M74.6878 149.062L96.3908 194.103C96.3908 194.103 115.479 183.643 122.801 176.845C122.801 176.845 119.788 159.587 115.479 143.832C112.64 133.451 105.255 125.653 100.547 121.542C97.9163 119.244 94.6223 117.939 91.1893 117.292L79.3946 115.069L74.6878 149.062Z" fill="#525252"/>
<path d="M122.724 176.621C122.206 172.417 118.011 169.706 113.965 170.96L103.44 174.221C100.009 175.285 97.738 178.544 97.9292 182.132L97.9832 183.144C98.004 183.537 98.0545 183.927 98.1342 184.313L103.752 211.513C104.238 213.868 106.267 215.587 108.669 215.681L127.635 216.422L122.724 176.621Z" fill="#525252"/>
<path d="M99.3685 134.054C98.2683 123.623 89.4708 115.704 78.9813 115.704C76.8325 115.704 74.8723 116.931 73.9328 118.863L66.3165 134.531C66.3165 134.531 71.8078 164.863 71.8078 179.768C71.8078 192.308 74.3993 222.619 75.2215 231.92C75.354 233.42 76.725 234.488 78.2138 234.261L104.015 230.325C105.33 230.124 106.285 228.968 106.233 227.639L104.493 182.644L99.3685 134.054Z" fill="#2D2F32"/>
<path d="M66.2013 134.95C70.9681 174.219 74.5567 218.45 74.5564 232.018L77.9557 232.018C77.956 218.284 74.3577 173.934 69.5758 134.541L66.2013 134.95Z" fill="#525252"/>
<path d="M76.1321 235.941L105.68 232.818C106.345 232.748 106.85 232.187 106.85 231.518V226.942L74.6873 230.296V234.641C74.6873 235.417 75.3601 236.023 76.1321 235.941Z" fill="#525252"/>
<path d="M66.5818 135.792L73.3203 112.735L86.1925 114.485L86.1928 131.492L66.5818 135.792Z" fill="#525252"/>
<path d="M44.8308 144.967L59.2318 137.009L52.7891 186.653L44.8308 144.967Z" fill="#525252"/>
<path d="M82.9563 144.967L68.5555 137.009L74.998 186.653L82.9563 144.967Z" fill="#525252"/>
<path d="M37.6656 194.5L31.7501 215.534L35.0224 216.454L40.9379 195.42L37.6656 194.5Z" fill="#525252"/>
<path d="M98.2685 89.0756C106.452 89.0756 113.085 82.4419 113.085 74.2589C113.085 66.0759 106.452 59.4424 98.2685 59.4424C90.0855 59.4424 83.452 66.0759 83.452 74.2589C83.452 82.4419 90.0855 89.0756 98.2685 89.0756Z" fill="#EBBAAA"/>
<path d="M31.0185 89.8256C22.8355 89.8256 16.202 83.1919 16.202 75.0089C16.202 66.8259 22.8355 60.1924 31.0185 60.1924C39.2015 60.1924 45.8353 66.8259 45.8353 75.0089C45.8353 83.1919 39.2015 89.8256 31.0185 89.8256Z" fill="#EBBAAA"/>
<path d="M24.6485 47.9765C24.6485 26.2805 42.2365 8.69238 63.9325 8.69238C86.3685 8.69238 104.248 27.4507 103.172 49.8607L101.511 84.4425C100.738 100.553 89.1782 114.106 73.392 117.413C67.812 118.582 62.0325 118.387 56.5442 116.844L55.5272 116.558C40.0955 112.22 28.7815 99.035 26.8382 83.1232L24.6485 65.1925V47.9765Z" fill="#F4D4C9"/>
<path d="M57.0172 98.3752C61.9144 101.096 67.6944 101.025 73.9308 98.4741C74.9148 98.0716 75.3861 96.9476 74.9836 95.9637C74.5811 94.9797 73.4571 94.5084 72.4732 94.9109C67.241 97.0513 62.662 97.1072 58.8868 95.0098C57.9575 94.4935 56.7856 94.8284 56.2693 95.7577C55.753 96.687 56.0879 97.8589 57.0172 98.3752Z" fill="#C99584"/>
<path d="M66.3048 24.9425C47.2543 24.9425 31.0593 29.9165 30.0495 43.8002C28.545 64.4835 27.698 66.1472 24.9708 56.5555C24.5553 55.0935 24.2803 41.8332 24.2208 40.3175C24.2208 3.73096 54.4265 3.73096 66.3048 3.73096C76.0398 11.6526 85.3575 24.9425 66.3048 24.9425Z" fill="#272727"/>
<path d="M24.2231 43.7575C24.1573 41.741 25.4443 40.064 27.0551 40.064C28.7266 40.064 30.0346 41.863 29.8766 43.9455L27.2078 79.2242C27.1631 79.814 26.7683 80.2622 26.2971 80.2622C25.8048 80.2622 25.4023 79.7777 25.3811 79.165L24.2231 43.7575Z" fill="#272727"/>
<path d="M104.418 43.5917C104.484 41.6657 103.197 40.064 101.586 40.064C99.915 40.064 98.607 41.7822 98.7647 43.7712L101.434 77.467C101.478 78.0302 101.873 78.4582 102.344 78.4582C102.837 78.4582 103.239 77.9957 103.26 77.4105L104.418 43.5917Z" fill="#272727"/>
<path d="M66.452 23.9422C86.0825 23.9422 95.6425 31.8007 96.452 45.9422C98.4592 57.0327 101.064 73.4252 105.702 40.4422C105.702 -11.2383 70.9927 23.9422 58.7527 23.9422C48.7212 31.8637 46.819 23.9422 66.452 23.9422Z" fill="#272727"/>
<path d="M85.626 9.88236L90.9673 15.5377L64.2113 13.8882L38.702 20.8396L37.156 17.5407L38.7005 16.4803L37.4858 13.8882H40.0843L38.2068 9.88236H41.5475L40.8543 6.81904H43.8238L44.1513 3.75571L47.6553 4.69826L47.6998 2.81315H50.8548L49.861 0.692383L55.1235 2.81315L55.2433 0.692383L58.093 2.81315L58.955 0.692383L63.4753 2.81315L64.7085 0.692383L68.115 2.81315H69.7855L72.5248 4.69826L72.3838 2.81315L77.416 6.81904L79.016 5.87646L83.8605 10.4715L85.626 9.88236Z" fill="#272727"/>
<path d="M87.2352 57.0241C88.6087 57.1652 89.8365 56.1662 89.9777 54.7927C90.1188 53.4192 89.1198 52.1914 87.7463 52.0503L83.07 51.5698L72.7624 53.5802C71.4073 53.8445 70.5229 55.1573 70.7872 56.5125C71.0516 57.8677 72.3644 58.752 73.7196 58.4877L83.298 56.6196L87.2352 57.0241Z" fill="#393939"/>
<path d="M54.9162 58.4877C56.2714 58.752 57.5842 57.8677 57.8485 56.5125C58.1129 55.1573 57.2285 53.8445 55.8734 53.5802L45.5658 51.5698L40.8895 52.0503C39.516 52.1914 38.517 53.4192 38.6581 54.7927C38.7992 56.1662 40.0271 57.1652 41.4006 57.0241L45.3378 56.6196L54.9162 58.4877Z" fill="#393939"/>
<path d="M61.3816 70.1445C59.5906 73.3045 58.4267 77.6587 58.913 80.9734C59.6458 85.9686 63.7426 88.2862 70.432 86.8671L69.5501 82.7096C67.0784 83.2339 65.3931 83.1139 64.4052 82.5551C63.696 82.1539 63.2792 81.4553 63.118 80.3565C62.7885 78.1108 63.714 74.6485 65.079 72.2402L61.3816 70.1445Z" fill="#EBBAAA"/>
<path d="M41.8265 26.6597L43.2533 19.1599L45.008 9.66357L89.2973 17.1657L66.7235 31.5332L66.8813 27.1697L62.541 29.1195L61.8455 24.3804L56.659 28.421L54.3503 25.6817L47.9643 27.3885L47.957 24.9225L41.8265 26.6597Z" fill="#272727"/>
<path d="M42.7777 69.3189L42.8742 69.2728C42.9238 69.2496 42.9822 69.2228 43.049 69.1931C43.3709 69.0497 43.7388 68.9047 44.143 68.769C45.288 68.3846 46.4755 68.1553 47.6235 68.1553C48.7716 68.1553 49.9591 68.3846 51.1041 68.769C51.5083 68.9047 51.8762 69.0497 52.1981 69.1931L52.2919 69.2354L52.4406 69.3049C52.471 69.3196 52.4965 69.3321 52.5166 69.3423L52.5498 69.3594C53.4029 69.8137 54.4627 69.4904 54.917 68.6373C55.3712 67.7842 55.0479 66.7244 54.1948 66.2701L54.0818 66.2118L53.9881 66.1656C53.8872 66.1166 53.7649 66.0595 53.6224 65.996C53.2027 65.809 52.7321 65.6236 52.2181 65.451C50.7394 64.9546 49.1895 64.6553 47.6235 64.6553C46.0576 64.6553 44.5077 64.9546 43.029 65.451C42.515 65.6236 42.0444 65.809 41.6247 65.996L41.489 66.0573L41.3112 66.1405C41.2032 66.1921 41.1165 66.2359 41.0523 66.2701C40.1992 66.7244 39.8759 67.7842 40.3301 68.6373C40.7647 69.4533 41.7532 69.7846 42.5849 69.4143L42.6414 69.388L42.7777 69.3189Z" fill="#393939"/>
<path d="M74.105 69.3189L74.2014 69.2728C74.251 69.2496 74.3094 69.2228 74.3762 69.1931C74.6981 69.0497 75.066 68.9047 75.4703 68.769C76.6152 68.3846 77.8027 68.1553 78.9508 68.1553C80.0988 68.1553 81.2863 68.3846 82.4313 68.769C82.8355 68.9047 83.2034 69.0497 83.5253 69.1931L83.6191 69.2354L83.7678 69.3049C83.7983 69.3196 83.8237 69.3321 83.8438 69.3423L83.877 69.3594C84.7301 69.8137 85.7899 69.4904 86.2442 68.6373C86.6984 67.7842 86.3751 66.7244 85.522 66.2701L85.409 66.2118L85.3153 66.1656C85.2145 66.1166 85.0921 66.0595 84.9496 65.996C84.5299 65.809 84.0593 65.6236 83.5453 65.451C82.0666 64.9546 80.5167 64.6553 78.9508 64.6553C77.3848 64.6553 75.8349 64.9546 74.3562 65.451C73.8422 65.6236 73.3716 65.809 72.9519 65.996L72.8162 66.0573L72.6384 66.1405C72.5304 66.1921 72.4437 66.2359 72.3795 66.2701C71.5264 66.7244 71.2031 67.7842 71.6573 68.6373C72.0919 69.4533 73.0804 69.7846 73.9121 69.4143L73.9686 69.388L74.105 69.3189Z" fill="#393939"/>
<path d="M89.7098 12.634C89.7098 6.73336 81.046 2.21432 76.714 0.692383C77.728 1.11666 79.78 3.18581 79.8753 8.06819C79.9705 12.9506 75.466 15.0197 73.202 15.4439C78.7045 16.9659 89.7095 18.5347 89.7098 12.634Z" fill="#272727"/>
<path d="M92.6937 17.2933C96.8662 13.1209 91.895 7.03343 88.8877 4.51123C89.5435 5.14971 90.0145 7.29773 86.652 10.7819C83.2895 14.2661 77.5802 14.2256 75.146 13.7698C79.2567 16.6827 88.5212 21.4656 92.6937 17.2933Z" fill="#272727"/>
</svg>
