<svg width="1011" height="972" viewBox="0 0 1011 972" fill="none" xmlns="http://www.w3.org/2000/svg">
<path d="M305.308 256.49C305.308 256.49 413.716 335.583 578.523 187.693C724.887 56.3562 844.397 263.577 845.233 362.811C846.317 491.358 698.868 594.216 770.424 678.647C841.981 763.079 628.518 902.504 513.472 781.841C370.359 631.741 331.588 753.697 250.015 753.697C191.468 753.697 71.2671 613.837 152.438 509.784C220.742 422.226 183.49 393.167 165.45 362.811C139.428 319.032 201.227 200.202 305.308 256.49Z" fill="#DEE9FF"/>
<path d="M740.529 431.273C746.355 433.355 752.724 433.493 758.782 432.156C784.166 426.555 871.447 411.723 856.28 476.749C852.978 489.65 801.859 561.901 874.658 588.276C879.992 590.233 885.634 591.301 891.342 591.435C913.756 591.879 958.172 586.791 976.762 568.598C999.217 546.62 974.685 557.043 974.685 557.043C974.685 557.043 889.312 592.861 859.157 554.86C855.801 550.632 853.664 544.491 853.052 539.204C851.991 530.038 856.224 517.926 861.785 507.381C869.312 493.11 905.446 428.914 826.993 410.213C808.921 406.075 782.671 402.358 748.825 416.059C729.083 424.049 733.456 428.747 740.529 431.273Z" fill="#BDD6F9"/>
<path d="M757.999 407.308L735.276 415.484C727.432 418.306 723.453 426.708 726.389 434.249L727.515 437.143C730.451 444.684 739.19 448.51 747.034 445.687L769.757 437.511C777.601 434.688 781.58 426.287 778.644 418.745L777.518 415.852C774.582 408.311 765.843 404.485 757.999 407.308Z" fill="#0E84E5"/>
<path d="M618.518 430.967L543.578 457.932C539.656 459.343 537.666 463.544 539.134 467.315L539.43 468.073C540.897 471.844 545.267 473.756 549.189 472.345L624.129 445.38C628.051 443.969 630.04 439.768 628.572 435.997L628.277 435.239C626.809 431.468 622.44 429.555 618.518 430.967Z" fill="white"/>
<path d="M639.433 484.693L564.493 511.659C560.571 513.07 558.582 517.271 560.049 521.042L560.345 521.8C561.812 525.571 566.182 527.483 570.104 526.072L645.044 499.107C648.966 497.696 650.956 493.495 649.488 489.724L649.193 488.966C647.725 485.195 643.355 483.282 639.433 484.693Z" fill="white"/>
<path d="M708.622 394.301L647.885 416.156C640.041 418.978 636.062 427.38 638.997 434.921L659.734 488.191C662.67 495.732 671.409 499.558 679.253 496.735L739.99 474.88C747.834 472.058 751.813 463.656 748.877 456.115L728.14 402.845C725.205 395.304 716.466 391.479 708.622 394.301Z" fill="#5895F9"/>
<path d="M654.159 408.276L593.422 430.131C585.578 432.953 581.599 441.355 584.534 448.896L609.274 512.449C612.21 519.991 620.949 523.816 628.793 520.994L689.53 499.139C697.374 496.316 701.353 487.915 698.417 480.373L673.677 416.821C670.742 409.279 662.003 405.454 654.159 408.276Z" fill="#699CFF"/>
<path d="M663.667 395.378L663.191 395.55C657.962 397.431 655.309 403.032 657.266 408.06L691.924 497.09C693.881 502.118 699.707 504.668 704.936 502.787L705.413 502.615C710.642 500.734 713.295 495.133 711.338 490.105L676.68 401.075C674.723 396.047 668.897 393.497 663.667 395.378Z" fill="#208AF2"/>
<path d="M44.3459 452.301C44.3459 452.301 166.327 419.343 148.617 495.274C145.542 507.289 101.271 569.151 154.005 598.853C165.328 605.231 178.395 608.056 191.517 607.99C215.045 607.872 252.343 603.519 269.099 587.122C291.555 565.144 267.022 575.566 267.022 575.566C267.022 575.566 196.966 603.271 160.925 581.187C148.619 573.646 143.041 559.045 146.383 545.387C148.091 538.603 150.692 532.056 154.123 525.905C161.961 511.79 197.784 447.437 119.33 428.736C101.258 424.598 75.0085 420.881 41.1628 434.582C7.31701 448.282 44.3459 452.301 44.3459 452.301Z" fill="#BDD6F9"/>
<path d="M285.501 558.575L262.778 566.751C254.934 569.574 250.955 577.976 253.891 585.517L255.017 588.411C257.953 595.952 266.692 599.778 274.536 596.955L297.259 588.779C305.103 585.956 309.082 577.555 306.146 570.013L305.02 567.12C302.084 559.578 293.345 555.753 285.501 558.575Z" fill="#0E84E5"/>
<path d="M323.892 522.631L290.216 534.749C282.372 537.571 278.393 545.973 281.328 553.514L297.567 595.23C300.503 602.771 309.242 606.596 317.086 603.774L350.762 591.656C358.606 588.834 362.585 580.432 359.65 572.891L343.411 531.175C340.475 523.634 331.736 519.809 323.892 522.631Z" fill="#5895F9"/>
<path d="M379.958 490.514L329.736 508.585C321.892 511.408 317.913 519.81 320.849 527.351L345.588 590.904C348.524 598.445 357.263 602.271 365.107 599.448L415.329 581.377C423.173 578.555 427.152 570.153 424.216 562.611L399.476 499.059C396.541 491.517 387.802 487.692 379.958 490.514Z" fill="#699CFF"/>
<path d="M390.595 477.353L390.119 477.524C384.89 479.406 382.237 485.007 384.194 490.034L418.852 579.065C420.809 584.092 426.635 586.643 431.864 584.761L432.34 584.59C437.57 582.708 440.222 577.107 438.265 572.079L403.608 483.049C401.65 478.021 395.825 475.471 390.595 477.353Z" fill="#208AF2"/>
<path d="M518.838 420.633C517.03 420.44 515.369 419.58 514.207 418.234C513.045 416.888 512.471 415.161 512.606 413.416L516.354 347.612C516.577 343.681 520.03 340.694 523.948 341.042L529.407 341.528C533.325 341.875 536.13 345.416 535.582 349.319L526.374 414.637C526.162 416.377 525.261 417.972 523.857 419.089C522.453 420.205 520.656 420.759 518.838 420.633Z" fill="#418DF9"/>
<path d="M486.482 426.307C485.919 426.466 485.33 426.517 484.747 426.457C484.164 426.397 483.599 426.227 483.084 425.957C482.57 425.686 482.115 425.321 481.748 424.883C481.38 424.444 481.105 423.939 480.94 423.399L467.558 382.465C467.169 381.301 467.276 380.036 467.856 378.947C468.436 377.859 469.441 377.036 470.651 376.659L474.116 375.654C474.71 375.488 475.334 375.441 475.948 375.518C476.562 375.595 477.153 375.793 477.684 376.1C478.214 376.408 478.672 376.817 479.03 377.304C479.387 377.79 479.636 378.342 479.76 378.925L489.678 420.865C489.954 421.992 489.779 423.178 489.186 424.187C488.594 425.195 487.629 425.952 486.482 426.307Z" fill="#418DF9"/>
<path d="M468.425 449.912C466.028 452.769 461.206 452.735 457.494 449.835L391.592 398.357C387.655 395.282 386.494 390.192 389.037 387.165L392.583 382.942C395.126 379.913 400.351 380.161 404.076 383.489L466.433 439.189C469.944 442.326 470.823 447.056 468.425 449.912Z" fill="#418DF9"/>
<path d="M498.889 582.875C500.586 583.505 501.963 584.744 502.729 586.331C503.495 587.918 503.591 589.729 502.997 591.383L481.894 654.083C480.633 657.828 476.502 659.866 472.806 658.57L467.655 656.76C463.959 655.462 462.185 651.349 463.754 647.712L490.008 586.821C490.674 585.19 491.97 583.869 493.624 583.134C495.279 582.398 497.165 582.306 498.889 582.875Z" fill="#418DF9"/>
<path d="M531.678 585.334C532.265 585.318 532.848 585.414 533.396 585.615C533.943 585.817 534.445 586.12 534.87 586.507C535.296 586.895 535.639 587.359 535.878 587.874C536.117 588.388 536.248 588.943 536.264 589.507L538.329 632.369C538.396 633.59 537.956 634.787 537.107 635.697C536.257 636.607 535.066 637.156 533.797 637.223L530.179 637.344C529.56 637.359 528.944 637.251 528.371 637.026C527.798 636.801 527.279 636.464 526.848 636.036C526.417 635.609 526.083 635.1 525.866 634.543C525.65 633.985 525.556 633.39 525.591 632.795L527.145 589.812C527.177 588.654 527.661 587.551 528.501 586.721C529.341 585.891 530.476 585.396 531.678 585.334Z" fill="#418DF9"/>
<path d="M555.407 566.945C558.485 564.772 563.137 565.989 565.956 569.703L615.998 635.654C618.987 639.594 618.759 644.798 615.493 647.103L610.943 650.314C607.68 652.619 602.694 651.096 599.977 646.964L554.481 577.799C551.924 573.906 552.33 569.117 555.407 566.945Z" fill="#418DF9"/>
</svg>
