<svg width="32" height="34" viewBox="0 0 32 34" fill="none" xmlns="http://www.w3.org/2000/svg">
<path d="M28.8835 33.4871H3.11654C1.54126 33.4851 0.265002 32.1473 0.264038 30.497V3.50298C0.265967 1.85341 1.54195 0.516669 3.11654 0.514648H28.8818C30.457 0.516663 31.7339 1.85282 31.7378 3.50298V30.497C31.7359 32.1476 30.4591 33.4851 28.8835 33.4871ZM6.67779 12.7283L5.99879 15.35H8.23529L6.78979 21.521C6.68357 22.0091 6.62493 22.5073 6.61479 23.0078C6.53345 23.8134 6.80863 24.6136 7.36165 25.1797C7.91468 25.7459 8.68469 26.0156 9.45154 25.9118C11.0786 25.8379 12.5402 24.8475 13.2718 23.3231L12.6995 25.7065H15.8688L17.6765 18.1146C18.1315 16.1713 19.0275 15.1813 20.3348 15.1813C20.7993 15.145 21.2555 15.3243 21.5827 15.6716C21.9098 16.0189 22.0749 16.4992 22.034 16.9853C22.0387 17.3464 21.9884 17.7059 21.8853 18.0505L20.9613 21.5448C20.8281 22.0287 20.7609 22.5299 20.7618 23.0335C20.7117 23.8378 21.0057 24.6239 21.5639 25.1786C22.1222 25.7333 22.8869 25.9993 23.651 25.9045C25.4535 25.9045 26.71 24.6211 27.3908 22.0893L26.1535 21.5888C25.6705 23.0353 25.156 23.7393 24.5785 23.7393C24.1568 23.7393 23.9345 23.4331 23.9345 22.852C23.9464 22.5472 23.9904 22.2447 24.0658 21.95L24.9758 18.5436C25.1822 17.8428 25.2883 17.1138 25.2908 16.3803C25.3949 15.4057 25.102 14.4303 24.4841 13.6936C23.8662 12.957 22.9805 12.5273 22.0445 12.5101C20.2102 12.7726 18.6265 13.9877 17.834 15.7405L18.464 12.776H13.585L12.9008 15.3426H15.1653L13.7653 21.1873C13.2764 22.6232 12.0216 23.6189 10.5698 23.7228C10.5159 23.7237 10.462 23.7194 10.4088 23.71C9.98354 23.6055 9.73679 23.435 9.73679 22.8813C9.7467 22.4237 9.81138 21.9691 9.92929 21.5283L12.0573 12.7283H6.67779ZM10.7815 6.93131C10.1001 6.93131 9.47034 7.3122 9.12959 7.93048C8.78885 8.54877 8.78885 9.31053 9.12959 9.92882C9.47034 10.5471 10.1001 10.928 10.7815 10.928V10.8821C11.2917 10.8865 11.7829 10.6796 12.1483 10.3065C12.5065 9.93596 12.7066 9.4295 12.703 8.90215C12.6896 7.80309 11.8307 6.92214 10.7815 6.93131Z" fill="#2E3A59"/>
</svg>
