<svg width="26" height="24" viewBox="0 0 26 24" fill="none" xmlns="http://www.w3.org/2000/svg">
<path d="M12.5077 13.9586C14.2347 13.9586 15.6346 12.6194 15.6346 10.9675C15.6346 9.3155 14.2347 7.97632 12.5077 7.97632C10.7808 7.97632 9.38086 9.3155 9.38086 10.9675C9.38086 12.6194 10.7808 13.9586 12.5077 13.9586Z" stroke="#191D21" stroke-width="1.5" stroke-linecap="round" stroke-linejoin="round"/>
<path d="M18.4036 16.6079L13.9811 20.8384C13.5902 21.2119 13.0603 21.4217 12.5078 21.4217C11.9553 21.4217 11.4254 21.2119 11.0346 20.8384L6.61105 16.6079C5.44495 15.4923 4.65084 14.0711 4.32914 12.5238C4.00743 10.9766 4.17259 9.3728 4.80371 7.91532C5.43483 6.45785 6.50358 5.21213 7.87481 4.33569C9.24604 3.45925 10.8582 2.99146 12.5073 2.99146C14.1565 2.99146 15.7686 3.45925 17.1398 4.33569C18.511 5.21213 19.5798 6.45785 20.2109 7.91532C20.842 9.3728 21.0072 10.9766 20.6855 12.5238C20.3638 14.0711 19.5697 15.4923 18.4036 16.6079V16.6079Z" stroke="#191D21" stroke-width="1.5" stroke-linecap="round" stroke-linejoin="round"/>
</svg>
