<svg width="263" height="260" viewBox="0 0 263 260" fill="none" xmlns="http://www.w3.org/2000/svg">
<rect width="262.527" height="260" fill="#F54960"/>
<path d="M96.1097 70.1765C99.0165 70.1765 101.858 71.0139 104.275 72.5827C106.692 74.1515 108.576 76.3813 109.688 78.9902C110.801 81.599 111.092 84.4697 110.525 87.2392C109.957 90.0088 108.558 92.5527 106.502 94.5495C104.447 96.5462 101.828 97.906 98.977 98.4569C96.126 99.0078 93.1709 98.725 90.4853 97.6444C87.7998 96.5638 85.5044 94.7338 83.8894 92.3859C82.2745 90.038 81.4125 87.2777 81.4125 84.4539C81.4125 80.6673 82.961 77.0358 85.7172 74.3583C88.4735 71.6808 92.2118 70.1766 96.1097 70.1765ZM64.3041 143.578H76.7132L71.7944 133.677L76.7878 123.631L78.4457 120.297V143.578H113.773V118.216C113.898 118.332 114.016 118.454 114.127 118.581L115.431 120.301L123.779 131.306C124.244 131.921 124.838 132.435 125.522 132.812C126.205 133.189 126.963 133.422 127.745 133.496C128.528 133.569 129.318 133.482 130.063 133.238C130.808 132.995 131.492 132.602 132.07 132.084L150.293 115.83C150.836 115.348 151.276 114.767 151.588 114.12C151.899 113.472 152.076 112.772 152.109 112.058C152.141 111.344 152.028 110.631 151.776 109.959C151.524 109.288 151.138 108.671 150.641 108.145C150.143 107.618 149.543 107.193 148.876 106.892C148.208 106.591 147.487 106.421 146.752 106.392C146.016 106.363 145.283 106.475 144.592 106.722C143.902 106.968 143.268 107.345 142.728 107.83L129.089 119.993L123.127 112.138C121.613 110.151 119.642 108.535 117.371 107.419C115.1 106.304 112.592 105.719 110.047 105.713H83.4767C80.4213 105.722 77.4301 106.566 74.8441 108.146C72.2581 109.727 70.1813 111.982 68.8504 114.654L60.559 131.324C60.1911 132.06 60 132.868 60 133.686C60 134.505 60.1911 135.312 60.559 136.048L64.3041 143.578ZM60.0003 198.524C60.0003 201.825 102.307 201.825 102.307 198.524C102.307 189.107 92.8364 181.471 81.1527 181.471C69.469 181.471 60.0003 189.107 60.0003 198.524ZM198.444 65H130.562V71.0444H193.778V134.511H159.158V140.555H198.444C198.857 140.555 199.253 140.396 199.544 140.113C199.836 139.83 200 139.445 200 139.044V66.5111C200 66.1103 199.836 65.726 199.544 65.4426C199.253 65.1592 198.857 65 198.444 65ZM91.0116 168.688C91.0116 166.794 90.4334 164.942 89.3502 163.367C88.267 161.793 86.7273 160.565 84.926 159.84C83.1246 159.116 81.1425 158.926 79.2302 159.295C77.3179 159.665 75.5614 160.577 74.1827 161.916C72.804 163.256 71.8651 164.962 71.4847 166.82C71.1044 168.677 71.2996 170.603 72.0457 172.353C72.7919 174.103 74.0554 175.598 75.6766 176.651C77.2978 177.703 79.2037 178.265 81.1535 178.265C83.768 178.264 86.2755 177.256 88.1243 175.46C89.973 173.664 91.0116 171.228 91.0116 168.688ZM157.693 198.524C157.693 201.825 199.999 201.825 199.999 198.524C199.999 189.107 190.531 181.471 178.847 181.471C167.163 181.471 157.693 189.107 157.693 198.524ZM188.704 168.688C188.704 166.794 188.126 164.942 187.043 163.367C185.96 161.793 184.42 160.565 182.619 159.84C180.817 159.115 178.835 158.926 176.923 159.295C175.01 159.665 173.254 160.577 171.875 161.916C170.496 163.255 169.558 164.962 169.177 166.82C168.797 168.677 168.992 170.603 169.738 172.353C170.484 174.103 171.748 175.598 173.369 176.651C174.99 177.703 176.896 178.265 178.846 178.265C180.14 178.265 181.422 178.017 182.618 177.536C183.815 177.054 184.901 176.349 185.817 175.46C186.732 174.57 187.458 173.515 187.954 172.353C188.449 171.191 188.704 169.946 188.704 168.688ZM151.153 198.524C151.153 189.107 141.684 181.471 130.001 181.471C118.317 181.471 108.847 189.107 108.847 198.524C108.847 201.825 151.153 201.825 151.153 198.524ZM120.142 168.688C120.142 170.582 120.72 172.434 121.803 174.008C122.886 175.583 124.426 176.811 126.227 177.536C128.029 178.26 130.011 178.45 131.923 178.081C133.835 177.711 135.592 176.799 136.971 175.46C138.349 174.12 139.288 172.414 139.669 170.556C140.049 168.699 139.854 166.773 139.108 165.023C138.362 163.273 137.098 161.778 135.477 160.725C133.856 159.673 131.95 159.111 130 159.111C128.705 159.111 127.423 159.359 126.227 159.84C125.031 160.322 123.944 161.027 123.029 161.916C122.114 162.805 121.387 163.861 120.892 165.023C120.397 166.185 120.142 167.43 120.142 168.688Z" fill="#FBFCF7"/>
</svg>
