<svg width="68" height="75" viewBox="0 0 68 75" fill="none" xmlns="http://www.w3.org/2000/svg">
<path d="M17.6614 3.33136C19.0631 3.33136 20.4333 3.78445 21.5988 4.63335C22.7643 5.48225 23.6727 6.68883 24.2091 8.1005C24.7455 9.51217 24.8859 11.0655 24.6124 12.5641C24.339 14.0628 23.664 15.4393 22.6728 16.5198C21.6816 17.6002 20.4188 18.336 19.044 18.6341C17.6693 18.9322 16.2443 18.7792 14.9492 18.1945C13.6542 17.6098 12.5474 16.6195 11.7686 15.3491C10.9898 14.0786 10.5742 12.5849 10.5742 11.057C10.5742 9.008 11.3209 7.04297 12.65 5.59414C13.9791 4.14531 15.7818 3.33137 17.6614 3.33136ZM2.32428 43.0495H8.30811L5.93619 37.6922L8.3441 32.2564L9.14356 30.4522V43.0495H26.179V29.3259C26.2391 29.3885 26.296 29.4546 26.3497 29.5237L26.9786 30.4543L31.0038 36.4091C31.2282 36.7421 31.5146 37.0198 31.8442 37.224C32.1738 37.4282 32.5392 37.5543 32.9165 37.5941C33.2939 37.6338 33.6747 37.5863 34.0341 37.4547C34.3934 37.3231 34.7233 37.1103 35.002 36.8303L43.7892 28.035C44.0512 27.7743 44.2634 27.4598 44.4137 27.1095C44.5639 26.7592 44.6493 26.38 44.6649 25.9936C44.6805 25.6073 44.626 25.2214 44.5045 24.8581C44.383 24.4947 44.1969 24.1611 43.9569 23.8763C43.717 23.5915 43.4278 23.3611 43.106 23.1984C42.7842 23.0357 42.436 22.9438 42.0816 22.9279C41.7271 22.9121 41.3733 22.9727 41.0404 23.1063C40.7074 23.2398 40.4019 23.4436 40.1414 23.7061L33.5645 30.2877L30.6894 26.0371C29.9594 24.9618 29.0089 24.0874 27.9138 23.4837C26.8186 22.88 25.6092 22.5638 24.382 22.5603H11.5696C10.0962 22.5655 8.65383 23.0218 7.40681 23.8772C6.1598 24.7326 5.15834 25.9528 4.51658 27.3985L0.518325 36.4189C0.340941 36.8173 0.248779 37.2543 0.248779 37.6971C0.248779 38.1399 0.340941 38.5769 0.518325 38.9753L2.32428 43.0495ZM0.248939 72.7816C0.248939 74.5678 20.6496 74.5678 20.6496 72.7816C20.6496 67.6857 16.083 63.554 10.4489 63.554C4.81485 63.554 0.248939 67.6857 0.248939 72.7816ZM67.0086 0.530273H34.2749V3.80098H64.7583V38.1434H48.0642V41.4141H67.0086C67.2076 41.4141 67.3984 41.328 67.539 41.1746C67.6797 41.0213 67.7588 40.8133 67.7588 40.5964V1.34795C67.7588 1.13109 67.6797 0.92311 67.539 0.769765C67.3984 0.616421 67.2076 0.530273 67.0086 0.530273ZM15.203 56.6368C15.203 55.6119 14.9242 54.6101 14.4019 53.7579C13.8795 52.9057 13.1371 52.2416 12.2684 51.8494C11.3998 51.4572 10.444 51.3546 9.52185 51.5545C8.59972 51.7545 7.75269 52.248 7.08787 52.9727C6.42305 53.6974 5.97031 54.6208 5.78689 55.6259C5.60347 56.6311 5.69761 57.6731 6.05741 58.6199C6.41721 59.5668 7.02651 60.3761 7.80826 60.9455C8.59 61.5149 9.50909 61.8188 10.4493 61.8188C11.7101 61.8188 12.9192 61.2728 13.8107 60.301C14.7022 59.3292 15.203 58.0112 15.203 56.6368ZM47.3577 72.7816C47.3577 74.5678 67.7584 74.5678 67.7584 72.7816C67.7584 67.6857 63.1925 63.554 57.5583 63.554C51.9241 63.554 47.3577 67.6857 47.3577 72.7816ZM62.3118 56.6368C62.3118 55.6119 62.033 54.61 61.5106 53.7579C60.9883 52.9057 60.2458 52.2415 59.3772 51.8493C58.5085 51.4571 57.5527 51.3545 56.6306 51.5544C55.7084 51.7543 54.8614 52.2479 54.1966 52.9726C53.5317 53.6973 53.079 54.6206 52.8955 55.6258C52.7121 56.631 52.8062 57.673 53.166 58.6199C53.5258 59.5668 54.1351 60.3761 54.9169 60.9455C55.6986 61.5149 56.6177 61.8188 57.5579 61.8188C58.1822 61.8188 58.8004 61.6848 59.3771 61.4244C59.9539 61.164 60.478 60.7823 60.9194 60.3011C61.3608 59.8199 61.711 59.2486 61.9499 58.6199C62.1888 57.9912 62.3118 57.3173 62.3118 56.6368ZM44.204 72.7816C44.204 67.6857 39.6381 63.554 34.0041 63.554C28.37 63.554 23.8033 67.6857 23.8033 72.7816C23.8033 74.5678 44.204 74.5678 44.204 72.7816ZM29.2499 56.6368C29.2499 57.6617 29.5287 58.6636 30.051 59.5158C30.5734 60.368 31.3158 61.0321 32.1845 61.4244C33.0531 61.8166 34.0089 61.9192 34.9311 61.7193C35.8532 61.5193 36.7003 61.0258 37.3651 60.3011C38.0299 59.5764 38.4827 58.653 38.6661 57.6478C38.8495 56.6426 38.7554 55.6007 38.3956 54.6538C38.0358 53.7069 37.4265 52.8976 36.6448 52.3282C35.863 51.7588 34.9439 51.4548 34.0037 51.4548C33.3794 51.4548 32.7613 51.5889 32.1845 51.8493C31.6077 52.1097 31.0837 52.4914 30.6423 52.9726C30.2008 53.4538 29.8507 54.025 29.6117 54.6538C29.3728 55.2825 29.2499 55.9563 29.2499 56.6368Z" fill="#FBFCF7"/>
</svg>
