<svg width="106" height="26" viewBox="0 0 106 26" fill="none" xmlns="http://www.w3.org/2000/svg">
<path d="M19.4886 0.727272H14.5909V15.3636H14.3864L4.34091 0.727272H0.0227273V24H4.94318V9.35227H5.11364L15.2386 24H19.4886V0.727272ZM31.4176 24.3409C35.7358 24.3409 38.6449 22.2386 39.3267 19L34.8494 18.7045C34.3608 20.0341 33.1108 20.7273 31.4972 20.7273C29.0767 20.7273 27.5426 19.125 27.5426 16.5227V16.5114H39.429V15.1818C39.429 9.25 35.8381 6.31818 31.2244 6.31818C26.0881 6.31818 22.7585 9.96591 22.7585 15.3523C22.7585 20.8864 26.0426 24.3409 31.4176 24.3409ZM27.5426 13.5114C27.6449 11.5227 29.1562 9.93182 31.304 9.93182C33.4062 9.93182 34.8608 11.4318 34.8722 13.5114H27.5426ZM46.3523 6.54545H41.3523L46.3523 15.2727L41.1705 24H46.1705L49.5568 17.9659L53 24H57.9432L52.75 15.2727L57.8068 6.54545H52.8409L49.5568 12.6477L46.3523 6.54545ZM69.9659 6.54545H66.6818V2.36364H61.8409V6.54545H59.4545V10.1818H61.8409V19.2727C61.8182 22.6932 64.1477 24.3864 67.6591 24.2386C68.9091 24.1932 69.7955 23.9432 70.2841 23.7841L69.5227 20.1818C69.2841 20.2273 68.7727 20.3409 68.3182 20.3409C67.3523 20.3409 66.6818 19.9773 66.6818 18.6364V10.1818H69.9659V6.54545ZM94.5256 25.2727L105.98 13.8182L94.5256 2.36364L91.8892 4.98864L98.8097 11.8977H82.5938V15.7386H98.8097L91.8892 22.6591L94.5256 25.2727Z" fill="#18A0FB"/>
<path d="M-2 30.4659H109.139V33.5227H-2V30.4659Z" fill="#18A0FB"/>
<a href="https://www.figma.com/file/zOQq37jkUCunfkDwXk398d/?node-id=192%3A6">
<rect fill="black" fill-opacity="0" y="-3.36364" width="111.139" height="38.7273"/>
</a>
</svg>
