<svg width="373" height="375" viewBox="0 0 373 375" fill="none" xmlns="http://www.w3.org/2000/svg">
<path d="M39.2536 164.135C39.2536 164.135 104.899 161.573 119.085 56.3954C131.683 -37.0125 242.379 5.50338 274.377 42.738C315.828 90.9723 293.732 173.945 347.353 184.427C400.975 194.909 365.959 311.45 284.564 300.295C183.313 286.418 207.81 344.088 177.415 368.497C155.601 386.015 66.1553 369.152 63.1742 305.558C60.6656 252.045 37.5069 252.215 21.0918 246.147C-2.58244 237.396 -17.4998 174.017 39.2536 164.135Z" fill="#DEE9FF"/>
<path d="M262.412 280.942L197.917 218.825L185.147 231.422L249.641 293.54L262.412 280.942Z" fill="#699CFF"/>
<path d="M287.049 297.633L236.872 249.305C236.592 249.036 236.142 249.039 235.866 249.311L216.874 268.045C216.598 268.317 216.601 268.756 216.88 269.025L267.057 317.353C267.337 317.622 267.787 317.619 268.063 317.347L287.055 298.613C287.331 298.341 287.328 297.902 287.049 297.633Z" fill="#0E84E5"/>
<path d="M140.755 250.065C185.126 250.065 221.095 215.005 221.095 171.757C221.095 128.509 185.126 93.4497 140.755 93.4497C96.3845 93.4497 60.415 128.509 60.415 171.757C60.415 215.005 96.3845 250.065 140.755 250.065Z" fill="#0E84E5"/>
<path d="M140.755 237.288C177.886 237.288 207.986 207.949 207.986 171.758C207.986 135.566 177.886 106.227 140.755 106.227C103.624 106.227 73.5239 135.566 73.5239 171.758C73.5239 207.949 103.624 237.288 140.755 237.288Z" fill="#D4E5FF"/>
<path d="M276.579 100.967C257.734 95.0129 237.368 105.083 231.235 123.526C225.127 141.895 235.458 161.745 254.381 167.723C273.303 173.701 293.616 163.532 299.725 145.163C305.835 126.794 295.425 106.92 276.579 100.967ZM270.893 118.067C273.002 118.733 274.861 119.995 276.233 121.693C277.606 123.39 278.43 125.447 278.602 127.602C278.773 129.757 278.284 131.912 277.197 133.796C276.11 135.68 274.473 137.206 272.494 138.182C270.516 139.157 268.284 139.538 266.083 139.276C263.882 139.014 261.811 138.121 260.131 136.709C258.452 135.298 257.24 133.432 256.65 131.349C256.06 129.265 256.119 127.058 256.817 125.007C258.705 119.332 265.07 116.227 270.893 118.067ZM256.665 160.853C250.404 158.885 245.04 154.857 241.491 149.458C248.132 145.78 255.076 144.756 261.358 146.74C267.64 148.725 272.748 153.474 275.812 160.301C269.689 162.644 262.92 162.839 256.665 160.853Z" fill="#418DF9"/>
<path d="M119.727 268.349C116.454 269.978 113.749 272.516 111.956 275.643C110.163 278.769 109.361 282.344 109.652 285.915C109.943 289.486 111.313 292.892 113.591 295.704C115.868 298.515 118.95 300.605 122.446 301.71C125.942 302.814 129.695 302.883 133.231 301.908C136.768 300.934 139.928 298.959 142.313 296.233C144.698 293.507 146.199 290.154 146.629 286.596C147.058 283.039 146.395 279.437 144.725 276.247C142.48 271.972 138.588 268.74 133.901 267.259C129.215 265.779 124.117 266.171 119.727 268.349ZM124.055 276.613C125.074 276.106 126.225 275.905 127.362 276.037C128.499 276.168 129.57 276.625 130.439 277.351C131.309 278.076 131.938 279.037 132.246 280.112C132.555 281.186 132.529 282.326 132.172 283.386C131.815 284.446 131.143 285.379 130.242 286.066C129.34 286.753 128.249 287.164 127.108 287.246C125.966 287.328 124.825 287.078 123.83 286.528C122.834 285.977 122.029 285.15 121.516 284.153C120.837 282.823 120.722 281.286 121.197 279.875C121.672 278.463 122.699 277.291 124.055 276.613V276.613ZM134.884 297.292C131.862 298.801 128.395 299.239 125.078 298.531C126.125 294.826 128.276 291.982 131.313 290.471C134.349 288.961 137.992 288.877 141.666 290.279C140.308 293.312 137.911 295.791 134.884 297.291V297.292Z" fill="#418DF9"/>
</svg>
