<svg width="262" height="230" viewBox="0 0 262 230" fill="none" xmlns="http://www.w3.org/2000/svg">
<rect width="262" height="230" fill="#2D9CDB"/>
<path d="M174.754 74.3467C172.72 74.3467 170.77 73.4762 169.331 71.9267C167.893 70.3772 167.085 68.2757 167.085 66.0843V49.5595C167.085 47.3682 167.893 45.2666 169.331 43.7171C170.77 42.1676 172.72 41.2971 174.754 41.2971C176.788 41.2971 178.739 42.1676 180.177 43.7171C181.616 45.2666 182.424 47.3682 182.424 49.5595V66.0843C182.424 68.2757 181.616 70.3772 180.177 71.9267C178.739 73.4762 176.788 74.3467 174.754 74.3467Z" fill="#FBFCF7"/>
<path d="M190.094 74.3458H174.755C173.241 74.3377 171.763 73.8469 170.508 72.9353C169.252 72.0237 168.275 70.732 167.7 69.2231C167.112 67.7185 166.952 66.0601 167.239 64.4573C167.525 62.8545 168.246 61.379 169.31 60.2171L192.318 35.4299C193.762 33.8741 195.721 33 197.763 33C199.806 33 201.764 33.8741 203.209 35.4299C204.653 36.9857 205.464 39.0959 205.464 41.2962C205.464 43.4965 204.653 45.6067 203.209 47.1625L192.778 58.3168C194.479 58.9817 195.908 60.2733 196.81 61.9631C197.713 63.6529 198.031 65.6321 197.71 67.5507C197.389 69.4693 196.448 71.2037 195.054 72.4472C193.661 73.6908 191.904 74.3633 190.094 74.3458Z" fill="#FBFCF7"/>
<path d="M82.7225 74.3467C80.6885 74.3467 78.7378 73.4762 77.2995 71.9267C75.8612 70.3772 75.0532 68.2757 75.0532 66.0843V49.5595C75.0532 47.3682 75.8612 45.2666 77.2995 43.7171C78.7378 42.1676 80.6885 41.2971 82.7225 41.2971C84.7565 41.2971 86.7073 42.1676 88.1455 43.7171C89.5838 45.2666 90.3918 47.3682 90.3918 49.5595V66.0843C90.3918 68.2757 89.5838 70.3772 88.1455 71.9267C86.7073 73.4762 84.7565 74.3467 82.7225 74.3467Z" fill="#FBFCF7"/>
<path d="M82.7193 74.3458H67.3807C65.5711 74.3633 63.8142 73.6908 62.4204 72.4472C61.0267 71.2037 60.086 69.4693 59.7647 67.5507C59.4434 65.6321 59.7622 63.6529 60.6647 61.9631C61.5672 60.2733 62.9953 58.9817 64.6965 58.3168L54.2662 47.1625C52.8221 45.6067 52.0107 43.4965 52.0107 41.2962C52.0107 40.2067 52.2099 39.1279 52.5969 38.1214C52.9839 37.1148 53.5511 36.2003 54.2662 35.4299C54.9813 34.6595 55.8302 34.0484 56.7645 33.6315C57.6988 33.2146 58.7001 33 59.7114 33C61.7538 33 63.7125 33.8741 65.1566 35.4299L88.1645 60.2171C89.2287 61.379 89.9495 62.8545 90.2362 64.4573C90.5228 66.0601 90.3623 67.7185 89.775 69.2231C89.1997 70.732 88.2226 72.0237 86.967 72.9353C85.7114 73.8469 84.2334 74.3377 82.7193 74.3458Z" fill="#FBFCF7"/>
<path d="M174.754 190.019C172.72 190.019 170.77 189.149 169.331 187.599C167.893 186.05 167.085 183.948 167.085 181.757V165.232C167.085 163.041 167.893 160.939 169.331 159.389C170.77 157.84 172.72 156.969 174.754 156.969C176.788 156.969 178.739 157.84 180.177 159.389C181.616 160.939 182.424 163.041 182.424 165.232V181.757C182.424 183.948 181.616 186.05 180.177 187.599C178.739 189.149 176.788 190.019 174.754 190.019Z" fill="#FBFCF7"/>
<path d="M197.763 198.282C196.754 198.288 195.753 198.08 194.819 197.669C193.885 197.257 193.035 196.652 192.318 195.886L169.31 171.099C168.246 169.937 167.525 168.461 167.239 166.858C166.952 165.256 167.112 163.597 167.7 162.093C168.275 160.584 169.252 159.292 170.508 158.38C171.763 157.469 173.241 156.978 174.755 156.97H190.094C191.904 156.952 193.661 157.625 195.054 158.868C196.448 160.112 197.389 161.846 197.71 163.765C198.031 165.684 197.713 167.663 196.81 169.353C195.908 171.042 194.479 172.334 192.778 172.999L203.209 184.153C203.927 184.921 204.498 185.835 204.887 186.842C205.277 187.849 205.477 188.929 205.477 190.019C205.477 191.11 205.277 192.19 204.887 193.197C204.498 194.204 203.927 195.118 203.209 195.886C202.492 196.652 201.642 197.257 200.708 197.669C199.773 198.08 198.773 198.288 197.763 198.282Z" fill="#FBFCF7"/>
<path d="M82.7225 190.019C80.6885 190.019 78.7378 189.149 77.2995 187.599C75.8612 186.05 75.0532 183.948 75.0532 181.757V165.232C75.0532 163.041 75.8612 160.939 77.2995 159.389C78.7378 157.84 80.6885 156.969 82.7225 156.969C84.7565 156.969 86.7073 157.84 88.1455 159.389C89.5838 160.939 90.3918 163.041 90.3918 165.232V181.757C90.3918 183.948 89.5838 186.05 88.1455 187.599C86.7073 189.149 84.7565 190.019 82.7225 190.019Z" fill="#FBFCF7"/>
<path d="M59.7138 198.282C58.7044 198.288 57.7039 198.08 56.7695 197.669C55.8351 197.257 54.9852 196.652 54.2686 195.886C53.5497 195.118 52.9792 194.204 52.5898 193.197C52.2005 192.19 52 191.11 52 190.019C52 188.929 52.2005 187.849 52.5898 186.842C52.9792 185.835 53.5497 184.921 54.2686 184.153L64.6988 172.999C62.9977 172.334 61.5696 171.042 60.6671 169.353C59.7646 167.663 59.4458 165.684 59.7671 163.765C60.0884 161.846 61.0291 160.112 62.4228 158.868C63.8165 157.625 65.5735 156.952 67.3831 156.97H82.7216C84.2358 156.978 85.7138 157.469 86.9694 158.38C88.225 159.292 89.202 160.584 89.7774 162.093C90.3647 163.597 90.5252 165.256 90.2385 166.858C89.9519 168.461 89.231 169.937 88.1668 171.099L65.159 195.886C64.4423 196.652 63.5925 197.257 62.6581 197.669C61.7236 198.08 60.7231 198.288 59.7138 198.282Z" fill="#FBFCF7"/>
<path d="M111 131.111C114.837 134.889 122.511 138.667 130.185 138.667M130.185 138.667C139.777 138.667 149.369 136.778 149.369 127.333C149.369 117.889 139.967 116 130.185 116M130.185 138.667V116M130.185 138.667V150M130.185 116C120.592 116 111 114.111 111 104.667C111 95.2222 120.592 93.3333 130.185 93.3333M130.185 116V93.3333M130.185 93.3333C137.859 93.3333 145.532 97.1111 149.369 100.889M130.185 93.3333V82" stroke="white" stroke-width="3"/>
</svg>
