<svg width="46" height="50" viewBox="0 0 46 50" fill="none" xmlns="http://www.w3.org/2000/svg">
<path d="M16.6 27.6833C17.6 28.6833 19.6 29.6833 21.6 29.6833M21.6 29.6833C24.1 29.6833 26.6 29.1833 26.6 26.6833C26.6 24.1833 24.1495 23.6833 21.6 23.6833M21.6 29.6833V23.6833M21.6 29.6833V32.6833M21.6 23.6833C19.1 23.6833 16.6 23.1833 16.6 20.6833C16.6 18.1833 19.1 17.6833 21.6 17.6833M21.6 23.6833V17.6833M21.6 17.6833C23.6 17.6833 25.6 18.6833 26.6 19.6833M21.6 17.6833V14.6833" stroke="white" stroke-width="3"/>
<path d="M36.0858 12.6105C35.4881 12.6105 34.9149 12.3522 34.4922 11.8925C34.0696 11.4327 33.8322 10.8092 33.8322 10.159V5.25578C33.8322 4.60558 34.0696 3.98201 34.4922 3.52225C34.9149 3.06249 35.4881 2.8042 36.0858 2.8042C36.6836 2.8042 37.2568 3.06249 37.6795 3.52225C38.1021 3.98201 38.3395 4.60558 38.3395 5.25578V10.159C38.3395 10.8092 38.1021 11.4327 37.6795 11.8925C37.2568 12.3522 36.6836 12.6105 36.0858 12.6105Z" fill="#FBFCF7"/>
<path d="M40.5936 12.6105H36.0862C35.6412 12.6081 35.2069 12.4624 34.8379 12.1919C34.4689 11.9215 34.1818 11.5382 34.0128 11.0905C33.8402 10.644 33.793 10.152 33.8772 9.67639C33.9615 9.20081 34.1733 8.76302 34.486 8.41827L41.2471 1.06352C41.6715 0.601877 42.2471 0.342529 42.8473 0.342529C43.4474 0.342529 44.023 0.601877 44.4474 1.06352C44.8718 1.52516 45.1102 2.15128 45.1102 2.80414C45.1102 3.45701 44.8718 4.08313 44.4474 4.54477L41.3823 7.85441C41.8822 8.0517 42.3019 8.43493 42.5671 8.93633C42.8323 9.43772 42.926 10.025 42.8316 10.5943C42.7372 11.1635 42.4607 11.6782 42.0512 12.0471C41.6416 12.4161 41.1253 12.6157 40.5936 12.6105Z" fill="#FBFCF7"/>
<path d="M9.04142 12.6105C8.4437 12.6105 7.87046 12.3522 7.44781 11.8925C7.02516 11.4327 6.78772 10.8092 6.78772 10.159V5.25578C6.78772 4.60558 7.02516 3.98201 7.44781 3.52225C7.87046 3.06249 8.4437 2.8042 9.04142 2.8042C9.63913 2.8042 10.2124 3.06249 10.635 3.52225C11.0577 3.98201 11.2951 4.60558 11.2951 5.25578V10.159C11.2951 10.8092 11.0577 11.4327 10.635 11.8925C10.2124 12.3522 9.63913 12.6105 9.04142 12.6105Z" fill="#FBFCF7"/>
<path d="M9.04048 12.6105H4.53309C4.00134 12.6157 3.48503 12.4161 3.07547 12.0471C2.66591 11.6782 2.38948 11.1635 2.29506 10.5943C2.20065 10.025 2.29433 9.43772 2.55954 8.93633C2.82475 8.43493 3.24441 8.0517 3.7443 7.85441L0.679273 4.54477C0.254893 4.08313 0.0164795 3.45701 0.0164795 2.80414C0.0164795 2.48088 0.0750115 2.16078 0.188734 1.86213C0.302456 1.56347 0.469141 1.2921 0.679273 1.06352C0.889404 0.834938 1.13887 0.653616 1.41342 0.529908C1.68797 0.406201 1.98223 0.342529 2.2794 0.342529C2.87956 0.342529 3.45514 0.601877 3.87952 1.06352L10.6406 8.41827C10.9533 8.76302 11.1652 9.20081 11.2494 9.67639C11.3336 10.152 11.2865 10.644 11.1139 11.0905C10.9448 11.5382 10.6577 11.9215 10.2887 12.1919C9.91975 12.4624 9.48542 12.6081 9.04048 12.6105Z" fill="#FBFCF7"/>
<path d="M36.0858 46.9328C35.4881 46.9328 34.9149 46.6745 34.4922 46.2148C34.0696 45.755 33.8322 45.1314 33.8322 44.4812V39.578C33.8322 38.9278 34.0696 38.3043 34.4922 37.8445C34.9149 37.3848 35.4881 37.1265 36.0858 37.1265C36.6836 37.1265 37.2568 37.3848 37.6795 37.8445C38.1021 38.3043 38.3395 38.9278 38.3395 39.578V44.4812C38.3395 45.1314 38.1021 45.755 37.6795 46.2148C37.2568 46.6745 36.6836 46.9328 36.0858 46.9328Z" fill="#FBFCF7"/>
<path d="M42.8472 49.3843C42.5506 49.3861 42.2566 49.3243 41.982 49.2023C41.7075 49.0803 41.4577 48.9005 41.2471 48.6733L34.486 41.3185C34.1733 40.9738 33.9615 40.536 33.8772 40.0604C33.793 39.5848 33.8402 39.0928 34.0128 38.6463C34.1818 38.1986 34.4689 37.8153 34.8379 37.5449C35.2069 37.2744 35.6412 37.1287 36.0862 37.1263H40.5936C41.1253 37.1211 41.6416 37.3207 42.0512 37.6897C42.4607 38.0586 42.7372 38.5733 42.8316 39.1425C42.926 39.7118 42.8323 40.2991 42.5671 40.8005C42.3019 41.3019 41.8822 41.6851 41.3823 41.8824L44.4474 45.192C44.6586 45.4199 44.8263 45.6911 44.9407 45.9898C45.0551 46.2886 45.114 46.609 45.114 46.9327C45.114 47.2563 45.0551 47.5767 44.9407 47.8755C44.8263 48.1742 44.6586 48.4454 44.4474 48.6733C44.2368 48.9005 43.987 49.0803 43.7125 49.2023C43.4379 49.3243 43.1439 49.3861 42.8472 49.3843Z" fill="#FBFCF7"/>
<path d="M9.04142 46.9328C8.4437 46.9328 7.87046 46.6745 7.44781 46.2148C7.02516 45.755 6.78772 45.1314 6.78772 44.4812V39.578C6.78772 38.9278 7.02516 38.3043 7.44781 37.8445C7.87046 37.3848 8.4437 37.1265 9.04142 37.1265C9.63913 37.1265 10.2124 37.3848 10.635 37.8445C11.0577 38.3043 11.2951 38.9278 11.2951 39.578V44.4812C11.2951 45.1314 11.0577 45.755 10.635 46.2148C10.2124 46.6745 9.63913 46.9328 9.04142 46.9328Z" fill="#FBFCF7"/>
<path d="M2.28007 49.3843C1.98347 49.3861 1.68945 49.3243 1.41486 49.2023C1.14028 49.0803 0.890531 48.9005 0.679945 48.6733C0.46871 48.4454 0.301048 48.1742 0.186631 47.8755C0.0722133 47.5767 0.0133057 47.2563 0.0133057 46.9327C0.0133057 46.609 0.0722133 46.2886 0.186631 45.9898C0.301048 45.6911 0.46871 45.4199 0.679945 45.192L3.74497 41.8824C3.24508 41.6851 2.82542 41.3019 2.56021 40.8005C2.295 40.2991 2.20132 39.7118 2.29574 39.1425C2.39015 38.5733 2.66658 38.0586 3.07614 37.6897C3.4857 37.3207 4.00201 37.1211 4.53377 37.1263H9.04116C9.4861 37.1287 9.92042 37.2744 10.2894 37.5449C10.6584 37.8153 10.9455 38.1986 11.1146 38.6463C11.2871 39.0928 11.3343 39.5848 11.2501 40.0604C11.1658 40.536 10.954 40.9738 10.6413 41.3185L3.88019 48.6733C3.66961 48.9005 3.41986 49.0803 3.14528 49.2023C2.87069 49.3243 2.57667 49.3861 2.28007 49.3843Z" fill="#FBFCF7"/>
</svg>
