<svg width="23" height="23" viewBox="0 0 23 23" fill="none" xmlns="http://www.w3.org/2000/svg">
<path d="M1.66248 21.7498L0.662483 21.7498C0.6625 22.3021 1.1102 22.7498 1.66246 22.7498L1.66248 21.7498ZM5.905 21.7499L5.90498 22.7499C6.1702 22.7499 6.42456 22.6446 6.61211 22.457L5.905 21.7499ZM21.4613 6.19356L22.1685 6.90066C22.356 6.71313 22.4613 6.45877 22.4613 6.19356C22.4613 5.92834 22.356 5.67399 22.1685 5.48645L21.4613 6.19356ZM17.2187 1.95093L17.9258 1.24382C17.5353 0.853297 16.9021 0.853297 16.5116 1.24382L17.2187 1.95093ZM1.66235 17.5073L0.955247 16.8002C0.767703 16.9877 0.662345 17.2421 0.662354 17.5073L1.66235 17.5073ZM13.6832 5.48645C13.2926 5.09593 12.6595 5.09593 12.2689 5.48645C11.8784 5.87698 11.8784 6.51014 12.2689 6.90066L13.6832 5.48645ZM16.5116 11.1433C16.9021 11.5338 17.5353 11.5338 17.9258 11.1433C18.3163 10.7528 18.3163 10.1196 17.9258 9.7291L16.5116 11.1433ZM1.66246 22.7498L5.90498 22.7499L5.90502 20.7499L1.66251 20.7498L1.66246 22.7498ZM6.61211 22.457L22.1685 6.90066L20.7542 5.48645L5.19789 21.0428L6.61211 22.457ZM22.1685 5.48645L17.9258 1.24382L16.5116 2.65804L20.7542 6.90067L22.1685 5.48645ZM16.5116 1.24382L0.955247 16.8002L2.36946 18.2144L17.9258 2.65803L16.5116 1.24382ZM0.662354 17.5073L0.662483 21.7498L2.66248 21.7498L2.66235 17.5072L0.662354 17.5073ZM12.2689 6.90066L16.5116 11.1433L17.9258 9.7291L13.6832 5.48645L12.2689 6.90066Z" fill="black" fill-opacity="0.85"/>
</svg>
