<svg width="100" height="24" viewBox="0 0 100 24" fill="none" xmlns="http://www.w3.org/2000/svg">
<path d="M40.6625 21.7498L39.6625 21.7498C39.6625 22.3021 40.1102 22.7498 40.6625 22.7498L40.6625 21.7498ZM44.905 21.7499L44.905 22.7499C45.1702 22.7499 45.4246 22.6446 45.6121 22.457L44.905 21.7499ZM60.4613 6.19356L61.1685 6.90066C61.356 6.71313 61.4613 6.45877 61.4613 6.19356C61.4613 5.92834 61.356 5.67399 61.1685 5.48645L60.4613 6.19356ZM56.2187 1.95093L56.9258 1.24382C56.5353 0.853297 55.9021 0.853297 55.5116 1.24382L56.2187 1.95093ZM40.6624 17.5073L39.9552 16.8002C39.7677 16.9877 39.6623 17.2421 39.6624 17.5073L40.6624 17.5073ZM52.6832 5.48645C52.2926 5.09593 51.6595 5.09593 51.2689 5.48645C50.8784 5.87698 50.8784 6.51014 51.2689 6.90066L52.6832 5.48645ZM55.5116 11.1433C55.9021 11.5338 56.5353 11.5338 56.9258 11.1433C57.3163 10.7528 57.3163 10.1196 56.9258 9.7291L55.5116 11.1433ZM40.6625 22.7498L44.905 22.7499L44.905 20.7499L40.6625 20.7498L40.6625 22.7498ZM45.6121 22.457L61.1685 6.90066L59.7542 5.48645L44.1979 21.0428L45.6121 22.457ZM61.1685 5.48645L56.9258 1.24382L55.5116 2.65804L59.7542 6.90067L61.1685 5.48645ZM55.5116 1.24382L39.9552 16.8002L41.3695 18.2144L56.9258 2.65803L55.5116 1.24382ZM39.6624 17.5073L39.6625 21.7498L41.6625 21.7498L41.6624 17.5072L39.6624 17.5073ZM51.2689 6.90066L55.5116 11.1433L56.9258 9.7291L52.6832 5.48645L51.2689 6.90066Z" fill="black" fill-opacity="0.85"/>
</svg>
