<svg width="109" height="88" viewBox="0 0 109 88" fill="none" xmlns="http://www.w3.org/2000/svg">
<path fill-rule="evenodd" clip-rule="evenodd" d="M57.1746 53.4195L57.1726 31.5748L92.9701 23.823C94.4226 23.5085 95.2846 22.3021 94.8953 21.1285C94.506 19.9548 93.0128 19.2584 91.5602 19.5729L57.1722 27.0195L57.1712 15.7626C57.1712 14.7657 57.9983 13.8947 59.1879 13.6374L101.535 4.48089C102.842 4.19788 103.554 4.61934 103.554 5.5765V70.3062C103.554 71.7271 101.956 73.3641 100.126 73.7605L55.122 83.4933C54.5144 83.631 54.3621 83.63 53.8262 83.5049L8.87445 73.7606C7.04384 73.3641 5.44592 71.7271 5.44592 70.3062V5.5765C5.44592 4.61934 6.15848 4.19788 7.46371 4.48063L42.6436 12.1102C44.096 12.4252 45.5895 11.7293 45.9794 10.5557C46.3692 9.38223 45.5078 8.17556 44.0554 7.86056L8.87478 0.23081C4.16722 -0.788978 0 1.67578 0 5.5765V70.3062C0 73.7429 3.28137 77.1045 7.46371 78.0105L52.3649 87.7434C53.8173 88.0828 55.0026 88.0905 56.5622 87.7366L101.535 78.0107C105.719 77.1045 109 73.7429 109 70.3062V5.5765C109 1.67578 104.833 -0.788978 100.126 0.230647L57.7797 9.38697C54.2082 10.1596 51.7253 12.7742 51.7253 15.7627L51.7264 28.1988L48.1781 28.9671C46.7255 29.2817 45.8635 30.4881 46.2529 31.6617C46.6422 32.8354 48.1353 33.5318 49.5879 33.2172L51.7268 32.7541L51.7288 54.5988L48.1781 55.3677C46.7255 55.6822 45.8635 56.8886 46.2529 58.0623C46.6422 59.2359 48.1353 59.9323 49.5879 59.6178L51.7292 59.1541L51.7308 76.8229C51.7309 78.038 52.9501 79.0229 54.4539 79.0228C55.9578 79.0227 57.1768 78.0376 57.1767 76.8226L57.175 57.9748L92.9701 50.2236C94.4226 49.909 95.2846 48.7026 94.8953 47.529C94.506 46.3554 93.0128 45.6589 91.5602 45.9735L57.1746 53.4195ZM66.2263 42.7237L93.1836 37.0256C94.6385 36.718 95.5094 35.5158 95.1287 34.3403C94.7481 33.1648 93.2602 32.4612 91.8053 32.7687L64.848 38.4668C63.3931 38.7744 62.5222 39.9766 62.9029 41.1521C63.2835 42.3276 64.7715 43.0312 66.2263 42.7237ZM73.992 67.534L66.1063 69.2413C64.6537 69.5557 63.1606 68.8593 62.7713 67.6856C62.3821 66.512 63.2441 65.3056 64.6967 64.9911L72.5824 63.2839C74.035 62.9694 75.5281 63.6659 75.9174 64.8395C76.3066 66.0132 75.4446 67.2195 73.992 67.534Z" fill="#4E6AF0"/>
</svg>
