<svg width="21" height="21" viewBox="0 0 21 21" fill="none" xmlns="http://www.w3.org/2000/svg">
<path fill-rule="evenodd" clip-rule="evenodd" d="M12.705 6.70084C13.578 6.10535 13.578 4.81823 12.705 4.22275L8.366 1.26275C7.37008 0.583301 6.02123 1.29607 6.02123 2.50179V5.10459C2.86934 5.53998 0.854128 7.01446 0.207917 9.1934C-0.480468 11.5146 0.582529 14.2381 2.7748 15.9102C2.99436 16.0777 3.30811 16.0355 3.47559 15.8159C3.64306 15.5964 3.60083 15.2826 3.38126 15.1151C1.50282 13.6824 0.603233 11.3775 1.16664 9.47773C1.68264 7.73786 3.32294 6.51322 6.02123 6.11261V8.42179C6.02123 9.62674 7.37026 10.3402 8.36601 9.66083L12.705 6.70084ZM7.02123 2.50179V5.00413C7.36226 4.98195 7.7146 4.97069 8.07803 4.97069C8.35417 4.97069 8.57803 5.19455 8.57803 5.47069C8.57803 5.74684 8.35417 5.97069 8.07803 5.97069C7.71198 5.97069 7.35968 5.98251 7.02123 6.00567V8.42179C7.02123 8.82342 7.47067 9.06111 7.80246 8.83475L12.1415 5.87474C12.4325 5.67623 12.4325 5.24735 12.1415 5.04885L7.80245 2.08883C7.47033 1.86225 7.02123 2.09957 7.02123 2.50179ZM7.35776 15.2026C6.48478 15.798 6.48478 17.0852 7.35776 17.6806L11.6968 20.6406C12.6927 21.3201 14.0425 20.6073 14.0425 19.4016V16.7987C17.1939 16.3631 19.2087 14.8887 19.8548 12.71C20.5432 10.3888 19.4802 7.66527 17.288 5.99314C17.0684 5.82567 16.7546 5.8679 16.5872 6.08746C16.4197 6.30703 16.4619 6.62078 16.6815 6.78825C18.5599 8.22101 19.4595 10.5259 18.8961 12.4257C18.3802 14.1653 16.7402 15.3899 14.0425 15.7906V13.4816C14.0425 12.2759 12.6927 11.5631 11.6967 12.2426L7.35776 15.2026ZM13.0425 15.8976V13.4816C13.0425 13.0795 12.5926 12.842 12.2603 13.0686L7.92129 16.0286C7.63028 16.2272 7.63028 16.656 7.92129 16.8545L12.2603 19.8146C12.5926 20.0412 13.0425 19.8036 13.0425 19.4016V16.8992C12.7012 16.9214 12.3485 16.9327 11.9847 16.9327C11.7086 16.9327 11.4847 16.7088 11.4847 16.4327C11.4847 16.1566 11.7086 15.9327 11.9847 15.9327C12.3511 15.9327 12.7038 15.9209 13.0425 15.8976Z" fill="black"/>
</svg>
