<?xml version="1.0" standalone="no"?>
<!DOCTYPE svg PUBLIC "-//W3C//DTD SVG 20010904//EN"
 "http://www.w3.org/TR/2001/REC-SVG-20010904/DTD/svg10.dtd">
<svg version="1.0" xmlns="http://www.w3.org/2000/svg"
 width="512.000000pt" height="512.000000pt" viewBox="0 0 512.000000 512.000000"
 preserveAspectRatio="xMidYMid meet">

<g transform="translate(0.000000,512.000000) scale(0.100000,-0.100000)"
fill="#000000" stroke="none">
<path d="M2948 4393 l-3 -726 -64 -13 c-91 -19 -197 -72 -263 -133 l-58 -53
-55 51 c-31 28 -88 66 -128 86 -133 65 -126 65 -1004 65 l-793 0 0 -215 0
-215 -290 0 -290 0 0 -1620 0 -1620 2560 0 2560 0 0 1620 0 1620 -290 0 -290
0 0 215 0 215 -275 0 -275 0 0 725 0 725 -520 0 -520 0 -2 -727z m742 272 l0
-155 -215 0 -215 0 0 155 0 155 215 0 215 0 0 -155z m0 -1105 l0 -650 -215 0
-215 0 0 650 0 650 215 0 215 0 0 -650z m-1459 -216 c66 -31 114 -78 146 -142
l28 -57 3 -1114 c2 -1061 2 -1113 -15 -1106 -10 4 -47 20 -83 34 l-65 26 -682
3 -683 3 0 1190 0 1190 653 -3 c639 -3 653 -3 698 -24z m2009 -1164 l0 -1189
-682 -3 -683 -3 -65 -26 c-36 -14 -73 -30 -82 -34 -17 -7 -18 49 -18 1094 0
1077 0 1101 20 1154 11 29 36 72 55 94 33 38 122 93 152 93 10 0 13 -80 13
-414 l0 -414 258 -393 c142 -217 262 -394 268 -393 5 0 122 174 261 385 l253
384 0 421 c0 231 3 424 7 427 3 4 60 7 125 7 l118 0 0 -1190z m-3660 -365 l0
-1125 795 0 c768 0 796 -1 847 -20 89 -33 170 -132 184 -227 l6 -43 148 0 148
0 6 43 c14 95 95 194 184 227 51 19 79 20 847 20 l795 0 0 1125 0 1125 140 0
140 0 0 -1320 0 -1320 -2260 0 -2260 0 0 1320 0 1320 140 0 140 0 0 -1125z
m3103 783 c-54 -89 -205 -313 -209 -311 -5 1 -167 244 -207 311 -7 9 38 12
208 12 170 0 215 -3 208 -12z"/>
</g>
</svg>
