<svg width="80" height="79" viewBox="0 0 80 79" fill="none" xmlns="http://www.w3.org/2000/svg">
<path fill-rule="evenodd" clip-rule="evenodd" d="M58.5971 49.2961C62.0381 44.2526 64.0465 38.1759 64.0465 31.6347C64.0465 14.1626 49.7113 0 32.0232 0C14.3378 0 0 14.1639 0 31.6347C0 49.1082 14.3365 63.2695 32.0232 63.2695C41.6404 63.2695 50.2657 59.0842 56.1351 52.4563L75.3734 71.4612C76.205 72.2826 76.205 73.609 75.3734 74.4305C74.9688 74.8302 74.4321 75.0456 73.8745 75.0456C73.3132 75.0456 72.7765 74.8304 72.3717 74.4305L57.3728 59.6135C56.5912 58.8414 55.3239 58.8414 54.5423 59.6135C53.7607 60.3857 53.7607 61.6375 54.5423 62.4097L69.5412 77.2266C70.7041 78.3755 72.2617 78.9999 73.8745 78.9999C75.4841 78.9999 77.0415 78.3749 78.2039 77.2266C80.5987 74.8609 80.5987 71.0308 78.2039 68.665L58.5971 49.2961ZM55.7052 46.4392C58.4528 42.1581 60.0435 37.0804 60.0435 31.6347C60.0435 16.3463 47.5004 3.95426 32.0232 3.95426C16.5485 3.95426 4.00287 16.3477 4.00287 31.6347C4.00287 46.9241 16.5471 59.3151 32.0232 59.3151C40.5352 59.3151 48.1589 55.5684 53.2973 49.6529L48.8101 45.2201C48.0285 44.448 48.0285 43.1961 48.8101 42.424C49.5918 41.6519 50.859 41.6519 51.6406 42.424L55.7052 46.4392ZM42.8794 48.248C39.6722 50.2987 35.9321 51.4065 32.0223 51.4065C20.9694 51.4065 12.0078 42.5547 12.0078 31.6347C12.0078 30.5428 11.1117 29.6576 10.0063 29.6576C8.90095 29.6576 8.00487 30.5428 8.00487 31.6347C8.00487 44.7387 18.7588 55.3608 32.0223 55.3608C36.7096 55.3608 41.2041 54.0296 45.0545 51.5676C45.9824 50.9742 46.2478 49.7501 45.6472 48.8334C45.0465 47.9167 43.8074 47.6546 42.8794 48.248Z" fill="#4E6AF0"/>
</svg>
