<svg width="263" height="260" viewBox="0 0 263 260" fill="none" xmlns="http://www.w3.org/2000/svg">
<rect width="262.527" height="260" fill="#7879F1"/>
<path d="M124.838 143.875C134.849 143.875 142.963 135.649 142.963 125.5C142.963 115.352 134.849 107.125 124.838 107.125C114.828 107.125 106.713 115.352 106.713 125.5C106.713 135.649 114.828 143.875 124.838 143.875Z" fill="#FBFCF7"/>
<path d="M187.495 138.179C184.426 136.923 180.879 138.448 179.641 141.602L170.482 164.804L152.622 151.225C151.577 150.429 150.309 150 148.997 150H100.664C99.359 150 98.0842 150.429 97.039 151.225L79.1798 164.804L70.0266 141.602C68.7881 138.454 65.2899 136.929 62.1724 138.179C59.0731 139.434 57.5687 142.999 58.8072 146.147L70.8906 176.772C71.5914 178.542 73.0596 179.884 74.8721 180.398C76.6785 180.901 78.6239 180.539 80.1283 179.4L100.67 163.781V199H149.003V163.781L169.545 179.4C170.609 180.209 171.883 180.625 173.17 180.625C173.714 180.625 174.27 180.539 174.808 180.398C176.62 179.884 178.088 178.542 178.789 176.772L190.872 146.147C192.093 142.999 190.582 139.434 187.495 138.179Z" fill="#FBFCF7"/>
<path d="M130.501 88.7502C140.512 88.7502 148.626 80.5243 148.626 70.3751C148.626 60.2259 140.512 52 130.501 52C120.489 52 112.375 60.2259 112.375 70.3751C112.375 80.5243 120.489 88.7502 130.501 88.7502ZM130.501 58.125C137.165 58.125 142.584 63.6192 142.584 70.3751C142.584 77.131 137.165 82.6252 130.501 82.6252C123.837 82.6252 118.417 77.131 118.417 70.3751C118.417 63.6192 123.837 58.125 130.501 58.125Z" fill="#FBFCF7"/>
<path d="M178.833 70.3752L154.667 113.25H203L178.833 70.3752ZM178.833 82.7233L192.584 107.125H165.076L178.833 82.7233Z" fill="#FBFCF7"/>
<path d="M106.333 101L82.1667 76.4995L58 101L82.1667 125.5L106.333 101ZM82.1667 85.1603L97.7905 101L82.1667 116.839L66.5429 101L82.1667 85.1603Z" fill="#FBFCF7"/>
</svg>
