<svg width="69" height="75" viewBox="0 0 69 75" fill="none" xmlns="http://www.w3.org/2000/svg">
<path d="M32.0299 46.5247C36.6905 46.5247 40.4687 42.4063 40.4687 37.3258C40.4687 32.2454 36.6905 28.127 32.0299 28.127C27.3693 28.127 23.5912 32.2454 23.5912 37.3258C23.5912 42.4063 27.3693 46.5247 32.0299 46.5247Z" fill="#FBFCF7"/>
<path d="M61.2017 43.6727C59.7728 43.0441 58.1216 43.8076 57.5449 45.3867L53.2806 57.0019L44.9656 50.2039C44.479 49.8053 43.8882 49.5906 43.2778 49.5906H20.7745C20.1669 49.5906 19.5734 49.8053 19.0868 50.2039L10.7718 57.0019L6.51022 45.3867C5.93357 43.8106 4.30489 43.0471 2.85343 43.6727C1.4104 44.3013 0.709987 46.0858 1.28663 47.6619L6.91247 62.9934C7.23876 63.8796 7.9223 64.5511 8.76618 64.8087C9.60724 65.0601 10.513 64.8792 11.2134 64.3088L20.7773 56.4898V74.121H43.2806V56.4898L52.8446 64.3088C53.3396 64.7136 53.9332 64.9221 54.5323 64.9221C54.7855 64.9221 55.0443 64.8792 55.2946 64.8087C56.1385 64.5511 56.822 63.8796 57.1483 62.9934L62.7742 47.6619C63.3424 46.0858 62.6391 44.3013 61.2017 43.6727Z" fill="#FBFCF7"/>
<path d="M34.6658 18.9281C39.3268 18.9281 43.1045 14.81 43.1045 9.72917C43.1045 4.64831 39.3268 0.530273 34.6658 0.530273C30.0048 0.530273 26.2271 4.64831 26.2271 9.72917C26.2271 14.81 30.0048 18.9281 34.6658 18.9281ZM34.6658 3.59657C37.7684 3.59657 40.2916 6.34704 40.2916 9.72917C40.2916 13.1113 37.7684 15.8618 34.6658 15.8618C31.5632 15.8618 29.04 13.1113 29.04 9.72917C29.04 6.34704 31.5632 3.59657 34.6658 3.59657Z" fill="#FBFCF7"/>
<path d="M57.169 9.72925L45.9174 31.1933H68.4207L57.169 9.72925ZM57.169 15.9109L63.5712 28.127H50.764L57.169 15.9109Z" fill="#FBFCF7"/>
<path d="M23.4141 25.0604L12.1624 12.7952L0.910767 25.0604L12.1624 37.3256L23.4141 25.0604ZM12.1624 17.1309L19.4366 25.0604L12.1624 32.9898L4.88823 25.0604L12.1624 17.1309Z" fill="#FBFCF7"/>
</svg>
