<svg width="253" height="67" viewBox="0 0 253 67" fill="none" xmlns="http://www.w3.org/2000/svg">
<path d="M10.2744 20.1473C10.2744 9.29342 19.0732 0.494629 29.927 0.494629V28.9392H10.2744V20.1473Z" fill="#2FCC59" stroke="#2FCC59" stroke-width="0.805851"/>
<rect x="10.2744" y="28.9392" width="19.6526" height="9.12144" fill="#2FCC59" stroke="#2FCC59" stroke-width="0.805851"/>
<path fill-rule="evenodd" clip-rule="evenodd" d="M10.6315 50.5992C10.3974 49.3864 10.2748 48.1337 10.2748 46.8525V38.0605H29.9274V66.5051C25.1684 66.5051 20.8045 64.8136 17.4041 61.9989C14.0117 64.2589 8.57203 66.4071 2 65.2122C3.81011 64.4365 10.792 59.7819 10.5334 50.4727C10.5648 50.5159 10.5975 50.558 10.6315 50.5992Z" fill="#2FCC59"/>
<path d="M10.6315 50.5992L10.3209 50.8559L11.0271 50.5229L10.6315 50.5992ZM10.2748 38.0605V37.6576H9.87186V38.0605H10.2748ZM29.9274 38.0605H30.3303V37.6576H29.9274V38.0605ZM29.9274 66.5051V66.9081H30.3303V66.5051H29.9274ZM17.4041 61.9989L17.661 61.6885L17.4301 61.4974L17.1807 61.6636L17.4041 61.9989ZM2 65.2122L1.84128 64.8419L0.610885 65.3692L1.92792 65.6086L2 65.2122ZM10.5334 50.4727L10.8592 50.2358L10.0945 49.1843L10.1306 50.4839L10.5334 50.4727ZM9.87186 46.8525C9.87186 48.1595 9.99694 49.4377 10.2359 50.6756L11.0271 50.5229C10.7979 49.335 10.6777 48.108 10.6777 46.8525H9.87186ZM9.87186 38.0605V46.8525H10.6777V38.0605H9.87186ZM29.9274 37.6576H10.2748V38.4635H29.9274V37.6576ZM30.3303 66.5051V38.0605H29.5245V66.5051H30.3303ZM17.1472 62.3093C20.6171 65.1816 25.0712 66.9081 29.9274 66.9081V66.1022C25.2656 66.1022 20.9918 64.4456 17.661 61.6885L17.1472 62.3093ZM1.92792 65.6086C8.62829 66.8269 14.1727 64.6358 17.6275 62.3342L17.1807 61.6636C13.8507 63.882 8.51577 65.9874 2.07208 64.8158L1.92792 65.6086ZM10.1306 50.4839C10.2568 55.0273 8.61843 58.4275 6.72782 60.7908C4.8293 63.1639 2.68461 64.4804 1.84128 64.8419L2.15872 65.5826C3.1255 65.1682 5.3768 63.7696 7.35708 61.2942C9.34528 58.809 11.0685 55.2273 10.9361 50.4616L10.1306 50.4839ZM10.9421 50.3426C10.9133 50.3077 10.8857 50.2721 10.8592 50.2358L10.2075 50.7097C10.2439 50.7597 10.2817 50.8084 10.3209 50.8559L10.9421 50.3426Z" fill="#2FCC59"/>
<rect x="29.9277" y="0.494629" width="202.42" height="66.0106" fill="#2FCC59"/>
<path d="M34.5327 23.8951V43H32.0383V23.8951H34.5327ZM48.3117 22.7164V43H45.8173V22.7164H48.3117ZM53.714 25.5397C53.2389 25.5397 52.8369 25.3752 52.508 25.0463C52.1791 24.7174 52.0146 24.3153 52.0146 23.8402C52.0146 23.3651 52.1791 22.9631 52.508 22.6342C52.8369 22.3053 53.2389 22.1408 53.714 22.1408C54.1709 22.1408 54.5546 22.3053 54.8653 22.6342C55.1942 22.9631 55.3587 23.3651 55.3587 23.8402C55.3587 24.3153 55.1942 24.7174 54.8653 25.0463C54.5546 25.3752 54.1709 25.5397 53.714 25.5397ZM54.9201 27.9792V43H52.4258V27.9792H54.9201ZM67.4217 43L61.5285 36.3667V43H59.0342V22.7164H61.5285V34.6399L67.3121 27.9792H70.7932L63.7214 35.4622L70.8206 43H67.4217ZM86.7089 34.914C86.7089 35.3891 86.6815 35.8916 86.6267 36.4215H74.621C74.7124 37.9017 75.2149 39.0621 76.1286 39.9026C77.0605 40.7249 78.1843 41.1361 79.5 41.1361C80.5782 41.1361 81.4736 40.8894 82.1862 40.396C82.9172 39.8844 83.4288 39.2082 83.7212 38.3677H86.4074C86.0054 39.8113 85.2014 40.9899 83.9953 41.9036C82.7893 42.799 81.2908 43.2467 79.5 43.2467C78.0747 43.2467 76.7955 42.9269 75.6626 42.2873C74.5479 41.6478 73.6708 40.7432 73.0312 39.5737C72.3916 38.3859 72.0718 37.0154 72.0718 35.4622C72.0718 33.9089 72.3825 32.5476 73.0038 31.3781C73.6251 30.2086 74.4931 29.3131 75.6078 28.6919C76.7407 28.0523 78.0381 27.7325 79.5 27.7325C80.9254 27.7325 82.1862 28.0431 83.2826 28.6644C84.379 29.2857 85.2196 30.1446 85.8044 31.241C86.4074 32.3191 86.7089 33.5435 86.7089 34.914ZM84.1324 34.3932C84.1324 33.443 83.9222 32.6298 83.5019 31.9537C83.0816 31.2593 82.506 30.7385 81.7751 30.3913C81.0624 30.0258 80.2675 29.8431 79.3904 29.8431C78.1295 29.8431 77.0514 30.2451 76.156 31.0491C75.2788 31.8532 74.7763 32.9678 74.6484 34.3932H84.1324ZM99.5292 30.775C100.041 29.8796 100.79 29.1487 101.777 28.5822C102.764 28.0157 103.887 27.7325 105.148 27.7325C106.501 27.7325 107.716 28.0523 108.794 28.6919C109.872 29.3314 110.722 30.236 111.343 31.4055C111.964 32.5567 112.275 33.8998 112.275 35.4348C112.275 36.9515 111.964 38.3037 111.343 39.4915C110.722 40.6793 109.863 41.6021 108.766 42.2599C107.688 42.9178 106.482 43.2467 105.148 43.2467C103.851 43.2467 102.709 42.9635 101.722 42.397C100.754 41.8305 100.023 41.1087 99.5292 40.2316V43H97.0349V22.7164H99.5292V30.775ZM109.726 35.4348C109.726 34.3018 109.497 33.315 109.041 32.4745C108.584 31.6339 107.962 30.9943 107.177 30.5557C106.409 30.1172 105.559 29.8979 104.628 29.8979C103.714 29.8979 102.864 30.1263 102.078 30.5832C101.311 31.0217 100.69 31.6704 100.214 32.5293C99.7576 33.3699 99.5292 34.3475 99.5292 35.4622C99.5292 36.5951 99.7576 37.591 100.214 38.4499C100.69 39.2905 101.311 39.9392 102.078 40.396C102.864 40.8346 103.714 41.0539 104.628 41.0539C105.559 41.0539 106.409 40.8346 107.177 40.396C107.962 39.9392 108.584 39.2905 109.041 38.4499C109.497 37.591 109.726 36.586 109.726 35.4348ZM128.743 27.9792V43H126.248V40.7798C125.773 41.5473 125.106 42.1503 124.247 42.5888C123.407 43.0091 122.475 43.2193 121.451 43.2193C120.282 43.2193 119.231 42.9817 118.299 42.5066C117.367 42.0132 116.627 41.2823 116.079 40.3138C115.549 39.3453 115.284 38.1667 115.284 36.7779V27.9792H117.751V36.449C117.751 37.9291 118.126 39.0712 118.875 39.8752C119.624 40.661 120.647 41.0539 121.945 41.0539C123.279 41.0539 124.329 40.6427 125.097 39.8204C125.864 38.9981 126.248 37.8012 126.248 36.2297V27.9792H128.743ZM135.311 30.4187C135.75 29.5598 136.371 28.8929 137.175 28.4177C137.998 27.9426 138.993 27.7051 140.163 27.7051V30.2816H139.505C136.709 30.2816 135.311 31.7983 135.311 34.8317V43H132.817V27.9792H135.311V30.4187ZM149.1 27.7325C150.397 27.7325 151.53 28.0157 152.499 28.5822C153.486 29.1487 154.217 29.8614 154.692 30.7202V27.9792H157.213V43.3289C157.213 44.6994 156.921 45.9146 156.336 46.9745C155.752 48.0526 154.911 48.8932 153.815 49.4962C152.736 50.0993 151.476 50.4008 150.032 50.4008C148.058 50.4008 146.414 49.9348 145.098 49.0028C143.782 48.0709 143.006 46.8009 142.768 45.1928H145.235C145.509 46.1065 146.076 46.8374 146.935 47.3856C147.793 47.9521 148.826 48.2354 150.032 48.2354C151.402 48.2354 152.517 47.8059 153.376 46.9471C154.253 46.0882 154.692 44.8822 154.692 43.3289V40.1767C154.198 41.0539 153.467 41.7848 152.499 42.3696C151.53 42.9543 150.397 43.2467 149.1 43.2467C147.766 43.2467 146.551 42.9178 145.454 42.2599C144.376 41.6021 143.527 40.6793 142.905 39.4915C142.284 38.3037 141.973 36.9515 141.973 35.4348C141.973 33.8998 142.284 32.5567 142.905 31.4055C143.527 30.236 144.376 29.3314 145.454 28.6919C146.551 28.0523 147.766 27.7325 149.1 27.7325ZM154.692 35.4622C154.692 34.3292 154.463 33.3425 154.006 32.5019C153.55 31.6613 152.928 31.0217 152.143 30.5832C151.375 30.1263 150.525 29.8979 149.593 29.8979C148.661 29.8979 147.812 30.1172 147.044 30.5557C146.277 30.9943 145.665 31.6339 145.208 32.4745C144.751 33.315 144.522 34.3018 144.522 35.4348C144.522 36.586 144.751 37.591 145.208 38.4499C145.665 39.2905 146.277 39.9392 147.044 40.396C147.812 40.8346 148.661 41.0539 149.593 41.0539C150.525 41.0539 151.375 40.8346 152.143 40.396C152.928 39.9392 153.55 39.2905 154.006 38.4499C154.463 37.591 154.692 36.5951 154.692 35.4622ZM174.997 34.914C174.997 35.3891 174.969 35.8916 174.914 36.4215H162.909C163 37.9017 163.503 39.0621 164.416 39.9026C165.348 40.7249 166.472 41.1361 167.788 41.1361C168.866 41.1361 169.761 40.8894 170.474 40.396C171.205 39.8844 171.717 39.2082 172.009 38.3677H174.695C174.293 39.8113 173.489 40.9899 172.283 41.9036C171.077 42.799 169.579 43.2467 167.788 43.2467C166.362 43.2467 165.083 42.9269 163.95 42.2873C162.836 41.6478 161.959 40.7432 161.319 39.5737C160.679 38.3859 160.36 37.0154 160.36 35.4622C160.36 33.9089 160.67 32.5476 161.292 31.3781C161.913 30.2086 162.781 29.3131 163.896 28.6919C165.028 28.0523 166.326 27.7325 167.788 27.7325C169.213 27.7325 170.474 28.0431 171.57 28.6644C172.667 29.2857 173.507 30.1446 174.092 31.241C174.695 32.3191 174.997 33.5435 174.997 34.914ZM172.42 34.3932C172.42 33.443 172.21 32.6298 171.79 31.9537C171.369 31.2593 170.794 30.7385 170.063 30.3913C169.35 30.0258 168.555 29.8431 167.678 29.8431C166.417 29.8431 165.339 30.2451 164.444 31.0491C163.567 31.8532 163.064 32.9678 162.936 34.3932H172.42ZM180.646 30.4187C181.085 29.5598 181.706 28.8929 182.51 28.4177C183.333 27.9426 184.329 27.7051 185.498 27.7051V30.2816H184.84C182.044 30.2816 180.646 31.7983 180.646 34.8317V43H178.152V27.9792H180.646V30.4187ZM193.558 43.2467C192.407 43.2467 191.374 43.0548 190.461 42.6711C189.547 42.2691 188.825 41.7209 188.295 41.0265C187.765 40.3138 187.473 39.5006 187.418 38.5869H189.995C190.068 39.3362 190.415 39.9483 191.036 40.4234C191.676 40.8985 192.507 41.1361 193.531 41.1361C194.481 41.1361 195.23 40.926 195.778 40.5057C196.326 40.0854 196.6 39.5554 196.6 38.9159C196.6 38.258 196.308 37.7738 195.723 37.4631C195.139 37.1342 194.234 36.8144 193.01 36.5038C191.895 36.2114 190.981 35.919 190.269 35.6266C189.574 35.316 188.971 34.8683 188.46 34.2835C187.966 33.6805 187.72 32.8948 187.72 31.9263C187.72 31.1588 187.948 30.4552 188.405 29.8157C188.862 29.1761 189.51 28.6736 190.351 28.3081C191.192 27.9244 192.151 27.7325 193.229 27.7325C194.892 27.7325 196.235 28.1528 197.258 28.9934C198.282 29.8339 198.83 30.9852 198.903 32.4471H196.409C196.354 31.6613 196.034 31.0309 195.449 30.5557C194.883 30.0806 194.115 29.8431 193.147 29.8431C192.251 29.8431 191.539 30.035 191.009 30.4187C190.479 30.8024 190.214 31.305 190.214 31.9263C190.214 32.4196 190.369 32.8308 190.68 33.1597C191.009 33.4704 191.411 33.7262 191.886 33.9272C192.379 34.1099 193.055 34.3201 193.914 34.5576C194.992 34.85 195.87 35.1424 196.546 35.4348C197.222 35.7089 197.797 36.1292 198.272 36.6956C198.766 37.2621 199.022 38.0022 199.04 38.9159C199.04 39.7382 198.812 40.4783 198.355 41.1361C197.898 41.7939 197.249 42.3147 196.409 42.6985C195.586 43.064 194.636 43.2467 193.558 43.2467ZM205.658 23.8951L205.357 37.6002H203.274L202.972 23.8951H205.658ZM204.425 43.1645C203.95 43.1645 203.548 43 203.219 42.6711C202.89 42.3422 202.726 41.9401 202.726 41.465C202.726 40.9899 202.89 40.5879 203.219 40.259C203.548 39.9301 203.95 39.7656 204.425 39.7656C204.882 39.7656 205.266 39.9301 205.576 40.259C205.905 40.5879 206.07 40.9899 206.07 41.465C206.07 41.9401 205.905 42.3422 205.576 42.6711C205.266 43 204.882 43.1645 204.425 43.1645Z" fill="white"/>
<rect x="29.9277" y="0.494629" width="202.42" height="66.0106" stroke="#2FCC59" stroke-width="0.805851"/>
<path d="M252 20.1473C252 9.29342 243.201 0.494629 232.347 0.494629V28.9392H252V20.1473Z" fill="#2FCC59" stroke="#2FCC59" stroke-width="0.805851"/>
<rect width="19.6526" height="9.12144" transform="matrix(-1 0 0 1 252 28.9392)" fill="#2FCC59" stroke="#2FCC59" stroke-width="0.805851"/>
<path d="M252 46.8527C252 57.7066 243.201 66.5054 232.347 66.5054V38.0608H252V46.8527Z" fill="#2FCC59" stroke="#2FCC59" stroke-width="0.805851"/>
</svg>
