<svg width="253" height="105" viewBox="0 0 253 105" fill="none" xmlns="http://www.w3.org/2000/svg">
<path d="M10.2744 20.6473C10.2744 9.79342 19.0732 0.994629 29.927 0.994629V0.994629V29.4392H10.2744V20.6473Z" fill="#2FCC59" stroke="#2FCC59" stroke-width="0.805851"/>
<rect x="10.2744" y="29.4392" width="19.6526" height="46.1214" fill="#2FCC59" stroke="#2FCC59" stroke-width="0.805851"/>
<path fill-rule="evenodd" clip-rule="evenodd" d="M10.6315 88.0993C10.3974 86.8864 10.2748 85.6338 10.2748 84.3525V75.5606H29.9274V104.005C25.1684 104.005 20.8045 102.314 17.4041 99.4989C14.0117 101.759 8.57206 103.907 2.00003 102.712C3.81014 101.936 10.792 97.2819 10.5334 87.9728C10.5648 88.0159 10.5975 88.0581 10.6315 88.0993Z" fill="#2FCC59"/>
<path d="M10.6315 88.0992L10.3209 88.3559L11.0271 88.0229L10.6315 88.0992ZM10.2748 75.5605V75.1576H9.87186V75.5605H10.2748ZM29.9274 75.5605H30.3303V75.1576H29.9274V75.5605ZM29.9274 104.005V104.408H30.3303V104.005H29.9274ZM17.4041 99.4989L17.661 99.1885L17.4301 98.9974L17.1807 99.1636L17.4041 99.4989ZM2 102.712L1.84128 102.342L0.610885 102.869L1.92792 103.109L2 102.712ZM10.5334 87.9727L10.8592 87.7358L10.0945 86.6843L10.1306 87.9839L10.5334 87.9727ZM9.87186 84.3525C9.87186 85.6595 9.99694 86.9377 10.2359 88.1756L11.0271 88.0229C10.7979 86.835 10.6777 85.608 10.6777 84.3525H9.87186ZM9.87186 75.5605V84.3525H10.6777V75.5605H9.87186ZM29.9274 75.1576H10.2748V75.9635H29.9274V75.1576ZM30.3303 104.005V75.5605H29.5245V104.005H30.3303ZM17.1472 99.8093C20.6171 102.682 25.0712 104.408 29.9274 104.408V103.602C25.2656 103.602 20.9918 101.946 17.661 99.1885L17.1472 99.8093ZM1.92792 103.109C8.62829 104.327 14.1727 102.136 17.6275 99.8342L17.1807 99.1636C13.8507 101.382 8.51577 103.487 2.07208 102.316L1.92792 103.109ZM10.1306 87.9839C10.2568 92.5273 8.61843 95.9275 6.72782 98.2908C4.8293 100.664 2.68461 101.98 1.84128 102.342L2.15872 103.083C3.1255 102.668 5.3768 101.27 7.35708 98.7942C9.34528 96.309 11.0685 92.7273 10.9361 87.9616L10.1306 87.9839ZM10.9421 87.8426C10.9133 87.8077 10.8857 87.7721 10.8592 87.7358L10.2075 88.2097C10.2439 88.2597 10.2817 88.3084 10.3209 88.3559L10.9421 87.8426Z" fill="#2FCC59"/>
<rect x="29.9277" y="0.994629" width="202.42" height="103.011" fill="#2FCC59"/>
<path d="M34.5327 24.3951V43.5H32.0383V24.3951H34.5327ZM65.8268 28.4792L61.1397 43.5H58.5631L54.9449 31.5765L51.3268 43.5H48.7502L44.0357 28.4792H46.5848L50.0385 41.0879L53.7663 28.4792H56.3155L59.961 41.1153L63.3599 28.4792H65.8268ZM67.2333 35.9348C67.2333 34.3998 67.5439 33.0567 68.1652 31.9055C68.7865 30.736 69.6363 29.8314 70.7144 29.1919C71.8108 28.5523 73.026 28.2325 74.36 28.2325C75.6757 28.2325 76.8177 28.5157 77.7862 29.0822C78.7547 29.6487 79.4765 30.3614 79.9516 31.2202V28.4792H82.4734V43.5H79.9516V40.7042C79.4583 41.5813 78.7182 42.3122 77.7314 42.897C76.7629 43.4635 75.63 43.7467 74.3325 43.7467C72.9986 43.7467 71.7925 43.4178 70.7144 42.7599C69.6363 42.1021 68.7865 41.1793 68.1652 39.9915C67.5439 38.8037 67.2333 37.4515 67.2333 35.9348ZM79.9516 35.9622C79.9516 34.8292 79.7232 33.8425 79.2664 33.0019C78.8096 32.1613 78.1883 31.5217 77.4025 31.0832C76.635 30.6263 75.7853 30.3979 74.8533 30.3979C73.9214 30.3979 73.0717 30.6172 72.3042 31.0557C71.5367 31.4943 70.9245 32.1339 70.4677 32.9745C70.0109 33.815 69.7824 34.8018 69.7824 35.9348C69.7824 37.086 70.0109 38.091 70.4677 38.9499C70.9245 39.7905 71.5367 40.4392 72.3042 40.896C73.0717 41.3346 73.9214 41.5539 74.8533 41.5539C75.7853 41.5539 76.635 41.3346 77.4025 40.896C78.1883 40.4392 78.8096 39.7905 79.2664 38.9499C79.7232 38.091 79.9516 37.0951 79.9516 35.9622ZM93.8701 28.2051C95.6974 28.2051 97.1776 28.7624 98.3105 29.8771C99.4435 30.9735 100.01 32.5633 100.01 34.6465V43.5H97.543V35.0028C97.543 33.5044 97.1684 32.3623 96.4192 31.5765C95.67 30.7725 94.6467 30.3705 93.3493 30.3705C92.0336 30.3705 90.9828 30.7816 90.1971 31.604C89.4296 32.4263 89.0459 33.6232 89.0459 35.1947V43.5H86.5515V28.4792H89.0459V30.6172C89.5392 29.8497 90.2062 29.2558 91.0468 28.8355C91.9057 28.4152 92.8467 28.2051 93.8701 28.2051ZM111.266 28.2051C113.093 28.2051 114.573 28.7624 115.706 29.8771C116.839 30.9735 117.406 32.5633 117.406 34.6465V43.5H114.939V35.0028C114.939 33.5044 114.564 32.3623 113.815 31.5765C113.066 30.7725 112.043 30.3705 110.745 30.3705C109.429 30.3705 108.379 30.7816 107.593 31.604C106.825 32.4263 106.442 33.6232 106.442 35.1947V43.5H103.947V28.4792H106.442V30.6172C106.935 29.8497 107.602 29.2558 108.443 28.8355C109.302 28.4152 110.243 28.2051 111.266 28.2051ZM120.411 35.9348C120.411 34.3998 120.722 33.0567 121.343 31.9055C121.965 30.736 122.814 29.8314 123.892 29.1919C124.989 28.5523 126.204 28.2325 127.538 28.2325C128.854 28.2325 129.996 28.5157 130.964 29.0822C131.933 29.6487 132.655 30.3614 133.13 31.2202V28.4792H135.651V43.5H133.13V40.7042C132.636 41.5813 131.896 42.3122 130.909 42.897C129.941 43.4635 128.808 43.7467 127.511 43.7467C126.177 43.7467 124.971 43.4178 123.892 42.7599C122.814 42.1021 121.965 41.1793 121.343 39.9915C120.722 38.8037 120.411 37.4515 120.411 35.9348ZM133.13 35.9622C133.13 34.8292 132.901 33.8425 132.444 33.0019C131.988 32.1613 131.366 31.5217 130.581 31.0832C129.813 30.6263 128.963 30.3979 128.031 30.3979C127.099 30.3979 126.25 30.6172 125.482 31.0557C124.715 31.4943 124.103 32.1339 123.646 32.9745C123.189 33.815 122.96 34.8018 122.96 35.9348C122.96 37.086 123.189 38.091 123.646 38.9499C124.103 39.7905 124.715 40.4392 125.482 40.896C126.25 41.3346 127.099 41.5539 128.031 41.5539C128.963 41.5539 129.813 41.3346 130.581 40.896C131.366 40.4392 131.988 39.7905 132.444 38.9499C132.901 38.091 133.13 37.0951 133.13 35.9622ZM149.394 31.275C149.906 30.3796 150.655 29.6487 151.642 29.0822C152.629 28.5157 153.753 28.2325 155.014 28.2325C156.366 28.2325 157.581 28.5523 158.659 29.1919C159.737 29.8314 160.587 30.736 161.208 31.9055C161.83 33.0567 162.14 34.3998 162.14 35.9348C162.14 37.4515 161.83 38.8037 161.208 39.9915C160.587 41.1793 159.728 42.1021 158.632 42.7599C157.554 43.4178 156.348 43.7467 155.014 43.7467C153.716 43.7467 152.574 43.4635 151.587 42.897C150.619 42.3305 149.888 41.6087 149.394 40.7316V43.5H146.9V23.2164H149.394V31.275ZM159.591 35.9348C159.591 34.8018 159.363 33.815 158.906 32.9745C158.449 32.1339 157.828 31.4943 157.042 31.0557C156.274 30.6172 155.425 30.3979 154.493 30.3979C153.579 30.3979 152.729 30.6263 151.944 31.0832C151.176 31.5217 150.555 32.1704 150.08 33.0293C149.623 33.8699 149.394 34.8475 149.394 35.9622C149.394 37.0951 149.623 38.091 150.08 38.9499C150.555 39.7905 151.176 40.4392 151.944 40.896C152.729 41.3346 153.579 41.5539 154.493 41.5539C155.425 41.5539 156.274 41.3346 157.042 40.896C157.828 40.4392 158.449 39.7905 158.906 38.9499C159.363 38.091 159.591 37.086 159.591 35.9348ZM178.992 35.414C178.992 35.8891 178.964 36.3916 178.909 36.9215H166.904C166.995 38.4017 167.497 39.5621 168.411 40.4026C169.343 41.2249 170.467 41.6361 171.783 41.6361C172.861 41.6361 173.756 41.3894 174.469 40.896C175.2 40.3844 175.711 39.7082 176.004 38.8677H178.69C178.288 40.3113 177.484 41.4899 176.278 42.4036C175.072 43.299 173.573 43.7467 171.783 43.7467C170.357 43.7467 169.078 43.4269 167.945 42.7873C166.83 42.1478 165.953 41.2432 165.314 40.0737C164.674 38.8859 164.354 37.5154 164.354 35.9622C164.354 34.4089 164.665 33.0476 165.286 31.8781C165.908 30.7086 166.776 29.8131 167.89 29.1919C169.023 28.5523 170.321 28.2325 171.783 28.2325C173.208 28.2325 174.469 28.5431 175.565 29.1644C176.662 29.7857 177.502 30.6446 178.087 31.741C178.69 32.8191 178.992 34.0435 178.992 35.414ZM176.415 34.8932C176.415 33.943 176.205 33.1298 175.785 32.4537C175.364 31.7593 174.789 31.2385 174.058 30.8913C173.345 30.5258 172.55 30.3431 171.673 30.3431C170.412 30.3431 169.334 30.7451 168.439 31.5491C167.561 32.3532 167.059 33.4678 166.931 34.8932H176.415ZM188.386 35.9348C188.386 34.3998 188.696 33.0567 189.317 31.9055C189.939 30.736 190.788 29.8314 191.867 29.1919C192.963 28.5523 194.178 28.2325 195.512 28.2325C196.828 28.2325 197.97 28.5157 198.938 29.0822C199.907 29.6487 200.629 30.3614 201.104 31.2202V28.4792H203.626V43.5H201.104V40.7042C200.61 41.5813 199.87 42.3122 198.884 42.897C197.915 43.4635 196.782 43.7467 195.485 43.7467C194.151 43.7467 192.945 43.4178 191.867 42.7599C190.788 42.1021 189.939 41.1793 189.317 39.9915C188.696 38.8037 188.386 37.4515 188.386 35.9348ZM201.104 35.9622C201.104 34.8292 200.875 33.8425 200.419 33.0019C199.962 32.1613 199.34 31.5217 198.555 31.0832C197.787 30.6263 196.938 30.3979 196.006 30.3979C195.074 30.3979 194.224 30.6172 193.456 31.0557C192.689 31.4943 192.077 32.1339 191.62 32.9745C191.163 33.815 190.935 34.8018 190.935 35.9348C190.935 37.086 191.163 38.091 191.62 38.9499C192.077 39.7905 192.689 40.4392 193.456 40.896C194.224 41.3346 195.074 41.5539 196.006 41.5539C196.938 41.5539 197.787 41.3346 198.555 40.896C199.34 40.4392 199.962 39.7905 200.419 38.9499C200.875 38.091 201.104 37.0951 201.104 35.9622ZM37.9863 61.3951C40.0695 61.3951 41.8695 61.7879 43.3862 62.5737C44.9211 63.3412 46.0906 64.4467 46.8947 65.8903C47.717 67.3339 48.1281 69.0334 48.1281 70.9886C48.1281 72.9439 47.717 74.6433 46.8947 76.0869C46.0906 77.5123 44.9211 78.6087 43.3862 79.3762C41.8695 80.1254 40.0695 80.5 37.9863 80.5H32.0383V61.3951H37.9863ZM37.9863 78.4442C40.4533 78.4442 42.3354 77.7955 43.6329 76.4981C44.9303 75.1824 45.579 73.3459 45.579 70.9886C45.579 68.6131 44.9211 66.7583 43.6054 65.4244C42.308 64.0904 40.435 63.4234 37.9863 63.4234H34.5327V78.4442H37.9863ZM50.3492 72.9348C50.3492 71.3998 50.6599 70.0567 51.2812 68.9055C51.9025 67.736 52.7522 66.8314 53.8303 66.1919C54.9267 65.5523 56.1419 65.2325 57.4759 65.2325C58.7916 65.2325 59.9337 65.5157 60.9022 66.0822C61.8707 66.6487 62.5925 67.3614 63.0676 68.2202V65.4792H65.5893V80.5H63.0676V77.7042C62.5742 78.5813 61.8341 79.3122 60.8474 79.897C59.8789 80.4635 58.7459 80.7467 57.4485 80.7467C56.1145 80.7467 54.9085 80.4178 53.8303 79.7599C52.7522 79.1021 51.9025 78.1793 51.2812 76.9915C50.6599 75.8037 50.3492 74.4515 50.3492 72.9348ZM63.0676 72.9622C63.0676 71.8292 62.8392 70.8425 62.3823 70.0019C61.9255 69.1613 61.3042 68.5217 60.5184 68.0832C59.7509 67.6263 58.9012 67.3979 57.9693 67.3979C57.0373 67.3979 56.1876 67.6172 55.4201 68.0557C54.6526 68.4943 54.0405 69.1339 53.5836 69.9745C53.1268 70.815 52.8984 71.8018 52.8984 72.9348C52.8984 74.086 53.1268 75.091 53.5836 75.9499C54.0405 76.7905 54.6526 77.4392 55.4201 77.896C56.1876 78.3346 57.0373 78.5539 57.9693 78.5539C58.9012 78.5539 59.7509 78.3346 60.5184 77.896C61.3042 77.4392 61.9255 76.7905 62.3823 75.9499C62.8392 75.091 63.0676 74.0951 63.0676 72.9622ZM72.71 67.535V76.3885C72.71 77.1194 72.8653 77.6402 73.176 77.9508C73.4866 78.2432 74.0257 78.3894 74.7932 78.3894H76.6297V80.5H74.382C72.9932 80.5 71.9516 80.1802 71.2572 79.5406C70.5629 78.9011 70.2157 77.8503 70.2157 76.3885V67.535H68.2695V65.4792H70.2157V61.6966H72.71V65.4792H76.6297V67.535H72.71ZM78.5828 72.9348C78.5828 71.3998 78.8935 70.0567 79.5148 68.9055C80.1361 67.736 80.9858 66.8314 82.064 66.1919C83.1604 65.5523 84.3755 65.2325 85.7095 65.2325C87.0252 65.2325 88.1673 65.5157 89.1358 66.0822C90.1043 66.6487 90.8261 67.3614 91.3012 68.2202V65.4792H93.8229V80.5H91.3012V77.7042C90.8078 78.5813 90.0677 79.3122 89.081 79.897C88.1125 80.4635 86.9795 80.7467 85.6821 80.7467C84.3481 80.7467 83.1421 80.4178 82.064 79.7599C80.9858 79.1021 80.1361 78.1793 79.5148 76.9915C78.8935 75.8037 78.5828 74.4515 78.5828 72.9348ZM91.3012 72.9622C91.3012 71.8292 91.0728 70.8425 90.6159 70.0019C90.1591 69.1613 89.5378 68.5217 88.7521 68.0832C87.9846 67.6263 87.1348 67.3979 86.2029 67.3979C85.271 67.3979 84.4212 67.6172 83.6537 68.0557C82.8863 68.4943 82.2741 69.1339 81.8173 69.9745C81.3604 70.815 81.132 71.8018 81.132 72.9348C81.132 74.086 81.3604 75.091 81.8173 75.9499C82.2741 76.7905 82.8863 77.4392 83.6537 77.896C84.4212 78.3346 85.271 78.5539 86.2029 78.5539C87.1348 78.5539 87.9846 78.3346 88.7521 77.896C89.5378 77.4392 90.1591 76.7905 90.6159 75.9499C91.0728 75.091 91.3012 74.0951 91.3012 72.9622ZM111.129 80.6919C109.868 80.6919 108.735 80.4726 107.73 80.034C106.744 79.5772 105.967 78.9559 105.401 78.1701C104.834 77.3661 104.542 76.4433 104.523 75.4017H107.182C107.274 76.2971 107.639 77.0554 108.279 77.6767C108.936 78.2798 109.887 78.5813 111.129 78.5813C112.317 78.5813 113.249 78.2889 113.925 77.7042C114.62 77.1011 114.967 76.3336 114.967 75.4017C114.967 74.6708 114.766 74.0769 114.364 73.62C113.962 73.1632 113.459 72.816 112.856 72.5784C112.253 72.3409 111.44 72.0851 110.417 71.811C109.156 71.482 108.142 71.1531 107.374 70.8242C106.625 70.4953 105.976 69.9836 105.428 69.2892C104.898 68.5765 104.633 67.6263 104.633 66.4385C104.633 65.397 104.898 64.4741 105.428 63.6701C105.958 62.8661 106.698 62.2448 107.648 61.8062C108.617 61.3676 109.722 61.1484 110.965 61.1484C112.756 61.1484 114.218 61.5961 115.35 62.4915C116.502 63.3869 117.15 64.5746 117.297 66.0548H114.556C114.464 65.3239 114.08 64.6843 113.404 64.1361C112.728 63.5696 111.833 63.2864 110.718 63.2864C109.677 63.2864 108.827 63.5605 108.169 64.1087C107.511 64.6386 107.182 65.3878 107.182 66.3563C107.182 67.0507 107.374 67.6172 107.758 68.0557C108.16 68.4943 108.644 68.8324 109.211 69.0699C109.795 69.2892 110.609 69.545 111.65 69.8374C112.911 70.1846 113.925 70.5318 114.693 70.879C115.46 71.2079 116.118 71.7287 116.666 72.4414C117.214 73.1358 117.488 74.086 117.488 75.2921C117.488 76.224 117.242 77.1011 116.748 77.9234C116.255 78.7457 115.524 79.4127 114.556 79.9244C113.587 80.436 112.445 80.6919 111.129 80.6919ZM120.09 72.9622C120.09 71.4089 120.401 70.0567 121.022 68.9055C121.643 67.736 122.502 66.8314 123.599 66.1919C124.713 65.5523 125.983 65.2325 127.409 65.2325C129.254 65.2325 130.771 65.6802 131.959 66.5756C133.165 67.471 133.96 68.7136 134.343 70.3034H131.657C131.401 69.3897 130.899 68.6679 130.15 68.138C129.419 67.608 128.505 67.3431 127.409 67.3431C125.983 67.3431 124.832 67.8365 123.955 68.8232C123.078 69.7917 122.639 71.1714 122.639 72.9622C122.639 74.7713 123.078 76.1692 123.955 77.1559C124.832 78.1427 125.983 78.6361 127.409 78.6361C128.505 78.6361 129.419 78.3803 130.15 77.8686C130.881 77.357 131.383 76.626 131.657 75.6758H134.343C133.941 77.2108 133.137 78.4442 131.931 79.3762C130.725 80.2899 129.218 80.7467 127.409 80.7467C125.983 80.7467 124.713 80.4269 123.599 79.7873C122.502 79.1478 121.643 78.2432 121.022 77.0737C120.401 75.9042 120.09 74.5337 120.09 72.9622ZM138.823 63.0397C138.348 63.0397 137.946 62.8752 137.617 62.5463C137.288 62.2174 137.123 61.8153 137.123 61.3402C137.123 60.8651 137.288 60.4631 137.617 60.1342C137.946 59.8053 138.348 59.6408 138.823 59.6408C139.28 59.6408 139.663 59.8053 139.974 60.1342C140.303 60.4631 140.467 60.8651 140.467 61.3402C140.467 61.8153 140.303 62.2174 139.974 62.5463C139.663 62.8752 139.28 63.0397 138.823 63.0397ZM140.029 65.4792V80.5H137.535V65.4792H140.029ZM157.848 72.414C157.848 72.8891 157.821 73.3916 157.766 73.9215H145.76C145.852 75.4017 146.354 76.5621 147.268 77.4026C148.2 78.2249 149.324 78.6361 150.639 78.6361C151.717 78.6361 152.613 78.3894 153.325 77.896C154.056 77.3844 154.568 76.7082 154.86 75.8677H157.547C157.145 77.3113 156.341 78.4899 155.135 79.4036C153.928 80.299 152.43 80.7467 150.639 80.7467C149.214 80.7467 147.935 80.4269 146.802 79.7873C145.687 79.1478 144.81 78.2432 144.17 77.0737C143.531 75.8859 143.211 74.5154 143.211 72.9622C143.211 71.4089 143.522 70.0476 144.143 68.8781C144.764 67.7086 145.632 66.8131 146.747 66.1919C147.88 65.5523 149.177 65.2325 150.639 65.2325C152.065 65.2325 153.325 65.5431 154.422 66.1644C155.518 66.7857 156.359 67.6446 156.944 68.741C157.547 69.8191 157.848 71.0435 157.848 72.414ZM155.272 71.8932C155.272 70.943 155.061 70.1298 154.641 69.4537C154.221 68.7593 153.645 68.2385 152.914 67.8913C152.202 67.5258 151.407 67.3431 150.53 67.3431C149.269 67.3431 148.191 67.7451 147.295 68.5491C146.418 69.3532 145.916 70.4678 145.788 71.8932H155.272ZM168.322 65.2051C170.149 65.2051 171.63 65.7624 172.763 66.8771C173.895 67.9735 174.462 69.5633 174.462 71.6465V80.5H171.995V72.0028C171.995 70.5044 171.62 69.3623 170.871 68.5765C170.122 67.7725 169.099 67.3705 167.801 67.3705C166.486 67.3705 165.435 67.7816 164.649 68.604C163.882 69.4263 163.498 70.6232 163.498 72.1947V80.5H161.004V65.4792H163.498V67.6172C163.991 66.8497 164.658 66.2558 165.499 65.8355C166.358 65.4152 167.299 65.2051 168.322 65.2051ZM181.442 67.535V76.3885C181.442 77.1194 181.597 77.6402 181.908 77.9508C182.219 78.2432 182.758 78.3894 183.525 78.3894H185.362V80.5H183.114C181.725 80.5 180.684 80.1802 179.989 79.5406C179.295 78.9011 178.948 77.8503 178.948 76.3885V67.535H177.001V65.4792H178.948V61.6966H181.442V65.4792H185.362V67.535H181.442ZM189.535 63.0397C189.06 63.0397 188.658 62.8752 188.329 62.5463C188 62.2174 187.836 61.8153 187.836 61.3402C187.836 60.8651 188 60.4631 188.329 60.1342C188.658 59.8053 189.06 59.6408 189.535 59.6408C189.992 59.6408 190.376 59.8053 190.686 60.1342C191.015 60.4631 191.18 60.8651 191.18 61.3402C191.18 61.8153 191.015 62.2174 190.686 62.5463C190.376 62.8752 189.992 63.0397 189.535 63.0397ZM190.741 65.4792V80.5H188.247V65.4792H190.741ZM200.173 80.7467C199.022 80.7467 197.989 80.5548 197.075 80.1711C196.162 79.7691 195.44 79.2209 194.91 78.5265C194.38 77.8138 194.088 77.0006 194.033 76.0869H196.609C196.683 76.8362 197.03 77.4483 197.651 77.9234C198.291 78.3985 199.122 78.6361 200.145 78.6361C201.096 78.6361 201.845 78.426 202.393 78.0057C202.941 77.5854 203.215 77.0554 203.215 76.4159C203.215 75.758 202.923 75.2738 202.338 74.9631C201.753 74.6342 200.849 74.3144 199.625 74.0038C198.51 73.7114 197.596 73.419 196.884 73.1266C196.189 72.816 195.586 72.3683 195.074 71.7835C194.581 71.1805 194.334 70.3948 194.334 69.4263C194.334 68.6588 194.563 67.9552 195.02 67.3157C195.476 66.6761 196.125 66.1736 196.966 65.8081C197.806 65.4244 198.766 65.2325 199.844 65.2325C201.507 65.2325 202.85 65.6528 203.873 66.4934C204.896 67.3339 205.445 68.4852 205.518 69.9471H203.023C202.969 69.1613 202.649 68.5309 202.064 68.0557C201.498 67.5806 200.73 67.3431 199.762 67.3431C198.866 67.3431 198.154 67.535 197.624 67.9187C197.094 68.3024 196.829 68.805 196.829 69.4263C196.829 69.9196 196.984 70.3308 197.295 70.6597C197.624 70.9704 198.026 71.2262 198.501 71.4272C198.994 71.6099 199.67 71.8201 200.529 72.0576C201.607 72.35 202.484 72.6424 203.16 72.9348C203.837 73.2089 204.412 73.6292 204.887 74.1956C205.381 74.7621 205.637 75.5022 205.655 76.4159C205.655 77.2382 205.426 77.9783 204.97 78.6361C204.513 79.2939 203.864 79.8147 203.023 80.1985C202.201 80.564 201.251 80.7467 200.173 80.7467ZM212.081 67.535V76.3885C212.081 77.1194 212.237 77.6402 212.547 77.9508C212.858 78.2432 213.397 78.3894 214.165 78.3894H216.001V80.5H213.753C212.365 80.5 211.323 80.1802 210.629 79.5406C209.934 78.9011 209.587 77.8503 209.587 76.3885V67.535H207.641V65.4792H209.587V61.6966H212.081V65.4792H216.001V67.535H212.081Z" fill="white"/>
<rect x="29.9277" y="0.994629" width="202.42" height="103.011" stroke="#2FCC59" stroke-width="0.805851"/>
<path d="M252 20.6473C252 9.79342 243.201 0.994629 232.347 0.994629V0.994629V29.4392H252V20.6473Z" fill="#2FCC59" stroke="#2FCC59" stroke-width="0.805851"/>
<rect width="19.6526" height="46.1214" transform="matrix(-1 0 0 1 252 29.4392)" fill="#2FCC59" stroke="#2FCC59" stroke-width="0.805851"/>
<path d="M252 84.3527C252 95.2066 243.201 104.005 232.347 104.005V104.005V75.5608H252V84.3527Z" fill="#2FCC59" stroke="#2FCC59" stroke-width="0.805851"/>
</svg>
