<svg width="253" height="67" viewBox="0 0 253 67" fill="none" xmlns="http://www.w3.org/2000/svg">
<path d="M10.2744 20.1473C10.2744 9.29342 19.0732 0.494629 29.927 0.494629V0.494629V28.9392H10.2744V20.1473Z" fill="#278EFF" stroke="#278EFF" stroke-width="0.805851"/>
<rect x="10.2744" y="28.9392" width="19.6526" height="9.12144" fill="#278EFF" stroke="#278EFF" stroke-width="0.805851"/>
<path fill-rule="evenodd" clip-rule="evenodd" d="M10.6315 50.5993C10.3974 49.3864 10.2748 48.1338 10.2748 46.8525V38.0606H29.9274V66.5052C25.1684 66.5052 20.8045 64.8136 17.4041 61.9989C14.0117 64.2589 8.57206 66.4072 2.00003 65.2122C3.81014 64.4365 10.792 59.7819 10.5334 50.4728C10.5648 50.5159 10.5975 50.5581 10.6315 50.5993Z" fill="#278EFF"/>
<path d="M10.6315 50.5992L10.3209 50.8559L11.0271 50.5229L10.6315 50.5992ZM10.2748 38.0605V37.6576H9.87186V38.0605H10.2748ZM29.9274 38.0605H30.3303V37.6576H29.9274V38.0605ZM29.9274 66.5051V66.9081H30.3303V66.5051H29.9274ZM17.4041 61.9989L17.661 61.6885L17.4301 61.4974L17.1807 61.6636L17.4041 61.9989ZM2 65.2122L1.84128 64.8419L0.610885 65.3692L1.92792 65.6086L2 65.2122ZM10.5334 50.4727L10.8592 50.2358L10.0945 49.1843L10.1306 50.4839L10.5334 50.4727ZM9.87186 46.8525C9.87186 48.1595 9.99694 49.4377 10.2359 50.6756L11.0271 50.5229C10.7979 49.335 10.6777 48.108 10.6777 46.8525H9.87186ZM9.87186 38.0605V46.8525H10.6777V38.0605H9.87186ZM29.9274 37.6576H10.2748V38.4635H29.9274V37.6576ZM30.3303 66.5051V38.0605H29.5245V66.5051H30.3303ZM17.1472 62.3093C20.6171 65.1816 25.0712 66.9081 29.9274 66.9081V66.1022C25.2656 66.1022 20.9918 64.4456 17.661 61.6885L17.1472 62.3093ZM1.92792 65.6086C8.62829 66.8269 14.1727 64.6358 17.6275 62.3342L17.1807 61.6636C13.8507 63.882 8.51577 65.9874 2.07208 64.8158L1.92792 65.6086ZM10.1306 50.4839C10.2568 55.0273 8.61843 58.4275 6.72782 60.7908C4.8293 63.1639 2.68461 64.4804 1.84128 64.8419L2.15872 65.5826C3.1255 65.1682 5.3768 63.7696 7.35708 61.2942C9.34528 58.809 11.0685 55.2273 10.9361 50.4616L10.1306 50.4839ZM10.9421 50.3426C10.9133 50.3077 10.8857 50.2721 10.8592 50.2358L10.2075 50.7097C10.2439 50.7597 10.2817 50.8084 10.3209 50.8559L10.9421 50.3426Z" fill="#278EFF"/>
<rect x="29.9277" y="0.494629" width="202.42" height="66.0106" fill="#278EFF"/>
<path d="M46.7576 23.8951V43H44.2633V34.3384H34.5327V43H32.0383V23.8951H34.5327V32.2826H44.2633V23.8951H46.7576ZM52.1679 25.5397C51.6928 25.5397 51.2908 25.3752 50.9619 25.0463C50.633 24.7174 50.4685 24.3153 50.4685 23.8402C50.4685 23.3651 50.633 22.9631 50.9619 22.6342C51.2908 22.3053 51.6928 22.1408 52.1679 22.1408C52.6248 22.1408 53.0085 22.3053 53.3192 22.6342C53.6481 22.9631 53.8126 23.3651 53.8126 23.8402C53.8126 24.3153 53.6481 24.7174 53.3192 25.0463C53.0085 25.3752 52.6248 25.5397 52.1679 25.5397ZM53.374 27.9792V43H50.8797V27.9792H53.374ZM60.0647 39.5463L56.9947 46.9197H55.3227L57.3236 39.5463H60.0647ZM89.965 27.9792L85.2778 43H82.7012L79.0831 31.0765L75.4649 43H72.8884L68.1738 27.9792H70.723L74.1767 40.5879L77.9044 27.9792H80.4536L84.0992 40.6153L87.498 27.9792H89.965ZM99.759 27.7051C100.892 27.7051 101.915 27.9518 102.829 28.4452C103.743 28.9203 104.455 29.6421 104.967 30.6106C105.497 31.5791 105.762 32.7577 105.762 34.1465V43H103.295V34.5028C103.295 33.0044 102.92 31.8623 102.171 31.0765C101.422 30.2725 100.399 29.8705 99.1011 29.8705C97.7854 29.8705 96.7347 30.2816 95.949 31.104C95.1815 31.9263 94.7977 33.1232 94.7977 34.6947V43H92.3034V22.7164H94.7977V30.1172C95.2911 29.3497 95.9672 28.7558 96.8261 28.3355C97.7032 27.9152 98.6808 27.7051 99.759 27.7051ZM108.767 35.4348C108.767 33.8998 109.078 32.5567 109.699 31.4055C110.321 30.236 111.17 29.3314 112.248 28.6919C113.345 28.0523 114.56 27.7325 115.894 27.7325C117.21 27.7325 118.352 28.0157 119.32 28.5822C120.289 29.1487 121.011 29.8614 121.486 30.7202V27.9792H124.007V43H121.486V40.2042C120.992 41.0813 120.252 41.8122 119.265 42.397C118.297 42.9635 117.164 43.2467 115.867 43.2467C114.533 43.2467 113.327 42.9178 112.248 42.2599C111.17 41.6021 110.321 40.6793 109.699 39.4915C109.078 38.3037 108.767 36.9515 108.767 35.4348ZM121.486 35.4622C121.486 34.3292 121.257 33.3425 120.8 32.5019C120.344 31.6613 119.722 31.0217 118.937 30.5832C118.169 30.1263 117.319 29.8979 116.387 29.8979C115.455 29.8979 114.606 30.1172 113.838 30.5557C113.071 30.9943 112.459 31.6339 112.002 32.4745C111.545 33.315 111.316 34.3018 111.316 35.4348C111.316 36.586 111.545 37.591 112.002 38.4499C112.459 39.2905 113.071 39.9392 113.838 40.396C114.606 40.8346 115.455 41.0539 116.387 41.0539C117.319 41.0539 118.169 40.8346 118.937 40.396C119.722 39.9392 120.344 39.2905 120.8 38.4499C121.257 37.591 121.486 36.5951 121.486 35.4622ZM131.128 30.035V38.8885C131.128 39.6194 131.283 40.1402 131.594 40.4508C131.905 40.7432 132.444 40.8894 133.211 40.8894H135.048V43H132.8C131.411 43 130.37 42.6802 129.675 42.0406C128.981 41.4011 128.634 40.3503 128.634 38.8885V30.035H126.688V27.9792H128.634V24.1966H131.128V27.9792H135.048V30.035H131.128ZM138.317 23.8951H141.085L138.454 30.1172H136.699L138.317 23.8951ZM149.109 43.2467C147.958 43.2467 146.926 43.0548 146.012 42.6711C145.098 42.2691 144.377 41.7209 143.847 41.0265C143.317 40.3138 143.024 39.5006 142.97 38.5869H145.546C145.619 39.3362 145.966 39.9483 146.588 40.4234C147.227 40.8985 148.059 41.1361 149.082 41.1361C150.032 41.1361 150.781 40.926 151.33 40.5057C151.878 40.0854 152.152 39.5554 152.152 38.9159C152.152 38.258 151.86 37.7738 151.275 37.4631C150.69 37.1342 149.786 36.8144 148.561 36.5038C147.447 36.2114 146.533 35.919 145.82 35.6266C145.126 35.316 144.523 34.8683 144.011 34.2835C143.518 33.6805 143.271 32.8948 143.271 31.9263C143.271 31.1588 143.499 30.4552 143.956 29.8157C144.413 29.1761 145.062 28.6736 145.902 28.3081C146.743 27.9244 147.702 27.7325 148.78 27.7325C150.443 27.7325 151.786 28.1528 152.81 28.9934C153.833 29.8339 154.381 30.9852 154.454 32.4471H151.96C151.905 31.6613 151.585 31.0309 151.001 30.5557C150.434 30.0806 149.667 29.8431 148.698 29.8431C147.803 29.8431 147.09 30.035 146.56 30.4187C146.03 30.8024 145.765 31.305 145.765 31.9263C145.765 32.4196 145.921 32.8308 146.231 33.1597C146.56 33.4704 146.962 33.7262 147.437 33.9272C147.931 34.1099 148.607 34.3201 149.466 34.5576C150.544 34.85 151.421 35.1424 152.097 35.4348C152.773 35.7089 153.349 36.1292 153.824 36.6956C154.317 37.2621 154.573 38.0022 154.591 38.9159C154.591 39.7382 154.363 40.4783 153.906 41.1361C153.449 41.7939 152.801 42.3147 151.96 42.6985C151.138 43.064 150.188 43.2467 149.109 43.2467ZM178.468 27.9792V43H175.973V40.7798C175.498 41.5473 174.831 42.1503 173.972 42.5888C173.132 43.0091 172.2 43.2193 171.176 43.2193C170.007 43.2193 168.956 42.9817 168.024 42.5066C167.092 42.0132 166.352 41.2823 165.804 40.3138C165.274 39.3453 165.009 38.1667 165.009 36.7779V27.9792H167.476V36.449C167.476 37.9291 167.851 39.0712 168.6 39.8752C169.349 40.661 170.372 41.0539 171.67 41.0539C173.004 41.0539 174.054 40.6427 174.822 39.8204C175.589 38.9981 175.973 37.8012 175.973 36.2297V27.9792H178.468ZM185.036 30.7476C185.53 29.8888 186.261 29.1761 187.229 28.6096C188.216 28.0249 189.358 27.7325 190.655 27.7325C191.989 27.7325 193.195 28.0523 194.274 28.6919C195.37 29.3314 196.229 30.236 196.85 31.4055C197.471 32.5567 197.782 33.8998 197.782 35.4348C197.782 36.9515 197.471 38.3037 196.85 39.4915C196.229 40.6793 195.37 41.6021 194.274 42.2599C193.195 42.9178 191.989 43.2467 190.655 43.2467C189.376 43.2467 188.243 42.9635 187.257 42.397C186.288 41.8122 185.548 41.0904 185.036 40.2316V50.1267H182.542V27.9792H185.036V30.7476ZM195.233 35.4348C195.233 34.3018 195.005 33.315 194.548 32.4745C194.091 31.6339 193.47 30.9943 192.684 30.5557C191.916 30.1172 191.067 29.8979 190.135 29.8979C189.221 29.8979 188.371 30.1263 187.585 30.5832C186.818 31.0217 186.197 31.6704 185.722 32.5293C185.265 33.3699 185.036 34.3475 185.036 35.4622C185.036 36.5951 185.265 37.591 185.722 38.4499C186.197 39.2905 186.818 39.9392 187.585 40.396C188.371 40.8346 189.221 41.0539 190.135 41.0539C191.067 41.0539 191.916 40.8346 192.684 40.396C193.47 39.9392 194.091 39.2905 194.548 38.4499C195.005 37.591 195.233 36.586 195.233 35.4348ZM204.163 23.8951L203.861 37.6002H201.778L201.476 23.8951H204.163ZM202.929 43.1645C202.454 43.1645 202.052 43 201.723 42.6711C201.394 42.3422 201.23 41.9401 201.23 41.465C201.23 40.9899 201.394 40.5879 201.723 40.259C202.052 39.9301 202.454 39.7656 202.929 39.7656C203.386 39.7656 203.77 39.9301 204.08 40.259C204.409 40.5879 204.574 40.9899 204.574 41.465C204.574 41.9401 204.409 42.3422 204.08 42.6711C203.77 43 203.386 43.1645 202.929 43.1645Z" fill="white"/>
<rect x="29.9277" y="0.494629" width="202.42" height="66.0106" stroke="#278EFF" stroke-width="0.805851"/>
<path d="M252 20.1473C252 9.29342 243.201 0.494629 232.347 0.494629V0.494629V28.9392H252V20.1473Z" fill="#278EFF" stroke="#278EFF" stroke-width="0.805851"/>
<rect width="19.6526" height="9.12144" transform="matrix(-1 0 0 1 252 28.9392)" fill="#278EFF" stroke="#278EFF" stroke-width="0.805851"/>
<path d="M252 46.8527C252 57.7066 243.201 66.5054 232.347 66.5054V66.5054V38.0608H252V46.8527Z" fill="#278EFF" stroke="#278EFF" stroke-width="0.805851"/>
</svg>
