<svg width="253" height="67" viewBox="0 0 253 67" fill="none" xmlns="http://www.w3.org/2000/svg">
<path d="M10.2744 20.1473C10.2744 9.29342 19.0732 0.494629 29.927 0.494629V0.494629V28.9392H10.2744V20.1473Z" fill="#2FCC59" stroke="#2FCC59" stroke-width="0.805851"/>
<rect x="10.2744" y="28.9392" width="19.6526" height="9.12144" fill="#2FCC59" stroke="#2FCC59" stroke-width="0.805851"/>
<path fill-rule="evenodd" clip-rule="evenodd" d="M10.6315 50.5993C10.3974 49.3864 10.2748 48.1338 10.2748 46.8525V38.0606H29.9274V66.5052C25.1684 66.5052 20.8045 64.8136 17.4041 61.9989C14.0117 64.2589 8.57206 66.4072 2.00003 65.2122C3.81014 64.4365 10.792 59.7819 10.5334 50.4728C10.5648 50.5159 10.5975 50.5581 10.6315 50.5993Z" fill="#2FCC59"/>
<path d="M10.6315 50.5992L10.3209 50.8559L11.0271 50.5229L10.6315 50.5992ZM10.2748 38.0605V37.6576H9.87186V38.0605H10.2748ZM29.9274 38.0605H30.3303V37.6576H29.9274V38.0605ZM29.9274 66.5051V66.9081H30.3303V66.5051H29.9274ZM17.4041 61.9989L17.661 61.6885L17.4301 61.4974L17.1807 61.6636L17.4041 61.9989ZM2 65.2122L1.84128 64.8419L0.610885 65.3692L1.92792 65.6086L2 65.2122ZM10.5334 50.4727L10.8592 50.2358L10.0945 49.1843L10.1306 50.4839L10.5334 50.4727ZM9.87186 46.8525C9.87186 48.1595 9.99694 49.4377 10.2359 50.6756L11.0271 50.5229C10.7979 49.335 10.6777 48.108 10.6777 46.8525H9.87186ZM9.87186 38.0605V46.8525H10.6777V38.0605H9.87186ZM29.9274 37.6576H10.2748V38.4635H29.9274V37.6576ZM30.3303 66.5051V38.0605H29.5245V66.5051H30.3303ZM17.1472 62.3093C20.6171 65.1816 25.0712 66.9081 29.9274 66.9081V66.1022C25.2656 66.1022 20.9918 64.4456 17.661 61.6885L17.1472 62.3093ZM1.92792 65.6086C8.62829 66.8269 14.1727 64.6358 17.6275 62.3342L17.1807 61.6636C13.8507 63.882 8.51577 65.9874 2.07208 64.8158L1.92792 65.6086ZM10.1306 50.4839C10.2568 55.0273 8.61843 58.4275 6.72782 60.7908C4.8293 63.1639 2.68461 64.4804 1.84128 64.8419L2.15872 65.5826C3.1255 65.1682 5.3768 63.7696 7.35708 61.2942C9.34528 58.809 11.0685 55.2273 10.9361 50.4616L10.1306 50.4839ZM10.9421 50.3426C10.9133 50.3077 10.8857 50.2721 10.8592 50.2358L10.2075 50.7097C10.2439 50.7597 10.2817 50.8084 10.3209 50.8559L10.9421 50.3426Z" fill="#2FCC59"/>
<rect x="29.9277" y="0.494629" width="202.42" height="66.0106" fill="#2FCC59"/>
<path d="M45.4145 23.8951L39.1924 35.7911V43H36.6981V35.7911L30.4485 23.8951H33.217L37.9315 33.5709L42.6461 23.8951H45.4145ZM54.4595 43.2467C53.0524 43.2467 51.7733 42.9269 50.622 42.2873C49.4891 41.6478 48.5937 40.7432 47.9358 39.5737C47.2963 38.3859 46.9765 37.0154 46.9765 35.4622C46.9765 33.9272 47.3054 32.575 47.9632 31.4055C48.6394 30.2177 49.553 29.3131 50.7043 28.6919C51.8555 28.0523 53.1438 27.7325 54.5691 27.7325C55.9945 27.7325 57.2827 28.0523 58.434 28.6919C59.5852 29.3131 60.4897 30.2086 61.1476 31.3781C61.8237 32.5476 62.1618 33.9089 62.1618 35.4622C62.1618 37.0154 61.8146 38.3859 61.1202 39.5737C60.444 40.7432 59.5212 41.6478 58.3517 42.2873C57.1822 42.9269 55.8848 43.2467 54.4595 43.2467ZM54.4595 41.0539C55.3549 41.0539 56.1955 40.8437 56.9812 40.4234C57.767 40.0031 58.3974 39.3727 58.8725 38.5321C59.3659 37.6915 59.6126 36.6682 59.6126 35.4622C59.6126 34.2561 59.375 33.2328 58.8999 32.3922C58.4248 31.5517 57.8035 30.9304 57.036 30.5283C56.2686 30.108 55.4371 29.8979 54.5417 29.8979C53.628 29.8979 52.7875 30.108 52.02 30.5283C51.2708 30.9304 50.6677 31.5517 50.2109 32.3922C49.7541 33.2328 49.5256 34.2561 49.5256 35.4622C49.5256 36.6865 49.7449 37.719 50.1835 38.5595C50.6403 39.4001 51.2433 40.0306 51.9926 40.4508C52.7418 40.8529 53.5641 41.0539 54.4595 41.0539ZM82.041 33.1597C82.7354 33.2694 83.3659 33.5526 83.9323 34.0094C84.5171 34.4663 84.9739 35.0328 85.3029 35.7089C85.6501 36.385 85.8237 37.1068 85.8237 37.8743C85.8237 38.8428 85.577 39.7199 85.0836 40.5057C84.5902 41.2732 83.8684 41.8853 82.9182 42.3422C81.9862 42.7807 80.8807 43 79.6015 43H72.4749V23.8951H79.3274C80.6248 23.8951 81.7304 24.1143 82.6441 24.5529C83.5577 24.9732 84.243 25.5488 84.6998 26.2797C85.1567 27.0107 85.3851 27.833 85.3851 28.7467C85.3851 29.8796 85.0744 30.8207 84.4531 31.5699C83.8501 32.3009 83.0461 32.8308 82.041 33.1597ZM74.9692 32.1455H79.163C80.3325 32.1455 81.237 31.8714 81.8766 31.3232C82.5161 30.775 82.8359 30.0167 82.8359 29.0482C82.8359 28.0797 82.5161 27.3213 81.8766 26.7731C81.237 26.2249 80.3142 25.9508 79.1081 25.9508H74.9692V32.1455ZM79.3822 40.9442C80.6248 40.9442 81.5933 40.6519 82.2877 40.0671C82.9821 39.4824 83.3293 38.6692 83.3293 37.6276C83.3293 36.5677 82.9639 35.7363 82.2329 35.1333C81.502 34.512 80.5243 34.2013 79.3 34.2013H74.9692V40.9442H79.3822ZM91.6423 30.4187C92.0809 29.5598 92.7022 28.8929 93.5062 28.4177C94.3285 27.9426 95.3244 27.7051 96.494 27.7051V30.2816H95.8361C93.0403 30.2816 91.6423 31.7983 91.6423 34.8317V43H89.148V27.9792H91.6423V30.4187ZM105.787 43.2467C104.38 43.2467 103.101 42.9269 101.95 42.2873C100.817 41.6478 99.9215 40.7432 99.2637 39.5737C98.6241 38.3859 98.3043 37.0154 98.3043 35.4622C98.3043 33.9272 98.6332 32.575 99.2911 31.4055C99.9672 30.2177 100.881 29.3131 102.032 28.6919C103.183 28.0523 104.472 27.7325 105.897 27.7325C107.322 27.7325 108.611 28.0523 109.762 28.6919C110.913 29.3131 111.818 30.2086 112.475 31.3781C113.152 32.5476 113.49 33.9089 113.49 35.4622C113.49 37.0154 113.142 38.3859 112.448 39.5737C111.772 40.7432 110.849 41.6478 109.68 42.2873C108.51 42.9269 107.213 43.2467 105.787 43.2467ZM105.787 41.0539C106.683 41.0539 107.523 40.8437 108.309 40.4234C109.095 40.0031 109.725 39.3727 110.2 38.5321C110.694 37.6915 110.94 36.6682 110.94 35.4622C110.94 34.2561 110.703 33.2328 110.228 32.3922C109.753 31.5517 109.131 30.9304 108.364 30.5283C107.596 30.108 106.765 29.8979 105.87 29.8979C104.956 29.8979 104.115 30.108 103.348 30.5283C102.599 30.9304 101.996 31.5517 101.539 32.3922C101.082 33.2328 100.853 34.2561 100.853 35.4622C100.853 36.6865 101.073 37.719 101.511 38.5595C101.968 39.4001 102.571 40.0306 103.32 40.4508C104.07 40.8529 104.892 41.0539 105.787 41.0539ZM119.675 30.035V38.8885C119.675 39.6194 119.83 40.1402 120.141 40.4508C120.451 40.7432 120.99 40.8894 121.758 40.8894H123.594V43H121.347C119.958 43 118.916 42.6802 118.222 42.0406C117.528 41.4011 117.18 40.3503 117.18 38.8885V30.035H115.234V27.9792H117.18V24.1966H119.675V27.9792H123.594V30.035H119.675ZM133.935 27.7051C135.068 27.7051 136.091 27.9518 137.005 28.4452C137.919 28.9203 138.631 29.6421 139.143 30.6106C139.673 31.5791 139.938 32.7577 139.938 34.1465V43H137.471V34.5028C137.471 33.0044 137.096 31.8623 136.347 31.0765C135.598 30.2725 134.575 29.8705 133.277 29.8705C131.962 29.8705 130.911 30.2816 130.125 31.104C129.358 31.9263 128.974 33.1232 128.974 34.6947V43H126.479V22.7164H128.974V30.1172C129.467 29.3497 130.143 28.7558 131.002 28.3355C131.879 27.9152 132.857 27.7051 133.935 27.7051ZM157.58 34.914C157.58 35.3891 157.553 35.8916 157.498 36.4215H145.493C145.584 37.9017 146.086 39.0621 147 39.9026C147.932 40.7249 149.056 41.1361 150.372 41.1361C151.45 41.1361 152.345 40.8894 153.058 40.396C153.789 39.8844 154.3 39.2082 154.593 38.3677H157.279C156.877 39.8113 156.073 40.9899 154.867 41.9036C153.661 42.799 152.162 43.2467 150.372 43.2467C148.946 43.2467 147.667 42.9269 146.534 42.2873C145.419 41.6478 144.542 40.7432 143.903 39.5737C143.263 38.3859 142.943 37.0154 142.943 35.4622C142.943 33.9089 143.254 32.5476 143.875 31.3781C144.497 30.2086 145.365 29.3131 146.479 28.6919C147.612 28.0523 148.91 27.7325 150.372 27.7325C151.797 27.7325 153.058 28.0431 154.154 28.6644C155.251 29.2857 156.091 30.1446 156.676 31.241C157.279 32.3191 157.58 33.5435 157.58 34.914ZM155.004 34.3932C155.004 33.443 154.794 32.6298 154.373 31.9537C153.953 31.2593 153.378 30.7385 152.647 30.3913C151.934 30.0258 151.139 29.8431 150.262 29.8431C149.001 29.8431 147.923 30.2451 147.028 31.0491C146.15 31.8532 145.648 32.9678 145.52 34.3932H155.004ZM163.23 30.4187C163.669 29.5598 164.29 28.8929 165.094 28.4177C165.916 27.9426 166.912 27.7051 168.082 27.7051V30.2816H167.424C164.628 30.2816 163.23 31.7983 163.23 34.8317V43H160.736V27.9792H163.23V30.4187ZM174.059 23.8951L173.757 37.6002H171.674L171.372 23.8951H174.059ZM172.825 43.1645C172.35 43.1645 171.948 43 171.619 42.6711C171.29 42.3422 171.126 41.9401 171.126 41.465C171.126 40.9899 171.29 40.5879 171.619 40.259C171.948 39.9301 172.35 39.7656 172.825 39.7656C173.282 39.7656 173.666 39.9301 173.976 40.259C174.305 40.5879 174.47 40.9899 174.47 41.465C174.47 41.9401 174.305 42.3422 173.976 42.6711C173.666 43 173.282 43.1645 172.825 43.1645ZM182.086 23.8951L181.784 37.6002H179.701L179.399 23.8951H182.086ZM180.852 43.1645C180.377 43.1645 179.975 43 179.646 42.6711C179.317 42.3422 179.153 41.9401 179.153 41.465C179.153 40.9899 179.317 40.5879 179.646 40.259C179.975 39.9301 180.377 39.7656 180.852 39.7656C181.309 39.7656 181.693 39.9301 182.003 40.259C182.332 40.5879 182.497 40.9899 182.497 41.465C182.497 41.9401 182.332 42.3422 182.003 42.6711C181.693 43 181.309 43.1645 180.852 43.1645ZM190.113 23.8951L189.811 37.6002H187.728L187.427 23.8951H190.113ZM188.879 43.1645C188.404 43.1645 188.002 43 187.673 42.6711C187.344 42.3422 187.18 41.9401 187.18 41.465C187.18 40.9899 187.344 40.5879 187.673 40.259C188.002 39.9301 188.404 39.7656 188.879 39.7656C189.336 39.7656 189.72 39.9301 190.031 40.259C190.359 40.5879 190.524 40.9899 190.524 41.465C190.524 41.9401 190.359 42.3422 190.031 42.6711C189.72 43 189.336 43.1645 188.879 43.1645ZM198.14 23.8951L197.838 37.6002H195.755L195.454 23.8951H198.14ZM196.906 43.1645C196.431 43.1645 196.029 43 195.7 42.6711C195.372 42.3422 195.207 41.9401 195.207 41.465C195.207 40.9899 195.372 40.5879 195.7 40.259C196.029 39.9301 196.431 39.7656 196.906 39.7656C197.363 39.7656 197.747 39.9301 198.058 40.259C198.387 40.5879 198.551 40.9899 198.551 41.465C198.551 41.9401 198.387 42.3422 198.058 42.6711C197.747 43 197.363 43.1645 196.906 43.1645ZM206.167 23.8951L205.866 37.6002H203.782L203.481 23.8951H206.167ZM204.934 43.1645C204.458 43.1645 204.056 43 203.728 42.6711C203.399 42.3422 203.234 41.9401 203.234 41.465C203.234 40.9899 203.399 40.5879 203.728 40.259C204.056 39.9301 204.458 39.7656 204.934 39.7656C205.39 39.7656 205.774 39.9301 206.085 40.259C206.414 40.5879 206.578 40.9899 206.578 41.465C206.578 41.9401 206.414 42.3422 206.085 42.6711C205.774 43 205.39 43.1645 204.934 43.1645ZM214.194 23.8951L213.893 37.6002H211.81L211.508 23.8951H214.194ZM212.961 43.1645C212.486 43.1645 212.084 43 211.755 42.6711C211.426 42.3422 211.261 41.9401 211.261 41.465C211.261 40.9899 211.426 40.5879 211.755 40.259C212.084 39.9301 212.486 39.7656 212.961 39.7656C213.418 39.7656 213.801 39.9301 214.112 40.259C214.441 40.5879 214.605 40.9899 214.605 41.465C214.605 41.9401 214.441 42.3422 214.112 42.6711C213.801 43 213.418 43.1645 212.961 43.1645ZM222.221 23.8951L221.92 37.6002H219.837L219.535 23.8951H222.221ZM220.988 43.1645C220.513 43.1645 220.111 43 219.782 42.6711C219.453 42.3422 219.288 41.9401 219.288 41.465C219.288 40.9899 219.453 40.5879 219.782 40.259C220.111 39.9301 220.513 39.7656 220.988 39.7656C221.445 39.7656 221.828 39.9301 222.139 40.259C222.468 40.5879 222.632 40.9899 222.632 41.465C222.632 41.9401 222.468 42.3422 222.139 42.6711C221.828 43 221.445 43.1645 220.988 43.1645Z" fill="white"/>
<rect x="29.9277" y="0.494629" width="202.42" height="66.0106" stroke="#2FCC59" stroke-width="0.805851"/>
<path d="M252 20.1473C252 9.29342 243.201 0.494629 232.347 0.494629V0.494629V28.9392H252V20.1473Z" fill="#2FCC59" stroke="#2FCC59" stroke-width="0.805851"/>
<rect width="19.6526" height="9.12144" transform="matrix(-1 0 0 1 252 28.9392)" fill="#2FCC59" stroke="#2FCC59" stroke-width="0.805851"/>
<path d="M252 46.8527C252 57.7066 243.201 66.5054 232.347 66.5054V66.5054V38.0608H252V46.8527Z" fill="#2FCC59" stroke="#2FCC59" stroke-width="0.805851"/>
</svg>
