<svg width="20" height="16" viewBox="0 0 20 16" fill="none" xmlns="http://www.w3.org/2000/svg">
<path fill-rule="evenodd" clip-rule="evenodd" d="M11.0422 0.0660893C9.36791 -0.086555 8.12498 1.04788 8.12496 2.24905V2.74964C8.12496 4.07792 7.31656 4.87266 6.47809 5.36285C6.0678 5.60271 5.65269 5.76632 5.3299 5.87138C4.95107 5.35017 4.24544 4.99976 3.4375 4.99976H2.1875C0.979378 4.99976 0 5.78326 0 6.74976V14.2498C0 15.2163 0.979376 15.9998 2.1875 15.9998H3.4375C4.40588 15.9998 5.22729 15.4964 5.51516 14.7988C6.17077 14.8737 6.8493 15.0275 7.67169 15.2138L7.67192 15.2139C7.86139 15.2568 8.05848 15.3015 8.26469 15.3473C9.70714 15.6678 11.4407 15.9996 13.75 15.9996C15.8821 15.9996 17.462 15.8473 18.4019 14.8604C18.8433 14.3971 19.0731 13.8184 19.2379 13.1883C19.3845 12.6274 19.4976 11.9446 19.6285 11.1548L19.6792 10.8488C19.9906 8.98041 20.0105 7.53084 19.4435 6.53301C19.1385 5.99639 18.666 5.5904 18.0229 5.33287C17.405 5.08545 16.6914 4.99964 15.9375 4.99964H14.1596L14.1784 4.8873V4.88729C14.2655 4.36906 14.375 3.71789 14.375 3.24964C14.375 2.3281 14.1859 1.53102 13.5555 0.950213C12.9164 0.36121 11.9965 0.153092 11.0422 0.0660893ZM5.625 13.2985C6.50665 13.387 7.36319 13.5826 8.21513 13.7772H8.21514C8.39908 13.8192 8.5828 13.8612 8.76653 13.902C10.1366 14.2065 11.6842 14.4996 13.75 14.4996C15.9928 14.4996 16.6004 14.277 16.9105 13.9514C17.0941 13.7585 17.2549 13.4465 17.4026 12.8813C17.534 12.3789 17.637 11.7572 17.7708 10.9513L17.8206 10.6505C18.1344 8.76887 18.0575 7.71845 17.7366 7.15378C17.5975 6.90914 17.4185 6.76826 17.1836 6.67423C16.9235 6.57008 16.5329 6.49964 15.9375 6.49964H13.7495C12.893 6.49964 12.1313 5.92267 12.243 5.16372C12.2712 4.97238 12.3044 4.77474 12.3373 4.57828C12.4193 4.08983 12.5 3.60865 12.5 3.24964C12.5 2.44105 12.3195 2.09928 12.1397 1.9336C11.9688 1.77611 11.6379 1.63011 10.8299 1.55644C10.4465 1.52149 9.99996 1.79346 9.99996 2.24906V2.74964C9.99996 4.67136 8.77714 5.87662 7.58438 6.57393C6.9968 6.91744 6.4145 7.14082 5.98101 7.27864C5.84853 7.32077 5.7286 7.35533 5.625 7.38318V13.2985ZM3.4375 6.49976C3.61009 6.49976 3.75 6.61168 3.75 6.74976V13.9996V14.2498C3.75 14.3878 3.61009 14.4998 3.4375 14.4998H2.1875C2.01491 14.4998 1.875 14.3878 1.875 14.2498V6.74976C1.875 6.61168 2.01491 6.49976 2.1875 6.49976H3.4375Z" fill="#24292E"/>
</svg>
