<svg width="20" height="16" viewBox="0 0 20 16" fill="none" xmlns="http://www.w3.org/2000/svg">
<g clip-path="url(#clip0)">
<path fill-rule="evenodd" clip-rule="evenodd" d="M8.85362 15.9862C10.5279 16.1388 11.7708 15.0044 11.7709 13.8032V13.3026C11.7709 11.9743 12.5793 11.1796 13.4178 10.6894C13.828 10.4495 14.2431 10.2859 14.5659 10.1809C14.9448 10.7021 15.6504 11.0525 16.4583 11.0525H17.7083C18.9164 11.0525 19.8958 10.269 19.8958 9.30249V1.80249C19.8958 0.835992 18.9164 0.0524904 17.7083 0.0524903L16.4583 0.0524902C15.4899 0.0524901 14.6685 0.555885 14.3806 1.25342C13.725 1.17854 13.0465 1.02479 12.2241 0.838435L12.2239 0.83838C12.0344 0.79545 11.8373 0.75079 11.6311 0.704966C10.1887 0.38442 8.45508 0.0526041 6.14585 0.0526039C4.01364 0.0526038 2.43378 0.204941 1.4939 1.19182C1.05261 1.65518 0.822646 2.23381 0.657912 2.8639C0.511253 3.42487 0.398181 4.1076 0.267376 4.89742L0.267368 4.89746L0.216577 5.20347C-0.0948348 7.07183 -0.114681 8.52141 0.452338 9.51924C0.757273 10.0559 1.22983 10.4618 1.87298 10.7194C2.49087 10.9668 3.20448 11.0526 3.95835 11.0526H5.73624L5.7174 11.1649L5.71739 11.165C5.63029 11.6832 5.52085 12.3344 5.52085 12.8026C5.52085 13.7241 5.70994 14.5212 6.34027 15.102C6.97948 15.691 7.89932 15.8992 8.85362 15.9862ZM14.2708 2.75375C13.3891 2.66528 12.5326 2.46964 11.6807 2.27505H11.6807C11.4967 2.23303 11.313 2.19107 11.1293 2.15024C9.75925 1.84579 8.21163 1.5526 6.14585 1.5526C3.90308 1.5526 3.29545 1.77527 2.98534 2.10088C2.80163 2.29378 2.64097 2.60577 2.4932 3.17099C2.36188 3.6733 2.25877 4.29501 2.1251 5.10092L2.07513 5.40173C1.7615 7.28338 1.83837 8.3338 2.15924 8.89847C2.29825 9.1431 2.47737 9.28398 2.7122 9.37802C2.97229 9.48216 3.363 9.5526 3.95835 9.5526H6.14632C7.00275 9.5526 7.76454 10.1296 7.65278 10.8885C7.6246 11.0799 7.59145 11.2775 7.5585 11.474C7.47657 11.9624 7.39585 12.4436 7.39585 12.8026C7.39585 13.6112 7.5763 13.953 7.7561 14.1186C7.92702 14.2761 8.25788 14.4221 9.06592 14.4958C9.44929 14.5308 9.89584 14.2588 9.89585 13.8032V13.3026C9.89585 11.3809 11.1187 10.1756 12.3114 9.47831C12.899 9.13481 13.4813 8.91143 13.9148 8.7736C14.0473 8.73148 14.1673 8.69692 14.2708 8.66906V2.75375ZM16.4583 9.55249C16.2858 9.55249 16.1458 9.44056 16.1458 9.30249V2.0526V1.80249C16.1458 1.66442 16.2858 1.55249 16.4583 1.55249H17.7083C17.8809 1.55249 18.0208 1.66442 18.0208 1.80249V9.30249C18.0208 9.44056 17.8809 9.55249 17.7083 9.55249H16.4583Z" fill="#24292E"/>
</g>
<defs>
<clipPath id="clip0">
<rect width="20" height="16" fill="white"/>
</clipPath>
</defs>
</svg>
