<?xml version="1.0" standalone="no"?>
<!DOCTYPE svg PUBLIC "-//W3C//DTD SVG 20010904//EN"
 "http://www.w3.org/TR/2001/REC-SVG-20010904/DTD/svg10.dtd">
<svg version="1.0" xmlns="http://www.w3.org/2000/svg"
 width="418.000000pt" height="397.000000pt" viewBox="0 0 418.000000 397.000000"
 preserveAspectRatio="xMidYMid meet">

<g transform="translate(0.000000,397.000000) scale(0.100000,-0.100000)"
fill="#000000" stroke="none">
<path d="M1790 3739 c-123 -20 -187 -31 -215 -40 -78 -23 -164 -52 -202 -70
-24 -10 -45 -19 -49 -19 -13 0 -147 -69 -237 -122 -135 -80 -214 -143 -342
-272 -94 -95 -235 -264 -235 -282 0 -3 -13 -24 -29 -47 -66 -98 -158 -299
-192 -422 -68 -249 -86 -405 -70 -620 16 -209 31 -295 85 -465 125 -398 433
-787 786 -994 43 -25 184 -95 260 -129 50 -22 157 -56 243 -76 110 -26 135
-31 191 -41 77 -13 405 -13 482 0 121 21 244 52 364 91 98 32 293 129 400 199
52 35 97 65 100 69 3 3 28 24 55 45 78 62 215 206 293 309 40 52 72 97 72 101
0 4 13 26 29 49 23 34 105 198 141 282 21 49 60 180 79 265 32 148 36 185 35
375 0 184 -5 238 -35 390 -15 77 -56 216 -79 270 -5 11 -17 40 -27 65 -96 238
-304 520 -503 680 -30 25 -57 47 -60 51 -21 25 -185 125 -300 182 -196 99
-342 144 -567 177 -85 12 -394 11 -473 -1z m736 -523 c11 -16 14 -62 14 -213
0 -191 0 -194 -24 -218 -13 -13 -42 -29 -65 -35 l-41 -11 0 -670 c0 -629 1
-670 18 -675 9 -3 25 -10 34 -15 10 -5 24 -9 32 -9 8 0 22 -10 30 -22 13 -18
16 -56 16 -209 0 -103 -3 -195 -6 -204 -16 -41 -49 -45 -361 -45 -279 0 -300
1 -330 20 l-33 20 0 185 c0 179 -1 185 -20 185 -11 0 -25 -10 -31 -23 -10 -20
-88 -87 -102 -87 -4 0 -7 9 -7 20 0 12 18 31 48 51 26 18 49 35 52 38 3 3 30
25 61 49 38 29 66 42 87 42 l32 0 -2 676 -3 676 -45 15 c-25 8 -51 22 -57 31
-10 11 -13 72 -13 218 0 199 0 203 23 219 19 14 64 15 350 13 312 -3 329 -4
343 -22z m-928 -238 c-5 -14 -65 -58 -79 -58 -16 0 -9 17 17 44 27 27 69 36
62 14z m126 3 c6 -9 -188 -161 -205 -161 -5 0 -9 6 -9 13 0 14 25 38 80 77 19
13 37 27 40 30 13 15 66 49 77 50 6 0 14 -4 17 -9z m26 -75 c0 -14 -25 -38
-80 -76 -19 -13 -37 -27 -40 -30 -3 -3 -21 -17 -40 -30 -19 -13 -41 -30 -48
-37 -17 -16 -32 -17 -32 0 0 20 10 29 115 107 55 41 102 78 103 83 5 11 22 -2
22 -17z m0 -94 c0 -19 -206 -182 -229 -182 -23 0 -9 30 27 57 20 15 39 30 42
33 3 3 21 17 40 30 19 13 37 27 40 30 10 11 65 49 73 50 4 0 7 -8 7 -18z m20
-91 c0 -8 -153 -128 -212 -165 -36 -23 -51 -1 -17 26 13 11 31 25 39 31 8 7
31 23 50 37 19 13 37 27 40 30 29 34 100 63 100 41z m80 -40 c-1 -12 -235
-181 -251 -181 -13 0 -11 20 4 33 48 47 220 165 232 160 8 -3 15 -8 15 -12z
m30 -58 c0 -5 -4 -13 -8 -18 -13 -19 -199 -155 -211 -155 -29 0 1 33 94 104
92 69 125 88 125 69z m0 -103 c0 -11 -207 -170 -220 -170 -6 0 -10 8 -9 18 0
10 43 49 106 94 95 71 123 84 123 58z m0 -94 c0 -8 -15 -25 -32 -37 -18 -13
-35 -26 -38 -29 -3 -3 -21 -17 -40 -30 -19 -13 -37 -27 -40 -30 -8 -10 -68
-50 -74 -50 -3 0 -6 8 -6 18 0 17 194 170 218 171 6 1 12 -5 12 -13z m-10
-111 c-14 -17 -207 -165 -215 -165 -3 0 -5 8 -5 18 0 24 211 185 224 172 6 -6
4 -16 -4 -25z m5 -85 c0 -14 -198 -170 -216 -170 -29 0 3 37 89 101 53 41 99
78 101 82 5 12 26 2 26 -13z m5 -90 c0 -6 -12 -21 -27 -35 -50 -44 -194 -147
-200 -142 -14 15 17 49 105 114 94 70 122 84 122 63z m0 -97 c0 -15 -17 -30
-120 -107 -84 -63 -106 -75 -109 -61 -2 11 10 28 30 44 18 14 62 49 98 78 60
47 101 65 101 46z m-2 -100 c-3 -17 -202 -173 -221 -173 -27 0 10 42 98 111
102 79 129 93 123 62z m2 -91 c0 -5 -12 -20 -27 -33 -39 -36 -188 -149 -196
-149 -4 0 -7 8 -7 18 0 9 19 31 42 47 22 17 68 51 101 78 56 44 87 58 87 39z
m-30 -133 c-51 -44 -189 -149 -195 -149 -3 0 -5 8 -5 18 0 25 211 185 225 171
7 -7 -1 -20 -25 -40z m30 -63 c0 -14 -183 -160 -216 -173 -12 -4 -15 -1 -12
13 3 19 194 173 216 174 6 0 12 -6 12 -14z m0 -93 c0 -15 -16 -30 -100 -93
-47 -36 -91 -71 -98 -77 -19 -18 -32 -16 -32 5 0 12 38 47 103 95 94 71 127
89 127 70z m0 -102 c0 -9 -191 -158 -215 -167 -9 -4 -15 0 -15 9 0 19 187 165
213 166 9 1 17 -3 17 -8z m-132 -288 c-3 -16 -214 -183 -230 -183 -18 0 -6 34
19 54 63 49 199 145 206 146 5 0 7 -8 5 -17z m2 -96 c0 -14 -211 -177 -229
-177 -32 0 1 37 97 108 107 81 132 94 132 69z m0 -101 c0 -8 -12 -22 -27 -32
-16 -9 -64 -44 -107 -77 -90 -67 -106 -75 -106 -54 0 16 16 29 145 125 78 58
95 65 95 38z m0 -90 c0 -15 -210 -176 -229 -176 -30 0 2 34 103 109 59 45 112
81 117 81 5 0 9 -6 9 -14z m60 -58 c-1 -16 -213 -172 -240 -176 -37 -6 -22 15
40 58 19 13 37 27 40 30 3 3 34 27 68 53 64 47 92 58 92 35z m128 0 c-7 -20
-221 -178 -241 -178 -10 0 -17 4 -15 10 2 5 54 48 116 95 106 79 149 102 140
73z m132 3 c0 -6 -35 -36 -77 -68 -43 -31 -80 -60 -83 -63 -19 -23 -74 -51
-93 -48 -18 3 2 21 101 96 115 86 152 106 152 83z m130 0 c0 -17 -227 -181
-249 -181 -12 0 -21 3 -21 8 1 7 91 75 198 150 47 32 72 40 72 23z m50 -55 c0
-23 -146 -128 -172 -124 -19 2 -8 14 66 71 93 70 106 76 106 53z m-20 -106
c-6 -11 -17 -20 -25 -20 -20 0 -19 10 3 26 25 19 34 17 22 -6z"/>
</g>
</svg>
