<svg width="24" height="25" viewBox="0 0 24 25" fill="none" xmlns="http://www.w3.org/2000/svg">
<path d="M2.66224 22.2498L1.66224 22.2498C1.66226 22.8021 2.10995 23.2498 2.66222 23.2498L2.66224 22.2498ZM6.90475 22.2499L6.90473 23.2499C7.16996 23.2499 7.42432 23.1446 7.61186 22.957L6.90475 22.2499ZM22.4611 6.69356L23.1682 7.40066C23.3557 7.21313 23.4611 6.95877 23.4611 6.69356C23.4611 6.42834 23.3557 6.17399 23.1682 5.98645L22.4611 6.69356ZM18.2185 2.45093L18.9256 1.74382C18.535 1.3533 17.9019 1.3533 17.5113 1.74382L18.2185 2.45093ZM2.66211 18.0073L1.955 17.3002C1.76746 17.4877 1.6621 17.7421 1.66211 18.0073L2.66211 18.0073ZM14.6829 5.98645C14.2924 5.59593 13.6592 5.59593 13.2687 5.98645C12.8782 6.37698 12.8782 7.01014 13.2687 7.40066L14.6829 5.98645ZM17.5113 11.6433C17.9019 12.0338 18.535 12.0338 18.9256 11.6433C19.3161 11.2528 19.3161 10.6196 18.9256 10.2291L17.5113 11.6433ZM2.66222 23.2498L6.90473 23.2499L6.90478 21.2499L2.66226 21.2498L2.66222 23.2498ZM7.61186 22.957L23.1682 7.40066L21.754 5.98645L6.19765 21.5428L7.61186 22.957ZM23.1682 5.98645L18.9256 1.74382L17.5113 3.15804L21.754 7.40067L23.1682 5.98645ZM17.5113 1.74382L1.955 17.3002L3.36922 18.7144L18.9256 3.15803L17.5113 1.74382ZM1.66211 18.0073L1.66224 22.2498L3.66224 22.2498L3.66211 18.0072L1.66211 18.0073ZM13.2687 7.40066L17.5113 11.6433L18.9256 10.2291L14.6829 5.98645L13.2687 7.40066Z" fill="white"/>
</svg>
